<svg xmlns="http://www.w3.org/2000/svg" xmlns:xlink="http://www.w3.org/1999/xlink" viewBox="0 0 170 68"><defs><path id="a" d="M134.6 33.9h27.1v31.3h-27.1z"/></defs><clipPath id="b"><use xlink:href="#a" overflow="visible"/></clipPath><g clip-path="url(#b)"><path fill="#006790" d="M158.2 62.4h-37.4s-12.6.6-14.1-2.2c-.8-1.5-.3-4.4-.3-5.3 0-.9.6-2 .6-3.4s.9-2.4 2.2-3.6c1.3-1.3 3-3.5 6.6-4 4.4-.5 6.9-1 14.5-1h5.3c1.6 0 3 .1 5.9 1.4 2.9 1.2 10.2 5.3 10.2 5.3s5.8 1.1 7.5 2.8c.8.6 1.1 1.2 1 2.4 1 .6 1.5 1.1 1.5 2.8v3.5c0 .5.2.4-1.2.8-1.5.6-1.3.5-2.3.5z"/><circle fill="#4595d4" stroke="#FFF" stroke-width="1.462" stroke-miterlimit="10" cx="115.1" cy="60.4" r="4.8"/><circle fill="#FFF" cx="115.1" cy="60.4" r="1.1"/><circle fill="#4595d4" stroke="#FFF" stroke-width="1.462" stroke-miterlimit="10" cx="152.8" cy="60.4" r="4.8"/><circle fill="#FFF" cx="152.8" cy="60.4" r="1.1"/><path fill="#FFF" d="M145.3 51s-22.2-.5-23.1-.5c-.8 0-3.1-1.4-4.5-1.4s-6-.3-6-.3.7-.9 1.3-1.4c.8-.8 1.4-1 1.4-1s2.5-.2 3.4-.2c.9 0 4.3-1.7 9-1.7h8.3c2 0 5 .2 9.4 3.5.5 1.5.8 3 .8 3z"/><path fill="#006790" d="M131.1 44.1c0 .1.9 7.3.9 7.3l-1.4.7h-.8l-.8-8h2.1zm-9.3.3l-.8 7-1.1-.9.6-5.7z"/><path fill="#FFF" d="M160.1 54.9c-1.2 0-2.8-1.1-3.4-2.7 1.3.1 2.7.7 3.1 1.2.4.7.3 1.5.3 1.5z"/></g><path fill="none" stroke="#0077b5" stroke-width="2" stroke-miterlimit="10" d="M.3 66.8h170M62.1 1h43.4v65.8H62.1z"/><path fill="#0077b5" d="M69.8 38.8h28.1v28H69.8zm35.5 0h17.9v28h-17.9zm-60.8 0h10.6v28H44.5z"/><path fill="none" stroke="#0077b5" stroke-width="2" stroke-miterlimit="10" d="M62.1 29.4h43.5m-72 37.4v-37h21.5m50.4 0h28.4v37h-28.4z"/><path fill="#0077b5" d="M72 16h23.7v8.4H72z"/><path fill="none" stroke="#0077b5" stroke-width="2" stroke-miterlimit="10" d="M62.1 8.9h43.5"/><g fill="none" stroke-miterlimit="10"><path stroke="#FFF" stroke-width="3.628" d="M123 18.4v47.8"/><path stroke="#0077b5" stroke-width="2.02" d="M125.2 17.8v48.4"/></g><path fill="#0077b5" d="M110.6 3.6h28.5v14.8h-28.5z"/><path fill="none" stroke="#FFF" stroke-width="2" stroke-miterlimit="10" d="M83.8 36.9v28.3"/></svg>