<svg xmlns="http://www.w3.org/2000/svg" width="97" height="95.945" viewBox="518.43 525.126 97 95.945"><path d="M530.946 588.216c-6.901 0-12.516 5.615-12.516 12.517 0 3.803 1.74 7.393 4.693 9.763v10.576h15.646v-10.576a12.533 12.533 0 0 0 4.693-9.763c0-6.902-5.615-12.517-12.516-12.517zm0 15.645c-1.729 0-3.129-1.4-3.129-3.129s1.4-3.129 3.129-3.129 3.129 1.4 3.129 3.129-1.4 3.129-3.129 3.129zm35.984-15.645c-6.901 0-12.516 5.615-12.516 12.517 0 3.803 1.74 7.393 4.693 9.763v10.576h15.645v-10.576a12.534 12.534 0 0 0 4.694-9.763c.001-6.902-5.615-12.517-12.516-12.517zm0 15.645c-1.729 0-3.129-1.4-3.129-3.129s1.4-3.129 3.129-3.129 3.129 1.4 3.129 3.129-1.401 3.129-3.129 3.129zm35.983-15.645c-6.9 0-12.516 5.615-12.516 12.517 0 3.803 1.739 7.393 4.693 9.763v10.576h15.646v-10.576a12.533 12.533 0 0 0 4.693-9.763c.001-6.902-5.614-12.517-12.516-12.517zm0 15.645c-1.729 0-3.129-1.4-3.129-3.129s1.4-3.129 3.129-3.129a3.129 3.129 0 1 1 0 6.258z" fill="#D1DCE0"/><path d="M521.559 617.941h18.774v3.13h-18.774zm10.951-12.803c1.816-.647 3.129-2.368 3.129-4.405 0-2.588-2.106-4.693-4.694-4.693s-4.693 2.105-4.693 4.693c0 2.037 1.313 3.758 3.129 4.405v6.546h-7.823v3.129h18.774v-3.129h-7.823v-6.546zm-1.564-5.97a1.564 1.564 0 1 1 0 3.127 1.564 1.564 0 0 1 0-3.127zm26.597 18.773h18.774v3.13h-18.774zm10.951-12.803c1.816-.647 3.129-2.368 3.129-4.405 0-2.588-2.105-4.693-4.693-4.693s-4.693 2.105-4.693 4.693c0 2.037 1.313 3.758 3.129 4.405v6.546h-7.823v3.129h18.774v-3.129h-7.822v-6.546zm-1.564-5.97a1.564 1.564 0 1 1 0 3.129 1.564 1.564 0 0 1 0-3.129zm37.549 12.516v-6.546c1.816-.647 3.129-2.368 3.129-4.405a4.699 4.699 0 0 0-4.694-4.693 4.699 4.699 0 0 0-4.693 4.693c0 2.037 1.313 3.758 3.13 4.405v6.546h-7.823v3.129h18.774v-3.129h-7.823zm-1.566-12.516a1.565 1.565 0 1 1 0 3.13 1.565 1.565 0 0 1 0-3.13zm-9.386 18.773h18.774v3.13h-18.774zm-.069-46.513c-1.042 0-2.063-.088-3.061-.252v13.159h6.258a4.7 4.7 0 0 1 4.694 4.694h3.129c0-4.313-3.51-7.823-7.823-7.823h-3.129v-9.779l-.068.001zm-28.093 12.605v4.996h3.129v-7.488a15.752 15.752 0 0 1-3.129 2.492zm-25.032-7.731v4.904h-3.129c-4.313 0-7.823 3.51-7.823 7.823h3.129a4.7 4.7 0 0 1 4.694-4.694h6.258v-6.182a15.71 15.71 0 0 1-.976-2.138c-.7.148-1.419.245-2.153.287z" fill="#0077B5"/><path fill="#0077B5" d="M593.527 571.427c10.375-.037 18.774-8.532 18.774-19.007 0-10.497-8.437-19.007-18.843-19.007-2.713 0-5.291.58-7.621 1.62-2.681-4.776-7.714-7.992-13.483-7.992-4.341 0-8.265 1.822-11.083 4.758a16.955 16.955 0 0 0-13.498-6.671c-9.375 0-16.975 7.59-16.975 16.952 0 2.396.499 4.675 1.396 6.742a14.76 14.76 0 0 0-7.294 12.768c0 8.14 6.531 14.739 14.587 14.739a14.789 14.789 0 0 0 2.998-.311c.273.74.6 1.454.976 2.138 2.675 4.857 7.839 8.148 13.771 8.148 2.977 0 5.759-.829 8.132-2.269a15.81 15.81 0 0 0 6.333-7.307 13.694 13.694 0 0 0 6.025 1.387c5.164 0 9.662-2.845 12.022-7.055a18.843 18.843 0 0 0 3.712.37l.071-.003z"/><path fill="#FFF" d="M537.559 556.85c-.056.144.019.174.037.198.165.119.33.206.499.302.891.473 1.734.61 2.614.61 1.793 0 2.907-.953 2.907-2.488v-.029c0-1.42-1.257-1.936-2.435-2.309l-.154-.049c-.889-.289-1.656-.538-1.656-1.124v-.03c0-.5.448-.87 1.143-.87a5.17 5.17 0 0 1 2.278.583s.174.112.237-.057c.035-.091.333-.894.365-.981.033-.094-.026-.164-.088-.201-.674-.41-1.605-.69-2.569-.69l-.178.001c-1.642 0-2.788.992-2.788 2.412v.03c0 1.497 1.264 1.983 2.448 2.321l.19.059c.863.265 1.607.493 1.607 1.1v.031c0 .555-.484.969-1.263.969a4.233 4.233 0 0 1-2.31-.664c-.125-.075-.198-.127-.295-.187-.051-.032-.18-.087-.236.081l-.353.982zm26.246 0c-.055.144.019.174.037.198.165.119.33.206.499.302.891.473 1.734.61 2.614.61 1.793 0 2.907-.953 2.907-2.488v-.029c0-1.42-1.258-1.936-2.435-2.309l-.154-.049c-.889-.289-1.656-.538-1.656-1.124v-.03c0-.5.448-.87 1.143-.87a5.17 5.17 0 0 1 2.278.583s.175.112.237-.057c.035-.091.333-.894.365-.981.033-.094-.026-.164-.088-.201-.674-.41-1.604-.69-2.569-.69l-.178.001c-1.642 0-2.788.992-2.788 2.412v.03c0 1.497 1.265 1.983 2.448 2.321l.19.059c.863.265 1.608.493 1.608 1.1v.031c0 .555-.484.969-1.264.969a4.236 4.236 0 0 1-2.31-.664c-.125-.075-.2-.125-.295-.187-.032-.021-.184-.08-.235.081l-.354.982zm19.414-4.616a3.589 3.589 0 0 0-.681-1.3 3.282 3.282 0 0 0-1.149-.874c-.457-.213-.997-.323-1.604-.323-.607 0-1.148.109-1.605.323s-.844.507-1.148.875a3.592 3.592 0 0 0-.681 1.299 5.681 5.681 0 0 0-.221 1.608c0 .573.074 1.115.221 1.608.146.496.375.934.681 1.3.305.366.692.659 1.15.867.457.208.996.313 1.604.313.606 0 1.145-.105 1.604-.313a3.213 3.213 0 0 0 1.149-.867c.305-.365.534-.803.681-1.3a5.681 5.681 0 0 0 .221-1.608 5.722 5.722 0 0 0-.222-1.608m-1.496 1.609c0 .867-.162 1.552-.48 2.035-.316.478-.793.711-1.457.711-.665 0-1.139-.234-1.45-.711-.314-.483-.474-1.167-.474-2.035 0-.866.159-1.549.473-2.027.313-.473.786-.703 1.451-.703.664 0 1.141.23 1.457.703.318.477.48 1.161.48 2.027"/><path fill-rule="evenodd" clip-rule="evenodd" fill="#FFF" d="M595.509 556.356c-.049-.146-.192-.09-.192-.09a3.453 3.453 0 0 1-.695.198c-.25.04-.524.059-.82.059-.723 0-1.3-.215-1.712-.641-.412-.426-.645-1.115-.643-2.046.003-.846.207-1.483.575-1.97.364-.483.92-.731 1.66-.731.616 0 1.088.072 1.581.226 0 0 .118.051.174-.103.132-.365.229-.623.368-1.022.04-.114-.058-.162-.094-.176-.193-.076-.65-.2-.998-.253a7.575 7.575 0 0 0-1.122-.075c-.628 0-1.188.108-1.668.321a3.445 3.445 0 0 0-1.206.872 3.694 3.694 0 0 0-.727 1.3 5.147 5.147 0 0 0-.244 1.612c0 1.241.334 2.244.995 2.978.663.739 1.657 1.112 2.955 1.112.767 0 1.553-.156 2.119-.378 0 0 .107-.052.061-.178l-.367-1.015zm7.656-4.403a3.176 3.176 0 0 0-.647-1.186c-.326-.352-.646-.598-.962-.734a3.7 3.7 0 0 0-1.452-.294c-.632 0-1.206.106-1.673.325a3.337 3.337 0 0 0-1.166.891 3.674 3.674 0 0 0-.686 1.315 5.676 5.676 0 0 0-.223 1.616c0 .584.077 1.129.23 1.617.154.494.4.927.733 1.289.334.362.762.645 1.274.844.51.196 1.129.299 1.839.296 1.463-.004 2.234-.33 2.551-.506.057-.032.109-.086.044-.243l-.333-.928c-.05-.137-.189-.087-.189-.087-.363.135-.877.376-2.08.374-.786-.001-1.368-.232-1.732-.596-.374-.37-.559-.915-.59-1.684l5.065.003s.134-.001.147-.132c.007-.053.175-1.039-.15-2.18m-5.038 1.058c.072-.482.204-.882.41-1.194.309-.474.782-.736 1.447-.736s1.104.262 1.419.736c.21.313.301.729.337 1.196l-3.613-.002zm-35.533-1.058a3.162 3.162 0 0 0-.647-1.186c-.327-.352-.645-.598-.962-.734a3.698 3.698 0 0 0-1.45-.294c-.633 0-1.208.106-1.674.325a3.341 3.341 0 0 0-1.167.891 3.674 3.674 0 0 0-.686 1.315 5.676 5.676 0 0 0-.222 1.616c0 .584.077 1.129.23 1.617.154.494.4.927.733 1.289.334.362.762.645 1.274.844.51.196 1.129.299 1.839.296 1.463-.004 2.234-.33 2.551-.506.057-.032.109-.086.044-.243l-.333-.928c-.05-.137-.19-.087-.19-.087-.363.135-.877.376-2.08.374-.785-.001-1.368-.232-1.733-.596-.374-.37-.559-.915-.59-1.684l5.065.003s.134-.001.148-.132c.006-.053.175-1.039-.15-2.18m-5.038 1.058c.072-.482.204-.882.408-1.194.313-.474.784-.736 1.449-.736s1.104.262 1.421.736c.208.313.299.729.335 1.196l-3.613-.002z"/><path fill="#FFF" d="M548.621 552.769a11.242 11.242 0 0 0-.79-.023c-.434 0-.854.054-1.249.161a3.267 3.267 0 0 0-1.057.489 2.438 2.438 0 0 0-.734.836c-.18.334-.271.727-.271 1.166 0 .45.077.839.233 1.157.154.32.376.587.66.793.281.205.629.355 1.031.447.398.091.849.138 1.342.138a9.23 9.23 0 0 0 1.539-.129 27.887 27.887 0 0 0 1.275-.248c.168-.039.354-.09.354-.09.126-.032.116-.166.116-.166l-.002-4.632c0-1.018-.271-1.77-.804-2.237-.532-.465-1.315-.7-2.328-.7-.38 0-.99.051-1.357.125 0 0-1.106.214-1.561.572 0 0-.1.062-.046.202l.358.963c.045.125.167.082.167.082s.039-.016.083-.042c.974-.529 2.207-.514 2.207-.514.547 0 .969.112 1.252.328.276.213.416.532.416 1.207v.215c-.433-.064-.834-.1-.834-.1m-2.015 3.56c-.199-.158-.226-.198-.292-.3-.102-.156-.153-.377-.153-.659 0-.444.148-.766.452-.98-.002 0 .437-.38 1.47-.366a10.24 10.24 0 0 1 1.376.117v2.303s-.644.137-1.368.181c-1.03.062-1.489-.298-1.485-.296"/><path fill-rule="evenodd" clip-rule="evenodd" fill="#FFF" d="M589.481 550.159a.137.137 0 0 0-.076-.182 4.615 4.615 0 0 0-.849-.146c-.637-.039-.99.068-1.307.211-.314.141-.662.371-.855.632l-.001-.618c0-.085-.061-.153-.146-.153h-1.299c-.084 0-.145.068-.145.153v7.557c0 .085.067.153.154.153h1.33a.152.152 0 0 0 .153-.153v-3.775c0-.508.057-1.012.168-1.33.109-.315.258-.565.443-.745.185-.18.396-.306.627-.376.235-.072.495-.096.678-.096.267 0 .557.069.557.069.099.01.153-.05.187-.138.087-.231.335-.926.381-1.063m-12.492-3.502a3.86 3.86 0 0 0-1.19-.172c-.915 0-1.638.259-2.145.771-.504.507-.847 1.281-1.019 2.297l-.062.343h-1.149s-.142-.005-.17.148l-.189 1.053c-.014.1.03.163.165.163h1.12l-1.137 6.34c-.089.51-.19.93-.304 1.249-.11.315-.22.55-.353.721-.13.165-.252.288-.464.358a1.905 1.905 0 0 1-.597.085c-.122 0-.285-.021-.405-.045-.121-.023-.184-.05-.274-.087 0 0-.131-.05-.184.081-.041.107-.339.928-.375 1.03-.035.1.015.179.079.202.148.053.259.087.462.135.283.067.521.071.742.071.467 0 .892-.065 1.244-.192a2.36 2.36 0 0 0 .937-.653c.294-.326.48-.668.657-1.134.176-.461.325-1.034.445-1.702l1.142-6.458h1.668s.142.005.17-.148l.188-1.053c.013-.1-.029-.163-.164-.163h-1.62c.008-.036.081-.606.268-1.142.079-.23.229-.413.355-.541.123-.125.268-.213.424-.265.16-.051.343-.077.543-.077.153 0 .302.018.417.041.156.034.218.051.26.063.164.051.186.002.219-.077l.387-1.063c.04-.116-.056-.165-.091-.179m-22.632 10.956c0 .085-.061.154-.146.154h-1.344c-.084 0-.145-.069-.145-.154v-10.812c0-.084.061-.153.145-.153h1.344c.085 0 .146.068.146.153v10.812z"/></svg>