<svg xmlns="http://www.w3.org/2000/svg" width="55" height="55" viewBox="0 0 55 55"><circle fill="#FFF" cx="27.5" cy="27.5" r="27"/><path fill="#AFAFAF" d="M27.5 55C12.336 55 0 42.664 0 27.5S12.336 0 27.5 0 55 12.336 55 27.5 42.664 55 27.5 55zm0-54C12.888 1 1 12.888 1 27.5S12.888 54 27.5 54 54 42.112 54 27.5 42.112 1 27.5 1z"/><path fill="#3C4249" d="M30.407 26.934l-4.694-4.692c-.29-.289-.825-.291-1.118 0a.788.788 0 0 0 0 1.117l4.135 4.134-4.135 4.134a.786.786 0 0 0 .001 1.117c.148.147.35.232.558.232a.78.78 0 0 0 .557-.232l4.69-4.69a.79.79 0 0 0 .006-1.12z"/></svg>