<svg xmlns="http://www.w3.org/2000/svg" width="45" height="45.001" viewBox="0 0 45 45.001"><path fill="#E0E1E7" d="M43.502 23.905l1.449.095c.032-.495.049-1 .049-1.5h-1.452c0 .472-.015.94-.046 1.405zM6.698 36.407l-1.088.961a22.848 22.848 0 0 0 2.08 2.072l.956-1.093a21.354 21.354 0 0 1-1.948-1.94zm3.327 4.822a22.538 22.538 0 0 0 2.547 1.469l.641-1.303a20.833 20.833 0 0 1-2.382-1.375l-.806 1.209zm5.266 2.592a22.45 22.45 0 0 0 2.843.756l.28-1.424a20.908 20.908 0 0 1-2.659-.708l-.464 1.376zm24.703-9.612l1.206.808a22.44 22.44 0 0 0 1.474-2.545l-1.301-.644a21.129 21.129 0 0 1-1.379 2.381zM1.863 26.666l-1.423.285c.192.957.45 1.912.766 2.837l1.374-.469a20.958 20.958 0 0 1-.717-2.653zm.475 5.834a22.42 22.42 0 0 0 1.477 2.54l1.205-.81a21.18 21.18 0 0 1-1.381-2.377l-1.301.647zm18.803 11.005l-.093 1.45a23.27 23.27 0 0 0 2.938-.002l-.095-1.448c-.908.058-1.84.059-2.75 0zM42.429 29.29l1.375.468c.315-.923.572-1.88.763-2.841l-1.424-.284a20.991 20.991 0 0 1-.714 2.657zM26.618 43.146l.283 1.423c.958-.19 1.914-.445 2.84-.76l-.467-1.375c-.865.295-1.759.534-2.656.712zm9.754-4.813l.957 1.092a22.767 22.767 0 0 0 2.079-2.077l-1.091-.958a21.616 21.616 0 0 1-1.945 1.943zm-4.561 3.051l.643 1.301a22.59 22.59 0 0 0 2.543-1.471l-.807-1.206c-.762.509-1.562.971-2.379 1.376zM1.452 22.5c0-11.606 9.442-21.048 21.048-21.048 3.734 0 7.352.981 10.548 2.837l-2.108.843.539 1.348 4.085-1.634V.726h-1.452v2.515A22.383 22.383 0 0 0 22.5 0C10.094 0 0 10.094 0 22.5c0 .5.017 1.005.049 1.5l1.448-.095a21.81 21.81 0 0 1-.045-1.405z"/><g fill="#E0E1E7"><circle cx="42.823" cy="7.984" r=".726"/><path d="M42.823 9.29c-.72 0-1.306-.585-1.306-1.305s.585-1.306 1.306-1.306a1.307 1.307 0 0 1 0 2.611zm0-1.452a.148.148 0 0 0-.146.147c0 .158.292.158.292 0a.148.148 0 0 0-.146-.147z"/></g><path fill="#E0E1E7" d="M21.774 14.485c-2.187-.11-4.165-.693-5.826-1.427 1.838-3.597 4.399-5.713 5.826-6.685v8.112zm-7.096-2.045a20.577 20.577 0 0 1-3.412-2.271 16.644 16.644 0 0 1 8.609-4.151 20.433 20.433 0 0 0-5.197 6.422zm-.623 1.331c-.946 2.217-1.608 4.872-1.699 8.004H5.824A16.638 16.638 0 0 1 10.229 11.2a21.29 21.29 0 0 0 3.826 2.571zm-1.7 9.455c.09 3.134.753 5.787 1.699 8.004a21.273 21.273 0 0 0-3.825 2.571 16.633 16.633 0 0 1-4.405-10.575h6.531zm2.323 9.335a20.437 20.437 0 0 0 5.198 6.423 16.637 16.637 0 0 1-8.609-4.151 20.381 20.381 0 0 1 3.411-2.272zm1.3-.63c1.655-.729 3.623-1.305 5.797-1.415v8.097c-1.415-.985-3.959-3.117-5.797-6.682zm5.796-2.868c-2.429.11-4.604.738-6.417 1.537-.859-2.043-1.462-4.487-1.55-7.373h6.649a2.173 2.173 0 0 0 1.318 1.318v4.518zm-1.318-7.288h-6.65c.086-2.897.68-5.343 1.527-7.383 1.817.804 4.002 1.437 6.441 1.546v4.519a2.175 2.175 0 0 0-1.318 1.318z"/><g fill="#E0E1E7"><circle cx="22.5" cy="22.5" r=".726"/><path d="M22.5 23.806a1.306 1.306 0 1 1 .002-2.612 1.306 1.306 0 0 1-.002 2.612zm0-1.452a.148.148 0 0 0-.146.146c0 .159.292.159.292 0a.148.148 0 0 0-.146-.146z"/></g><g fill="#E0E1E7"><circle cx="29.758" cy="13.791" r=".726"/><path d="M29.758 15.096a1.306 1.306 0 1 1 0-2.61 1.306 1.306 0 0 1 0 2.61zm0-1.451a.147.147 0 0 0-.146.146c0 .159.292.159.292 0a.147.147 0 0 0-.146-.146z"/></g><g fill="#E0E1E7"><circle cx="36.29" cy="17.42" r=".726"/><path d="M36.29 18.725a1.306 1.306 0 1 1 .002-2.612 1.306 1.306 0 0 1-.002 2.612zm0-1.451a.146.146 0 0 0-.146.146c0 .161.292.161.292 0a.145.145 0 0 0-.146-.146z"/></g><path fill="#E0E1E7" d="M22.945 22.871l-.89-.742 7.565-9.078 6.493 3.607 6.233-9.003.953.659-6.831 9.867-6.572-3.65z"/></svg>