<svg xmlns="http://www.w3.org/2000/svg" width="72" height="72" viewBox="0 0 72 72"><circle fill="#3B4248" cx="36" cy="36" r="35.198"/><path fill="#E0E1E7" d="M36 72C16.15 72 0 55.85 0 36 0 16.149 16.15 0 36 0s36 16.149 36 36c0 19.85-16.15 36-36 36zm0-70.396C17.034 1.604 1.604 17.034 1.604 36S17.034 70.396 36 70.396 70.396 54.966 70.396 36 54.966 1.604 36 1.604z"/><path fill="#E0E1E7" d="M51.943 26.408a4.303 4.303 0 0 0-4.298 4.298c0 .865.257 1.669.697 2.344l-4.644 4.644a4.27 4.27 0 0 0-2.344-.698c-.896 0-1.729.276-2.418.746l-4.692-4.692a4.27 4.27 0 0 0 .698-2.344c0-2.371-1.928-4.298-4.298-4.298s-4.298 1.928-4.298 4.298c0 .864.257 1.669.698 2.343L22.4 37.694a4.27 4.27 0 0 0-2.344-.698 4.303 4.303 0 0 0-4.298 4.298c0 2.371 1.928 4.299 4.298 4.299s4.298-1.928 4.298-4.299c0-.864-.257-1.669-.698-2.344l4.644-4.644c.675.441 1.48.698 2.344.698a4.27 4.27 0 0 0 2.344-.698l4.717 4.718a4.28 4.28 0 0 0-.65 2.27c0 2.371 1.929 4.299 4.299 4.299s4.298-1.928 4.298-4.299c0-.863-.258-1.669-.697-2.343l4.645-4.645a4.266 4.266 0 0 0 2.343.698 4.304 4.304 0 0 0 4.299-4.298 4.303 4.303 0 0 0-4.299-4.298zM20.057 43.815a2.523 2.523 0 0 1-2.521-2.521 2.524 2.524 0 0 1 2.521-2.521 2.525 2.525 0 0 1 2.522 2.521 2.524 2.524 0 0 1-2.522 2.521zm10.588-10.587a2.524 2.524 0 0 1-2.521-2.521 2.524 2.524 0 0 1 2.521-2.522 2.524 2.524 0 0 1 2.522 2.522 2.525 2.525 0 0 1-2.522 2.521zm10.71 10.587a2.524 2.524 0 0 1-2.522-2.521 2.524 2.524 0 0 1 2.522-2.521c1.39 0 2.521 1.13 2.521 2.521a2.523 2.523 0 0 1-2.521 2.521zm10.588-10.587a2.523 2.523 0 0 1-2.521-2.521c0-1.391 1.131-2.522 2.521-2.522s2.521 1.131 2.521 2.522a2.525 2.525 0 0 1-2.521 2.521z"/><path fill="#3B4248" d="M41.355 45.726a4.438 4.438 0 0 1-4.433-4.433c0-.792.213-1.567.615-2.249l-4.567-4.568a4.399 4.399 0 0 1-2.326.662 4.407 4.407 0 0 1-2.325-.662l-4.492 4.492c.433.7.661 1.502.661 2.325 0 2.444-1.988 4.433-4.432 4.433s-4.432-1.988-4.432-4.433a4.437 4.437 0 0 1 4.432-4.432c.825 0 1.626.229 2.325.662l4.493-4.493a4.403 4.403 0 0 1-.661-2.325 4.437 4.437 0 0 1 4.432-4.432 4.437 4.437 0 0 1 4.432 4.432 4.41 4.41 0 0 1-.662 2.325l4.539 4.539a4.406 4.406 0 0 1 2.4-.708c.825 0 1.626.229 2.325.662l4.492-4.493a4.4 4.4 0 0 1-.661-2.325c0-2.444 1.987-4.432 4.432-4.432s4.432 1.988 4.432 4.432-1.987 4.432-4.432 4.432a4.403 4.403 0 0 1-2.324-.662l-4.493 4.493c.433.699.661 1.501.661 2.324a4.436 4.436 0 0 1-4.431 4.434zm-8.348-11.591l4.87 4.871-.057.09a4.152 4.152 0 0 0-.63 2.198 4.17 4.17 0 0 0 4.165 4.165 4.169 4.169 0 0 0 4.164-4.165c0-.808-.233-1.593-.676-2.27l-.06-.091 4.798-4.798.091.059a4.146 4.146 0 0 0 2.271.676c2.296 0 4.165-1.868 4.165-4.165s-1.869-4.165-4.165-4.165a4.17 4.17 0 0 0-4.165 4.165c0 .808.234 1.594.677 2.271l.059.091-4.797 4.797-.091-.06a4.152 4.152 0 0 0-4.613.047l-.092.063-4.847-4.847.059-.091a4.144 4.144 0 0 0 .676-2.271c0-2.296-1.868-4.165-4.165-4.165s-4.165 1.868-4.165 4.165c0 .808.234 1.593.676 2.271l.06.091-4.798 4.797-.091-.06a4.152 4.152 0 0 0-2.271-.676 4.17 4.17 0 0 0-4.165 4.164c0 2.297 1.868 4.165 4.165 4.165s4.165-1.868 4.165-4.165c0-.808-.234-1.593-.676-2.271l-.06-.091 4.797-4.797.091.06a4.144 4.144 0 0 0 2.271.676c.809 0 1.594-.234 2.271-.676l.093-.058zm8.348 9.814a2.657 2.657 0 0 1-2.655-2.655c0-1.464 1.191-2.654 2.655-2.654s2.655 1.19 2.655 2.654a2.658 2.658 0 0 1-2.655 2.655zm0-5.042a2.39 2.39 0 0 0-2.389 2.387 2.39 2.39 0 0 0 2.389 2.388 2.39 2.39 0 0 0 2.388-2.388 2.39 2.39 0 0 0-2.388-2.387zm-21.298 5.042a2.657 2.657 0 0 1-2.655-2.655c0-1.464 1.191-2.654 2.655-2.654s2.655 1.19 2.655 2.654a2.658 2.658 0 0 1-2.655 2.655zm0-5.042a2.39 2.39 0 0 0-2.388 2.387c0 1.317 1.071 2.388 2.388 2.388s2.388-1.07 2.388-2.388a2.39 2.39 0 0 0-2.388-2.387zm31.886-5.546a2.658 2.658 0 0 1-2.655-2.655c0-1.464 1.191-2.655 2.655-2.655s2.655 1.191 2.655 2.655a2.658 2.658 0 0 1-2.655 2.655zm0-5.043c-1.317 0-2.388 1.071-2.388 2.388s1.07 2.388 2.388 2.388c1.316 0 2.388-1.071 2.388-2.388s-1.072-2.388-2.388-2.388zm-21.298 5.043a2.658 2.658 0 0 1-2.655-2.655 2.658 2.658 0 0 1 2.655-2.655 2.659 2.659 0 0 1 2.656 2.655 2.659 2.659 0 0 1-2.656 2.655zm0-5.043c-1.316 0-2.388 1.071-2.388 2.388s1.071 2.388 2.388 2.388 2.388-1.071 2.388-2.388-1.071-2.388-2.388-2.388z"/><path fill="#E0E1E7" d="M29.736 37.322a.888.888 0 0 0-1.256 0l-1.807 1.807a.889.889 0 0 0 1.256 1.257l1.807-1.807a.889.889 0 0 0 0-1.257z"/><path fill="#3B4248" d="M27.301 40.779a1.024 1.024 0 0 1-.723-1.744l1.807-1.808a1.046 1.046 0 0 1 1.445 0 1.024 1.024 0 0 1 0 1.445l-1.807 1.808a1.02 1.02 0 0 1-.722.299zm1.806-3.583a.746.746 0 0 0-.533.221l-1.807 1.807a.756.756 0 0 0 0 1.067.773.773 0 0 0 1.067 0l1.807-1.807a.756.756 0 0 0-.534-1.288z"/><path fill="#E0E1E7" d="M45.327 31.646a.888.888 0 0 0-1.256 0l-1.807 1.807a.886.886 0 0 0 .628 1.516.883.883 0 0 0 .627-.26l1.808-1.807a.89.89 0 0 0 0-1.256z"/><path fill="#3B4248" d="M42.892 35.104c-.273 0-.53-.106-.723-.299a1.014 1.014 0 0 1-.3-.722c0-.273.106-.53.3-.723l1.807-1.807a1.047 1.047 0 0 1 1.445 0 1.025 1.025 0 0 1 0 1.446l-1.808 1.807a1.017 1.017 0 0 1-.721.298zm1.807-3.584a.751.751 0 0 0-.534.221l-1.807 1.808a.749.749 0 0 0-.221.534c0 .201.078.391.221.533a.773.773 0 0 0 1.067 0l1.807-1.807a.755.755 0 0 0-.533-1.289z"/></svg>