<svg xmlns="http://www.w3.org/2000/svg" width="58" height="58" viewBox="24 13.52 58 58"><circle fill="#393939" cx="53" cy="42.52" r="29"/><path fill="none" d="M49.051 36.405c.534 0 1.059.042 1.57.123l7.16-7.159a9.313 9.313 0 0 0-1.972.032L48.8 36.41c.084-.003.168-.005.251-.005zm1.848 1.008l-3.005 3.005c.104.517.253 1.017.44 1.498l4.063-4.062a9.267 9.267 0 0 0-1.498-.441zm-2.816-1.45l6.258-6.258a9.282 9.282 0 0 0-6.258 6.258zm4.944 1.261l7.268-7.267a9.07 9.07 0 0 0-1.498-.441l-7.212 7.212c.497.129.978.296 1.442.496zm-3.976.004c-.382 0-.763.024-1.14.071l-.134.133a9.33 9.33 0 0 0-.032 1.972l2.139-2.138a9.152 9.152 0 0 0-.833-.038z"/><path fill="none" d="M44.39 38.487c-.01.006-.021.006-.031.011l-.044.023c-.335.184-.7.479-1.067.764-.359.278-.855.776-.885.805a9.15 9.15 0 0 0-2.552 6.377c0 5.096 4.146 9.241 9.241 9.241 4.372 0 8.044-3.051 8.999-7.136a10.008 10.008 0 0 1-2.932-.106c-.01-.002-.021-.003-.03-.006a9.956 9.956 0 0 1-2.385-.768.41.41 0 0 1-2.069-1.29l-.01-.011a10.12 10.12 0 0 1-1.527-1.535l-.011-.009a.393.393 0 0 1-.063-.084 10.088 10.088 0 0 1-1.218-1.994 9.976 9.976 0 0 1-.758-2.396l-.006-.034a10.028 10.028 0 0 1-.095-2.871 9.218 9.218 0 0 0-2.066.755c-.166.086-.331.171-.491.264zm10.609-.132l7.309-7.309a9.177 9.177 0 0 0-1.209-.73l-7.287 7.288c.413.223.81.475 1.187.751zm2.894 3.311l7.289-7.289a9.324 9.324 0 0 0-.736-1.203l-7.31 7.309c.28.375.532.77.757 1.183zm-1.276-1.827l7.314-7.315a9.149 9.149 0 0 0-.972-.967l-7.314 7.314c.346.301.67.625.972.968z"/><path fill="none" d="M57.647 43.075l-4.092 4.092c.479.189.977.34 1.491.448l3.049-3.049a9.174 9.174 0 0 0-.448-1.491zm1.336 1.766a10.034 10.034 0 0 1 .13 1.809l7.016-7.015a9.336 9.336 0 0 0 .019-1.957l-7.165 7.163zm6.561-9.663l-7.269 7.269c.202.462.37.942.502 1.437l7.215-7.215a9.105 9.105 0 0 0-.448-1.491zm.298 5.906l-6.381 6.381a9.277 9.277 0 0 0 6.381-6.381zm-12.64-2.871l-4.508 4.508c.213.422.457.826.73 1.208l4.985-4.985a9.27 9.27 0 0 0-1.207-.731zm2.854 9.556a9.418 9.418 0 0 0 1.956-.019l.219-.219a9.322 9.322 0 0 0 .019-1.956l-2.194 2.194zm-.994-8.314l-5.126 5.126c.298.348.621.673.967.973l5.132-5.132a9.253 9.253 0 0 0-.973-.967zm1.486 1.616l-4.996 4.997c.38.274.781.521 1.202.736l4.53-4.53a9.172 9.172 0 0 0-.736-1.203z"/><path fill="#FFF" d="M44.88 38.225c-.149.076-.337.172-.521.273.01-.005.021-.005.031-.011a10 10 0 0 1 .49-.262z"/><path fill="#FFF" d="M66.845 36.741a9.963 9.963 0 0 0-.774-2.416.441.441 0 0 0-1.29-2.07l-.011-.01a10.127 10.127 0 0 0-1.535-1.528l-.01-.01a.364.364 0 0 0-.083-.063 10.037 10.037 0 0 0-4.39-1.976l-.031-.005a10.05 10.05 0 0 0-3.142-.063h-.004c-4.251.583-7.664 3.831-8.495 7.998-.854.17-1.682.454-2.464.838.113-.031.565.637.565.637l-.114.056a9.197 9.197 0 0 1 1.879-.661 10.123 10.123 0 0 0 .101 2.905c.152.839.41 1.642.758 2.396a10.037 10.037 0 0 0 1.218 1.994c.018.03.038.059.063.084l.011.009c.453.564.965 1.08 1.527 1.535l.01.011a.451.451 0 0 0 .081.063 10.082 10.082 0 0 0 1.988 1.227 10 10 0 0 0 2.385.768l.03.006a10.127 10.127 0 0 0 2.932.106c-.955 4.085-4.627 7.136-8.999 7.136-5.095 0-9.241-4.146-9.241-9.241a9.15 9.15 0 0 1 2.552-6.377l-.004.004a18.8 18.8 0 0 1-.577-.587 10.037 10.037 0 0 0-2.794 6.959c0 5.549 4.515 10.063 10.063 10.063 4.875 0 8.95-3.483 9.869-8.092 4.192-.836 7.453-4.283 8.009-8.569l.001-.007a10.197 10.197 0 0 0-.084-3.12zm-2.399-3.567c.274.38.521.782.736 1.203l-7.289 7.289a9.98 9.98 0 0 0-.757-1.183l7.31-7.309zm-.515-.65l-7.314 7.315a10.082 10.082 0 0 0-.972-.967l7.314-7.314c.348.297.673.621.972.966zm-1.624-1.478l-7.309 7.309a10.126 10.126 0 0 0-1.188-.751l7.287-7.288c.424.213.828.457 1.21.73zm-3.511-1.53a9.167 9.167 0 0 1 1.498.441l-7.268 7.267c-.464-.2-.945-.367-1.442-.497l7.212-7.211zM55.81 29.4a9.313 9.313 0 0 1 1.972-.032l-7.16 7.159a10.161 10.161 0 0 0-1.82-.119L55.81 29.4zm-1.469.305l-6.258 6.258a9.282 9.282 0 0 1 6.258-6.258zm-6.595 9.698a9.33 9.33 0 0 1 .032-1.972l.134-.133a9.219 9.219 0 0 1 1.973-.033l-2.139 2.138zm.148 1.015l3.005-3.005a9.167 9.167 0 0 1 1.498.441l-4.063 4.062a9.135 9.135 0 0 1-.44-1.498zm1.53 3.511a9.123 9.123 0 0 1-.73-1.208l4.508-4.508c.422.213.826.458 1.208.73l-4.986 4.986zm.512.653l5.126-5.126c.348.298.673.621.973.967l-5.132 5.132a9.45 9.45 0 0 1-.967-.973zm1.616 1.486l4.996-4.997c.274.38.521.782.736 1.203l-4.53 4.53a9.245 9.245 0 0 1-1.202-.736zm3.494 1.547a9.174 9.174 0 0 1-1.491-.448l4.092-4.092c.189.479.34.977.448 1.491l-3.049 3.049zm3.185-.083l-.219.219a9.322 9.322 0 0 1-1.956.019l2.193-2.193a9.418 9.418 0 0 1-.018 1.955zm.547-3.649c-.132-.495-.3-.975-.502-1.437l7.269-7.269c.189.479.34.977.448 1.491l-7.215 7.215zm.683 3.582l6.381-6.381a9.277 9.277 0 0 1-6.381 6.381zm6.667-7.83l-7.016 7.015a10.034 10.034 0 0 0-.13-1.809l7.164-7.164a9.423 9.423 0 0 1-.018 1.958z"/><path fill="#FFF" d="M42.358 40.096l.004-.004c.029-.029.526-.527.885-.805.367-.285.732-.581 1.067-.764l.044-.023c.185-.101.372-.197.521-.273l.187-.094.114-.056s-.452-.668-.565-.637c-.002 0-.005-.002-.007-.001-.105.051-.7.344-1.047.557s-.587.402-.989.736a8.52 8.52 0 0 0-.792.779c.002-.002.571.593.578.585z"/></svg>