<svg xmlns="http://www.w3.org/2000/svg" width="43" height="42.865" viewBox="0 0 43 42.865" fill="#e0e1e8">
    <path d="M39.141 33.627c-.581-.427-1.559-1.042-3.034-1.67l-3.014-3.014c.598-2.182.924-4.479.981-6.846h8.907a21.372 21.372 0 0 1-3.84 11.53zm3.841-13.013h-8.9c-.079-3.271-.672-6.154-1.564-8.663 3.595-.931 5.663-2.156 6.625-2.864a21.383 21.383 0 0 1 3.839 11.527zm-15.057 3.161c.324-.535.613-1.093.85-1.678h3.816a27.23 27.23 0 0 1-.72 5.624l-3.946-3.946zm.676 2.773l-1.918 1.918-1.532-1.532a11.917 11.917 0 0 0 1.918-1.918l1.532 1.532zm.657-5.934c.246-.95.391-1.941.391-2.967 0-1.757-.394-3.419-1.082-4.922a37.948 37.948 0 0 0 2.496-.433c.871 2.4 1.455 5.168 1.536 8.322h-3.341zm8.993-12.718c-.837.61-2.786 1.775-6.276 2.661C29.747 5.263 26.267 1.812 24.022 0c5.734.676 10.783 3.614 14.229 7.896zM22.232.489c1.906 1.386 5.835 4.759 8.276 10.403-.824.169-1.725.315-2.697.439a11.917 11.917 0 0 0-5.579-4.678V.489zM18.92.005a26.992 26.992 0 0 0-6.032 6.843 11.92 11.92 0 0 0-4.085 3.061c-2.136-.742-3.43-1.541-4.075-2.012C8.167 3.624 13.202.689 18.92.005zm1.829.481v5.685a11.808 11.808 0 0 0-2.967-.391c-.89 0-1.753.106-2.587.293 2.048-2.819 4.264-4.656 5.554-5.587zm-16.91 8.6c.703.517 1.991 1.31 4.025 2.063a11.789 11.789 0 0 0-1.949 6.499c0 1.025.145 2.017.391 2.967H0A21.379 21.379 0 0 1 3.839 9.086zM0 22.097h6.789a11.88 11.88 0 0 0 2.432 3.746 27.31 27.31 0 0 0 1.219 4.912c-3.592.93-5.64 2.158-6.602 2.868A21.365 21.365 0 0 1 0 22.097zM4.726 34.81c.83-.61 2.755-1.776 6.242-2.659a26.643 26.643 0 0 0 7.937 10.554c-5.715-.689-10.743-3.623-14.179-7.895zm16.023 7.413c-1.909-1.384-5.851-4.76-8.291-10.41 2.214-.447 4.952-.766 8.291-.807v11.217zm0-12.701c-3.567.044-6.486.395-8.845.891a24.796 24.796 0 0 1-.883-3.025 11.793 11.793 0 0 0 6.761 2.127c1.025 0 2.017-.145 2.967-.391v.398zm1.483-.881a11.84 11.84 0 0 0 1.678-.85l1.893 1.894a54.537 54.537 0 0 0-3.571-.16v-.884zm0 2.367c1.823.023 3.575.131 5.221.326l2.236 2.236c-2.42 4.601-5.75 7.422-7.457 8.654V31.008zm1.832 11.698c1.873-1.497 4.577-4.125 6.721-8.039l3.764 3.764a21.384 21.384 0 0 1-10.485 4.275zM35.7 37.484l-7.969-7.969 1.917-1.918 7.97 7.969a21.698 21.698 0 0 1-1.918 1.918zm5.943 5.381c-.361 0-.702-.141-.958-.397l-3.934-3.934a23.142 23.142 0 0 0 1.918-1.918l3.934 3.934a1.357 1.357 0 0 1-.96 2.315zM17.782 10.23c-4.09 0-7.417 3.327-7.417 7.417a7.4 7.4 0 0 0 2.967 5.92v-.728a4.455 4.455 0 0 1 2.783-4.123c-1.205-.613-2.042-1.852-2.042-3.294 0-2.045 1.664-3.708 3.708-3.708s3.709 1.663 3.709 3.708c0 1.442-.836 2.681-2.042 3.294a4.456 4.456 0 0 1 2.783 4.123v.728c1.797-1.355 2.967-3.5 2.967-5.92.001-4.089-3.326-7.417-7.416-7.417z"/>
    <circle cx="17.782" cy="15.422" r="2.225"/>
    <path d="M17.782 19.873a2.97 2.97 0 0 0-2.967 2.967v1.601a7.364 7.364 0 0 0 5.934 0V22.84a2.97 2.97 0 0 0-2.967-2.967z"/>
    <path d="M17.782 7.264c-5.726 0-10.384 4.658-10.384 10.384s4.658 10.384 10.384 10.384 10.384-4.658 10.384-10.384S23.508 7.264 17.782 7.264zm0 19.283c-4.908 0-8.9-3.992-8.9-8.9s3.992-8.9 8.9-8.9 8.9 3.992 8.9 8.9c.001 4.908-3.992 8.9-8.9 8.9z"/>
</svg>