<svg xmlns="http://www.w3.org/2000/svg" width="72" height="72" viewBox="0 0 72 72"><circle fill="#3B4248" cx="36" cy="36" r="35.198"/><path fill="#E0E1E7" d="M36 72C16.15 72 0 55.85 0 36 0 16.149 16.15 0 36 0s36 16.149 36 36c0 19.85-16.15 36-36 36zm0-70.396C17.034 1.604 1.604 17.034 1.604 36S17.034 70.396 36 70.396 70.396 54.966 70.396 36 54.966 1.604 36 1.604z"/><path fill="#E0E1E7" d="M50.616 21.047a.545.545 0 0 0-.012-.114l-.005-.022a.673.673 0 0 0-.027-.087l-.014-.033a.75.75 0 0 0-.046-.084l-.008-.014a.73.73 0 0 0-.158-.162l-.023-.017a.564.564 0 0 0-.097-.052l-.021-.008a.7.7 0 0 0-.121-.034c-.038-.006-.076-.012-.116-.012H27.879a.607.607 0 0 0-.142.017c-.013.003-.025.008-.038.012a.583.583 0 0 0-.094.034c-.015.007-.028.015-.042.023a.757.757 0 0 0-.076.049c-.014.01-.026.021-.04.033a.686.686 0 0 0-.064.068c-.007.009-.016.015-.022.024l-5.847 7.796a.095.095 0 0 0-.01.017l-.018.027a.679.679 0 0 0-.041.075l-.013.027a.683.683 0 0 0-.033.106l-.004.024a.623.623 0 0 0-.009.096l-.002.017v22.088l.001.011c0 .039.004.077.011.114.001.009.004.015.006.022.007.03.016.059.027.088l.014.032a.75.75 0 0 0 .046.084l.008.015a.582.582 0 0 0 .092.105.61.61 0 0 0 .067.057l.023.016a.609.609 0 0 0 .097.053l.021.008a.448.448 0 0 0 .12.034.644.644 0 0 0 .116.013h22.088a.657.657 0 0 0 .142-.017l.039-.013a.813.813 0 0 0 .094-.034l.043-.023a.622.622 0 0 0 .076-.05l.039-.032a.67.67 0 0 0 .064-.067c.008-.009.016-.015.022-.024l5.848-7.796.01-.016.019-.028a.758.758 0 0 0 .04-.074l.013-.028a.556.556 0 0 0 .033-.105l.004-.024a.974.974 0 0 0 .01-.096l.002-.018v-22.09c-.001-.004-.003-.007-.003-.011zm-23.387 1.96v5.197h-3.897l3.897-5.197zm-4.547 6.496h4.547V42.93l-4.547 6.063v-19.49zm20.789 20.789H23.332l4.872-6.497h15.267v6.497zm0-7.795H28.529V29.503h14.942v12.994zm.325-14.293H28.529v-6.497h20.139l-4.872 6.497zm.974 20.789v-5.197h3.898l-3.898 5.197zm4.548-6.496H44.77V29.07l4.548-6.063v19.49z"/></svg>