<svg xmlns="http://www.w3.org/2000/svg" width="72" height="72" viewBox="0 0 72 72"><circle fill="#3B4248" cx="36" cy="36" r="35.198"/><path fill="#E0E1E7" d="M36 72C16.15 72 0 55.85 0 36 0 16.149 16.15 0 36 0s36 16.149 36 36c0 19.85-16.15 36-36 36zm0-70.396C17.034 1.604 1.604 17.034 1.604 36S17.034 70.396 36 70.396 70.396 54.966 70.396 36 54.966 1.604 36 1.604z"/><g fill="#E0E1E7"><path d="M36 22.806c-7.275 0-13.194 5.918-13.194 13.194 0 7.274 5.919 13.193 13.194 13.193S49.194 43.274 49.194 36c0-7.276-5.919-13.194-13.194-13.194zM44.076 36c0 .79-.112 1.564-.335 2.31l-7.232-2.933-4.318-6.499A8.05 8.05 0 0 1 36 27.923c4.454 0 8.076 3.623 8.076 8.077zm-9.238-.359l-6.58 2.668a8.067 8.067 0 0 1-.335-2.31 8.068 8.068 0 0 1 2.986-6.271l3.929 5.913zm.393 11.988c-6.07-.397-10.886-5.462-10.886-11.63 0-6.168 4.816-11.232 10.886-11.629v2.046a9.56 9.56 0 0 0-4.552 1.575 9.603 9.603 0 0 0-4.292 8.008 9.602 9.602 0 0 0 4.182 7.933 9.53 9.53 0 0 0 4.664 1.649v2.048zm-6.393-7.895L36 36.83l7.162 2.904A8.042 8.042 0 0 1 36 44.076a8.04 8.04 0 0 1-7.162-4.342zm7.931 7.895v-2.047a9.54 9.54 0 0 0 4.663-1.649 9.604 9.604 0 0 0 3.479-4.318v-.002A9.536 9.536 0 0 0 45.614 36c0-5.042-3.902-9.191-8.846-9.584V24.37c6.07.398 10.887 5.461 10.887 11.63 0 6.167-4.817 11.232-10.886 11.629z"/><path d="M54.729 31.587h-3.024a16.222 16.222 0 0 0-1.479-3.574l2.138-2.138c.3-.3.3-.787 0-1.087l-5.153-5.153a.77.77 0 0 0-1.088 0l-2.137 2.137a16.29 16.29 0 0 0-3.574-1.479V17.27a.77.77 0 0 0-.769-.77h-7.286a.77.77 0 0 0-.769.77v3.023c-1.25.35-2.448.845-3.574 1.479l-2.139-2.137c-.3-.3-.787-.3-1.087 0l-5.152 5.152a.768.768 0 0 0 0 1.088l2.137 2.137a16.202 16.202 0 0 0-1.479 3.574h-3.023a.77.77 0 0 0-.769.769v7.287a.77.77 0 0 0 .769.769h3.023a16.27 16.27 0 0 0 1.479 3.574l-2.137 2.138a.768.768 0 0 0 0 1.088l5.152 5.152c.3.3.787.301 1.087 0l2.138-2.138a16.213 16.213 0 0 0 3.574 1.479v3.023c0 .425.344.77.769.77h7.286a.77.77 0 0 0 .769-.77v-3.023a16.31 16.31 0 0 0 3.574-1.479l2.137 2.138c.301.3.788.3 1.088 0l5.153-5.152a.768.768 0 0 0 0-1.088l-2.138-2.138a16.174 16.174 0 0 0 1.479-3.574h3.023a.77.77 0 0 0 .77-.769v-7.287a.768.768 0 0 0-.768-.768zm-3.618 7.287a.768.768 0 0 0-.748.589 14.68 14.68 0 0 1-1.757 4.245.768.768 0 0 0 .111.945l2.015 2.015-4.065 4.064-2.014-2.015a.769.769 0 0 0-.945-.111 14.677 14.677 0 0 1-4.244 1.757.767.767 0 0 0-.59.748v2.85h-5.748v-2.85a.767.767 0 0 0-.589-.748 14.683 14.683 0 0 1-4.245-1.757.768.768 0 0 0-.945.111l-2.015 2.015-4.064-4.064 2.014-2.015a.769.769 0 0 0 .112-.945 14.68 14.68 0 0 1-1.757-4.245.768.768 0 0 0-.748-.589H18.04v-5.748h2.849a.77.77 0 0 0 .748-.589 14.68 14.68 0 0 1 1.757-4.245.77.77 0 0 0-.112-.946l-2.014-2.014 4.064-4.065 2.015 2.014a.769.769 0 0 0 .945.112 14.679 14.679 0 0 1 4.245-1.756.77.77 0 0 0 .589-.748V18.04h5.747v2.849c0 .355.243.665.59.748 1.504.362 2.933.953 4.244 1.757a.769.769 0 0 0 .945-.112l2.014-2.014 4.065 4.065-2.015 2.014a.77.77 0 0 0-.111.946 14.68 14.68 0 0 1 1.757 4.245.768.768 0 0 0 .748.589h2.849v5.748h-2.848v-.001z"/></g></svg>