<svg xmlns="http://www.w3.org/2000/svg" width="37" height="33.801" viewBox="0 0 37 33.801"><path d="M23.383 33.801h-9.766a24.212 24.212 0 0 0 1.039-6.094h7.688c.09 2.098.439 4.14 1.039 6.094zM37 23.884a2.084 2.084 0 0 1-2.081 2.082H2.081A2.084 2.084 0 0 1 0 23.884v-.18h37v.18zM34.919 0H2.081A2.083 2.083 0 0 0 0 2.081v19.883h37V2.081A2.083 2.083 0 0 0 34.919 0zm-21.46 16.597a.87.87 0 0 1-1.227.096l-5.906-5.049a.873.873 0 0 1 0-1.324l5.906-5.05a.871.871 0 0 1 1.132 1.324l-5.132 4.388 5.132 4.387a.871.871 0 0 1 .095 1.228zm8.089-12.166l-4.44 13.64a.873.873 0 0 1-1.098.559.871.871 0 0 1-.558-1.098l4.439-13.64a.871.871 0 0 1 1.657.539zm9.126 7.212l-5.906 5.049a.868.868 0 0 1-1.227-.096.87.87 0 0 1 .096-1.228l5.132-4.387-5.132-4.388a.87.87 0 1 1 1.132-1.324l5.906 5.05a.872.872 0 0 1-.001 1.324z" fill="#E0E1E7"/></svg>