<svg xmlns="http://www.w3.org/2000/svg" width="58" height="58" viewBox="13.519 18.166 58 58"><circle fill="#393939" cx="42.519" cy="47.167" r="29"/><g fill="#FFF"><path d="M44.68 45.273l4.775-5.804a2.1 2.1 0 0 0 .453-1.276v-4.569a2.02 2.02 0 0 0-2.017-2.017H37.147a2.02 2.02 0 0 0-2.017 2.017v4.569c0 .453.165.906.453 1.276l4.775 5.804c.247.288.576.535.947.658a4.3 4.3 0 0 0 1.235.206c.411 0 .823-.082 1.234-.206.33-.123.66-.37.906-.658zm-1.357-.577a2.802 2.802 0 0 1-1.647 0 .635.635 0 0 1-.329-.246l-4.775-5.763a.618.618 0 0 1-.165-.453v-4.61c0-.411.33-.741.741-.741H47.85c.412 0 .741.33.741.741v4.569c0 .165-.042.33-.164.453l-4.776 5.804a.628.628 0 0 1-.328.246z"/><path d="M34.843 52.97l2.017 1.441-2.017 1.439a.918.918 0 0 0-.33 1.029.98.98 0 0 0 .906.659h2.676l-.865 2.675c-.123.371 0 .824.329 1.029a.927.927 0 0 0 1.112 0l2.182-1.563.782 2.388a.982.982 0 0 0 .906.658.926.926 0 0 0 .905-.658l.782-2.388 2.182 1.563c.165.124.37.165.535.165.206 0 .37-.041.535-.165a.917.917 0 0 0 .33-1.029l-.865-2.634h2.676a.926.926 0 0 0 .905-.658c.124-.371 0-.824-.329-1.029l-2.018-1.44 2.018-1.441a.916.916 0 0 0 .329-1.029.978.978 0 0 0-.905-.658h-2.676l.865-2.634c.123-.371 0-.824-.33-1.029a.927.927 0 0 0-1.112 0l-2.223 1.481-.781-2.388c-.124-.37-.494-.659-.906-.659s-.783.247-.906.659l-.7 2.388-2.182-1.564a.927.927 0 0 0-1.112 0 .918.918 0 0 0-.329 1.029l.865 2.634h-2.676a.926.926 0 0 0-.906.66c-.122.41.001.822.331 1.069zm3.951 6.628l.659-2.018h.699l.289.823-1.647 1.195zm5.805-1.194l.287-.823h.7l.659 2.018-1.646-1.195zm1.894-5.846h2.017l-1.482 1.07-.699-.535.164-.535zm-3.994-4.362l.577 1.77-.577.412-.577-.412.577-1.77zM40.4 50.418l1.111.781.453.33a.93.93 0 0 0 1.112 0l.453-.33 1.11-.781 1.646-1.194-.658 2.017-.411 1.277-.124.411c-.123.37 0 .823.329 1.029l.577.411 1.11.782 1.482 1.07h-3.91a.927.927 0 0 0-.905.658l-.205.661-.413 1.275-.658 1.853-.577-1.77-.412-1.276-.206-.699a.979.979 0 0 0-.905-.659h-3.91l1.482-1.07 1.111-.781.577-.413a.918.918 0 0 0 .33-1.029l-.124-.412-.412-1.275-.659-2.059 1.606 1.193zm-1.894 2.14l.165.577-.7.493-1.482-1.07h2.017z"/></g></svg>