<svg xmlns="http://www.w3.org/2000/svg" width="46" height="46" viewBox="0 0 46 46" fill="#e0e1e8">
    <path d="M28.787 23c0-3.195-2.602-5.787-5.788-5.787S17.212 19.804 17.212 23c0 3.196 2.601 5.788 5.787 5.788s5.788-2.593 5.788-5.788z"/>
    <path d="M23 26.525a3.531 3.531 0 0 1-3.525-3.526A3.531 3.531 0 0 1 23 19.474a3.531 3.531 0 0 1 3.526 3.525A3.533 3.533 0 0 1 23 26.525zm-8.38-4.656c-.622 0-1.131.509-1.131 1.131s.509 1.131 1.131 1.131 1.132-.509 1.132-1.131-.51-1.131-1.132-1.131zM9.784 23c0 .622.509 1.131 1.132 1.131.622 0 1.131-.509 1.131-1.131s-.509-1.131-1.131-1.131c-.623 0-1.132.508-1.132 1.131zm-1.442 0c0-2.3-1.876-4.176-4.175-4.176a4.175 4.175 0 0 0 .009 8.352c2.3 0 4.166-1.876 4.166-4.176zm-4.166 1.913a1.915 1.915 0 0 1 0-3.827c1.055 0 1.913.857 1.913 1.913a1.92 1.92 0 0 1-1.913 1.914z"/>
    <circle cx="35.084" cy="23" r="1.131"/>
    <path d="M31.38 24.131c.621 0 1.131-.509 1.131-1.131s-.51-1.131-1.131-1.131c-.622 0-1.131.509-1.131 1.131s.509 1.131 1.131 1.131zm10.444-5.307c-2.301 0-4.177 1.875-4.177 4.176s1.876 4.176 4.177 4.176C44.124 27.176 46 25.3 46 23s-1.876-4.176-4.176-4.176zm0 6.089a1.914 1.914 0 1 1 0-3.828 1.914 1.914 0 0 1 0 3.828zM23 30.248c-.622 0-1.131.51-1.131 1.132 0 .621.509 1.131 1.131 1.131.623 0 1.131-.51 1.131-1.131 0-.622-.509-1.132-1.131-1.132zm0 3.705c-.622 0-1.131.509-1.131 1.131 0 .623.509 1.131 1.131 1.131.623 0 1.131-.508 1.131-1.131 0-.622-.509-1.131-1.131-1.131zm0 3.704a4.185 4.185 0 0 0-4.176 4.176 4.175 4.175 0 0 0 8.352-.009A4.176 4.176 0 0 0 23 37.657zm0 6.081a1.915 1.915 0 1 1 .003-3.829A1.915 1.915 0 0 1 23 43.738zm0-27.987c.623 0 1.131-.51 1.131-1.132 0-.622-.509-1.131-1.131-1.131s-1.131.509-1.131 1.131c0 .623.508 1.132 1.131 1.132z"/>
    <circle cx="23" cy="10.915" r="1.131"/>
    <path d="M23 8.342c2.3 0 4.176-1.876 4.176-4.175C27.176 1.866 25.3 0 23 0s-4.176 1.875-4.176 4.176S20.699 8.342 23 8.342zm0-6.08a1.915 1.915 0 1 1-1.913 1.914A1.914 1.914 0 0 1 23 2.262zm-6.722 25.866a1.133 1.133 0 1 0 1.604 1.602 1.133 1.133 0 0 0-1.604-1.602z"/>
    <circle cx="14.459" cy="31.54" r="1.131"/>
    <path d="M6.74 33.359a4.169 4.169 0 0 0 0 5.9 4.169 4.169 0 0 0 5.9 0 4.169 4.169 0 0 0 0-5.9c-1.63-1.622-4.279-1.622-5.9 0zm4.298 4.308a1.907 1.907 0 1 1-2.696-2.698 1.907 1.907 0 0 1 2.696 2.698z"/>
    <circle cx="31.54" cy="14.46" r="1.131"/>
    <circle cx="28.929" cy="17.071" r="1.131"/>
    <path d="M39.26 12.64a4.169 4.169 0 0 0 0-5.9 4.169 4.169 0 0 0-5.9 0 4.169 4.169 0 0 0 0 5.9 4.177 4.177 0 0 0 5.9 0zm-4.298-4.307a1.904 1.904 0 0 1 2.695 0 1.904 1.904 0 0 1 0 2.695 1.904 1.904 0 0 1-2.695 0 1.904 1.904 0 0 1 0-2.695z"/>
    <circle cx="31.54" cy="31.54" r="1.131"/>
    <path d="M28.128 28.128a1.132 1.132 0 1 0 1.602 1.602 1.132 1.132 0 1 0-1.602-1.602zm5.231 5.231c-1.631 1.631-1.631 4.27 0 5.9s4.27 1.631 5.9 0 1.631-4.27 0-5.9c-1.62-1.622-4.269-1.622-5.9 0zm4.308 4.308a1.907 1.907 0 1 1-2.696-2.698 1.907 1.907 0 0 1 2.696 2.698z"/>
    <circle cx="17.071" cy="17.071" r="1.131"/>
    <circle cx="14.459" cy="14.46" r="1.131"/>
    <path d="M12.64 12.64a4.169 4.169 0 0 0 0-5.9 4.169 4.169 0 0 0-5.9 0 4.169 4.169 0 0 0 0 5.9c1.621 1.622 4.27 1.622 5.9 0zM8.333 8.333a1.905 1.905 0 1 1 0 2.695 1.904 1.904 0 0 1 0-2.695z"/>
</svg>