<svg xmlns="http://www.w3.org/2000/svg" width="72" height="72" viewBox="0 0 72 72"><circle fill="#3B4248" cx="36" cy="36" r="35.198"/><path fill="#E0E1E7" d="M36 72C16.15 72 0 55.85 0 36 0 16.149 16.15 0 36 0s36 16.149 36 36c0 19.85-16.15 36-36 36zm0-70.396C17.034 1.604 1.604 17.034 1.604 36S17.034 70.396 36 70.396 70.396 54.966 70.396 36 54.966 1.604 36 1.604z"/><g fill="#E0E1E7"><path d="M34.331 24.304h1.054v5.962c0 .216.175.392.392.392h.804a.393.393 0 0 0 .393-.392v-7.129a.393.393 0 0 0-.393-.392h-2.25a.393.393 0 0 0-.392.392v.774c0 .217.175.393.392.393zm-5.789 21.269H25.59l1.569-1.662c.624-.666 1.367-1.653 1.367-2.579 0-1.282-1.029-2.145-2.561-2.145-.921 0-1.892.396-2.663 1.088a.392.392 0 0 0-.083.479l.355.652a.393.393 0 0 0 .616.095c.503-.486 1.128-.776 1.672-.776.472 0 1.035.125 1.035.719 0 .289-.267.848-.863 1.443l-.011.012-2.669 2.902a.395.395 0 0 0-.104.266v.672c0 .217.175.392.392.392h4.899a.392.392 0 0 0 .392-.392v-.774a.39.39 0 0 0-.391-.392z"/><path d="M45.947 35.005a8.13 8.13 0 0 0-2.192.302L41.58 32.64a8.13 8.13 0 0 0 2.574-5.938c0-4.496-3.657-8.154-8.154-8.154s-8.154 3.658-8.154 8.154c0 2.339.991 4.45 2.575 5.938l-2.175 2.667a8.136 8.136 0 0 0-2.192-.302c-4.497 0-8.155 3.657-8.155 8.153s3.658 8.154 8.155 8.154c4.2 0 7.668-3.192 8.106-7.279h3.682c.438 4.087 3.905 7.279 8.105 7.279 4.497 0 8.155-3.658 8.155-8.154s-3.658-8.153-8.155-8.153zM29.4 26.702c0-3.639 2.961-6.6 6.6-6.6s6.6 2.96 6.6 6.6-2.961 6.6-6.6 6.6-6.6-2.961-6.6-6.6zm2.089 6.789A8.105 8.105 0 0 0 36 34.856a8.105 8.105 0 0 0 4.511-1.365l1.896 2.324a8.171 8.171 0 0 0-4.598 6.854H34.19a8.168 8.168 0 0 0-4.597-6.854l1.896-2.324zm-5.436 16.268c-3.64 0-6.6-2.961-6.6-6.601a6.606 6.606 0 0 1 6.6-6.599 6.606 6.606 0 0 1 6.599 6.599c0 3.64-2.96 6.601-6.599 6.601zm19.894 0a6.608 6.608 0 0 1-6.6-6.601 6.607 6.607 0 0 1 6.6-6.599c3.64 0 6.601 2.96 6.601 6.599a6.61 6.61 0 0 1-6.601 6.601z"/><path d="M46.596 42.262l1.685-1.871a.389.389 0 0 0 .101-.262v-.55a.392.392 0 0 0-.392-.393h-4.104a.392.392 0 0 0-.392.393v.774c0 .216.175.392.392.392h2.203l-1.496 1.657a.394.394 0 0 0-.102.263v.519c0 .217.176.393.392.393h.877c.915 0 1.379.324 1.379.962 0 .673-.512 1.075-1.369 1.075a2.565 2.565 0 0 1-1.596-.584.397.397 0 0 0-.327-.081.397.397 0 0 0-.269.203l-.357.683a.391.391 0 0 0 .118.498c.691.5 1.623.798 2.491.798 1.727 0 2.887-1.054 2.887-2.622 0-1.198-.819-2.049-2.121-2.247z"/></g></svg>