<svg xmlns="http://www.w3.org/2000/svg" width="38" height="44.291" viewBox="0 0 38 44.291"><path d="M0 25.07c.009-.05.024-.1.025-.15a18.74 18.74 0 0 1 1.887-7.889 18.954 18.954 0 0 1 1.982-3.222c.047-.063.096-.124.15-.192.685.339 1.298.799 2.014 1.086l-.703 1.232c-.207.363-.146.588.218.795.393.224.786.449 1.18.67.276.156.525.089.684-.185.242-.419.483-.839.721-1.262.147-.262.072-.522-.19-.674-.392-.226-.786-.448-1.179-.673-.049-.027-.096-.059-.12-.073.185-.311.366-.611.541-.914.311-.538.619-1.077.925-1.617.274-.481.146-.929-.335-1.207-.519-.3-1.038-.601-1.556-.903-.383-.221-.486-.61-.265-.999.347-.608.694-1.216 1.043-1.822.227-.391.619-.496 1.013-.271.608.347 1.215.695 1.822 1.044.379.218.489.603.277.985-.314.566-.629 1.129-.946 1.692-.28.498-.158.943.331 1.233a64.657 64.657 0 0 0 4.672 2.505c.056.027.11.057.178.092-.132.229-.258.446-.382.664-.887 1.548-1.751 3.108-2.397 4.777-.44 1.136-.796 2.295-.958 3.508-.507 3.77.486 7.085 3.047 9.9 1.687 1.854 3.782 3.037 6.246 3.521 2.461.482 4.846.18 7.125-.852 2.591-1.173 4.57-3.018 5.878-5.553a10.519 10.519 0 0 0 1.198-4.716c.047-3.127-.854-5.935-2.874-8.35a10.37 10.37 0 0 0-3.819-2.867 3.72 3.72 0 0 1-.143-.067c-.003-.001-.003-.009-.014-.042.284.048.555.089.824.141 1.732.334 3.365.929 4.84 1.91 2.44 1.622 3.973 3.882 4.681 6.713.199.794.313 1.601.354 2.417.001.04.016.079.025.119v1.296c-.009.05-.022.1-.027.151-.026.31-.042.62-.078.928-.236 2-.826 3.894-1.715 5.696A18.903 18.903 0 0 1 31.108 40c-3.129 2.552-6.718 3.953-10.745 4.231-.254.018-.508.039-.763.058h-1.17c-.04-.008-.079-.024-.12-.025a17.461 17.461 0 0 1-2.946-.331c-3.774-.75-7.03-2.481-9.765-5.187a18.641 18.641 0 0 1-3.681-5.153 18.727 18.727 0 0 1-1.895-7.9c-.001-.05-.017-.1-.025-.15v-.473zM19.189 0c.391.223.783.445 1.174.669.309.177.367.387.192.693l-.587 1.026c-.148.255-.371.316-.628.171a94.54 94.54 0 0 1-1.068-.61c-.259-.15-.315-.365-.167-.627.181-.32.369-.637.545-.96.085-.155.185-.288.35-.362h.189z"/><path d="M20.772 15.555c-.031.09-.062.265-.145.412-.497.885-1.003 1.766-1.511 2.645-.297.515-.852.66-1.372.364-.868-.495-1.736-.992-2.603-1.49-.531-.305-.681-.863-.377-1.393l1.482-2.588c.305-.532.86-.684 1.391-.381.873.499 1.745.999 2.618 1.497.332.189.495.476.517.934m-3.383-7.34c-.046.132-.073.275-.14.395-.401.716-.811 1.428-1.221 2.139a.767.767 0 0 1-1.077.294c-.72-.406-1.438-.815-2.153-1.228a.774.774 0 0 1-.298-1.079c.407-.719.818-1.436 1.233-2.15.233-.402.687-.522 1.091-.292.714.405 1.425.815 2.137 1.224.265.152.399.382.428.697m.954-1.822c.033-.092.053-.192.1-.277.268-.477.54-.951.814-1.425.163-.28.462-.366.747-.207.486.272.97.55 1.451.831a.518.518 0 0 1 .199.725c-.276.497-.558.99-.846 1.48a.5.5 0 0 1-.686.197 54.182 54.182 0 0 1-1.536-.875c-.159-.094-.233-.252-.243-.449"/></svg>