<svg xmlns="http://www.w3.org/2000/svg" width="72" height="72" viewBox="0 0 72 72"><circle fill="#3B4248" cx="36" cy="36" r="35.198"/><path fill="#E0E1E7" d="M36 72C16.15 72 0 55.85 0 36 0 16.149 16.15 0 36 0s36 16.149 36 36c0 19.85-16.15 36-36 36zm0-70.396C17.034 1.604 1.604 17.034 1.604 36S17.034 70.396 36 70.396 70.396 54.966 70.396 36 54.966 1.604 36 1.604z"/><path fill="#E0E1E7" d="M48.13 27.19v-3.32h-3.32v-5.231h-2.265v5.231h-2.854v-5.231h-2.265v5.231h-2.854v-5.231h-2.265v5.231h-2.854v-5.231H27.19v5.231h-3.32v3.32h-5.231v2.265h5.231v2.854h-5.231v2.265h5.231v2.854h-5.231v2.265h5.231v2.854h-5.231v2.265h5.231v3.32h3.32v5.231h2.265V48.13h2.854v5.231h2.265V48.13h2.854v5.231h2.265V48.13h2.854v5.231h2.265V48.13h3.32v-3.32h5.231v-2.265H48.13v-2.854h5.231v-2.265H48.13v-2.854h5.231v-2.265H48.13v-2.854h5.231V27.19H48.13zm-2.264 18.676H26.134V26.134h19.731v19.732z"/><path fill="#3B4248" d="M45.078 53.629h-2.8v-5.231h-2.319v5.231H37.16v-5.231h-2.32v5.231h-2.799v-5.231h-2.319v5.231h-2.799v-5.231h-3.321v-3.32h-5.231v-2.8h5.231v-2.319h-5.231V37.16h5.231v-2.32h-5.231v-2.799h5.231v-2.319h-5.231v-2.799h5.231v-3.32h3.321v-5.231h2.799v5.231h2.319v-5.231h2.799v5.231h2.319v-5.231h2.799v5.231h2.319v-5.231h2.8v5.231h3.32v3.32h5.231v2.799h-5.231v2.319h5.231v2.799h-5.231v2.319h5.231v2.799h-5.231v2.319h5.231v2.8h-5.231v3.32h-3.32v5.232zm-2.265-.535h1.729v-5.231h3.32v-3.32h5.231v-1.729h-5.231v-3.389h5.231v-1.729h-5.231v-3.389h5.231v-1.73h-5.231v-3.389h5.231v-1.729h-5.231v-3.32h-3.32v-5.231h-1.729v5.231h-3.389v-5.231h-1.729v5.231h-3.389v-5.231h-1.73v5.231h-3.389v-5.231h-1.729v5.231h-3.321v3.32h-5.231v1.729h5.231v3.389h-5.231v1.73h5.231v3.389h-5.231v1.729h5.231v3.389h-5.231v1.729h5.231v3.32h3.321v5.231h1.729v-5.231h3.389v5.231h1.73v-5.231h3.389v5.231h1.729v-5.231h3.389v5.231zm3.32-6.961H25.867V25.867h20.266v20.266zm-19.731-.535h19.196V26.402H26.402v19.196z"/><path fill="#E0E1E7" d="M44.123 34.205c0-1.554-.963-2.91-2.334-3.475a3.467 3.467 0 0 0-3.458-3.284c-.896 0-1.715.343-2.331.904a3.451 3.451 0 0 0-2.33-.904 3.467 3.467 0 0 0-3.458 3.284 3.773 3.773 0 0 0-2.335 3.475c0 .649.166 1.261.457 1.794a3.757 3.757 0 0 0-.457 1.796c0 1.568.967 2.914 2.335 3.476a3.467 3.467 0 0 0 3.458 3.283c.896 0 1.714-.343 2.33-.904a3.447 3.447 0 0 0 2.331.904 3.467 3.467 0 0 0 3.458-3.283 3.76 3.76 0 0 0 1.877-5.272 3.724 3.724 0 0 0 .457-1.794zm-9.255 6.887a1.199 1.199 0 0 1-2.344.349 3.754 3.754 0 0 0 1.893-1.126l-1.679-1.521a1.475 1.475 0 0 1-1.105.491 1.494 1.494 0 0 1-1.486-1.633c.456.197.958.308 1.485.308v-2.265a1.493 1.493 0 0 1-1.492-1.492c0-.536.289-1.013.721-1.276.391.545.939.978 1.591 1.222l.795-2.12a1.199 1.199 0 1 1 1.619-1.123v10.186zm6.984-3.438a1.493 1.493 0 0 1-1.485 1.633c-.427 0-.819-.175-1.105-.491l-1.679 1.521a3.761 3.761 0 0 0 1.894 1.126 1.199 1.199 0 0 1-2.344-.349V30.908a1.199 1.199 0 0 1 2.396 0c0 .497-.313.948-.777 1.123l.795 2.12a3.46 3.46 0 0 0 1.591-1.222c.434.263.721.74.721 1.276 0 .823-.669 1.492-1.491 1.492v2.265a3.752 3.752 0 0 0 1.484-.308z"/><path fill="#3B4248" d="M38.331 44.822a3.72 3.72 0 0 1-2.331-.82 3.726 3.726 0 0 1-6.042-2.55 4.01 4.01 0 0 1-2.348-3.656c0-.623.146-1.24.423-1.796a4.016 4.016 0 0 1 1.924-5.45A3.727 3.727 0 0 1 36 27.998a3.728 3.728 0 0 1 6.044 2.552A4.016 4.016 0 0 1 43.968 36c.277.555.423 1.173.423 1.796 0 1.583-.916 3-2.347 3.656a3.729 3.729 0 0 1-3.713 3.37zM36 43.289l.18.164a3.19 3.19 0 0 0 5.34-2.195l.009-.17.157-.063a3.49 3.49 0 0 0 1.744-4.897L43.361 36l.069-.128a3.485 3.485 0 0 0-1.744-4.894l-.157-.064-.009-.169a3.192 3.192 0 0 0-5.34-2.197l-.18.163-.18-.165a3.192 3.192 0 0 0-5.341 2.197l-.009.169-.156.064a3.483 3.483 0 0 0-1.745 4.894l.07.128-.07.128a3.5 3.5 0 0 0-.424 1.668 3.48 3.48 0 0 0 2.169 3.229l.157.063.009.17a3.192 3.192 0 0 0 5.341 2.195l.179-.162zm2.331-.732a1.467 1.467 0 0 1-1.466-1.465V30.908a1.467 1.467 0 0 1 2.932 0c0 .517-.277.994-.71 1.256l.612 1.632c.484-.23.903-.58 1.222-1.023l.145-.201.212.129c.523.318.849.895.849 1.504 0 .879-.648 1.61-1.491 1.739v1.741a3.427 3.427 0 0 0 1.111-.275l.338-.146.034.366a1.76 1.76 0 0 1-2.86 1.53l-1.29 1.168c.439.415.978.709 1.572.854l.274.067-.083.271a1.46 1.46 0 0 1-1.401 1.037zm-.931-2.045v.58c0 .513.417.931.931.931.311 0 .6-.16.77-.411a4.004 4.004 0 0 1-1.701-1.1zm.931-10.534a.931.931 0 0 0-.931.931v9.212l.003-.003 1.877-1.699.179.198a1.225 1.225 0 0 0 2.106-.572 3.97 3.97 0 0 1-1.198.184h-.268v-2.8h.268c.675 0 1.225-.549 1.225-1.225 0-.345-.15-.674-.403-.905a3.701 3.701 0 0 1-1.548 1.102l-.25.094-.983-2.621.25-.094a.935.935 0 0 0 .604-.872.933.933 0 0 0-.931-.93zM33.67 42.557a1.476 1.476 0 0 1-1.401-1.037l-.083-.271.275-.067a3.485 3.485 0 0 0 1.572-.854l-1.289-1.168a1.76 1.76 0 0 1-2.862-1.53l.034-.367.338.146c.355.154.728.246 1.111.275v-1.741a1.761 1.761 0 0 1-1.491-1.739c0-.609.325-1.186.849-1.504l.211-.129.145.201c.318.443.737.793 1.222 1.024l.612-1.632a1.466 1.466 0 0 1 .756-2.721c.808 0 1.465.657 1.465 1.465v10.184a1.465 1.465 0 0 1-1.464 1.465zm-.771-.945a.938.938 0 0 0 .771.411.933.933 0 0 0 .931-.931v-.58a4 4 0 0 1-1.702 1.1zm-.179-3.194l1.88 1.702v-9.212a.932.932 0 0 0-1.862 0c0 .386.243.737.604.872l.25.094-.983 2.621-.25-.094a3.701 3.701 0 0 1-1.548-1.102 1.235 1.235 0 0 0-.402.905c0 .675.549 1.225 1.224 1.225h.267v2.8h-.267a3.96 3.96 0 0 1-1.198-.184 1.226 1.226 0 0 0 2.106.572l.179-.199z"/></svg>