<svg xmlns="http://www.w3.org/2000/svg" width="57" height="57" viewBox="0 0 57 57"><circle fill="#ECEFF1" cx="28.5" cy="28.5" r="27.865"/><path fill="#C2C2C2" d="M28.501 57C12.785 57 0 44.215 0 28.5S12.785 0 28.501 0C44.216 0 57 12.785 57 28.5S44.216 57 28.501 57zm0-55.73c-15.016 0-27.23 12.215-27.23 27.23s12.215 27.23 27.23 27.23S55.73 43.515 55.73 28.5 43.516 1.27 28.501 1.27z"/><g fill-rule="evenodd" clip-rule="evenodd" fill="#55666C"><path d="M42.815 37.882l-2.805 3.061v-1.776H34.3c.982-.805 1.948-1.61 2.936-2.389.146-.114.389-.139.588-.144.696-.017 1.394-.006 2.154-.006v-1.86c.872.952 1.619 1.773 2.374 2.587.138.148.308.268.463.399v.128zm-19.426-5.764l1.616-.675-1.582 4.081-4.079-1.612 1.674-.757c-.459-1.381-.66-2.763-.542-4.203.327-3.976 3.561-7.513 7.503-8.146 5.037-.81 9.567 2.231 10.697 7.182 1.231 5.397-2.947 10.932-8.476 11.046-5.221.106-10.446.033-15.669.038-.063 0-.125-.018-.284-.043l1.083-1.222-1.145-1.203h.796c4.863 0 9.725.002 14.588-.001 3.865-.002 6.847-3.056 6.754-6.912-.089-3.722-3.282-6.633-7.083-6.457-4.182.193-7.211 4.442-6.025 8.453.042.139.108.27.174.431z"/><path d="M24.683 17.648l.81-1.591 1.453 4.129-4.17 1.424.719-1.491c-.688-.331-1.599-.033-2.149.697-.668.886-.559 1.866.343 2.9l-1.253 2.107c-1.636-.86-2.511-3.29-1.861-5.229.822-2.46 2.874-3.458 6.108-2.946z"/></g></svg>