<svg xmlns="http://www.w3.org/2000/svg" width="57" height="57" viewBox="0 0 57 57"><circle fill="#ECEFF1" cx="28.5" cy="28.5" r="27.865"/><path fill="#C2C2C2" d="M28.5 57C12.785 57 0 44.215 0 28.5S12.785 0 28.5 0 57 12.785 57 28.5 44.215 57 28.5 57zm0-55.73C13.485 1.27 1.27 13.485 1.27 28.5S13.485 55.73 28.5 55.73 55.73 43.515 55.73 28.5 43.515 1.27 28.5 1.27z"/><path fill="#55666C" d="M39.117 19.858H17.883a.74.74 0 0 0-.74.741v3.688h22.715v-3.688a.741.741 0 0 0-.741-.741zM31.44 23.06a.989.989 0 0 1 0-1.975.989.989 0 0 1 0 1.975zm2.691 0a.989.989 0 0 1 0-1.975.989.989 0 0 1 0 1.975zm2.691 0a.989.989 0 1 1 .987-.988.989.989 0 0 1-.987.988zm-19.679 2.708v10.633c0 .409.332.741.74.741h21.234a.741.741 0 0 0 .741-.741V25.768H17.143zm10.445 6.251l-2.424 2.063a.74.74 0 1 1-.961-1.128l1.762-1.499-1.762-1.5a.74.74 0 1 1 .961-1.128l2.424 2.063a.741.741 0 0 1 0 1.129zm4.728 2.24H29.39a.741.741 0 0 1 0-1.482h2.926a.741.741 0 0 1 0 1.482z"/></svg>