<svg xmlns="http://www.w3.org/2000/svg" width="57" height="57" viewBox="0 0 57 57"><circle fill="#ECEFF1" cx="28.5" cy="28.5" r="27.865"/><path fill="#C2C2C2" d="M28.5 57C12.785 57 0 44.215 0 28.5S12.785 0 28.5 0 57 12.785 57 28.5 44.215 57 28.5 57zm0-55.73C13.485 1.27 1.27 13.485 1.27 28.5S13.485 55.73 28.5 55.73 55.73 43.515 55.73 28.5 43.515 1.27 28.5 1.27z"/><g fill="#5B666B"><path d="M21.589 35.493l-4.246 1.138 1.163-4.337a9.322 9.322 0 1 1 3.083 3.199z"/><path d="M39.666 38.434L35.803 37.4a8.437 8.437 0 0 1-4.526 1.311 8.427 8.427 0 0 1-3.34-.686c5.146-.674 9.135-5.085 9.135-10.413 0-1.543-.338-3.009-.938-4.331a8.469 8.469 0 0 1 3.624 6.949 8.45 8.45 0 0 1-1.148 4.26l1.056 3.944z"/></g></svg>