<svg xmlns="http://www.w3.org/2000/svg" width="39" height="38.57" viewBox="0 0 39 38.57" fill="#e0e1e7"><path d="M33.827 6.032a4.266 4.266 0 0 0-1.822 3.494c0 2.883 3.35 5.707 3.732 6.019a.845.845 0 0 0 1.07 0c.155-.126.8-.668 1.511-1.458.387 1.403.615 2.846.68 4.311H31.74c-.124-5.205-1.333-10.08-3.439-13.808-.917-1.623-1.962-2.956-3.099-3.974 3.276 1 6.254 2.854 8.625 5.416zM18.655 0v18.398H8.95c.065-2.612.415-5.128 1.023-7.435.985 1.947 2.841 3.51 3.12 3.738a.843.843 0 0 0 1.071 0c.382-.313 3.731-3.136 3.731-6.02a4.272 4.272 0 0 0-5.175-4.169C14.416 1.89 16.479.323 18.655 0z"/><path d="M13.796.619c-1.136 1.018-2.181 2.35-3.097 3.972-2.106 3.727-3.316 8.602-3.439 13.807H.003C.381 10.009 6.079 2.981 13.796.619zM0 20.088h7.258c.113 5.237 1.324 10.145 3.44 13.892.916 1.622 1.961 2.954 3.097 3.972C6.053 35.581.343 28.515 0 20.088z"/><path d="M18.655 38.57c-2.418-.359-4.695-2.251-6.485-5.422-1.977-3.5-3.111-8.113-3.222-13.061h9.707v4.428a4.274 4.274 0 0 0-3.464 4.19c0 2.525 2.569 5.004 3.464 5.792v4.073zm6.549-.618c1.136-1.018 2.181-2.35 3.097-3.972 2.117-3.748 3.328-8.655 3.44-13.892H39c-.343 8.427-6.053 15.493-13.796 17.864z"/><path d="M26.09 20.088a.845.845 0 1 1 0-1.69h3.96c-.122-4.916-1.254-9.496-3.22-12.976C25.04 2.251 22.763.359 20.345 0v24.533a4.273 4.273 0 0 1 3.38 4.173c0 2.45-2.418 4.856-3.38 5.716v4.148c2.418-.359 4.695-2.251 6.485-5.422 1.977-3.5 3.111-8.113 3.222-13.061H26.09zm-3.041 0h-.507a.845.845 0 1 1 0-1.69h.507a.845.845 0 0 1 0 1.69zM36.271 6.949a2.58 2.58 0 0 0-2.577 2.577c0 1.478 1.555 3.268 2.576 4.236 1.021-.97 2.578-2.763 2.578-4.236a2.58 2.58 0 0 0-2.577-2.577zm.846 2.704a.845.845 0 1 1-1.69 0v-.338a.845.845 0 0 1 1.69 0v.338zM13.628 6.104a2.58 2.58 0 0 0-2.577 2.577c0 1.479 1.556 3.268 2.576 4.236 1.021-.97 2.578-2.763 2.578-4.236a2.58 2.58 0 0 0-2.577-2.577zm.845 2.705a.844.844 0 0 1-1.69 0V8.47a.845.845 0 0 1 1.69 0v.339z"/><path d="M19.458 26.129a2.58 2.58 0 0 0-2.577 2.577c0 1.478 1.555 3.268 2.576 4.236 1.021-.97 2.578-2.763 2.578-4.236a2.58 2.58 0 0 0-2.577-2.577zm.845 2.704a.845.845 0 1 1-1.689 0v-.338a.845.845 0 0 1 1.689 0v.338z"/></svg>