<svg xmlns="http://www.w3.org/2000/svg" width="72" height="72" viewBox="0 0 72 72"><circle fill="#3B4248" cx="36" cy="36" r="35.198"/><path fill="#E0E1E7" d="M36 72C16.15 72 0 55.85 0 36 0 16.149 16.15 0 36 0s36 16.149 36 36c0 19.85-16.15 36-36 36zm0-70.396C17.034 1.604 1.604 17.034 1.604 36S17.034 70.396 36 70.396 70.396 54.966 70.396 36 54.966 1.604 36 1.604z"/><g fill="#E0E1E7"><path d="M46.987 32.769v1.938H40.03l-3.384-1.692V30.83h.97a1.608 1.608 0 1 0 .969-2.9v-.687a3.833 3.833 0 0 0 1.293-2.875 3.88 3.88 0 0 0-3.877-3.877 3.88 3.88 0 0 0-3.877 3.877c0 1.107.467 2.138 1.292 2.875v.687a1.609 1.609 0 0 0 .97 2.9h.969v2.186l-4.677 2.338 4.676 2.338v2.187H21.136V37.94h3.877v-5.17h-9.048v5.17h3.878v5.17h-3.878v5.17h9.048v-5.17h-3.877v-1.94h14.218v1.938h-3.877v5.17h3.877v2.586h-1.292a2.588 2.588 0 0 0-2.585 2.585 2.588 2.588 0 0 0 2.585 2.585h3.878a2.588 2.588 0 0 0 2.585-2.585 2.587 2.587 0 0 0-2.585-2.585h-1.293v-2.586h3.878v-5.17h-3.878v-5.417L40.03 36h6.957v1.939h3.877v5.262a2.581 2.581 0 0 0-1.938 2.493c0 1.426 1.159 2.585 2.585 2.585s2.585-1.159 2.585-2.585a2.581 2.581 0 0 0-1.938-2.493v-5.262h3.878v-5.17h-9.049zM23.721 44.401v2.585h-6.463v-2.585h6.463zm-6.463-7.755v-2.585h6.463v2.585h-6.463zM36 21.782a2.587 2.587 0 0 1 2.584 2.584c0 .809-.377 1.558-1.035 2.056l-.257.193v.983h-.646v-1.412a1.937 1.937 0 0 0 1.292-1.82c0-1.068-.87-1.938-1.939-1.938s-1.939.87-1.939 1.938c0 .842.542 1.553 1.293 1.82v1.412h-.646v-.983l-.256-.194a2.559 2.559 0 0 1-1.036-2.055A2.588 2.588 0 0 1 36 21.782zm.646 2.585a.646.646 0 1 1-1.293 0 .646.646 0 0 1 1.293 0zm-2.262 5.17a.324.324 0 0 1-.323-.323c0-.177.145-.323.323-.323h3.231a.323.323 0 0 1 0 .646h-3.231zm3.555 22.619a1.294 1.294 0 0 1 0 2.586h-3.878a1.293 1.293 0 0 1 0-2.586h3.878zm1.293-7.755v2.585h-6.463v-2.585h6.463zM36 36.57l-2.433-1.216L36 34.137l2.432 1.216L36 36.57zm16.803 9.125a1.293 1.293 0 1 1-2.583-.003 1.293 1.293 0 0 1 2.583.003zm1.939-9.049h-6.463v-2.585h6.463v2.585z"/><path d="M27.598 19.843c.842 0 1.552-.542 1.82-1.292h2.507a7.103 7.103 0 0 0-3.001 5.17h-1.326v3.878h3.877v-3.878h-1.254c.323-2.903 2.79-5.17 5.778-5.17a5.823 5.823 0 0 1 5.778 5.17h-1.254v3.878H44.4v-3.878h-1.325a7.104 7.104 0 0 0-3.002-5.17h2.508c.268.75.979 1.293 1.819 1.293 1.069 0 1.939-.87 1.939-1.939s-.87-1.939-1.939-1.939c-.841 0-1.552.542-1.819 1.292H29.418a1.937 1.937 0 0 0-1.82-1.292c-1.069 0-1.939.87-1.939 1.939s.871 1.938 1.939 1.938zm2.586 6.463h-1.292v-1.292h1.292v1.292zm11.633-1.293h1.292v1.292h-1.292v-1.292zm2.584-7.755a.647.647 0 0 1 0 1.292.647.647 0 0 1 0-1.292zm-16.803 0a.647.647 0 0 1 0 1.292.646.646 0 0 1 0-1.292z"/></g></svg>