<svg xmlns="http://www.w3.org/2000/svg" width="72" height="72" viewBox="0 0 72 72"><circle fill="#3B4248" cx="36" cy="36" r="35.198"/><path fill="#E0E1E7" d="M36 72C16.15 72 0 55.85 0 36 0 16.149 16.15 0 36 0s36 16.149 36 36c0 19.85-16.15 36-36 36zm0-70.396C17.034 1.604 1.604 17.034 1.604 36S17.034 70.396 36 70.396 70.396 54.966 70.396 36 54.966 1.604 36 1.604z"/><path fill="#E0E1E7" d="M40.362 21.178c-5.767 0-10.458 4.691-10.458 10.458 0 1.906.513 3.694 1.408 5.234l-9.339 9.339a2.706 2.706 0 0 0 0 3.823c.527.526 1.219.79 1.912.79s1.384-.264 1.912-.79l9.34-9.342a10.389 10.389 0 0 0 5.226 1.402c5.766 0 10.456-4.69 10.456-10.458-.001-5.765-4.692-10.456-10.457-10.456zM24.565 48.802a.966.966 0 0 1-1.364-1.364l.586-.586 1.364 1.364-.586.586zm1.816-1.815l-1.364-1.364.942-.941 1.364 1.364-.942.941zm2.171-2.171l-1.364-1.364 5.135-5.135c.412.495.869.951 1.365 1.363l-5.136 5.136zm11.81-4.462c-4.808 0-8.719-3.911-8.719-8.718 0-4.808 3.911-8.719 8.719-8.719 4.807 0 8.718 3.911 8.718 8.719 0 4.807-3.912 8.718-8.718 8.718z"/><path fill="#3B4248" d="M23.884 50.956c-.758 0-1.471-.294-2.006-.829s-.83-1.248-.83-2.006c0-.759.294-1.472.83-2.007l9.267-9.267a10.571 10.571 0 0 1-1.375-5.211c0-5.84 4.751-10.591 10.592-10.591 5.839 0 10.59 4.751 10.59 10.59 0 5.84-4.751 10.591-10.59 10.591-1.825 0-3.622-.474-5.204-1.369l-9.269 9.27a2.816 2.816 0 0 1-2.005.829zm16.478-29.644c-5.693 0-10.324 4.631-10.324 10.324 0 1.815.48 3.602 1.389 5.167l.052.089-9.412 9.412a2.553 2.553 0 0 0-.751 1.817c0 .687.267 1.332.751 1.816s1.13.752 1.817.752 1.332-.268 1.817-.752l9.413-9.414.089.052a10.308 10.308 0 0 0 5.159 1.384c5.691 0 10.323-4.631 10.323-10.324 0-5.692-4.632-10.323-10.323-10.323zM23.884 49.218a1.1 1.1 0 0 1-.777-1.874l.681-.682 1.553 1.554-.681.681a1.09 1.09 0 0 1-.776.321zm-.096-2.177l-.492.492a.832.832 0 0 0 0 1.175.853.853 0 0 0 1.175 0l.491-.491-1.174-1.176zm2.593.134l-1.553-1.553 1.131-1.13 1.553 1.553-1.131 1.13zm-1.175-1.552l1.175 1.175.752-.752-1.175-1.175-.752.752zm3.346-.619l-1.553-1.553 5.333-5.333.094.112c.406.487.859.94 1.348 1.347l.113.094-5.335 5.333zm-1.175-1.552l1.175 1.175 4.938-4.938a10.686 10.686 0 0 1-1.176-1.174l-4.937 4.937zm12.985-2.964c-4.881 0-8.853-3.971-8.853-8.852 0-4.882 3.971-8.853 8.853-8.853 4.881 0 8.852 3.971 8.852 8.853-.001 4.881-3.971 8.852-8.852 8.852zm0-17.438c-4.734 0-8.585 3.851-8.585 8.585 0 4.733 3.851 8.584 8.585 8.584 4.733 0 8.584-3.851 8.584-8.584 0-4.734-3.851-8.585-8.584-8.585z"/><path fill="#E0E1E7" d="M44.969 30.657a.87.87 0 0 0-.869.87v3.777a.869.869 0 1 0 1.738 0v-3.777a.87.87 0 0 0-.869-.87z"/><path fill="#3B4248" d="M44.969 36.307c-.553 0-1.003-.45-1.003-1.003v-3.777a1.003 1.003 0 0 1 2.005 0v3.777c0 .553-.449 1.003-1.002 1.003zm0-5.516a.736.736 0 0 0-.735.736v3.777c0 .405.329.736.735.736a.737.737 0 0 0 .735-.736v-3.777a.735.735 0 0 0-.735-.736z"/><path fill="#E0E1E7" d="M42.092 26.775a.87.87 0 0 0-.869.869v7.659a.87.87 0 0 0 1.738 0v-7.659a.869.869 0 0 0-.869-.869z"/><path fill="#3B4248" d="M42.092 36.307c-.553 0-1.003-.45-1.003-1.003v-7.659a1.004 1.004 0 0 1 2.006 0v7.659c0 .553-.45 1.003-1.003 1.003zm0-9.398a.736.736 0 0 0-.735.735v7.659c0 .405.33.736.735.736a.737.737 0 0 0 .736-.736v-7.659a.735.735 0 0 0-.736-.735z"/><path fill="#E0E1E7" d="M39.175 28.716a.87.87 0 0 0-.869.869v5.771a.87.87 0 0 0 1.738 0v-5.771a.868.868 0 0 0-.869-.869z"/><path fill="#3B4248" d="M39.175 36.359c-.553 0-1.002-.45-1.002-1.003v-5.771a1.002 1.002 0 0 1 2.005 0v5.771c0 .553-.45 1.003-1.003 1.003zm0-7.509a.736.736 0 0 0-.735.735v5.771a.736.736 0 0 0 1.47 0v-5.771a.734.734 0 0 0-.735-.735z"/><path fill="#E0E1E7" d="M36.135 26.828a.869.869 0 0 0-.869.869v7.66a.87.87 0 0 0 1.739 0v-7.66a.87.87 0 0 0-.87-.869z"/><path fill="#3B4248" d="M36.135 36.359c-.553 0-1.003-.45-1.003-1.003v-7.66a1.003 1.003 0 0 1 2.006 0v7.66c0 .553-.45 1.003-1.003 1.003zm0-9.398a.736.736 0 0 0-.735.735v7.66a.736.736 0 0 0 1.471 0v-7.66a.736.736 0 0 0-.736-.735z"/></svg>