<svg xmlns="http://www.w3.org/2000/svg" width="58" height="58" viewBox="13.519 13.072 58 58"><circle fill="#393939" cx="42.519" cy="42.072" r="29"/><path fill="#FFF" d="M42.519 32.093c-1.56 0-2.828 1.269-2.828 2.829s1.269 2.828 2.828 2.828 2.828-1.269 2.828-2.828-1.268-2.829-2.828-2.829zm0 4.526c-.936 0-1.697-.761-1.697-1.697s.761-1.697 1.697-1.697 1.697.762 1.697 1.697-.761 1.697-1.697 1.697z"/><path fill="#FFF" d="M48.502 36.019l-.495-.286c-.034-.02-.055-.058-.049-.095a5.542 5.542 0 0 0-.001-1.433.097.097 0 0 1 .05-.095l.495-.286c.588-.34.79-1.094.45-1.682l-.81-1.404a1.224 1.224 0 0 0-.748-.574 1.224 1.224 0 0 0-.935.123l-.495.286a.099.099 0 0 1-.107-.004 5.472 5.472 0 0 0-1.241-.718.097.097 0 0 1-.056-.09v-.571c0-.679-.553-1.231-1.231-1.231h-1.621c-.679 0-1.23.552-1.23 1.231v.571c0 .04-.023.076-.056.09a5.457 5.457 0 0 0-1.242.718.098.098 0 0 1-.107.004l-.495-.286a1.225 1.225 0 0 0-.934-.123 1.224 1.224 0 0 0-.748.574l-.81 1.404a1.221 1.221 0 0 0-.123.934c.085.318.289.583.573.748l.496.286c.034.02.054.058.049.095a5.53 5.53 0 0 0 0 1.432.098.098 0 0 1-.049.095l-.495.286a1.233 1.233 0 0 0-.451 1.682l.81 1.404a1.232 1.232 0 0 0 1.682.451l.496-.286a.093.093 0 0 1 .106.005c.381.293.799.535 1.242.718.033.014.056.05.056.09v.571c0 .679.552 1.231 1.231 1.231h1.621c.679 0 1.231-.552 1.231-1.231v-.571c0-.04.022-.076.056-.089a5.5 5.5 0 0 0 1.242-.718c.029-.023.072-.024.107-.005l.494.286c.588.34 1.343.137 1.683-.451l.81-1.404a1.233 1.233 0 0 0-.451-1.682zm-.529 1.116l-.811 1.404a.101.101 0 0 1-.137.037l-.495-.287a1.222 1.222 0 0 0-1.361.088 4.382 4.382 0 0 1-.985.569c-.459.19-.755.635-.755 1.135v.571a.1.1 0 0 1-.1.1h-1.621a.1.1 0 0 1-.1-.1v-.571c0-.5-.296-.945-.753-1.135a4.37 4.37 0 0 1-.986-.57 1.218 1.218 0 0 0-1.362-.087l-.496.286a.1.1 0 0 1-.136-.036l-.811-1.404a.097.097 0 0 1-.01-.075.096.096 0 0 1 .047-.061l.496-.287c.432-.25.67-.729.605-1.223a4.311 4.311 0 0 1 0-1.137 1.224 1.224 0 0 0-.605-1.222l-.495-.286a.1.1 0 0 1-.037-.136l.811-1.404c.017-.03.042-.042.061-.046s.046-.007.076.01l.496.286c.433.25.967.215 1.362-.087.303-.233.634-.425.985-.57.458-.19.754-.635.754-1.135v-.571a.1.1 0 0 1 .1-.1h1.621a.1.1 0 0 1 .1.1v.571c0 .5.296.945.755 1.135a4.3 4.3 0 0 1 .984.57c.395.303.93.337 1.362.087l.496-.286a.1.1 0 0 1 .136.036l.811 1.404c.018.03.015.058.01.076a.1.1 0 0 1-.046.061l-.495.287a1.22 1.22 0 0 0-.605 1.222 4.502 4.502 0 0 1 0 1.138c-.064.493.173.972.605 1.221l.495.286a.1.1 0 0 1 .034.136z"/><path fill="#FFF" d="M51.875 41.306a11.084 11.084 0 0 0 1.769-6.021c0-2.947-1.141-5.724-3.212-7.819a11.051 11.051 0 0 0-7.771-3.304l-.141-.001c-2.915 0-5.67 1.126-7.771 3.182a11.04 11.04 0 0 0-3.353 7.832 11.085 11.085 0 0 0 1.741 6.089 11.14 11.14 0 0 0 4.152 3.839l-3.042 4.259a.988.988 0 0 0-.075 1.033.99.99 0 0 0 .884.539h2.371v1.054a1.21 1.21 0 0 0 1.209 1.209H46.4a1.21 1.21 0 0 0 1.21-1.209v-1.054h2.371a.992.992 0 0 0 .81-1.572l-3.041-4.259a11.18 11.18 0 0 0 4.125-3.797zm-14.446 8.496h-2.106l2.106-2.948v2.948zm9.05 2.185a.078.078 0 0 1-.079.078h-7.762a.078.078 0 0 1-.078-.078v-.345l7.919-.659v1.004zm0-2.14l-7.919.66v-1.128l7.919-.659v1.127zm3.236-.045H47.61v-2.948l2.105 2.948zm-2.914-5.487a.567.567 0 0 0-.322.511v.497l-1.749.146a.564.564 0 1 0 .094 1.127l1.654-.139v1.128l-7.919.66v-1.128l3.51-.293a.565.565 0 1 0-.093-1.126l-3.416.284v-1.156a.566.566 0 0 0-.323-.511 10.034 10.034 0 0 1-5.71-9.13 9.915 9.915 0 0 1 3.012-7.035 9.923 9.923 0 0 1 6.981-2.859h.126c5.44.068 9.866 4.55 9.866 9.992 0 3.839-2.242 7.384-5.711 9.032zm-7.299 9.259a.564.564 0 0 0-.565.564v5.28a.564.564 0 1 0 1.13 0v-5.28a.564.564 0 0 0-.565-.564zm6.034 0a.564.564 0 0 0-.565.564v5.28a.564.564 0 1 0 1.131 0v-5.28a.566.566 0 0 0-.566-.564zm-3.018 0a.565.565 0 0 0-.565.564v5.28a.564.564 0 1 0 1.131 0v-5.28a.565.565 0 0 0-.566-.564z"/></svg>