<svg xmlns="http://www.w3.org/2000/svg" width="52" height="62.121" viewBox="0 0 52 62.121"><path d="M37.864 0c2.179 1.242 4.36 2.482 6.539 3.726 1.721.986 2.046 2.156 1.071 3.859-1.09 1.904-2.177 3.813-3.273 5.712-.823 1.422-2.067 1.765-3.496.958a603.629 603.629 0 0 1-5.949-3.399c-1.44-.837-1.753-2.033-.926-3.493 1.009-1.783 2.056-3.548 3.034-5.346C35.336 1.151 35.89.414 36.808 0h1.056zM27.833 45.753c-.253.736-.405 1.531-.78 2.199a1146.324 1146.324 0 0 1-6.796 11.913c-1.262 2.189-3.784 2.888-5.999 1.64a1376.56 1376.56 0 0 1-11.99-6.84C.074 53.399-.633 50.854.61 48.658a1199.1 1199.1 0 0 1 6.867-11.974c1.298-2.239 3.825-2.908 6.078-1.629 3.977 2.259 7.939 4.539 11.902 6.818 1.469.849 2.218 2.125 2.376 3.88m5.317-10.148c.181-.515.292-1.069.555-1.544a684.045 684.045 0 0 1 4.532-7.934c.905-1.563 2.572-2.04 4.16-1.155a521.807 521.807 0 0 1 8.084 4.63c1.477.863 1.943 2.527 1.108 4.035a406.19 406.19 0 0 1-4.708 8.241c-.803 1.375-2.417 1.866-3.819 1.1a298.277 298.277 0 0 1-8.553-4.872c-.89-.524-1.306-1.404-1.359-2.501"/></svg>