<svg xmlns="http://www.w3.org/2000/svg" width="20" height="19.111" viewBox="0 0 20 19.111"><path fill="#FFF" d="M20 11.717v7.394h-4.287v-6.899c0-1.733-.62-2.916-2.172-2.916-1.184 0-1.889.797-2.199 1.568-.113.276-.142.66-.142 1.046v7.202H6.912s.058-11.685 0-12.895H11.2v1.828c-.009.014-.021.028-.028.042h.028v-.043c.57-.877 1.586-2.131 3.864-2.131 2.821 0 4.936 1.843 4.936 5.804zM2.426 0C.959 0 0 .962 0 2.228c0 1.238.932 2.229 2.369 2.229h.029c1.496 0 2.426-.991 2.426-2.229C4.795.962 3.894 0 2.426 0zM.255 19.111h4.286V6.216H.255v12.895z"/></svg>