<svg xmlns="http://www.w3.org/2000/svg" width="35" height="44" viewBox="0 0 66 76.927" fill="#E0E1E7"><path d="M0 43.542c.015-.086.042-.173.044-.26.087-4.808 1.189-9.373 3.278-13.701a32.793 32.793 0 0 1 3.443-5.596c.082-.108.167-.215.26-.334 1.189.588 2.255 1.388 3.499 1.887-.399.698-.812 1.419-1.222 2.14-.359.631-.253 1.021.378 1.382.682.389 1.365.779 2.05 1.165.48.271.912.154 1.188-.321.421-.728.84-1.458 1.252-2.191.255-.455.125-.908-.33-1.17-.681-.393-1.366-.779-2.049-1.168-.084-.048-.167-.102-.208-.127.32-.54.635-1.061.939-1.587.539-.934 1.075-1.87 1.607-2.808.475-.837.254-1.614-.582-2.097-.902-.52-1.802-1.042-2.702-1.567-.666-.388-.845-1.064-.461-1.739a761.07 761.07 0 0 1 1.813-3.166c.392-.679 1.073-.861 1.758-.47 1.055.603 2.11 1.208 3.164 1.814.659.379.85 1.047.481 1.71-.544.982-1.092 1.961-1.643 2.939-.486.864-.274 1.638.574 2.142a112.47 112.47 0 0 0 8.115 4.352c.097.046.191.099.309.16-.229.399-.448.776-.664 1.154-1.54 2.689-3.042 5.397-4.163 8.296-.764 1.973-1.382 3.986-1.665 6.093-.88 6.547.846 12.306 5.293 17.195 2.93 3.221 6.567 5.275 10.848 6.115 4.274.838 8.416.312 12.375-1.48 4.501-2.038 7.938-5.241 10.21-9.645 1.322-2.563 2.037-5.301 2.08-8.192.082-5.432-1.484-10.308-4.992-14.502a17.992 17.992 0 0 0-6.633-4.979c-.083-.036-.166-.077-.248-.116-.005-.003-.005-.016-.025-.072.493.084.963.156 1.431.246 3.009.58 5.844 1.613 8.407 3.317 4.238 2.817 6.9 6.743 8.13 11.66.345 1.378.543 2.779.615 4.198.002.069.029.137.044.206v2.251c-.016.087-.039.174-.046.263-.046.537-.072 1.077-.136 1.611-.411 3.472-1.436 6.762-2.978 9.893-2.13 4.322-5.081 7.997-8.809 11.038-5.435 4.433-11.668 6.865-18.663 7.349-.441.031-.883.067-1.325.101h-2.032c-.069-.015-.137-.042-.208-.044a30.439 30.439 0 0 1-5.117-.575c-6.555-1.303-12.21-4.311-16.959-9.009a32.33 32.33 0 0 1-6.393-8.951A32.48 32.48 0 0 1 .041 44.631c.001-.091-.026-.177-.041-.265v-.824zM33.329 0l2.039 1.162c.537.307.638.673.334 1.203-.34.594-.679 1.189-1.021 1.782-.257.443-.645.55-1.09.298-.62-.35-1.239-.703-1.855-1.06-.449-.26-.547-.633-.289-1.089.314-.556.641-1.106.946-1.667.148-.27.32-.5.607-.629h.329z"/><path d="M36.079 27.017c-.053.157-.108.461-.251.716a408.893 408.893 0 0 1-2.625 4.594c-.517.894-1.481 1.146-2.383.632-1.507-.86-3.015-1.723-4.52-2.587-.922-.529-1.183-1.5-.656-2.42.857-1.499 1.716-2.997 2.575-4.495.53-.924 1.494-1.188 2.417-.661 1.516.866 3.03 1.735 4.546 2.6.575.327.857.825.897 1.621m-5.878-12.748c-.079.229-.126.477-.244.685a348.638 348.638 0 0 1-2.119 3.715c-.394.683-1.18.9-1.871.511a404.779 404.779 0 0 1-3.739-2.132c-.684-.395-.905-1.189-.517-1.874a383.238 383.238 0 0 1 2.142-3.735c.404-.697 1.192-.906 1.895-.507 1.24.704 2.476 1.416 3.712 2.127.458.263.691.662.741 1.21m1.658-3.166c.057-.161.091-.333.173-.48.464-.829.938-1.653 1.414-2.475.282-.487.802-.636 1.297-.36.845.473 1.685.955 2.521 1.443.46.27.606.789.346 1.258-.479.862-.969 1.719-1.468 2.571-.25.428-.754.582-1.191.342-.898-.49-1.785-1-2.667-1.52-.279-.162-.409-.437-.425-.779"/></svg>