<svg xmlns="http://www.w3.org/2000/svg" width="72" height="72" viewBox="0 0 72 72"><circle fill="#3B4248" cx="36" cy="36" r="35.198"/><path fill="#E0E1E7" d="M36 72C16.15 72 0 55.85 0 36 0 16.149 16.15 0 36 0s36 16.149 36 36c0 19.85-16.15 36-36 36zm0-70.396C17.034 1.604 1.604 17.034 1.604 36S17.034 70.396 36 70.396 70.396 54.966 70.396 36 54.966 1.604 36 1.604z"/><g fill="#E0E1E7"><path d="M44.862 35.803a.548.548 0 0 0-.542.464c-.655 4.363-4.471 7.706-9.034 7.616-4.717-.092-8.586-3.883-8.768-8.598-.198-5.098 3.892-9.31 8.948-9.31 4.539 0 8.302 3.396 8.878 7.78a.549.549 0 0 0 1.087-.145c-.652-4.947-4.915-8.772-10.046-8.732-5.546.044-10.038 4.632-9.97 10.177.068 5.485 4.55 9.925 10.051 9.925 5.034 0 9.215-3.72 9.939-8.555a.546.546 0 0 0-.543-.622z"/><path d="M35.465 45.116c-5.547 0-10.116-4.512-10.185-10.057a10.119 10.119 0 0 1 2.919-7.249 10.11 10.11 0 0 1 7.183-3.064h.082c5.092 0 9.433 3.804 10.098 8.848a.68.68 0 0 1-.677.769.68.68 0 0 1-.675-.589c-.575-4.369-4.335-7.664-8.746-7.664a8.744 8.744 0 0 0-6.355 2.71 8.75 8.75 0 0 0-2.459 6.461c.181 4.658 3.975 8.377 8.638 8.47 4.408.098 8.248-3.167 8.899-7.503a.684.684 0 0 1 1.193-.34.672.672 0 0 1 .157.54c-.741 4.941-5.071 8.668-10.072 8.668zm0-20.103h-.08a9.845 9.845 0 0 0-6.995 2.984 9.846 9.846 0 0 0-2.842 7.058c.067 5.4 4.516 9.793 9.917 9.793 4.869 0 9.086-3.629 9.808-8.441a.409.409 0 0 0-.095-.326.415.415 0 0 0-.725.205c-.663 4.408-4.526 7.732-8.987 7.732-.061 0-.121 0-.182-.002-4.805-.095-8.713-3.928-8.899-8.727a9.012 9.012 0 0 1 2.534-6.656 9.007 9.007 0 0 1 6.548-2.792c4.545 0 8.419 3.395 9.011 7.896a.412.412 0 0 0 .41.356.416.416 0 0 0 .412-.467c-.65-4.909-4.877-8.613-9.835-8.613z"/><path d="M51.877 47.466l-5.509-5.509a12.893 12.893 0 0 0 2.072-7.027c0-7.155-5.82-12.976-12.976-12.976-7.155 0-12.976 5.821-12.976 12.976s5.821 12.975 12.976 12.975c2.587 0 5.001-.762 7.026-2.071L48 51.342a2.722 2.722 0 0 0 1.938.803 2.742 2.742 0 0 0 1.939-4.679zm-16.412-.656c-6.55 0-11.879-5.329-11.879-11.879s5.329-11.879 11.879-11.879 11.879 5.329 11.879 11.879S42.015 46.81 35.465 46.81zm15.637 3.757c-.312.312-.724.481-1.163.481s-.853-.17-1.163-.481l-5.377-5.376a13.17 13.17 0 0 0 2.327-2.326l5.376 5.377c.642.64.642 1.683 0 2.325z"/><path d="M49.939 52.279c-.769 0-1.49-.299-2.033-.842l-5.433-5.433a13.042 13.042 0 0 1-7.008 2.035c-7.229 0-13.109-5.881-13.109-13.109 0-7.229 5.88-13.109 13.109-13.109s13.109 5.88 13.109 13.109c0 2.491-.703 4.912-2.035 7.008l5.433 5.433a2.879 2.879 0 0 1 0 4.065 2.855 2.855 0 0 1-2.033.843zm-7.43-6.615l5.586 5.585c.492.492 1.147.763 1.844.763s1.352-.271 1.844-.763a2.61 2.61 0 0 0 0-3.688l-5.585-5.585.059-.09a12.776 12.776 0 0 0 2.051-6.955c0-7.081-5.761-12.842-12.842-12.842S22.624 27.85 22.624 34.931s5.761 12.841 12.842 12.841c2.475 0 4.879-.709 6.954-2.05l.089-.058zm7.43 5.518c-.476 0-.922-.185-1.258-.521l-5.483-5.483.119-.093a12.94 12.94 0 0 0 2.303-2.303l.094-.12 5.483 5.484a1.783 1.783 0 0 1 0 2.515 1.765 1.765 0 0 1-1.258.521zM43.6 45.203l5.271 5.271c.285.285.665.442 1.068.442s.783-.157 1.068-.442a1.514 1.514 0 0 0 0-2.138l-5.27-5.27a13.21 13.21 0 0 1-2.137 2.137zm-8.135 1.74c-6.624 0-12.013-5.389-12.013-12.012s5.389-12.013 12.013-12.013 12.013 5.389 12.013 12.013-5.389 12.012-12.013 12.012zm0-23.757c-6.477 0-11.745 5.269-11.745 11.745 0 6.476 5.269 11.746 11.745 11.746s11.745-5.27 11.745-11.746c0-6.477-5.268-11.745-11.745-11.745z"/><path d="M22.307 29.996h-2.924a.548.548 0 0 0 0 1.096h2.924a.548.548 0 1 0 0-1.096z"/><path d="M22.307 31.227h-2.924a.683.683 0 0 1 0-1.364h2.924a.683.683 0 0 1 0 1.364zm-2.924-1.097a.415.415 0 0 0 0 .83h2.924a.415.415 0 0 0 0-.83h-2.924zm22.661-.134H38.86a2.013 2.013 0 0 0-1.934-1.461c-.918 0-1.694.619-1.934 1.461h-6.107a.548.548 0 0 0 0 1.096h6.107a2.014 2.014 0 0 0 1.934 1.462c.919 0 1.694-.619 1.934-1.462h3.184a.548.548 0 1 0 0-1.096zm-5.117 1.462a.915.915 0 0 1 0-1.828.915.915 0 0 1 0 1.828z"/><path d="M36.927 32.688a2.153 2.153 0 0 1-2.032-1.462h-6.009a.683.683 0 0 1 0-1.364h6.009a2.154 2.154 0 0 1 2.032-1.462c.92 0 1.741.596 2.032 1.462h3.085c.376 0 .683.306.683.682s-.307.682-.683.682h-3.085a2.152 2.152 0 0 1-2.032 1.462zm-8.041-2.558a.415.415 0 0 0 0 .83h6.208l.027.097a1.885 1.885 0 0 0 1.805 1.365c.835 0 1.577-.562 1.805-1.365l.028-.097h3.284a.415.415 0 0 0 0-.83H38.76l-.028-.097a1.883 1.883 0 0 0-1.805-1.365c-.834 0-1.577.561-1.805 1.365l-.027.097h-6.209zm8.041 1.462a1.048 1.048 0 1 1 .002-2.094 1.048 1.048 0 0 1-.002 2.094zm0-1.827a.781.781 0 0 0 0 1.56.78.78 0 0 0 0-1.56zm13.89.231h-2.193a.548.548 0 0 0 0 1.096h2.193a.548.548 0 1 0 0-1.096z"/><path d="M50.817 31.227h-2.193a.683.683 0 0 1 0-1.364h2.193c.375 0 .682.306.682.682s-.307.682-.682.682zm-2.193-1.097a.415.415 0 0 0 0 .83h2.193a.414.414 0 0 0 0-.83h-2.193zm-6.58 8.638h-7.569a2.013 2.013 0 0 0-1.934-1.462c-1.109 0-2.011.902-2.011 2.011s.902 2.01 2.011 2.01c.918 0 1.694-.619 1.934-1.462h7.569a.548.548 0 1 0 0-1.097zm-9.502 1.462a.914.914 0 1 1 0-1.828.914.914 0 0 1 0 1.828z"/><path d="M32.542 41.46a2.146 2.146 0 0 1-2.144-2.144c0-1.183.961-2.145 2.144-2.145.919 0 1.741.597 2.032 1.463h7.471c.376 0 .683.306.683.682s-.307.682-.683.682h-7.471a2.154 2.154 0 0 1-2.032 1.462zm0-4.02a1.88 1.88 0 0 0-1.877 1.877c0 1.034.842 1.876 1.877 1.876.834 0 1.577-.561 1.805-1.364l.028-.098h7.67a.415.415 0 0 0 0-.829h-7.67l-.028-.097a1.885 1.885 0 0 0-1.805-1.365zm0 2.924c-.578 0-1.048-.47-1.048-1.047 0-.578.47-1.048 1.048-1.048.577 0 1.047.47 1.047 1.048a1.05 1.05 0 0 1-1.047 1.047zm0-1.827a.781.781 0 0 0 0 1.56c.43 0 .78-.351.78-.78a.782.782 0 0 0-.78-.78zm17.544.231h-1.463a.548.548 0 0 0 0 1.097h1.463a.548.548 0 0 0 0-1.097z"/><path d="M50.086 39.999h-1.463a.683.683 0 0 1 0-1.364h1.463c.375 0 .682.306.682.682s-.307.682-.682.682zm-1.462-1.097c-.229 0-.415.187-.415.415s.187.414.415.414h1.463a.414.414 0 0 0 0-.829h-1.463zM31.079 49.734h-9.031a2.013 2.013 0 0 0-1.934-1.462 2.013 2.013 0 0 0-2.011 2.01c0 1.109.902 2.011 2.011 2.011.918 0 1.694-.619 1.934-1.463h9.032a.547.547 0 1 0-.001-1.096zm-10.965 1.462a.914.914 0 1 1 0-1.829.914.914 0 0 1 0 1.829z"/><path d="M20.114 52.426a2.147 2.147 0 0 1-2.144-2.145c0-1.182.962-2.144 2.144-2.144.919 0 1.741.596 2.032 1.462h8.933a.683.683 0 0 1 0 1.364h-8.933a2.152 2.152 0 0 1-2.032 1.463zm0-4.021a1.88 1.88 0 0 0-1.877 1.877 1.88 1.88 0 0 0 1.877 1.877c.834 0 1.577-.562 1.805-1.365l.028-.097h9.133a.415.415 0 0 0 0-.829h-9.132l-.028-.098a1.886 1.886 0 0 0-1.806-1.365zm0 2.925c-.578 0-1.048-.47-1.048-1.048a1.049 1.049 0 1 1 1.048 1.048zm0-1.829a.78.78 0 1 0 0 1.56.78.78 0 0 0 0-1.56zm29.972-31.932a2.747 2.747 0 0 0-2.687 2.193h-6.087a.549.549 0 0 0 0 1.096H47.4a2.746 2.746 0 0 0 2.687 2.193c1.511 0 2.74-1.23 2.74-2.742 0-1.51-1.23-2.74-2.741-2.74zm0 4.386a1.647 1.647 0 0 1-1.646-1.645 1.647 1.647 0 0 1 3.291 0c0 .907-.738 1.645-1.645 1.645z"/><path d="M50.086 23.186a2.886 2.886 0 0 1-2.794-2.193h-5.979a.683.683 0 0 1 0-1.364h5.979a2.886 2.886 0 0 1 2.794-2.193 2.878 2.878 0 0 1 2.874 2.875 2.878 2.878 0 0 1-2.874 2.875zm-8.773-3.29a.414.414 0 0 0 0 .83h6.195l.022.107a2.616 2.616 0 0 0 2.556 2.086 2.61 2.61 0 0 0 2.607-2.608 2.61 2.61 0 0 0-2.607-2.607c-1.234 0-2.31.877-2.556 2.086l-.022.107h-6.195zm8.773 2.193a1.78 1.78 0 0 1-1.779-1.779c0-.98.798-1.778 1.779-1.778a1.78 1.78 0 0 1 0 3.557zm0-3.29c-.834 0-1.512.678-1.512 1.511 0 .833.678 1.512 1.512 1.512.833 0 1.511-.678 1.511-1.512 0-.833-.678-1.511-1.511-1.511z"/></g></svg>