<svg xmlns="http://www.w3.org/2000/svg" width="72" height="72" viewBox="0 0 72 72"><circle fill="#3B4248" cx="36" cy="36" r="35.198"/><path fill="#E0E1E7" d="M36 72C16.15 72 0 55.85 0 36 0 16.149 16.15 0 36 0s36 16.149 36 36c0 19.85-16.15 36-36 36zm0-70.396C17.034 1.604 1.604 17.034 1.604 36S17.034 70.396 36 70.396 70.396 54.966 70.396 36 54.966 1.604 36 1.604z"/><path fill="#E0E1E7" d="M55.53 33.089a2.914 2.914 0 0 0-2.776 2.035h-7.597a3.772 3.772 0 0 0-.306-.126c.07-.385.105-.776.105-1.171a6.471 6.471 0 0 0-1.452-4.09l4.961-4.961a2.897 2.897 0 0 0 1.596.317l1.362 3.286a.877.877 0 0 0 1.621-.67l-1.361-3.287a2.893 2.893 0 0 0 1.04-2.229c0-.778-.303-1.509-.853-2.059a2.892 2.892 0 0 0-2.059-.852c-.778 0-1.509.302-2.06.852a2.898 2.898 0 0 0-.853 2.059c0 .476.114.934.328 1.344l-4.999 4.998a6.47 6.47 0 0 0-3.775-1.211 6.55 6.55 0 0 0-1.575.192v-8.268c.533-.168 1-.486 1.352-.904l3.287 1.362a.877.877 0 0 0 .672-1.62L38.9 16.723a2.916 2.916 0 0 0-2.9-3.164 2.914 2.914 0 0 0-2.911 2.911c0 1.3.856 2.404 2.035 2.776v8.99a6.503 6.503 0 0 0-1.999 1.856 3.565 3.565 0 0 0-1.772.02l-6.578-6.578a2.902 2.902 0 0 0 .317-1.597l3.286-1.361a.876.876 0 1 0-.671-1.621l-3.287 1.361a2.892 2.892 0 0 0-2.229-1.039c-.778 0-1.509.302-2.059.852a2.893 2.893 0 0 0-.853 2.059c0 .777.303 1.509.853 2.059.55.55 1.281.853 2.059.853.476 0 .934-.114 1.344-.328l6.246 6.247a3.55 3.55 0 0 0-.956 1.699 5.142 5.142 0 0 0-3.6 2.404h-5.979c-.168-.533-.486-1-.904-1.352l1.362-3.288a.878.878 0 0 0-1.62-.671l-1.361 3.287a2.914 2.914 0 0 0-3.164 2.899 2.915 2.915 0 0 0 2.911 2.912c1.3 0 2.404-.856 2.776-2.035h5.31a5.142 5.142 0 0 0 3.513 5.814l-4.535 4.535a2.89 2.89 0 0 0-1.597-.317l-1.361-3.286a.878.878 0 0 0-1.621.671l1.362 3.287a2.892 2.892 0 0 0-1.039 2.229c0 .778.302 1.509.852 2.059a2.89 2.89 0 0 0 2.059.854c.777 0 1.509-.303 2.059-.854.55-.55.853-1.28.853-2.059 0-.476-.114-.934-.328-1.344l5.54-5.54h4.81v9.828c-.533.168-1 .486-1.352.904l-3.287-1.361a.876.876 0 1 0-.672 1.62l3.287 1.361a2.915 2.915 0 0 0 2.899 3.164 2.915 2.915 0 0 0 2.912-2.911 2.914 2.914 0 0 0-2.035-2.776v-9.827h4.811l5.539 5.539a2.883 2.883 0 0 0-.316 1.596l-3.287 1.362a.878.878 0 0 0 .671 1.621l3.287-1.361a2.891 2.891 0 0 0 2.229 1.04 2.89 2.89 0 0 0 2.059-.854c.551-.55.854-1.28.854-2.059 0-.777-.303-1.508-.854-2.059a2.89 2.89 0 0 0-2.059-.853c-.476 0-.934.113-1.344.328L44.11 42.87a4.095 4.095 0 0 0 2.919-5.993h5.725c.168.533.486 1 .904 1.352l-1.361 3.287a.875.875 0 0 0 .81 1.213c.344 0 .67-.204.81-.541l1.361-3.287a2.915 2.915 0 0 0 3.164-2.9 2.917 2.917 0 0 0-2.912-2.912zm-6.539-11.718a1.155 1.155 0 0 1 1.637 0 1.154 1.154 0 0 1 0 1.638 1.14 1.14 0 0 1-.374.251h-.003a1.156 1.156 0 0 1-1.26-.251h-.001a1.149 1.149 0 0 1-.338-.818c0-.31.12-.601.339-.82zM23.01 23.009c0 .001 0 .001 0 0 0 .001-.001.001 0 0a1.155 1.155 0 0 1-1.638.001 1.149 1.149 0 0 1-.339-.819 1.155 1.155 0 0 1 1.158-1.159 1.155 1.155 0 0 1 1.07.713v.003a1.16 1.16 0 0 1-.251 1.261zm-6.54 14.149A1.16 1.16 0 0 1 15.312 36c0-.638.52-1.158 1.158-1.158a1.159 1.159 0 0 1 0 2.316zm6.54 13.47c-.219.219-.509.34-.819.34s-.601-.121-.82-.34a1.155 1.155 0 0 1 0-1.637c.109-.109.237-.194.375-.252h.002a1.157 1.157 0 0 1 1.26.251v.001c.218.219.339.51.339.818.002.31-.118.601-.337.819zm25.98-1.637c.001 0 .001 0 0 0 .22-.22.511-.339.82-.339a1.155 1.155 0 0 1 .818 1.976 1.155 1.155 0 0 1-1.889-.375v-.002a1.157 1.157 0 0 1 .251-1.26zM34.842 16.47c0-.638.52-1.158 1.158-1.158a1.159 1.159 0 1 1-1.158 1.158zm2.316 39.06a1.159 1.159 0 0 1-2.316 0 1.159 1.159 0 0 1 2.316 0zm6.278-14.357H29.607a3.385 3.385 0 0 1-3.38-3.381 3.384 3.384 0 0 1 3.38-3.379.877.877 0 0 0 .877-.876 1.795 1.795 0 0 1 2.61-1.596.876.876 0 0 0 1.172-.364 4.75 4.75 0 0 1 4.185-2.502 4.756 4.756 0 0 1 4.499 6.285.873.873 0 0 0 .737 1.153 2.331 2.331 0 0 1 2.085 2.324 2.337 2.337 0 0 1-2.336 2.336zm12.094-4.015a1.159 1.159 0 0 1 0-2.316c.638 0 1.158.52 1.158 1.158a1.16 1.16 0 0 1-1.158 1.158z"/><path fill="#E0E1E7" d="M40.891 26.225l-.013-.005a.511.511 0 0 0-.391.944l.013.006a.512.512 0 0 0 .391-.945zm-7.774-.291a.511.511 0 0 0-.668-.277l-.013.005a.511.511 0 1 0 .391.944l.013-.005a.51.51 0 0 0 .277-.667zm-6.372 5.014a.511.511 0 0 0-.668.277l-.005.014a.51.51 0 0 0 .472.706.512.512 0 0 0 .473-.316l.005-.014a.512.512 0 0 0-.277-.667zm-.286 8.343l-.005-.014a.51.51 0 0 0-.668-.276.51.51 0 0 0-.277.667l.005.014a.511.511 0 0 0 .945-.391zm5.023 5.81l-.014-.006a.511.511 0 0 0-.39.944l.013.006a.512.512 0 0 0 .391-.944zm8.328.834a.51.51 0 0 0-.667-.277l-.014.005a.511.511 0 1 0 .391.945l.014-.006a.51.51 0 0 0 .276-.667zm5.811-5.577a.513.513 0 0 0-.668.277l-.005.014a.51.51 0 1 0 .944.391l.006-.014a.513.513 0 0 0-.277-.668zm.839-7.761l-.006-.013a.51.51 0 1 0-.944.391l.005.013a.512.512 0 0 0 .945-.391z"/></svg>