<svg xmlns="http://www.w3.org/2000/svg" width="45" height="31.497" viewBox="0 0 45 31.497"><path d="M12.644 14.938s-.334-.056-.708-.061c-.532-.007-.758.189-.756.188-.157.111-.233.276-.233.505 0 .146.027.26.078.339a.51.51 0 0 0 .151.155c-.002 0 .234.184.764.152.373-.022.705-.094.705-.094v-1.184zm15.615-1.558c-.343 0-.587.118-.747.362-.161.246-.243.597-.243 1.043s.082.799.243 1.047c.16.247.404.366.747.366.342 0 .588-.12.75-.366.164-.249.247-.601.247-1.047s-.083-.798-.247-1.043c-.162-.244-.408-.362-.75-.362zm-10.489-.016c-.342 0-.585.134-.746.378a1.517 1.517 0 0 0-.21.615h1.86c-.018-.24-.065-.455-.172-.616-.164-.243-.39-.377-.732-.377zm20.889 0c-.343 0-.586.134-.746.378a1.533 1.533 0 0 0-.211.615h1.86c-.019-.24-.065-.455-.173-.616-.161-.243-.388-.377-.73-.377z"/><path d="M35.299 4.267a9.603 9.603 0 0 0-3.925.834C29.995 2.642 27.403.985 24.433.985c-2.235 0-4.255.938-5.707 2.45A8.729 8.729 0 0 0 11.776 0c-4.827 0-8.74 3.908-8.74 8.729 0 1.233.257 2.407.719 3.471A7.597 7.597 0 0 0 0 18.773c0 4.191 3.362 7.589 7.511 7.589.529 0 1.045-.056 1.544-.161a8.092 8.092 0 0 0 7.593 5.296 8.093 8.093 0 0 0 7.448-4.93 7.091 7.091 0 0 0 9.292-2.918c.618.125 1.257.19 1.911.19 5.357 0 9.701-4.382 9.701-9.787s-4.344-9.785-9.701-9.785zM9.636 15.624c0 .791-.574 1.281-1.497 1.281-.453 0-.887-.071-1.345-.314-.087-.049-.173-.094-.257-.155-.009-.013-.047-.028-.019-.102l.182-.505c.029-.087.095-.058.122-.042.05.031.087.058.152.096a2.184 2.184 0 0 0 1.189.342c.401 0 .65-.212.65-.499v-.016c0-.313-.383-.43-.827-.566l-.098-.03c-.609-.174-1.26-.425-1.26-1.195v-.016c0-.731.59-1.242 1.435-1.242h.092c.497 0 .976.144 1.323.355.031.019.063.056.045.104l-.188.505c-.033.086-.122.028-.122.028a2.672 2.672 0 0 0-1.173-.3c-.357 0-.588.189-.588.448v.016c0 .301.395.43.853.578l.079.025c.606.192 1.254.458 1.254 1.188v.016zm3.779 1.027s-.096.026-.183.046-.401.084-.657.127a4.828 4.828 0 0 1-.792.066 3.11 3.11 0 0 1-.69-.07 1.438 1.438 0 0 1-.531-.23 1.08 1.08 0 0 1-.34-.408 1.352 1.352 0 0 1-.12-.595c0-.227.047-.429.14-.601a1.25 1.25 0 0 1 .378-.43c.158-.113.341-.198.545-.252a2.45 2.45 0 0 1 .642-.083c.165 0 .301.004.407.012 0 0 .206.019.43.051v-.11c0-.348-.072-.512-.214-.622-.146-.112-.363-.168-.645-.168 0 0-.635-.008-1.137.265-.023.014-.043.021-.043.021s-.063.021-.085-.042l-.185-.496c-.028-.072.023-.104.023-.104.234-.184.804-.294.804-.294.189-.038.503-.064.699-.064.521 0 .924.122 1.198.361.275.241.415.628.415 1.151l.001 2.385c0-.001.004.068-.06.084zm1.751.076c0 .043-.031.079-.075.079h-.692c-.043 0-.075-.036-.075-.079V11.16c0-.043.031-.079.075-.079h.692c.044 0 .075.036.075.079v5.567zm4.319-1.791c-.007.067-.076.068-.076.068l-2.608-.002c.016.396.111.676.304.867.188.187.488.306.892.307.619.001.884-.124 1.071-.193 0 0 .072-.026.098.045l.17.478c.035.081.007.108-.021.125-.164.09-.561.258-1.314.261a2.63 2.63 0 0 1-.947-.153 1.719 1.719 0 0 1-.656-.435 1.717 1.717 0 0 1-.378-.663 2.786 2.786 0 0 1-.118-.833c0-.295.038-.575.114-.832.076-.258.195-.486.354-.677s.36-.346.601-.458c.24-.113.536-.168.861-.168.279 0 .534.061.747.152.163.07.327.197.495.377.106.114.268.364.333.611.168.587.081 1.095.078 1.123zm2.168 1.969c-.453 0-.887-.071-1.346-.314-.086-.049-.172-.094-.257-.155-.009-.013-.047-.028-.02-.102l.183-.505c.026-.083.104-.053.121-.042.049.032.087.058.152.096a2.183 2.183 0 0 0 1.189.342c.401 0 .65-.212.65-.499v-.016c0-.313-.383-.43-.827-.566l-.098-.03c-.61-.174-1.26-.425-1.26-1.195v-.016c0-.731.59-1.242 1.435-1.242h.092c.496 0 .975.144 1.323.355.031.019.062.056.044.104l-.188.505c-.033.086-.123.028-.123.028a2.672 2.672 0 0 0-1.172-.3c-.358 0-.588.189-.588.448v.016c0 .301.395.43.852.578l.079.025c.607.192 1.254.458 1.254 1.188v.015c.001.792-.572 1.282-1.495 1.282zm4.556-3.526c-.015.079-.088.076-.088.076h-.858l-.588 3.325a5.025 5.025 0 0 1-.229.876 1.71 1.71 0 0 1-.339.583 1.197 1.197 0 0 1-.481.336c-.182.065-.4.099-.641.099a1.585 1.585 0 0 1-.62-.106c-.033-.012-.059-.052-.041-.104l.193-.53c.027-.067.094-.042.094-.042.047.02.079.034.141.046.062.013.146.023.209.023a.977.977 0 0 0 .307-.044.488.488 0 0 0 .238-.185 1.33 1.33 0 0 0 .183-.371c.058-.164.11-.38.155-.643l.585-3.265h-.576c-.069 0-.092-.032-.085-.083l.098-.542c.015-.079.087-.076.087-.076h.593l.031-.177c.089-.523.265-.921.524-1.183.261-.263.633-.396 1.104-.396a2.032 2.032 0 0 1 .612.088c.019.007.068.032.048.091l-.199.548c-.017.041-.028.066-.113.041-.021-.006-.053-.016-.134-.033a1.115 1.115 0 0 0-.214-.021.906.906 0 0 0-.28.04.548.548 0 0 0-.218.136.762.762 0 0 0-.184.279c-.096.276-.133.569-.138.588h.834c.07 0 .092.032.085.084l-.095.542zm3.818 2.234a1.86 1.86 0 0 1-.351.669 1.653 1.653 0 0 1-.593.446c-.235.107-.513.162-.825.162s-.591-.054-.826-.162a1.65 1.65 0 0 1-.592-.446 1.868 1.868 0 0 1-.351-.669 2.928 2.928 0 0 1-.113-.828c0-.295.038-.574.113-.828a1.83 1.83 0 0 1 .351-.669c.157-.189.356-.34.592-.45s.514-.166.826-.166.59.056.825.166c.236.11.436.261.593.45a1.9 1.9 0 0 1 .351.669c.075.254.113.533.113.828s-.037.574-.113.828zm3.224-2.724c-.024.071-.151.428-.196.547-.018.045-.045.076-.096.071 0 0-.15-.035-.286-.035-.095 0-.229.012-.35.049a.775.775 0 0 0-.322.194.98.98 0 0 0-.229.383c-.058.164-.087.424-.087.685v1.943a.08.08 0 0 1-.079.079h-.685a.08.08 0 0 1-.079-.079v-3.891c0-.044.031-.079.074-.079h.669c.044 0 .075.035.075.079v.318c.1-.134.278-.252.44-.325.163-.073.345-.128.673-.108.171.011.393.058.438.075.018.006.06.035.04.094zm3.261 3.805a3.13 3.13 0 0 1-1.091.194c-.668 0-1.18-.192-1.521-.572-.34-.378-.513-.895-.513-1.534 0-.296.042-.575.126-.83a1.772 1.772 0 0 1 .995-1.118 2.1 2.1 0 0 1 .859-.166 3.02 3.02 0 0 1 1.092.169c.019.007.068.032.048.091-.071.206-.122.339-.189.526-.029.08-.089.053-.089.053a2.575 2.575 0 0 0-.815-.117c-.381 0-.667.127-.854.376-.188.25-.294.579-.296 1.015-.001.479.118.833.331 1.053.212.219.509.33.881.33.152 0 .295-.01.423-.03.127-.02.246-.06.358-.102 0 0 .073-.029.099.046l.188.523c.023.066-.032.093-.032.093zm3.862-1.758c-.007.067-.076.068-.076.068l-2.607-.002c.016.396.11.676.304.867.188.187.487.306.892.307.619.001.884-.124 1.071-.193 0 0 .072-.026.098.045l.171.478c.034.081.007.108-.021.125-.164.09-.561.258-1.314.261a2.624 2.624 0 0 1-.946-.153 1.719 1.719 0 0 1-.656-.435 1.717 1.717 0 0 1-.378-.663 2.818 2.818 0 0 1-.118-.833c0-.295.038-.575.114-.832.076-.258.195-.486.354-.677s.36-.346.601-.458c.239-.113.535-.168.861-.168.279 0 .534.061.747.152.163.07.327.197.495.377.106.114.268.364.333.611.165.587.078 1.095.075 1.123z"/></svg>