<svg xmlns="http://www.w3.org/2000/svg" width="58" height="58" viewBox="10.899 10.142 58 58"><circle fill="#393939" cx="39.899" cy="39.142" r="29"/><g fill="#FFF"><path d="M44.939 34.283h-.183v-2.417c0-2.68-2.18-4.861-4.861-4.861a4.867 4.867 0 0 0-4.861 4.861c0 .337.277.615.615.615a.616.616 0 0 0 .614-.615 3.645 3.645 0 0 1 3.639-3.639 3.645 3.645 0 0 1 3.639 3.639v2.417h-8.689c-.878 0-1.593.716-1.593 1.594v6.637c0 .877.715 1.593 1.593 1.593h10.08c.878 0 1.594-.716 1.594-1.593v-6.637c0-.878-.709-1.594-1.587-1.594zm.364 8.224a.362.362 0 0 1-.364.364H34.852a.362.362 0 0 1-.364-.364V35.87c0-.203.162-.365.364-.365h10.08c.203 0 .365.162.365.365v6.637h.006z"/><path d="M40.071 37.464a1.012 1.012 0 0 0-1.101.587.988.988 0 0 0 .331 1.223c.081.06.095.115.095.202v1.311a.51.51 0 0 0 .763.439.454.454 0 0 0 .243-.439v-1.311c0-.094.02-.155.108-.215a.964.964 0 0 0 .412-.817 1.022 1.022 0 0 0-.851-.98zm-8.905 1.377H27.77a2.242 2.242 0 0 0-2.154-1.627 2.245 2.245 0 0 0-2.242 2.242 2.245 2.245 0 0 0 2.242 2.242c1.02 0 1.884-.689 2.154-1.627h3.403a.617.617 0 0 0 .614-.614.628.628 0 0 0-.621-.616zm-5.55 1.627a1.011 1.011 0 0 1-1.013-1.013c0-.561.452-1.013 1.013-1.013s1.013.452 1.013 1.013a1.012 1.012 0 0 1-1.013 1.013zm5.55-5.226h-3.72a1.219 1.219 0 0 1-1.215-1.215v-1.999a2.24 2.24 0 0 0-.615-4.395 2.245 2.245 0 0 0-2.242 2.241c0 1.02.689 1.884 1.627 2.154v1.999a2.441 2.441 0 0 0 2.438 2.438h3.727a.617.617 0 0 0 .615-.615.612.612 0 0 0-.615-.608zm-6.57-5.367a1.012 1.012 0 1 1 2.025-.001 1.012 1.012 0 0 1-2.025.001zm6.57 12.564h-3.72a2.44 2.44 0 0 0-2.437 2.437v1.999a2.243 2.243 0 0 0-1.627 2.153c0 1.235 1.006 2.242 2.242 2.242s2.241-1.007 2.241-2.242a2.247 2.247 0 0 0-1.627-2.153v-1.999c0-.668.547-1.215 1.215-1.215h3.727a.615.615 0 0 0 .614-.614.638.638 0 0 0-.628-.608zm-4.538 6.59a1.012 1.012 0 1 1-2.026 0c0-.56.452-1.013 1.013-1.013s1.013.453 1.013 1.013zm27.547-11.816c-1.02 0-1.884.689-2.153 1.627h-3.403a.617.617 0 0 0-.614.615c0 .337.277.614.614.614h3.403a2.242 2.242 0 0 0 2.153 1.627 2.244 2.244 0 0 0 2.241-2.242 2.243 2.243 0 0 0-2.241-2.241zm0 3.255a1.011 1.011 0 0 1-1.013-1.013c0-.561.452-1.013 1.013-1.013s1.013.452 1.013 1.013a1.007 1.007 0 0 1-1.013 1.013zm.616 6.407v-1.999a2.442 2.442 0 0 0-2.438-2.437h-3.726a.616.616 0 0 0-.615.615c0 .337.276.614.615.614h3.727a1.22 1.22 0 0 1 1.215 1.216v1.998a2.244 2.244 0 0 0-1.627 2.154c0 1.234 1.006 2.241 2.241 2.241s2.241-1.007 2.241-2.241a2.267 2.267 0 0 0-1.633-2.161zm-.616 3.174a1.011 1.011 0 0 1-1.013-1.013 1.012 1.012 0 1 1 2.026 0 1.012 1.012 0 0 1-1.013 1.013zm-5.549-13.585h3.727a2.442 2.442 0 0 0 2.438-2.438v-1.999a2.241 2.241 0 1 0-1.229 0v1.999c0 .668-.547 1.215-1.215 1.215h-3.728a.617.617 0 0 0-.614.615.624.624 0 0 0 .621.608zm4.537-6.589c0-.56.452-1.013 1.013-1.013s1.013.453 1.013 1.013-.452 1.013-1.013 1.013-1.013-.453-1.013-1.013z"/></g></svg>