<svg xmlns="http://www.w3.org/2000/svg" width="40" height="34.617" viewBox="0 0 40 34.617"><g fill="#E0E1E7"><path d="M13.043 16.756a1.16 1.16 0 0 0-1.159 1.159v1.159c0 .64.521 1.16 1.159 1.16.64 0 1.16-.52 1.16-1.16v-1.159a1.16 1.16 0 0 0-1.16-1.159zm9.276 0c-.64 0-1.16.52-1.16 1.159v1.159a1.16 1.16 0 0 0 2.319 0v-1.159a1.16 1.16 0 0 0-1.159-1.159zM8.406 6.708a1.16 1.16 0 0 0-1.159 1.159v1.16a1.16 1.16 0 0 0 2.319 0v-1.16a1.162 1.162 0 0 0-1.16-1.159zm23.189 0c-.64 0-1.16.52-1.16 1.159v1.16a1.16 1.16 0 0 0 2.319 0v-1.16a1.16 1.16 0 0 0-1.159-1.159z"/><path d="M33.763 0H6.238A6.245 6.245 0 0 0 0 6.238v15.351a6.244 6.244 0 0 0 6.238 6.237h2.378l-.4 5.548a1.16 1.16 0 0 0 1.861 1.004l8.563-6.552h15.122a6.244 6.244 0 0 0 6.237-6.238V6.238A6.243 6.243 0 0 0 33.763 0zM7.247 21.393a1.16 1.16 0 1 1-2.319 0v-5.797a1.16 1.16 0 0 1 2.319 0v5.797zm1.159-8.888a3.483 3.483 0 0 1-3.478-3.479v-1.16a3.482 3.482 0 0 1 3.478-3.478 3.483 3.483 0 0 1 3.479 3.478v1.16a3.484 3.484 0 0 1-3.479 3.479zm8.116 6.569a3.483 3.483 0 0 1-3.479 3.479 3.483 3.483 0 0 1-3.478-3.479v-1.159a3.482 3.482 0 0 1 3.478-3.478 3.483 3.483 0 0 1 3.479 3.478v1.159zm0-7.729a1.158 1.158 0 1 1-2.319 0V5.548a1.16 1.16 0 0 1 2.319 0v5.797zm2.319-5.797a1.16 1.16 0 0 1 2.319 0v5.797a1.16 1.16 0 1 1-2.319 0V5.548zm6.956 13.526c0 1.918-1.56 3.479-3.478 3.479s-3.479-1.56-3.479-3.479v-1.159c0-1.918 1.561-3.478 3.479-3.478s3.478 1.56 3.478 3.478v1.159zm0-7.729a1.159 1.159 0 1 1-2.319 0V5.548a1.16 1.16 0 0 1 2.319 0v5.797zm4.638 10.048a1.16 1.16 0 1 1-2.319 0v-5.797a1.16 1.16 0 0 1 2.319 0v5.797zm4.638.036a1.16 1.16 0 0 1-2.319 0v-.036a1.16 1.16 0 0 1 2.319 0v.036zm0-4.049a1.16 1.16 0 1 1-2.319 0v-1.784a1.16 1.16 0 0 1 2.319 0v1.784zm0-8.354a3.484 3.484 0 0 1-3.478 3.479 3.483 3.483 0 0 1-3.479-3.479v-1.16a3.483 3.483 0 0 1 3.479-3.478 3.482 3.482 0 0 1 3.478 3.478v1.16z"/></g></svg>