<svg xmlns="http://www.w3.org/2000/svg" width="72" height="72" viewBox="0 0 72 72"><circle fill="#3B4248" cx="36" cy="36" r="35.198"/><path fill="#E0E1E7" d="M36 72C16.15 72 0 55.85 0 36 0 16.149 16.15 0 36 0s36 16.149 36 36c0 19.85-16.15 36-36 36zm0-70.396C17.034 1.604 1.604 17.034 1.604 36S17.034 70.396 36 70.396 70.396 54.966 70.396 36 54.966 1.604 36 1.604z"/><path fill="#E0E1E7" d="M52.67 46.309h-1.312V26.646a.692.692 0 0 0-.691-.692h-4.306a.692.692 0 0 0-.691.692v19.663h-1.797V28.586a.691.691 0 0 0-.692-.691h-4.305a.691.691 0 0 0-.691.691v17.723h-1.797V25.19a.692.692 0 0 0-.692-.692h-4.305a.691.691 0 0 0-.691.692v21.119h-1.797V30.943a.692.692 0 0 0-.692-.692h-4.305a.691.691 0 0 0-.691.692v15.366H21.41V25a.692.692 0 0 0-1.383 0v.885h-.694a.692.692 0 0 0 0 1.383h.694v1.667h-.694a.692.692 0 0 0 0 1.384h.694v1.666h-.694a.692.692 0 0 0 0 1.383h.694v1.667h-.694a.692.692 0 0 0 0 1.383h.694v1.666h-.694a.692.692 0 0 0 0 1.383h.694v1.667h-.694a.692.692 0 0 0 0 1.382h.694v1.666h-.694a.692.692 0 0 0 0 1.383h.694V47c0 .382.31.691.691.691h31.953a.691.691 0 1 0-.001-1.382zm-25.152 0h-2.921V34.754h2.921v11.555zm0-12.938h-2.921v-1.736h2.921v1.736zm7.486 12.938h-2.921V31.856h2.921v14.453zm0-15.836h-2.921v-4.59h2.921v4.59zm7.486 15.836h-2.922v-8.99h2.922v8.99zm0-10.373h-2.922v-6.657h2.922v6.657zm7.486 10.373h-2.922V33.922h2.922v12.387zm0-13.77h-2.922v-5.202h2.922v5.202z"/></svg>