<svg xmlns="http://www.w3.org/2000/svg" width="42" height="42" viewBox="0 0 42 42"><path fill="#E0E1E7" d="M41.329 8.489c.37 0 .671-.3.671-.67V3.352a.671.671 0 0 0-.671-.671h-1.117V.67a.67.67 0 1 0-1.34 0v2.011H3.127V.67a.67.67 0 0 0-1.341 0v2.011H.669A.67.67 0 0 0 0 3.352V7.82c0 .37.3.67.669.67h1.117v23.815H.669a.67.67 0 0 0 0 1.34h19.66v3.534a2.46 2.46 0 0 0-1.786 2.363A2.46 2.46 0 0 0 20.999 42a2.461 2.461 0 0 0 2.458-2.458c0-1.122-.758-2.07-1.787-2.363v-3.534h19.659a.67.67 0 1 0 0-1.34h-1.117V8.489h1.117zM22.116 39.542a1.118 1.118 0 0 1-2.234 0 1.117 1.117 0 0 1 2.234 0zM1.34 7.148V4.021h39.319v3.127H1.34z"/><path fill="#E0E1E7" d="M3.127 8.489h35.745v23.815H3.127z"/><path fill="#3B4248" d="M18.691 19.609l4.395 4.394 8.295-8.295v3.166h.983v-4.845h-4.847v.984h3.169l-7.6 7.599-4.395-4.394-8.946 8.947.695.695z"/></svg>