<svg xmlns="http://www.w3.org/2000/svg" width="43" height="42.969" viewBox="0 0 43 42.969"><g fill="#E0E1E7"><path d="M35.724 31.233a17.185 17.185 0 0 0 2.746-6.583l.082-.432L43 23.544v-4.119l-4.431-.674-.084-.428a17.698 17.698 0 0 0-2.762-6.62l-.249-.363 2.651-3.595-2.9-2.9-3.596 2.651-.363-.249a17.421 17.421 0 0 0-6.631-2.762l-.432-.082L23.543 0h-4.117l-.659 4.406-.436.08a17.033 17.033 0 0 0-6.623 2.758l-.364.254-3.599-2.654-2.901 2.9 2.652 3.597-.251.364a16.94 16.94 0 0 0-2.729 6.625l-.079.436L0 19.44v4.119l4.449.674.082.432a17.284 17.284 0 0 0 2.744 6.583l.254.365-2.684 3.613 2.9 2.9 3.641-2.682.363.248a17.136 17.136 0 0 0 6.583 2.716l.435.08.674 4.481h4.117l.674-4.481.435-.08a17.136 17.136 0 0 0 6.583-2.716l.363-.248 3.641 2.682 2.9-2.901-2.683-3.627.253-.365zm-14.232 4.993c-8.132 0-14.749-6.617-14.749-14.75 0-8.132 6.617-14.749 14.749-14.749 8.133 0 14.75 6.617 14.75 14.749-.016 8.134-6.633 14.75-14.75 14.75z"/><path d="M22.463 32.141v-1.168l-.971-2.728-1.356 3.865c.76.091 1.53.107 2.327.031zm-.935-6.36h-.071c-.259 0-.58.081-.646.211-.071.14-.015.622.649 1.544l.032.045.031-.043c.661-.924.716-1.408.644-1.548-.067-.128-.384-.209-.639-.209zm-7.667.502c-.256.065-1.006.254-1.27 1.537 1.808 2.378 4.53 3.919 7.501 4.285l-2.357-7.457c-.808.476-2.233 1.219-3.874 1.635zm16.529 1.482c-.283-1.239-1.013-1.419-1.263-1.481-1.644-.416-3.069-1.159-3.877-1.636l-2.375 7.447a11.174 11.174 0 0 0 7.515-4.33zm-13.224-8.901c.208.658.364.917.432 1.008l.376.025.078.488c.191 1.198 1.127 2.677 2.548 3.185a2.72 2.72 0 0 0 1.76-.002c1.429-.52 2.371-1.987 2.558-3.167l.078-.487.373-.025c.067-.094.217-.359.407-1.028.157-.544.163-.824.151-.949l-.861.065.294-.897c.073-.205.116-.37.139-.523.324-1.929-.027-2.764-.265-3.091-.232-.32-.493-.362-.504-.363l-.315-.047-.169-.286c-.007-.013-.263-.473-.938-.839-.642-.372-1.295-.514-2.098-.447a2.94 2.94 0 0 0-.827.151c-.336.116-.635.27-.916.47-.354.22-.674.488-1.013.842-.551.567-.889 1.156-1.036 1.804-.137.522-.13 1.078.017 1.767.043.198.083.386.146.563l.32.898-.879-.067c-.014.125-.008.406.144.952z"/></g></svg>