<svg xmlns="http://www.w3.org/2000/svg" width="36" height="36.018" viewBox="0 0 36 36.018" fill="#e0e1e8"><path d="M30.729 5.279C27.327 1.877 22.811 0 17.999 0S8.67 1.877 5.269 5.279c-6.561 6.561-7.036 17.043-1.191 24.148-.807 1.651-1.757 2.752-2.835 3.28a1.687 1.687 0 0 0-.921 1.757 1.672 1.672 0 0 0 1.403 1.41c.399.061.829.099 1.274.099 2.21 0 4.532-.762 6.471-2.097a18.03 18.03 0 0 0 8.529 2.142c4.812 0 9.328-1.87 12.729-5.271S36 22.82 36 18.017 34.13 8.68 30.729 5.279zM25.54 23.952H10.458a1.015 1.015 0 0 1-1.019-1.019c0-.565.452-1.018 1.019-1.018H25.54a1.018 1.018 0 1 1 0 2.037zm0-4.925H10.458c-.566 0-1.019-.453-1.019-1.019s.452-1.019 1.019-1.019H25.54a1.02 1.02 0 0 1 0 2.038zm0-4.924H10.458a1.015 1.015 0 0 1-1.019-1.018c0-.566.452-1.019 1.019-1.019H25.54a1.02 1.02 0 0 1 0 2.037z"/></svg>