<svg xmlns="http://www.w3.org/2000/svg" width="58" height="58" viewBox="20.52 13.52 58 58"><circle fill="#393939" cx="49.52" cy="42.52" r="29"/><path fill="#FFF" d="M55.573 43.944l-2.99-1.329a.586.586 0 0 1-.347-.535v-.821a4.358 4.358 0 0 0 1.649-3.414V36.69c.331-.183.55-.537.55-.932v-.112a4.37 4.37 0 0 0-4.364-4.365H48.97a4.37 4.37 0 0 0-4.364 4.365v1.018a1.077 1.077 0 0 0 .55.954v.227c0 1.381.646 2.614 1.65 3.414v.821a.587.587 0 0 1-.348.535l-2.99 1.329a2.716 2.716 0 0 0-1.612 2.48v6.82a.515.515 0 1 0 1.03 0v-6.82c0-.06.004-.118.01-.178l1.377 1.379c.215.214.333.499.333.803v4.816a.515.515 0 1 0 1.03 0v-4.816a2.15 2.15 0 0 0-.634-1.531l-1.643-1.643c.147-.152.325-.28.527-.371l2.939-1.306 2.18 2.18v7.487a.515.515 0 0 0 1.03 0v-7.487l2.181-2.18 2.939 1.306c.202.091.379.219.528.371l-1.643 1.643a2.15 2.15 0 0 0-.635 1.531v4.816a.515.515 0 1 0 1.03 0v-4.816c0-.304.118-.589.333-.803l1.378-1.379c.006.06.01.117.01.178v6.82a.515.515 0 1 0 1.03 0v-6.82a2.719 2.719 0 0 0-1.613-2.48zm-6.052.873l-1.913-1.913c.145-.245.228-.528.228-.824v-.21a4.341 4.341 0 0 0 1.686.339 4.34 4.34 0 0 0 1.685-.339v.209c0 .296.082.58.228.824l-1.914 1.914zm0-3.637a3.34 3.34 0 0 1-3.336-3.336v-.231c.321-.127 1.72-1.878 2.02-2.155a.514.514 0 1 0-.698-.756c-.257.238-1.601 1.939-1.85 2.005l-.014.002a.097.097 0 0 1-.009-.046v-1.018a3.339 3.339 0 0 1 3.335-3.335h1.101a3.339 3.339 0 0 1 3.335 3.335v.112c0 .017-.01.031-.023.034-3.081.609-4.627-.538-5.148-1.06a.515.515 0 0 0-.728.728c1.598 1.598 3.931 1.626 5.35 1.456v.93a3.339 3.339 0 0 1-3.335 3.335z"/><path fill="#FFF" d="M41.235 41.145v-1.101a3.812 3.812 0 0 0-1.749-3.204 2.167 2.167 0 0 0-2.066-2.811 2.167 2.167 0 0 0-2.066 2.811 3.814 3.814 0 0 0-1.749 3.204v1.1c0 1.3.654 2.45 1.65 3.139v1.131a.58.58 0 0 1-.324.523l-1.78.891a2.151 2.151 0 0 0-1.196 1.936v4.48a.515.515 0 1 0 1.029 0v-4.258l.839.839c.214.214.333.499.333.802v2.617a.515.515 0 1 0 1.029 0v-2.617c0-.578-.225-1.121-.634-1.53l-1.167-1.166-.017-.017c.073-.064.155-.121.246-.166l1.78-.89c.091-.046.176-.1.255-.159l1.258 1.258v5.287a.515.515 0 1 0 1.029 0v-5.287l1.258-1.258c.079.06 1.516.819 1.607.865l.864.436a.515.515 0 1 0 .46-.92l-.863-.435c-.914-.476-1.676-1.006-1.676-1.229v-1.131a3.82 3.82 0 0 0 1.65-3.14zm-3.815-6.086a1.137 1.137 0 0 1 1.117 1.339 3.816 3.816 0 0 0-2.233 0 1.138 1.138 0 0 1 1.116-1.339zm0 2.2a2.79 2.79 0 0 1 2.786 2.786v.186c-2.143.656-3.419-.974-3.474-1.045a.516.516 0 0 0-.775-.056c-.492.491-.973.728-1.32.842a2.788 2.788 0 0 1 2.783-2.713zm0 9.758l-1.189-1.189c.035-.132.054-.271.054-.413v-.628a3.804 3.804 0 0 0 2.271 0v.628c0 .142.019.281.053.413l-1.189 1.189zm0-3.087a2.789 2.789 0 0 1-2.785-2.786v-.107a4.121 4.121 0 0 0 1.653-.823c.225.211.546.472.955.694a4.087 4.087 0 0 0 1.966.507c.31 0 .642-.036.992-.118a2.788 2.788 0 0 1-2.781 2.633zm28.467 1.798l-2.879-1.44a.58.58 0 0 1-.323-.523v-.729a3.259 3.259 0 0 0 1.1-2.441v-.586h.036c.283 0 .514-.23.514-.515v-1.1c0-1.8-1.464-3.265-3.265-3.265h-1.1a3.268 3.268 0 0 0-3.265 3.265v1.1c0 .284.23.515.515.515l.036-.001v.586c0 .97.425 1.842 1.1 2.441v.952c0 .224-1.432 1.099-1.631 1.197a.513.513 0 1 0 .46.92 63.813 63.813 0 0 0 1.563-1.056l1.258 1.257v6.938a.516.516 0 0 0 1.031 0v-6.938l1.258-1.257c.079.06.164.113.255.158l2.786 1.394-.845.846a2.147 2.147 0 0 0-.634 1.53v4.267a.515.515 0 1 0 1.03 0v-4.267c0-.304.117-.589.332-.803l.801-.801c.024.094.038.19.038.289v5.581a.514.514 0 1 0 1.029 0v-5.581a2.16 2.16 0 0 0-1.2-1.933zm-8.152-6.853v-.48a2.238 2.238 0 0 1 2.235-2.235h1.1a2.238 2.238 0 0 1 2.235 2.235v.572c-2.236-.121-3.587-.991-3.6-1a.514.514 0 0 0-.649.065c-.492.491-.975.728-1.321.843zm2.785 6.492l-1.189-1.189c.035-.132.055-.271.055-.413v-.109c.354.133.735.204 1.135.204s.782-.071 1.135-.204v.109c0 .143.021.281.055.413l-1.191 1.189zm0-2.537a2.237 2.237 0 0 1-2.235-2.235v-.83c.36-.144.78-.373 1.208-.737.54.281 1.671.768 3.263.928v.639a2.239 2.239 0 0 1-2.236 2.235z"/></svg>