<svg xmlns="http://www.w3.org/2000/svg" width="58" height="58" viewBox="10.541 18 58 58"><circle fill="#393939" cx="39.541" cy="47" r="29"/><path fill="none" d="M33.841 44.96a.463.463 0 0 0-.169-.633l-3.478-2.008a.505.505 0 0 1 .504-.874l3.476 2.007c1.667.963 1.593.944 1.758.944.473 0 .644-.63.233-.867l-5.003-2.889a.505.505 0 0 1 .504-.874l5.638 3.255a.465.465 0 0 0 .681-.522c-.067-.25.331.033-5.854-3.538a.505.505 0 0 1 .504-.874l4.986 2.879a.463.463 0 0 0 .697-.509c-.069-.254.307.022-5.969-3.602a.505.505 0 0 1 .188-.938l3.009-.386c.314-.04.552-.168.551-.488 0-.161-.09-.442-.42-.473-5.525-.542-4.516-.786-6.611-.213-1.408.384-2.954-1.583-3.37-.979-1.347 2.385-.873 1.557-2.213 3.877-.157.272-.2.548.074.704.538.311-.515-.295 1.384.798.667.385.904 1.015.929 1.085.262.752.221 1.18.991 1.624 7.626 4.396-.482-.278 6.342 3.662a.466.466 0 0 0 .638-.168zm16.455-10.464a.433.433 0 0 1-.245.015 1.408 1.408 0 0 1-.351-.102c-.217-.09-.34-.145-.447-.188-.014-.002-.026.002-.04-.001l-.09-.02c-.184-.026-.547-.024-1.012.245a4379.597 4379.597 0 0 0-3.544 2.05l-.009.005c-.013.008-.012.007 0 0a.04.04 0 0 0 .009-.005c.247-.143 2.716-1.571-2.798 1.612a.464.464 0 0 0 .462.804l3.478-2.008a.504.504 0 1 1 .503.874l-5.003 2.889a.465.465 0 1 0 .465.805l5.003-2.889a.503.503 0 1 1 .504.874l-5.638 3.255a.464.464 0 1 0 .465.805c2.755-1.592-1.078.623 5.638-3.255a.504.504 0 1 1 .504.874l-5.006 2.89a.463.463 0 0 0 .111.847c.261.069-.135.233 6.104-3.369.417-.241.903.188.718.632l-1.171 2.798c-.123.296-.128.563.147.722.14.08.428.144.619-.127 2.343-3.279 2.963-3.767 3.271-4.785.342-1.28.232-1.482 1.994-2.474.783-.441.917-.512.646-.979-1.286-2.178-.894-1.517-2.28-3.917-.263-.455-1.986.551-2.867 1.061-.007.004-.014.005-.02.009-.007.003-.015.01-.021.013a.957.957 0 0 1-.099.04zM43.68 49.913v-1.047a.465.465 0 0 0-.928 0v4.015a.505.505 0 1 1-1.008 0v-5.778a.465.465 0 1 0-.929 0v5.777a.506.506 0 0 1-1.009 0v-6.511a.465.465 0 0 0-.929 0v6.511a.505.505 0 0 1-1.009 0v-5.779a.462.462 0 0 0-.923.001v6.642a.506.506 0 0 1-.907.306L34.2 51.637c-.191-.253-.423-.393-.699-.232a.45.45 0 0 0-.195.608c2.296 5.254 1.848 4.567 3.116 5.823.483.479.53 1.209.536 1.857-.003.769-.089 1.05.394 1.05h4.662c.356-.049.283-.301.283-1.536 0-.624.301-1.157.487-1.359l.605-.658c.114-.146.294-.462.294-.999l-.002-6.27c-.003-.004-.001-.005-.001-.008z"/><path fill="#FFF" d="M33.438 46.202c.697 0 1.303-.491 1.444-1.175l.315.182a1.475 1.475 0 0 0 2.203-1.121c1.246.117 2.072-1.291 1.34-2.322a1.47 1.47 0 0 0-.133-2.462l-4.457-2.573 1.519-.195c.991-.1 1.441-.843 1.439-1.493-.002-.782-.561-1.401-1.331-1.475-4.899-.549-5.203-.661-6.137-.412l-.838.229c-.485.132-1.625-.711-1.953-.858-.08-.036-.442-.281-.914-.281a1.3 1.3 0 0 0-1.11.627c-1.351 2.392-.877 1.563-2.214 3.88-.522.904-.179 1.727.446 2.083l.129.074c.824.532 1.503.706 1.732 1.265l.269.859c.12.38.511.928 1.172 1.308 6.976 4.021 6.535 3.86 7.079 3.86zm-6.573-4.734c-.771-.444-.729-.871-.991-1.624a2.182 2.182 0 0 0-.929-1.085l-1.384-.798c-.274-.156-.231-.432-.074-.704 1.34-2.321.867-1.492 2.213-3.877.416-.603 1.962 1.364 3.37.979 2.095-.573 1.085-.329 6.611.213.33.031.419.312.42.473 0 .32-.237.448-.551.488l-3.009.386a.505.505 0 0 0-.188.938c6.276 3.624 5.9 3.348 5.969 3.602a.463.463 0 0 1-.697.509l-4.986-2.879a.504.504 0 1 0-.504.874c6.186 3.571 5.788 3.288 5.854 3.538a.465.465 0 0 1-.681.522l-5.638-3.255a.503.503 0 1 0-.504.874l5.003 2.889c.41.237.24.867-.233.867-.165 0-.091.019-1.758-.944l-3.476-2.007a.504.504 0 1 0-.504.874l3.478 2.008a.463.463 0 1 1-.465.803c-6.829-3.942 1.28.732-6.346-3.664zm29.706-4.494a.647.647 0 0 0-.02-.036c-.172-.29-.696-1.163-2.292-3.927-.424-.732-1.206-.939-1.996-.526l-.019.01-.079.046c-.01.005-.019.009-.025.014l-1.852.945c.242.124.448.252.448.252s.139.234.076.322c-.061.084-.271.305-.393.369.006-.004.013-.005.02-.009.881-.51 2.604-1.516 2.867-1.061 1.387 2.4.994 1.738 2.28 3.917.271.467.138.539-.646.979-1.762.992-1.652 1.193-1.994 2.474-.309 1.019-.929 1.506-3.271 4.785-.191.271-.479.207-.619.127-.275-.158-.271-.426-.147-.722l1.171-2.798a.505.505 0 0 0-.718-.632c-6.238 3.602-5.843 3.438-6.104 3.369a.463.463 0 0 1-.111-.847l5.006-2.89a.505.505 0 0 0-.504-.874l-5.638 3.255a.465.465 0 0 1-.465-.805l5.638-3.255a.505.505 0 0 0-.504-.874l-5.003 2.889a.465.465 0 1 1-.465-.805l5.003-2.889a.504.504 0 1 0-.503-.874l-3.478 2.008a.464.464 0 0 1-.462-.804c5.514-3.183 3.045-1.755 2.798-1.612l3.544-2.05c.465-.269.828-.271 1.012-.245l.09.02c.014.003.026-.001.04.001a2.76 2.76 0 0 0-.36-.115c-.314-.082.178-.914.182-.92-.344-.016-.867.039-1.468.387-2.72 1.573-3.621 2.09-6.342 3.661a1.476 1.476 0 0 0-.243 2.376l-.315.182c-.917.529-.999 1.838-.132 2.468-.73 1.029.091 2.437 1.341 2.321a1.47 1.47 0 0 0 2.2 1.117l4.457-2.573-.591 1.413c-.807 1.79 1.508 2.992 2.516 1.577 2.888-3.917 3.181-4.178 3.426-5.111l.22-.838c.072-.275.483-.548.873-.778l.891-.514c.909-.528.937-1.328.66-1.9z"/><path fill="#FFF" d="M44.559 36.5c-.012.007-.013.008 0 0zm.009-.005l-.009.005.009-.005zm5.728-1.999a.559.559 0 0 1-.245.015.433.433 0 0 0 .245-.015zm-1.138-1.307l.01.001-.01-.001zm-6.406 14.278v-.364c0-1.063-1.1-1.78-2.072-1.347-.526-1.144-2.153-1.145-2.68 0a1.472 1.472 0 0 0-2.067 1.346v5.146l-.928-1.218c-1.139-1.583-3.352-.203-2.624 1.39 2.341 5.357 1.887 4.703 3.33 6.132.202.2.232.693.236 1.146 0 .019-.003.702-.002.721.024.615.408 1.334 1.406 1.334 4.976 0 4.706.002 4.75-.003.582-.065 1.204-.479 1.204-1.446 0-1.718-.103-1.422.838-2.445.262-.285.549-.895.548-1.669l-.001-4.577.001-.006v-2.74a1.478 1.478 0 0 0-1.939-1.4zm.634 9.722l-.605.658c-.186.202-.487.735-.487 1.359 0 1.235.073 1.487-.283 1.536H37.35c-.483 0-.397-.281-.394-1.05-.006-.648-.052-1.379-.536-1.857-1.269-1.256-.82-.569-3.116-5.823a.452.452 0 0 1 .195-.608c.276-.16.508-.021.699.232l1.838 2.413a.505.505 0 0 0 .907-.306v-6.642a.462.462 0 1 1 .923-.001v5.779a.506.506 0 0 0 1.009 0v-6.511a.464.464 0 0 1 .929 0v6.511a.505.505 0 0 0 1.009 0v-5.777a.465.465 0 1 1 .929 0v5.778a.505.505 0 1 0 1.008 0v-4.015a.465.465 0 0 1 .928 0v1.047l-.002.008.002 6.27c.002.537-.178.852-.292.999z"/><path fill="#FFF" d="M48.893 34.105c.158.041.252.072.36.115.107.043.23.098.447.188.147.061.26.089.351.102a.543.543 0 0 0 .245-.015c.039-.013.072-.028.104-.041.006-.002.014-.01.021-.013.122-.064.332-.285.393-.369.063-.088-.076-.322-.076-.322s-.206-.129-.448-.252a3.106 3.106 0 0 0-.404-.177 3.26 3.26 0 0 0-.717-.132l-.01-.001-.082-.005-.001.001c-.005.008-.497.839-.183.921z"/></svg>