<?xml version="1.0" encoding="utf-8"?>
<!-- Generator: Adobe Illustrator 18.1.0, SVG Export Plug-In . SVG Version: 6.00 Build 0)  -->
<svg version="1.1" id="Layer_1" xmlns="http://www.w3.org/2000/svg" xmlns:xlink="http://www.w3.org/1999/xlink" x="0px" y="0px"
	 viewBox="0 0 170 68" enable-background="new 0 0 170 68" xml:space="preserve">
<g>
	<defs>
		<rect id="SVGID_1_" x="134.6" y="33.9" width="27.1" height="31.3"/>
	</defs>
	<clipPath id="SVGID_2_">
		<use xlink:href="#SVGID_1_"  overflow="visible"/>
	</clipPath>
	<g clip-path="url(#SVGID_2_)">
		<path fill="#006790" d="M158.2,62.4h-37.4c0,0-12.6,0.6-14.1-2.2c-0.8-1.5-0.3-4.4-0.3-5.3c0-0.9,0.6-2,0.6-3.4
			c0-1.4,0.9-2.4,2.2-3.6c1.3-1.3,3-3.5,6.6-4c4.4-0.5,6.9-1,14.5-1c5.9,0,3.7,0,5.3,0c1.6,0,3,0.1,5.9,1.4
			c2.9,1.2,10.2,5.3,10.2,5.3s5.8,1.1,7.5,2.8c0.8,0.6,1.1,1.2,1,2.4c1,0.6,1.5,1.1,1.5,2.8c0,1.7,0,3,0,3.5c0,0.5,0.2,0.4-1.2,0.8
			C159,62.5,159.2,62.4,158.2,62.4z"/>
		<path fill="#FFDC48" d="M156.9,49"/>
		<g>
			<circle fill="#4595d4" stroke="#FFFFFF" stroke-width="1.4618" stroke-miterlimit="10" cx="115.1" cy="60.4" r="4.8"/>
			<circle fill="#FFFFFF" cx="115.1" cy="60.4" r="1.1"/>
		</g>
		<g>
			<circle fill="#4595d4" stroke="#FFFFFF" stroke-width="1.4618" stroke-miterlimit="10" cx="152.8" cy="60.4" r="4.8"/>
			<circle fill="#FFFFFF" cx="152.8" cy="60.4" r="1.1"/>
		</g>
		<path fill="#FFFFFF" d="M145.3,51c0,0-22.2-0.5-23.1-0.5c-0.8,0-3.1-1.4-4.5-1.4c-1.4,0-6-0.3-6-0.3s0.7-0.9,1.3-1.4
			c0.8-0.8,1.4-1,1.4-1s2.5-0.2,3.4-0.2c0.9,0,4.3-1.7,9-1.7c4.7,0,6.3,0,8.3,0c2,0,5,0.2,9.4,3.5C145,49.5,145.3,51,145.3,51z"/>
		<path fill="#006790" d="M131.1,44.1c0,0.1,0.9,7.3,0.9,7.3l-1.4,0.7h-0.8l-0.8-8H131.1z"/>
		<polygon fill="#006790" points="121.8,44.4 121,51.4 119.9,50.5 120.5,44.8 		"/>
		<path fill="#FFFFFF" d="M160.1,54.9c-1.2,0-2.8-1.1-3.4-2.7c1.3,0.1,2.7,0.7,3.1,1.2C160.2,54.1,160.1,54.9,160.1,54.9z"/>
	</g>
</g>
<g>
	<line fill="none" stroke="#0077b5" stroke-width="2" stroke-miterlimit="10" x1="0.3" y1="66.8" x2="170.3" y2="66.8"/>
	<rect x="62.1" y="1" fill="none" stroke="#0077b5" stroke-width="2" stroke-miterlimit="10" width="43.4" height="65.8"/>
	<rect x="69.8" y="38.8" fill="#0077b5" width="28.1" height="28"/>
	<rect x="105.3" y="38.8" fill="#0077b5" width="17.9" height="28"/>
	<rect x="44.5" y="38.8" fill="#0077b5" width="10.6" height="28"/>
	<line fill="none" stroke="#0077b5" stroke-width="2" stroke-miterlimit="10" x1="62.1" y1="29.4" x2="105.6" y2="29.4"/>
	<polyline fill="none" stroke="#0077b5" stroke-width="2" stroke-miterlimit="10" points="33.6,66.8 33.6,29.8 55.1,29.8 	"/>
	<rect x="105.5" y="29.8" fill="none" stroke="#0077b5" stroke-width="2" stroke-miterlimit="10" width="28.4" height="37"/>
	<rect x="72" y="16" fill="#0077b5" width="23.7" height="8.4"/>
	<line fill="none" stroke="#0077b5" stroke-width="2" stroke-miterlimit="10" x1="62.1" y1="8.9" x2="105.6" y2="8.9"/>
	<g>
		<line fill="none" stroke="#FFFFFF" stroke-width="3.6277" stroke-miterlimit="10" x1="123" y1="18.4" x2="123" y2="66.2"/>
		<line fill="none" stroke="#0077b5" stroke-width="2.0201" stroke-miterlimit="10" x1="125.2" y1="17.8" x2="125.2" y2="66.2"/>
	</g>
	<rect x="110.6" y="3.6" fill="#0077b5" width="28.5" height="14.8"/>
</g>
<line fill="none" stroke="#FFFFFF" stroke-width="2" stroke-miterlimit="10" x1="83.8" y1="36.9" x2="83.8" y2="65.2"/>
</svg>
