<?xml version="1.0" encoding="utf-8"?>
<!-- Generator: Adobe Illustrator 16.0.0, SVG Export Plug-In . SVG Version: 6.00 Build 0)  -->
<!DOCTYPE svg PUBLIC "-//W3C//DTD SVG 1.1//EN" "http://www.w3.org/Graphics/SVG/1.1/DTD/svg11.dtd">
<svg version="1.1" id="Layer_1" xmlns="http://www.w3.org/2000/svg" xmlns:xlink="http://www.w3.org/1999/xlink" x="0px" y="0px"
	 width="97px" height="95.945px" viewBox="518.43 525.126 97 95.945" enable-background="new 518.43 525.126 97 95.945"
	 xml:space="preserve">
<g>
	<g>
		<path fill="#D1DCE0" d="M530.946,588.216c-6.901,0-12.516,5.615-12.516,12.517c0,3.803,1.74,7.393,4.693,9.763v10.576h15.646
			v-10.576c2.954-2.372,4.693-5.961,4.693-9.763C543.462,593.831,537.847,588.216,530.946,588.216z M530.946,603.861
			c-1.729,0-3.129-1.4-3.129-3.129s1.4-3.129,3.129-3.129s3.129,1.4,3.129,3.129S532.675,603.861,530.946,603.861z"/>
		<path fill="#D1DCE0" d="M566.93,588.216c-6.901,0-12.516,5.615-12.516,12.517c0,3.803,1.74,7.393,4.693,9.763v10.576h15.645
			v-10.576c2.954-2.372,4.694-5.961,4.694-9.763C579.447,593.831,573.831,588.216,566.93,588.216z M566.93,603.861
			c-1.729,0-3.129-1.4-3.129-3.129s1.4-3.129,3.129-3.129s3.129,1.4,3.129,3.129S568.658,603.861,566.93,603.861z"/>
		<path fill="#D1DCE0" d="M602.913,588.216c-6.9,0-12.516,5.615-12.516,12.517c0,3.803,1.739,7.393,4.693,9.763v10.576h15.646
			v-10.576c2.954-2.372,4.693-5.961,4.693-9.763C615.43,593.831,609.815,588.216,602.913,588.216z M602.913,603.861
			c-1.729,0-3.129-1.4-3.129-3.129s1.4-3.129,3.129-3.129c1.729,0,3.13,1.4,3.13,3.129S604.643,603.861,602.913,603.861z"/>
	</g>
	<g>
		<rect x="521.559" y="617.941" fill="#0077B5" width="18.774" height="3.13"/>
		<path fill="#0077B5" d="M532.51,605.138c1.816-0.647,3.129-2.368,3.129-4.405c0-2.588-2.106-4.693-4.694-4.693
			s-4.693,2.105-4.693,4.693c0,2.037,1.313,3.758,3.129,4.405v6.546h-7.823v3.129h18.774v-3.129h-7.823V605.138z M530.946,599.168
			c0.864,0,1.564,0.7,1.564,1.564c0,0.863-0.701,1.564-1.564,1.564s-1.564-0.701-1.564-1.564
			C529.382,599.868,530.082,599.168,530.946,599.168z"/>
		<rect x="557.543" y="617.941" fill="#0077B5" width="18.774" height="3.13"/>
		<path fill="#0077B5" d="M568.494,605.138c1.816-0.647,3.129-2.368,3.129-4.405c0-2.588-2.105-4.693-4.693-4.693
			s-4.693,2.105-4.693,4.693c0,2.037,1.313,3.758,3.129,4.405v6.546h-7.823v3.129h18.774v-3.129h-7.822V605.138z M566.93,599.168
			c0.863,0,1.564,0.7,1.564,1.564c0,0.863-0.701,1.564-1.564,1.564c-0.864,0-1.564-0.701-1.564-1.564
			C565.365,599.868,566.066,599.168,566.93,599.168z"/>
		<path fill="#0077B5" d="M604.479,611.684v-6.546c1.816-0.647,3.129-2.368,3.129-4.405c0-2.588-2.106-4.693-4.694-4.693
			c-2.587,0-4.693,2.105-4.693,4.693c0,2.037,1.313,3.758,3.13,4.405v6.546h-7.823v3.129h18.774v-3.129H604.479z M602.913,599.168
			c0.864,0,1.565,0.7,1.565,1.564c0,0.863-0.701,1.564-1.565,1.564c-0.863,0-1.563-0.701-1.563-1.564
			C601.35,599.868,602.05,599.168,602.913,599.168z"/>
		<rect x="593.527" y="617.941" fill="#0077B5" width="18.774" height="3.13"/>
	</g>
	<path fill="#0077B5" d="M593.458,571.428c-1.042,0-2.063-0.088-3.061-0.252v13.159h6.258c2.588,0,4.694,2.106,4.694,4.694h3.129
		c0-4.313-3.51-7.823-7.823-7.823h-3.129v-9.779C593.504,571.428,593.481,571.428,593.458,571.428z"/>
	<path fill="#0077B5" d="M565.365,584.033v4.996h3.129v-7.488C567.564,582.498,566.513,583.337,565.365,584.033z"/>
	<path fill="#0077B5" d="M540.333,576.302v4.904h-3.129c-4.313,0-7.823,3.51-7.823,7.823h3.129c0-2.588,2.106-4.694,4.694-4.694
		h6.258v-6.182c-0.376-0.684-0.703-1.397-0.976-2.138C541.786,576.163,541.067,576.26,540.333,576.302z"/>
	<path fill="#0077B5" d="M593.527,571.427c10.375-0.037,18.774-8.532,18.774-19.007c0-10.497-8.437-19.007-18.843-19.007
		c-2.713,0-5.291,0.58-7.621,1.62c-2.681-4.776-7.714-7.992-13.483-7.992c-4.341,0-8.265,1.822-11.083,4.758
		c-3.102-4.055-7.993-6.671-13.498-6.671c-9.375,0-16.975,7.59-16.975,16.952c0,2.396,0.499,4.675,1.396,6.742
		c-4.361,2.549-7.294,7.312-7.294,12.768c0,8.14,6.531,14.739,14.587,14.739c0.284,0,0.565-0.009,0.845-0.025
		c0.733-0.042,1.453-0.139,2.153-0.286c0.273,0.74,0.6,1.454,0.976,2.138c2.675,4.857,7.839,8.148,13.771,8.148
		c2.977,0,5.759-0.829,8.132-2.269c1.147-0.696,2.198-1.535,3.129-2.492c1.345-1.383,2.438-3.013,3.204-4.815
		c1.821,0.889,3.865,1.387,6.025,1.387c5.164,0,9.662-2.845,12.022-7.055c0.216,0.044,0.433,0.082,0.651,0.118
		c0.997,0.164,2.019,0.252,3.061,0.252C593.481,571.428,593.504,571.428,593.527,571.427z"/>
	<path fill="#FFFFFF" d="M537.559,556.85c-0.056,0.144,0.019,0.174,0.037,0.198c0.165,0.119,0.33,0.206,0.499,0.302
		c0.891,0.473,1.734,0.61,2.614,0.61c1.793,0,2.907-0.953,2.907-2.488v-0.029c0-1.42-1.257-1.936-2.435-2.309l-0.154-0.049
		c-0.889-0.289-1.656-0.538-1.656-1.124v-0.03c0-0.5,0.448-0.87,1.143-0.87c0.772,0,1.688,0.257,2.278,0.583
		c0,0,0.174,0.112,0.237-0.057c0.035-0.091,0.333-0.894,0.365-0.981c0.033-0.094-0.026-0.164-0.088-0.201
		c-0.674-0.41-1.605-0.69-2.569-0.69l-0.178,0.001c-1.642,0-2.788,0.992-2.788,2.412v0.03c0,1.497,1.264,1.983,2.448,2.321
		l0.19,0.059c0.863,0.265,1.607,0.493,1.607,1.1v0.031c0,0.555-0.484,0.969-1.263,0.969c-0.303,0-1.268-0.005-2.31-0.664
		c-0.125-0.075-0.198-0.127-0.295-0.187c-0.051-0.032-0.18-0.087-0.236,0.081L537.559,556.85z"/>
	<path fill="#FFFFFF" d="M563.805,556.85c-0.055,0.144,0.019,0.174,0.037,0.198c0.165,0.119,0.33,0.206,0.499,0.302
		c0.891,0.473,1.734,0.61,2.614,0.61c1.793,0,2.907-0.953,2.907-2.488v-0.029c0-1.42-1.258-1.936-2.435-2.309l-0.154-0.049
		c-0.889-0.289-1.656-0.538-1.656-1.124v-0.03c0-0.5,0.448-0.87,1.143-0.87c0.772,0,1.688,0.257,2.278,0.583
		c0,0,0.175,0.112,0.237-0.057c0.035-0.091,0.333-0.894,0.365-0.981c0.033-0.094-0.026-0.164-0.088-0.201
		c-0.674-0.41-1.604-0.69-2.569-0.69l-0.178,0.001c-1.642,0-2.788,0.992-2.788,2.412v0.03c0,1.497,1.265,1.983,2.448,2.321
		l0.19,0.059c0.863,0.265,1.608,0.493,1.608,1.1v0.031c0,0.555-0.484,0.969-1.264,0.969c-0.303,0-1.266-0.005-2.31-0.664
		c-0.125-0.075-0.2-0.125-0.295-0.187c-0.032-0.021-0.184-0.08-0.235,0.081L563.805,556.85z"/>
	<path fill="#FFFFFF" d="M583.219,552.234c-0.146-0.497-0.376-0.935-0.681-1.3c-0.305-0.366-0.69-0.66-1.149-0.874
		c-0.457-0.213-0.997-0.323-1.604-0.323c-0.607,0-1.148,0.109-1.605,0.323s-0.844,0.507-1.148,0.875
		c-0.306,0.365-0.534,0.803-0.681,1.299c-0.146,0.495-0.221,1.035-0.221,1.608c0,0.573,0.074,1.115,0.221,1.608
		c0.146,0.496,0.375,0.934,0.681,1.3c0.305,0.366,0.692,0.659,1.15,0.867c0.457,0.208,0.996,0.313,1.604,0.313
		c0.606,0,1.145-0.105,1.604-0.313c0.457-0.208,0.844-0.501,1.149-0.867c0.305-0.365,0.534-0.803,0.681-1.3
		c0.146-0.495,0.221-1.035,0.221-1.608C583.44,553.27,583.365,552.729,583.219,552.234 M581.723,553.843
		c0,0.867-0.162,1.552-0.48,2.035c-0.316,0.478-0.793,0.711-1.457,0.711c-0.665,0-1.139-0.234-1.45-0.711
		c-0.314-0.483-0.474-1.167-0.474-2.035c0-0.866,0.159-1.549,0.473-2.027c0.313-0.473,0.786-0.703,1.451-0.703
		c0.664,0,1.141,0.23,1.457,0.703C581.561,552.293,581.723,552.977,581.723,553.843"/>
	<path fill-rule="evenodd" clip-rule="evenodd" fill="#FFFFFF" d="M595.509,556.356c-0.049-0.146-0.192-0.09-0.192-0.09
		c-0.217,0.083-0.448,0.159-0.695,0.198c-0.25,0.04-0.524,0.059-0.82,0.059c-0.723,0-1.3-0.215-1.712-0.641
		c-0.412-0.426-0.645-1.115-0.643-2.046c0.003-0.846,0.207-1.483,0.575-1.97c0.364-0.483,0.92-0.731,1.66-0.731
		c0.616,0,1.088,0.072,1.581,0.226c0,0,0.118,0.051,0.174-0.103c0.132-0.365,0.229-0.623,0.368-1.022
		c0.04-0.114-0.058-0.162-0.094-0.176c-0.193-0.076-0.65-0.2-0.998-0.253c-0.322-0.049-0.701-0.075-1.122-0.075
		c-0.628,0-1.188,0.108-1.668,0.321c-0.479,0.212-0.884,0.506-1.206,0.872c-0.321,0.366-0.565,0.804-0.727,1.3
		c-0.163,0.495-0.244,1.037-0.244,1.612c0,1.241,0.334,2.244,0.995,2.978c0.663,0.739,1.657,1.112,2.955,1.112
		c0.767,0,1.553-0.156,2.119-0.378c0,0,0.107-0.052,0.061-0.178L595.509,556.356z"/>
	<path fill-rule="evenodd" clip-rule="evenodd" fill="#FFFFFF" d="M603.165,551.953c-0.128-0.48-0.442-0.965-0.647-1.186
		c-0.326-0.352-0.646-0.598-0.962-0.734c-0.413-0.177-0.909-0.294-1.452-0.294c-0.632,0-1.206,0.106-1.673,0.325
		c-0.466,0.219-0.857,0.518-1.166,0.891c-0.307,0.371-0.538,0.813-0.686,1.315c-0.148,0.498-0.223,1.042-0.223,1.616
		c0,0.584,0.077,1.129,0.23,1.617c0.154,0.494,0.4,0.927,0.733,1.289c0.334,0.362,0.762,0.645,1.274,0.844
		c0.51,0.196,1.129,0.299,1.839,0.296c1.463-0.004,2.234-0.33,2.551-0.506c0.057-0.032,0.109-0.086,0.044-0.243l-0.333-0.928
		c-0.05-0.137-0.189-0.087-0.189-0.087c-0.363,0.135-0.877,0.376-2.08,0.374c-0.786-0.001-1.368-0.232-1.732-0.596
		c-0.374-0.37-0.559-0.915-0.59-1.684l5.065,0.003c0,0,0.134-0.001,0.147-0.132C603.322,554.08,603.49,553.094,603.165,551.953
		 M598.127,553.011c0.072-0.482,0.204-0.882,0.41-1.194c0.309-0.474,0.782-0.736,1.447-0.736s1.104,0.262,1.419,0.736
		c0.21,0.313,0.301,0.729,0.337,1.196L598.127,553.011z"/>
	<path fill-rule="evenodd" clip-rule="evenodd" fill="#FFFFFF" d="M562.594,551.953c-0.127-0.48-0.442-0.965-0.647-1.186
		c-0.327-0.352-0.645-0.598-0.962-0.734c-0.414-0.177-0.908-0.294-1.45-0.294c-0.633,0-1.208,0.106-1.674,0.325
		c-0.466,0.219-0.858,0.518-1.167,0.891c-0.307,0.371-0.538,0.813-0.686,1.315c-0.148,0.498-0.222,1.042-0.222,1.616
		c0,0.584,0.077,1.129,0.23,1.617c0.154,0.494,0.4,0.927,0.733,1.289c0.334,0.362,0.762,0.645,1.274,0.844
		c0.51,0.196,1.129,0.299,1.839,0.296c1.463-0.004,2.234-0.33,2.551-0.506c0.057-0.032,0.109-0.086,0.044-0.243l-0.333-0.928
		c-0.05-0.137-0.19-0.087-0.19-0.087c-0.363,0.135-0.877,0.376-2.08,0.374c-0.785-0.001-1.368-0.232-1.733-0.596
		c-0.374-0.37-0.559-0.915-0.59-1.684l5.065,0.003c0,0,0.134-0.001,0.148-0.132C562.75,554.08,562.919,553.094,562.594,551.953
		 M557.556,553.011c0.072-0.482,0.204-0.882,0.408-1.194c0.313-0.474,0.784-0.736,1.449-0.736c0.665,0,1.104,0.262,1.421,0.736
		c0.208,0.313,0.299,0.729,0.335,1.196L557.556,553.011z"/>
	<path fill="#FFFFFF" d="M548.621,552.769c-0.205-0.015-0.471-0.023-0.79-0.023c-0.434,0-0.854,0.054-1.249,0.161
		c-0.396,0.106-0.751,0.271-1.057,0.489c-0.308,0.221-0.555,0.502-0.734,0.836c-0.18,0.334-0.271,0.727-0.271,1.166
		c0,0.45,0.077,0.839,0.233,1.157c0.154,0.32,0.376,0.587,0.66,0.793c0.281,0.205,0.629,0.355,1.031,0.447
		c0.398,0.091,0.849,0.138,1.342,0.138c0.521,0,1.037-0.044,1.539-0.129c0.497-0.084,1.106-0.208,1.275-0.248
		c0.168-0.039,0.354-0.09,0.354-0.09c0.126-0.032,0.116-0.166,0.116-0.166l-0.002-4.632c0-1.018-0.271-1.77-0.804-2.237
		c-0.532-0.465-1.315-0.7-2.328-0.7c-0.38,0-0.99,0.051-1.357,0.125c0,0-1.106,0.214-1.561,0.572c0,0-0.1,0.062-0.046,0.202
		l0.358,0.963c0.045,0.125,0.167,0.082,0.167,0.082s0.039-0.016,0.083-0.042c0.974-0.529,2.207-0.514,2.207-0.514
		c0.547,0,0.969,0.112,1.252,0.328c0.276,0.213,0.416,0.532,0.416,1.207v0.215C549.022,552.805,548.621,552.769,548.621,552.769
		 M546.606,556.329c-0.199-0.158-0.226-0.198-0.292-0.3c-0.102-0.156-0.153-0.377-0.153-0.659c0-0.444,0.148-0.766,0.452-0.98
		c-0.002,0,0.437-0.38,1.47-0.366c0.726,0.009,1.376,0.117,1.376,0.117v2.303c0,0-0.644,0.137-1.368,0.181
		C547.061,556.687,546.602,556.327,546.606,556.329"/>
	<path fill-rule="evenodd" clip-rule="evenodd" fill="#FFFFFF" d="M589.481,550.159c0.038-0.114-0.042-0.169-0.076-0.182
		c-0.086-0.032-0.518-0.124-0.849-0.146c-0.637-0.039-0.99,0.068-1.307,0.211c-0.314,0.141-0.662,0.371-0.855,0.632l-0.001-0.618
		c0-0.085-0.061-0.153-0.146-0.153h-1.299c-0.084,0-0.145,0.068-0.145,0.153v7.557c0,0.085,0.067,0.153,0.154,0.153h1.33
		c0.085,0,0.153-0.068,0.153-0.153v-3.775c0-0.508,0.057-1.012,0.168-1.33c0.109-0.315,0.258-0.565,0.443-0.745
		c0.185-0.18,0.396-0.306,0.627-0.376c0.235-0.072,0.495-0.096,0.678-0.096c0.267,0,0.557,0.069,0.557,0.069
		c0.099,0.01,0.153-0.05,0.187-0.138C589.187,550.991,589.435,550.296,589.481,550.159"/>
	<path fill-rule="evenodd" clip-rule="evenodd" fill="#FFFFFF" d="M576.989,546.657c-0.162-0.05-0.309-0.083-0.501-0.118
		c-0.195-0.036-0.427-0.054-0.689-0.054c-0.915,0-1.638,0.259-2.145,0.771c-0.504,0.507-0.847,1.281-1.019,2.297l-0.062,0.343
		h-1.149c0,0-0.142-0.005-0.17,0.148l-0.189,1.053c-0.014,0.1,0.03,0.163,0.165,0.163h1.12l-1.137,6.34
		c-0.089,0.51-0.19,0.93-0.304,1.249c-0.11,0.315-0.22,0.55-0.353,0.721c-0.13,0.165-0.252,0.288-0.464,0.358
		c-0.175,0.058-0.376,0.085-0.597,0.085c-0.122,0-0.285-0.021-0.405-0.045c-0.121-0.023-0.184-0.05-0.274-0.087
		c0,0-0.131-0.05-0.184,0.081c-0.041,0.107-0.339,0.928-0.375,1.03c-0.035,0.1,0.015,0.179,0.079,0.202
		c0.148,0.053,0.259,0.087,0.462,0.135c0.283,0.067,0.521,0.071,0.742,0.071c0.467,0,0.892-0.065,1.244-0.192
		c0.354-0.129,0.663-0.352,0.937-0.653c0.294-0.326,0.48-0.668,0.657-1.134c0.176-0.461,0.325-1.034,0.445-1.702l1.142-6.458h1.668
		c0,0,0.142,0.005,0.17-0.148l0.188-1.053c0.013-0.1-0.029-0.163-0.164-0.163h-1.62c0.008-0.036,0.081-0.606,0.268-1.142
		c0.079-0.23,0.229-0.413,0.355-0.541c0.123-0.125,0.268-0.213,0.424-0.265c0.16-0.051,0.343-0.077,0.543-0.077
		c0.153,0,0.302,0.018,0.417,0.041c0.156,0.034,0.218,0.051,0.26,0.063c0.164,0.051,0.186,0.002,0.219-0.077l0.387-1.063
		C577.12,546.72,577.024,546.671,576.989,546.657"/>
	<path fill-rule="evenodd" clip-rule="evenodd" fill="#FFFFFF" d="M554.357,557.613c0,0.085-0.061,0.154-0.146,0.154h-1.344
		c-0.084,0-0.145-0.069-0.145-0.154v-10.812c0-0.084,0.061-0.153,0.145-0.153h1.344c0.085,0,0.146,0.068,0.146,0.153V557.613z"/>
</g>
</svg>
