<?xml version="1.0" encoding="utf-8"?>
<!-- Generator: Adobe Illustrator 16.0.0, SVG Export Plug-In . SVG Version: 6.00 Build 0)  -->
<!DOCTYPE svg PUBLIC "-//W3C//DTD SVG 1.1//EN" "http://www.w3.org/Graphics/SVG/1.1/DTD/svg11.dtd">
<svg version="1.1" id="Шар_1" xmlns="http://www.w3.org/2000/svg" xmlns:xlink="http://www.w3.org/1999/xlink" x="0px" y="0px"
	 width="576.25px" height="671.611px" viewBox="0 0 576.25 671.611" enable-background="new 0 0 576.25 671.611"
	 xml:space="preserve">
<g>
	<path fill="none" stroke="#FFFFFF" stroke-width="0.25" stroke-miterlimit="10" d="M0.125,380.13
		c0.13-0.755,0.364-1.517,0.384-2.271c0.762-41.96,10.377-81.799,28.607-119.576c8.353-17.296,18.425-33.545,30.049-48.841
		c0.717-0.944,1.458-1.874,2.271-2.914c10.378,5.134,19.681,12.111,30.533,16.466c-3.483,6.095-7.08,12.389-10.663,18.679
		c-3.137,5.508-2.21,8.913,3.305,12.06c5.954,3.397,11.912,6.802,17.89,10.165c4.187,2.358,7.958,1.345,10.368-2.807
		c3.675-6.352,7.327-12.725,10.923-19.125c2.227-3.964,1.095-7.92-2.876-10.213c-5.94-3.425-11.918-6.798-17.879-10.199
		c-0.734-0.419-1.452-0.889-1.815-1.108c2.793-4.715,5.542-9.259,8.195-13.854c4.705-8.15,9.382-16.322,14.026-24.506
		c4.146-7.303,2.22-14.087-5.079-18.295c-7.873-4.54-15.728-9.097-23.58-13.682c-5.813-3.384-7.375-9.287-4.022-15.179
		c5.254-9.221,10.521-18.432,15.82-27.625c3.418-5.927,9.365-7.516,15.34-4.104c9.211,5.261,18.415,10.542,27.612,15.831
		c5.752,3.308,7.413,9.139,4.197,14.928c-4.753,8.569-9.53,17.121-14.338,25.656c-4.245,7.536-2.396,14.293,5.01,18.693
		c23.062,13.682,46.727,26.232,70.821,37.976c0.848,0.409,1.671,0.862,2.701,1.397c-2,3.48-3.909,6.771-5.793,10.072
		c-13.442,23.466-26.548,47.104-36.332,72.403c-6.667,17.224-12.063,34.788-14.53,53.175
		c-7.684,57.139,7.378,107.394,46.191,150.064c25.57,28.112,57.317,46.033,94.675,53.363c37.3,7.316,73.443,2.725,107.994-12.917
		c39.287-17.783,69.28-45.745,89.103-84.174c11.544-22.368,17.776-46.261,18.16-71.49c0.714-47.403-12.958-89.964-43.569-126.567
		c-15.868-18.967-35.21-33.473-57.887-43.456c-0.728-0.319-1.448-0.673-2.169-1.013c-0.041-0.024-0.041-0.137-0.213-0.628
		c4.297,0.734,8.408,1.355,12.484,2.142c26.26,5.059,51.003,14.077,73.371,28.947c36.987,24.585,60.221,58.848,70.955,101.762
		c3.007,12.031,4.75,24.256,5.367,36.638c0.027,0.604,0.254,1.2,0.392,1.798v19.65c-0.145,0.762-0.336,1.517-0.405,2.292
		c-0.404,4.688-0.631,9.396-1.181,14.063c-3.582,30.303-12.532,59.013-25.999,86.336c-18.586,37.716-44.338,69.788-76.871,96.33
		c-47.434,38.689-101.827,59.918-162.882,64.14c-3.85,0.268-7.704,0.583-11.562,0.878h-17.731c-0.601-0.13-1.198-0.363-1.809-0.384
		c-15.028-0.398-29.921-2.094-44.654-5.018c-57.204-11.366-106.563-37.619-148.012-78.621
		c-23.058-22.808-41.637-48.903-55.79-78.114c-18.322-37.818-27.941-77.723-28.72-119.748c-0.021-0.769-0.254-1.517-0.384-2.278
		V380.13z"/>
	<path fill="none" stroke="#FFFFFF" stroke-width="0.25" stroke-miterlimit="10" d="M290.997,0.125
		c5.931,3.38,11.867,6.753,17.797,10.141c4.685,2.68,5.57,5.872,2.914,10.501c-2.965,5.186-5.923,10.378-8.909,15.549
		c-2.24,3.864-5.624,4.798-9.513,2.602c-5.412-3.051-10.813-6.133-16.191-9.252c-3.919-2.272-4.77-5.529-2.519-9.502
		c2.746-4.853,5.594-9.654,8.257-14.551c1.284-2.354,2.79-4.362,5.289-5.487H290.997z"/>
	<path fill="none" stroke="#FFFFFF" stroke-width="0.25" stroke-miterlimit="10" d="M314.992,235.907
		c-0.463,1.373-0.943,4.025-2.189,6.249c-7.536,13.422-15.203,26.771-22.907,40.093c-4.509,7.804-12.92,9.997-20.793,5.512
		c-13.157-7.505-26.311-15.031-39.448-22.578c-8.044-4.619-10.323-13.089-5.724-21.119c7.484-13.079,14.976-26.157,22.471-39.229
		c4.63-8.061,13.041-10.367,21.092-5.769c13.229,7.557,26.442,15.144,39.678,22.687
		C312.185,224.617,314.649,228.965,314.992,235.907"/>
	<path fill="none" stroke="#FFFFFF" stroke-width="0.25" stroke-miterlimit="10" d="M263.698,124.649
		c-0.69,2.001-1.102,4.163-2.125,5.979c-6.084,10.854-12.282,21.647-18.497,32.426c-3.435,5.961-10.299,7.859-16.325,4.458
		c-10.91-6.146-21.789-12.351-32.633-18.607c-5.971-3.445-7.896-10.374-4.513-16.349c6.167-10.902,12.399-21.768,18.689-32.595
		c3.531-6.088,10.409-7.91,16.541-4.427c10.824,6.143,21.606,12.354,32.393,18.559C261.227,116.393,263.265,119.869,263.698,124.649
		"/>
	<path fill="none" stroke="#FFFFFF" stroke-width="0.25" stroke-miterlimit="10" d="M278.166,97.024
		c0.494-1.4,0.796-2.91,1.51-4.193c4.053-7.231,8.185-14.424,12.334-21.596c2.464-4.252,7.001-5.553,11.321-3.14
		c7.371,4.128,14.701,8.333,22.001,12.598c4.019,2.351,5.288,6.88,3.017,10.978c-4.18,7.529-8.459,15.007-12.814,22.437
		c-2.186,3.737-6.578,5.075-10.395,2.989c-7.838-4.276-15.58-8.73-23.278-13.264C279.442,102.412,278.31,100.013,278.166,97.024"/>
</g>
</svg>
