<?xml version="1.0" encoding="utf-8"?>
<!-- Generator: Adobe Illustrator 16.0.0, SVG Export Plug-In . SVG Version: 6.00 Build 0)  -->
<!DOCTYPE svg PUBLIC "-//W3C//DTD SVG 1.1//EN" "http://www.w3.org/Graphics/SVG/1.1/DTD/svg11.dtd">
<svg version="1.1" id="Шар_1" xmlns="http://www.w3.org/2000/svg" xmlns:xlink="http://www.w3.org/1999/xlink" x="0px" y="0px"
	 width="170px" height="60.178px" viewBox="0 0 170 60.178" enable-background="new 0 0 170 60.178" xml:space="preserve">
<g>
	<path fill="#FFFFFF" d="M0,34.062c0.012-0.067,0.033-0.136,0.034-0.204c0.069-3.761,0.93-7.332,2.564-10.718
		c0.749-1.55,1.651-3.007,2.693-4.378c0.064-0.084,0.131-0.168,0.204-0.261c0.93,0.46,1.764,1.085,2.737,1.476
		c-0.312,0.546-0.635,1.11-0.956,1.674c-0.281,0.494-0.198,0.8,0.296,1.081c0.534,0.306,1.068,0.61,1.604,0.912
		c0.375,0.211,0.713,0.121,0.93-0.252c0.329-0.569,0.656-1.141,0.979-1.714c0.2-0.355,0.098-0.71-0.258-0.916
		c-0.533-0.307-1.068-0.609-1.603-0.914c-0.066-0.038-0.13-0.08-0.163-0.099c0.25-0.423,0.497-0.83,0.734-1.242
		c0.422-0.731,0.841-1.463,1.257-2.197c0.371-0.655,0.199-1.263-0.455-1.64c-0.706-0.407-1.41-0.816-2.114-1.228
		c-0.521-0.303-0.661-0.833-0.36-1.36c0.471-0.826,0.943-1.652,1.418-2.477c0.307-0.53,0.84-0.673,1.375-0.368
		c0.826,0.473,1.65,0.945,2.475,1.419c0.516,0.297,0.665,0.819,0.376,1.339c-0.426,0.768-0.854,1.534-1.285,2.3
		c-0.381,0.676-0.215,1.281,0.449,1.675c2.067,1.227,4.188,2.352,6.348,3.404c0.076,0.037,0.15,0.077,0.242,0.125
		c-0.179,0.312-0.35,0.606-0.519,0.902c-1.205,2.104-2.38,4.223-3.257,6.49c-0.598,1.544-1.081,3.119-1.302,4.768
		c-0.689,5.121,0.661,9.626,4.14,13.45c2.292,2.521,5.138,4.126,8.486,4.783c3.344,0.656,6.583,0.245,9.681-1.158
		c3.521-1.594,6.209-4.1,7.986-7.544c1.035-2.006,1.593-4.146,1.627-6.407c0.064-4.249-1.162-8.064-3.905-11.346
		c-1.422-1.7-3.156-3.001-5.189-3.896c-0.065-0.029-0.129-0.061-0.194-0.091c-0.004-0.002-0.004-0.013-0.02-0.057
		c0.385,0.065,0.754,0.122,1.119,0.192c2.354,0.454,4.572,1.262,6.577,2.595c3.315,2.204,5.397,5.274,6.36,9.122
		c0.27,1.078,0.425,2.174,0.481,3.284c0.001,0.055,0.022,0.107,0.035,0.162v1.761c-0.013,0.068-0.03,0.136-0.036,0.205
		c-0.037,0.42-0.057,0.842-0.106,1.261c-0.321,2.716-1.123,5.29-2.33,7.739c-1.666,3.38-3.974,6.255-6.891,8.634
		c-4.251,3.468-9.127,5.371-14.6,5.749c-0.345,0.024-0.69,0.053-1.036,0.079h-1.589c-0.054-0.012-0.108-0.033-0.163-0.034
		c-1.347-0.036-2.682-0.188-4.002-0.45c-5.127-1.019-9.552-3.372-13.267-7.047c-2.066-2.045-3.732-4.384-5-7.002
		c-1.643-3.39-2.504-6.967-2.575-10.733c0.001-0.069-0.02-0.138-0.032-0.204V34.062z"/>
	<path fill="#FFFFFF" d="M26.072,0c0.532,0.303,1.064,0.604,1.595,0.909c0.42,0.239,0.5,0.525,0.261,0.94
		c-0.266,0.465-0.531,0.93-0.799,1.395c-0.201,0.346-0.504,0.43-0.852,0.232c-0.485-0.272-0.97-0.55-1.452-0.83
		c-0.352-0.204-0.427-0.496-0.226-0.852c0.246-0.436,0.501-0.865,0.74-1.304c0.115-0.212,0.25-0.392,0.474-0.492L26.072,0L26.072,0z
		"/>
	<path fill="#FFFFFF" d="M28.223,21.135c-0.042,0.123-0.084,0.361-0.196,0.56c-0.675,1.203-1.363,2.4-2.053,3.595
		c-0.404,0.699-1.158,0.896-1.864,0.494c-1.18-0.674-2.358-1.348-3.536-2.023c-0.721-0.414-0.926-1.173-0.514-1.893
		c0.671-1.173,1.343-2.346,2.015-3.517c0.415-0.723,1.169-0.929,1.89-0.517c1.186,0.677,2.37,1.356,3.557,2.034
		C27.972,20.123,28.192,20.512,28.223,21.135"/>
	<path fill="#FFFFFF" d="M23.625,11.162c-0.062,0.179-0.099,0.373-0.19,0.535c-0.545,0.974-1.101,1.94-1.658,2.907
		c-0.308,0.534-0.923,0.704-1.463,0.399c-0.978-0.551-1.953-1.107-2.925-1.668c-0.535-0.31-0.708-0.931-0.404-1.465
		c0.553-0.979,1.111-1.951,1.675-2.921c0.317-0.547,0.933-0.709,1.483-0.397c0.97,0.551,1.937,1.107,2.903,1.664
		C23.404,10.422,23.586,10.733,23.625,11.162"/>
	<path fill="#FFFFFF" d="M24.922,8.686c0.044-0.125,0.071-0.261,0.135-0.375c0.363-0.647,0.733-1.293,1.105-1.936
		c0.221-0.381,0.627-0.498,1.015-0.281c0.661,0.37,1.318,0.747,1.972,1.129c0.36,0.211,0.474,0.617,0.271,0.984
		c-0.375,0.675-0.758,1.346-1.149,2.011c-0.196,0.335-0.589,0.455-0.932,0.268c-0.703-0.383-1.396-0.782-2.086-1.188
		C25.037,9.169,24.935,8.954,24.922,8.686"/>
	<polygon fill="#FFFFFF" points="80.989,29.529 84.036,29.529 75.857,49.729 71.794,39.629 67.705,49.729 59.525,29.529 
		62.572,29.529 67.705,42.154 70.257,35.869 67.705,29.529 70.724,29.529 71.794,32.109 73.304,35.869 75.857,42.154 	"/>
	<path fill="#FFFFFF" d="M89.841,35.21c1.005,0,1.949,0.191,2.835,0.576c0.887,0.384,1.662,0.905,2.328,1.563
		s1.191,1.438,1.576,2.333c0.383,0.897,0.574,1.849,0.574,2.854v7.108h-2.826v-1.33c-0.622,0.472-1.309,0.843-2.059,1.114
		c-0.752,0.272-1.556,0.408-2.416,0.408c-1.006,0-1.953-0.192-2.842-0.576c-0.888-0.384-1.66-0.906-2.319-1.564
		c-0.658-0.658-1.18-1.432-1.564-2.318c-0.384-0.887-0.576-1.834-0.576-2.841s0.192-1.958,0.575-2.854
		c0.383-0.896,0.904-1.674,1.562-2.333c0.657-0.659,1.429-1.18,2.314-1.563C87.893,35.402,88.836,35.21,89.841,35.21 M89.854,47.013
		c0.623,0,1.203-0.12,1.744-0.359c0.539-0.239,1.01-0.562,1.414-0.967c0.401-0.403,0.723-0.879,0.959-1.421
		c0.238-0.543,0.357-1.119,0.357-1.727c0-0.625-0.12-1.21-0.357-1.753c-0.236-0.543-0.558-1.019-0.959-1.424
		c-0.402-0.404-0.875-0.727-1.414-0.966c-0.541-0.238-1.121-0.358-1.744-0.358c-0.621,0-1.203,0.12-1.742,0.358
		c-0.541,0.239-1.012,0.563-1.414,0.966c-0.403,0.405-0.723,0.881-0.961,1.424c-0.237,0.543-0.356,1.127-0.356,1.753
		c0,0.607,0.119,1.183,0.356,1.727c0.238,0.542,0.559,1.018,0.961,1.421c0.402,0.406,0.873,0.729,1.414,0.967
		C88.65,46.893,89.232,47.013,89.854,47.013"/>
	<polygon fill="#FFFFFF" points="110.577,35.238 105.801,46.189 104.264,49.703 102.729,46.189 97.951,35.238 100.998,35.238 
		104.264,42.703 107.529,35.238 	"/>
	<path fill="#FFFFFF" d="M120.129,43.39h-5.518c0.109,0.494,0.298,0.957,0.563,1.386c0.266,0.431,0.592,0.802,0.975,1.112
		c0.386,0.313,0.814,0.554,1.291,0.727c0.476,0.175,0.979,0.262,1.51,0.262c0.641,0,1.238-0.127,1.798-0.384
		c0.558-0.257,1.048-0.612,1.469-1.07h0.521h2.8c-0.108,0.273-0.242,0.535-0.397,0.782c-0.154,0.247-0.324,0.488-0.508,0.727
		c-0.658,0.842-1.482,1.514-2.47,2.017c-0.988,0.505-2.06,0.756-3.212,0.756c-1.006,0-1.948-0.188-2.827-0.563
		c-0.878-0.375-1.646-0.892-2.306-1.551c-0.658-0.659-1.176-1.427-1.551-2.306c-0.375-0.88-0.563-1.82-0.563-2.827
		s0.188-1.949,0.563-2.827s0.893-1.647,1.551-2.307c0.658-0.658,1.428-1.176,2.306-1.551c0.879-0.375,1.821-0.563,2.827-0.563
		c1.152,0,2.224,0.251,3.212,0.754c0.987,0.504,1.812,1.186,2.47,2.045c0.604,0.732,1.043,1.592,1.316,2.58
		c0.166,0.586,0.248,1.208,0.248,1.867c0,0.329-0.027,0.641-0.082,0.933h-2.854h-3.13V43.39z M118.947,38.037
		c-0.895,0-1.696,0.23-2.4,0.692c-0.705,0.461-1.24,1.073-1.605,1.833h6.396h1.619c-0.091-0.145-0.179-0.289-0.261-0.434
		c-0.082-0.146-0.17-0.281-0.26-0.408c-0.422-0.525-0.935-0.937-1.537-1.235C120.293,38.187,119.645,38.037,118.947,38.037"/>
	<path fill="#FFFFFF" d="M139.697,29.474c1.392,0,2.699,0.265,3.926,0.796s2.292,1.253,3.197,2.168
		c0.906,0.916,1.619,1.99,2.142,3.226c0.521,1.234,0.782,2.558,0.782,3.966c0,1.391-0.262,2.699-0.782,3.925
		s-1.235,2.296-2.142,3.211c-0.905,0.915-1.973,1.638-3.197,2.168c-1.227,0.531-2.534,0.796-3.926,0.796
		c-1.391,0-2.693-0.265-3.91-0.796c-1.217-0.53-2.278-1.253-3.184-2.168c-0.906-0.915-1.621-1.985-2.142-3.211
		c-0.522-1.226-0.782-2.534-0.782-3.925c0-1.409,0.26-2.731,0.782-3.966c0.521-1.235,1.233-2.311,2.142-3.226
		c0.904-0.915,1.967-1.637,3.184-2.168S138.309,29.474,139.697,29.474 M139.697,46.903c0.951,0,1.854-0.19,2.703-0.573
		c0.853-0.384,1.593-0.902,2.225-1.56c0.631-0.656,1.13-1.426,1.496-2.311c0.365-0.884,0.549-1.828,0.549-2.83
		c0-1.003-0.184-1.951-0.549-2.844c-0.366-0.895-0.865-1.674-1.496-2.339c-0.632-0.665-1.372-1.188-2.225-1.571
		c-0.851-0.382-1.752-0.574-2.703-0.574s-1.848,0.192-2.689,0.574c-0.841,0.383-1.578,0.906-2.209,1.571
		c-0.631,0.666-1.13,1.445-1.496,2.339c-0.365,0.893-0.549,1.841-0.549,2.844c0,1.002,0.184,1.946,0.549,2.83
		c0.366,0.884,0.865,1.654,1.496,2.311s1.368,1.176,2.209,1.56C137.85,46.711,138.746,46.903,139.697,46.903"/>
	<path fill="#FFFFFF" d="M161.984,46.903c1.172,0,2.246-0.278,3.227-0.837c0.979-0.558,1.779-1.304,2.4-2.235L170,45.613
		c-0.915,1.245-2.063,2.232-3.443,2.965c-1.383,0.731-2.906,1.098-4.57,1.098c-1.373,0-2.662-0.265-3.87-0.796
		c-1.208-0.53-2.261-1.249-3.156-2.155s-1.604-1.966-2.127-3.184c-0.521-1.218-0.782-2.521-0.782-3.911
		c0-1.391,0.262-2.694,0.782-3.911s1.229-2.278,2.127-3.184c0.897-0.906,1.948-1.624,3.156-2.155c1.208-0.53,2.497-0.795,3.87-0.795
		c1.664,0,3.188,0.366,4.57,1.098c1.381,0.732,2.528,1.72,3.443,2.964l-2.389,1.784c-0.621-0.934-1.422-1.679-2.4-2.237
		c-0.979-0.558-2.055-0.837-3.227-0.837c-0.951,0-1.844,0.192-2.676,0.576s-1.561,0.906-2.183,1.564
		c-0.622,0.657-1.116,1.427-1.481,2.306c-0.365,0.878-0.549,1.821-0.549,2.827s0.184,1.949,0.549,2.827
		c0.365,0.879,0.859,1.646,1.481,2.306s1.351,1.18,2.183,1.564C160.143,46.711,161.033,46.903,161.984,46.903"/>
</g>
</svg>
