<?xml version="1.0" encoding="utf-8"?>
<!-- Generator: Adobe Illustrator 16.0.0, SVG Export Plug-In . SVG Version: 6.00 Build 0)  -->
<!DOCTYPE svg PUBLIC "-//W3C//DTD SVG 1.1//EN" "http://www.w3.org/Graphics/SVG/1.1/DTD/svg11.dtd">
<svg version="1.1" id="Шар_1" xmlns="http://www.w3.org/2000/svg" xmlns:xlink="http://www.w3.org/1999/xlink" x="0px" y="0px"
	 width="460.25px" height="536.407px" viewBox="0 0 460.25 536.407" enable-background="new 0 0 460.25 536.407"
	 xml:space="preserve">
<g>
	<path fill="none" stroke="#FFFFFF" stroke-width="0.25" stroke-miterlimit="10" d="M0.125,303.602
		c0.104-0.604,0.291-1.212,0.307-1.814c0.608-33.51,8.288-65.326,22.846-95.495c6.671-13.813,14.715-26.79,23.997-39.005
		c0.573-0.753,1.165-1.496,1.814-2.327c8.288,4.1,15.718,9.672,24.383,13.149c-2.782,4.868-5.654,9.894-8.515,14.917
		c-2.505,4.399-1.765,7.118,2.639,9.631c4.755,2.713,9.513,5.432,14.287,8.118c3.344,1.883,6.355,1.074,8.279-2.242
		c2.936-5.073,5.852-10.162,8.724-15.273c1.779-3.166,0.875-6.325-2.296-8.156c-4.744-2.735-9.519-5.429-14.279-8.145
		c-0.586-0.334-1.16-0.71-1.45-0.885c2.231-3.766,4.426-7.394,6.545-11.064c3.757-6.509,7.493-13.035,11.201-19.571
		c3.311-5.832,1.773-11.25-4.056-14.61c-6.287-3.626-12.561-7.266-18.831-10.927c-4.643-2.703-5.89-7.417-3.212-12.122
		c4.196-7.364,8.402-14.72,12.634-22.062c2.729-4.733,7.479-6.002,12.25-3.278c7.356,4.201,14.707,8.419,22.051,12.643
		c4.593,2.642,5.92,7.298,3.352,11.922c-3.795,6.843-7.61,13.673-11.45,20.489c-3.39,6.019-1.913,11.415,4.001,14.928
		c18.417,10.927,37.316,20.95,56.559,30.328c0.677,0.326,1.334,0.688,2.157,1.115c-1.598,2.779-3.122,5.407-4.626,8.044
		c-10.735,18.74-21.202,37.618-29.015,57.822c-5.325,13.755-9.634,27.782-11.604,42.467c-6.136,45.631,5.892,85.766,36.889,119.843
		c20.42,22.451,45.774,36.763,75.608,42.616c29.791,5.844,58.655,2.177,86.248-10.315c31.372-14.202,55.322-36.533,71.158-67.223
		c9.217-17.863,14.193-36.944,14.498-57.093c0.572-37.856-10.346-71.846-34.796-101.078c-12.67-15.147-28.115-26.732-46.226-34.705
		c-0.581-0.255-1.157-0.537-1.729-0.809c-0.038-0.019-0.038-0.11-0.173-0.501c3.432,0.586,6.715,1.083,9.971,1.71
		c20.974,4.04,40.731,11.242,58.595,23.117c29.539,19.634,48.096,46.997,56.668,81.269c2.401,9.607,3.788,19.37,4.286,29.258
		c0.017,0.482,0.2,0.96,0.311,1.437v15.693c-0.112,0.608-0.271,1.211-0.324,1.831c-0.323,3.743-0.501,7.504-0.945,11.23
		c-2.861,24.2-10.006,47.128-20.758,68.949c-14.846,30.119-35.409,55.733-61.396,76.93c-37.878,30.898-81.32,47.852-130.076,51.223
		c-3.075,0.214-6.153,0.466-9.233,0.701h-14.161c-0.479-0.104-0.957-0.29-1.444-0.307c-12.001-0.318-23.896-1.672-35.661-4.007
		c-45.684-9.077-85.103-30.043-118.204-62.788c-18.414-18.214-33.252-39.054-44.554-62.383
		C8.736,376.596,1.054,344.728,0.432,311.167c-0.017-0.614-0.203-1.212-0.307-1.82V303.602z"/>
	<path fill="none" stroke="#FFFFFF" stroke-width="0.25" stroke-miterlimit="10" d="M232.418,0.125
		c4.736,2.7,9.478,5.394,14.213,8.099c3.742,2.141,4.449,4.689,2.327,8.387c-2.368,4.141-4.729,8.288-7.114,12.417
		c-1.79,3.086-4.492,3.832-7.598,2.078c-4.322-2.437-8.635-4.897-12.93-7.389c-3.129-1.814-3.809-4.416-2.011-7.589
		c2.192-3.875,4.467-7.709,6.594-11.621c1.025-1.88,2.228-3.483,4.224-4.382H232.418z"/>
	<path fill="none" stroke="#FFFFFF" stroke-width="0.25" stroke-miterlimit="10" d="M251.582,188.424
		c-0.37,1.096-0.754,3.214-1.749,4.99c-6.018,10.719-12.141,21.38-18.293,32.019c-3.602,6.232-10.319,7.983-16.606,4.401
		c-10.507-5.994-21.012-12.004-31.503-18.03c-6.424-3.689-8.244-10.453-4.571-16.866c5.977-10.444,11.96-20.889,17.945-31.328
		c3.697-6.438,10.415-8.279,16.844-4.607c10.565,6.035,21.117,12.094,31.687,18.118C249.34,179.407,251.307,182.879,251.582,188.424
		"/>
	<path fill="none" stroke="#FFFFFF" stroke-width="0.25" stroke-miterlimit="10" d="M210.617,99.572
		c-0.551,1.598-0.88,3.324-1.696,4.774c-4.859,8.668-9.809,17.288-14.772,25.896c-2.743,4.76-8.225,6.276-13.037,3.56
		c-8.712-4.909-17.4-9.864-26.061-14.86c-4.769-2.751-6.306-8.285-3.604-13.056c4.925-8.707,9.902-17.384,14.925-26.031
		c2.82-4.862,8.313-6.317,13.21-3.536c8.644,4.906,17.255,9.866,25.869,14.821C208.644,92.978,210.272,95.754,210.617,99.572"/>
	<path fill="none" stroke="#FFFFFF" stroke-width="0.25" stroke-miterlimit="10" d="M222.172,77.51
		c0.395-1.118,0.636-2.324,1.206-3.349c3.237-5.774,6.537-11.519,9.85-17.247c1.969-3.396,5.592-4.435,9.042-2.508
		c5.887,3.297,11.741,6.654,17.569,10.061c3.21,1.877,4.225,5.495,2.41,8.767c-3.338,6.013-6.756,11.985-10.234,17.918
		c-1.746,2.984-5.254,4.053-8.301,2.387c-6.26-3.415-12.443-6.972-18.59-10.593C223.191,81.813,222.287,79.897,222.172,77.51"/>
</g>
</svg>
