<?xml version="1.0" encoding="utf-8"?>
<!-- Generator: Adobe Illustrator 16.0.0, SVG Export Plug-In . SVG Version: 6.00 Build 0)  -->
<!DOCTYPE svg PUBLIC "-//W3C//DTD SVG 1.1//EN" "http://www.w3.org/Graphics/SVG/1.1/DTD/svg11.dtd">
<svg version="1.1" id="Шар_1" xmlns="http://www.w3.org/2000/svg" xmlns:xlink="http://www.w3.org/1999/xlink" x="0px" y="0px"
	 width="269.851px" height="95.523px" viewBox="0 0 269.851 95.523" enable-background="new 0 0 269.851 95.523"
	 xml:space="preserve">
<g>
	<path fill="#47C7FB" d="M0,54.068c0.019-0.107,0.052-0.216,0.055-0.323c0.108-5.97,1.477-11.639,4.07-17.014
		c1.188-2.461,2.622-4.773,4.275-6.949c0.102-0.134,0.208-0.267,0.323-0.415c1.477,0.73,2.8,1.723,4.344,2.343
		c-0.496,0.867-1.007,1.763-1.517,2.658c-0.446,0.784-0.314,1.268,0.47,1.716c0.847,0.483,1.695,0.968,2.545,1.446
		c0.596,0.335,1.132,0.191,1.475-0.399c0.523-0.904,1.042-1.811,1.554-2.721c0.317-0.564,0.156-1.127-0.409-1.453
		c-0.845-0.487-1.696-0.967-2.544-1.451c-0.104-0.06-0.207-0.126-0.258-0.158c0.397-0.671,0.789-1.317,1.166-1.971
		c0.669-1.16,1.335-2.322,1.996-3.487c0.59-1.039,0.316-2.004-0.723-2.603c-1.12-0.646-2.238-1.294-3.355-1.947
		c-0.827-0.481-1.049-1.321-0.572-2.16c0.748-1.312,1.497-2.623,2.251-3.931c0.486-0.843,1.333-1.069,2.183-0.584
		c1.311,0.749,2.62,1.5,3.929,2.252c0.818,0.471,1.055,1.3,0.597,2.124c-0.676,1.219-1.356,2.436-2.04,3.65
		c-0.604,1.072-0.341,2.034,0.713,2.66c3.281,1.947,6.648,3.732,10.077,5.403c0.121,0.058,0.238,0.123,0.384,0.199
		c-0.285,0.495-0.556,0.963-0.824,1.433c-1.913,3.339-3.777,6.702-5.169,10.302c-0.949,2.451-1.716,4.95-2.067,7.566
		c-1.093,8.13,1.05,15.28,6.572,21.352c3.638,4,8.155,6.55,13.471,7.593c5.308,1.041,10.45,0.388,15.366-1.838
		c5.589-2.53,9.856-6.509,12.678-11.977c1.642-3.183,2.529-6.582,2.583-10.172c0.102-6.745-1.843-12.8-6.199-18.008
		c-2.257-2.699-5.009-4.763-8.236-6.183c-0.104-0.045-0.206-0.096-0.308-0.144c-0.007-0.003-0.007-0.02-0.031-0.089
		c0.611,0.104,1.196,0.193,1.776,0.305c3.737,0.72,7.257,2.003,10.439,4.119c5.263,3.498,8.569,8.373,10.096,14.479
		c0.428,1.712,0.675,3.451,0.764,5.213c0.003,0.086,0.036,0.171,0.055,0.256v2.796c-0.02,0.108-0.048,0.216-0.058,0.326
		c-0.058,0.667-0.089,1.337-0.168,2.001c-0.51,4.312-1.783,8.396-3.698,12.284c-2.645,5.366-6.309,9.93-10.938,13.706
		c-6.749,5.505-14.488,8.525-23.175,9.126c-0.548,0.038-1.096,0.083-1.645,0.125H39.75c-0.085-0.019-0.17-0.052-0.257-0.055
		c-2.138-0.057-4.257-0.298-6.354-0.714C25,93.138,17.977,89.402,12.079,83.568c-3.281-3.245-5.924-6.958-7.938-11.114
		c-2.607-5.381-3.976-11.059-4.086-17.038C0.052,55.307,0.019,55.2,0,55.092V54.068z"/>
	<path fill="#47C7FB" d="M41.386,0c0.844,0.481,1.688,0.961,2.532,1.443c0.667,0.381,0.792,0.835,0.415,1.494
		c-0.422,0.738-0.843,1.477-1.268,2.212c-0.319,0.55-0.8,0.683-1.354,0.37c-0.77-0.434-1.539-0.873-2.304-1.316
		c-0.558-0.323-0.679-0.787-0.358-1.352c0.391-0.69,0.796-1.374,1.175-2.07C40.407,0.446,40.622,0.16,40.977,0H41.386z"/>
	<path fill="#47C7FB" d="M44.8,33.548c-0.066,0.195-0.134,0.573-0.312,0.889c-1.072,1.91-2.163,3.809-3.259,5.705
		c-0.642,1.11-1.838,1.422-2.958,0.784c-1.872-1.068-3.744-2.139-5.613-3.212c-1.145-0.657-1.469-1.862-0.814-3.005
		c1.065-1.861,2.131-3.722,3.197-5.582c0.659-1.147,1.855-1.475,3.001-0.821c1.882,1.075,3.762,2.155,5.646,3.228
		C44.401,31.941,44.751,32.56,44.8,33.548"/>
	<path fill="#47C7FB" d="M37.502,17.718c-0.098,0.285-0.157,0.592-0.302,0.851c-0.866,1.544-1.748,3.08-2.632,4.614
		c-0.489,0.848-1.465,1.118-2.323,0.634c-1.552-0.875-3.1-1.757-4.643-2.647c-0.85-0.49-1.124-1.476-0.642-2.326
		c0.877-1.551,1.764-3.097,2.659-4.638c0.502-0.866,1.481-1.125,2.354-0.63c1.54,0.874,3.074,1.758,4.609,2.641
		C37.15,16.543,37.44,17.038,37.502,17.718"/>
	<path fill="#47C7FB" d="M39.561,13.787c0.07-0.199,0.113-0.414,0.215-0.597c0.577-1.029,1.165-2.052,1.755-3.073
		c0.351-0.605,0.996-0.79,1.611-0.447c1.049,0.587,2.092,1.186,3.13,1.792c0.572,0.334,0.752,0.979,0.429,1.562
		c-0.595,1.071-1.204,2.135-1.823,3.192c-0.311,0.532-0.936,0.722-1.479,0.425c-1.115-0.608-2.217-1.242-3.312-1.887
		C39.742,14.554,39.581,14.212,39.561,13.787"/>
	<polygon fill="#FFFFFF" points="128.56,46.873 133.395,46.873 120.412,78.938 113.964,62.906 107.472,78.938 94.489,46.873 
		99.325,46.873 107.472,66.914 111.524,56.937 107.472,46.873 112.265,46.873 113.964,50.968 116.36,56.937 120.412,66.914 	"/>
	<path fill="#FFFFFF" d="M142.611,55.892c1.594,0,3.094,0.305,4.5,0.915s2.639,1.438,3.695,2.483
		c1.059,1.045,1.893,2.28,2.502,3.703c0.607,1.423,0.912,2.934,0.912,4.531v11.283h-4.486v-2.111
		c-0.988,0.748-2.076,1.338-3.268,1.77s-2.469,0.647-3.834,0.647c-1.598,0-3.102-0.306-4.51-0.915
		c-1.41-0.61-2.636-1.438-3.682-2.483c-1.045-1.046-1.873-2.272-2.483-3.682c-0.61-1.408-0.915-2.911-0.915-4.509
		s0.305-3.108,0.913-4.531s1.435-2.658,2.479-3.703c1.044-1.046,2.269-1.873,3.675-2.483S141.015,55.892,142.611,55.892
		 M142.632,74.626c0.986,0,1.908-0.19,2.766-0.57s1.605-0.891,2.244-1.534c0.639-0.643,1.146-1.396,1.525-2.257
		c0.377-0.862,0.566-1.776,0.566-2.74c0-0.993-0.189-1.921-0.566-2.783c-0.379-0.861-0.887-1.615-1.525-2.258
		s-1.387-1.155-2.244-1.535s-1.779-0.569-2.766-0.569c-0.988,0-1.91,0.189-2.768,0.569s-1.605,0.893-2.244,1.535
		s-1.146,1.396-1.523,2.258c-0.379,0.862-0.567,1.79-0.567,2.783c0,0.964,0.188,1.878,0.567,2.74
		c0.377,0.861,0.885,1.614,1.523,2.257c0.639,0.644,1.387,1.154,2.244,1.534S141.644,74.626,142.632,74.626"/>
	<polygon fill="#FFFFFF" points="175.525,55.935 167.945,73.318 165.505,78.896 163.066,73.318 155.484,55.935 160.32,55.935 
		165.505,67.785 170.689,55.935 	"/>
	<path fill="#FFFFFF" d="M190.687,68.875h-8.756c0.174,0.784,0.471,1.519,0.893,2.2c0.42,0.683,0.936,1.271,1.547,1.764
		c0.609,0.495,1.291,0.88,2.047,1.155c0.756,0.276,1.555,0.413,2.396,0.413c1.016,0,1.967-0.202,2.854-0.609
		c0.887-0.406,1.662-0.973,2.332-1.699h0.828h4.443c-0.174,0.436-0.385,0.85-0.633,1.242c-0.246,0.392-0.516,0.777-0.805,1.154
		c-1.047,1.336-2.354,2.403-3.922,3.202s-3.268,1.198-5.098,1.198c-1.598,0-3.094-0.298-4.488-0.894
		c-1.393-0.595-2.613-1.415-3.658-2.461c-1.047-1.046-1.867-2.266-2.463-3.66s-0.893-2.89-0.893-4.487s0.297-3.094,0.893-4.487
		c0.596-1.395,1.416-2.614,2.463-3.66c1.045-1.046,2.266-1.866,3.658-2.462c1.395-0.595,2.891-0.893,4.488-0.893
		c1.83,0,3.529,0.399,5.098,1.197c1.568,0.8,2.875,1.882,3.922,3.246c0.957,1.162,1.654,2.527,2.09,4.096
		c0.262,0.93,0.393,1.917,0.393,2.963c0,0.522-0.043,1.017-0.131,1.481h-4.531H190.687z M188.814,60.379
		c-1.424,0-2.693,0.367-3.812,1.1s-1.967,1.702-2.549,2.909h10.152h2.57c-0.145-0.23-0.283-0.459-0.414-0.689
		s-0.27-0.446-0.414-0.647c-0.668-0.833-1.48-1.486-2.439-1.96C190.949,60.616,189.917,60.379,188.814,60.379"/>
	<path fill="#FFFFFF" d="M221.751,46.786c2.207,0,4.285,0.421,6.23,1.263c1.945,0.843,3.639,1.99,5.076,3.442
		s2.57,3.158,3.398,5.119c0.826,1.96,1.242,4.06,1.242,6.296c0,2.207-0.416,4.284-1.242,6.229c-0.828,1.946-1.961,3.646-3.398,5.098
		c-1.438,1.453-3.131,2.6-5.076,3.442s-4.023,1.263-6.23,1.263s-4.277-0.42-6.209-1.263s-3.615-1.989-5.053-3.442
		c-1.438-1.452-2.572-3.151-3.398-5.098c-0.828-1.945-1.242-4.022-1.242-6.229c0-2.236,0.414-4.336,1.242-6.296
		c0.826-1.961,1.961-3.667,3.398-5.119s3.121-2.599,5.053-3.442C217.474,47.207,219.544,46.786,221.751,46.786 M221.751,74.451
		c1.51,0,2.941-0.304,4.291-0.911c1.352-0.607,2.527-1.433,3.529-2.475c1.002-1.041,1.793-2.264,2.375-3.667
		c0.58-1.403,0.871-2.901,0.871-4.492c0-1.592-0.291-3.097-0.871-4.515c-0.582-1.418-1.373-2.655-2.375-3.711
		c-1.002-1.057-2.178-1.888-3.529-2.496c-1.35-0.607-2.781-0.911-4.291-0.911s-2.934,0.304-4.27,0.911
		c-1.336,0.608-2.506,1.439-3.508,2.496c-1.002,1.056-1.793,2.293-2.375,3.711c-0.58,1.418-0.871,2.923-0.871,4.515
		c0,1.591,0.291,3.089,0.871,4.492c0.582,1.403,1.373,2.626,2.375,3.667c1.002,1.042,2.172,1.867,3.508,2.475
		S220.242,74.451,221.751,74.451"/>
	<path fill="#FFFFFF" d="M257.128,74.451c1.859,0,3.566-0.442,5.121-1.328c1.553-0.886,2.824-2.07,3.811-3.551l3.791,2.832
		c-1.451,1.975-3.275,3.543-5.467,4.705c-2.195,1.161-4.611,1.742-7.256,1.742c-2.178,0-4.225-0.421-6.143-1.263
		c-1.916-0.843-3.588-1.982-5.01-3.421c-1.424-1.438-2.549-3.122-3.377-5.054s-1.242-4.001-1.242-6.208s0.414-4.277,1.242-6.209
		s1.953-3.616,3.377-5.054c1.422-1.438,3.094-2.578,5.01-3.42c1.918-0.842,3.965-1.263,6.143-1.263c2.645,0,5.061,0.582,7.256,1.743
		c2.191,1.162,4.016,2.73,5.467,4.706l-3.791,2.832c-0.986-1.481-2.258-2.665-3.811-3.551c-1.555-0.886-3.262-1.329-5.121-1.329
		c-1.51,0-2.926,0.305-4.246,0.915c-1.322,0.609-2.477,1.438-3.465,2.483s-1.771,2.266-2.352,3.659
		c-0.582,1.395-0.873,2.891-0.873,4.488c0,1.597,0.291,3.093,0.873,4.487c0.58,1.395,1.363,2.614,2.352,3.659
		c0.988,1.046,2.143,1.874,3.465,2.483C254.203,74.146,255.619,74.451,257.128,74.451"/>
</g>
</svg>
