<?xml version="1.0" encoding="utf-8"?>
<!-- Generator: Adobe Illustrator 16.0.0, SVG Export Plug-In . SVG Version: 6.00 Build 0)  -->
<!DOCTYPE svg PUBLIC "-//W3C//DTD SVG 1.1//EN" "http://www.w3.org/Graphics/SVG/1.1/DTD/svg11.dtd">
<svg version="1.1" id="Шар_1" xmlns="http://www.w3.org/2000/svg" xmlns:xlink="http://www.w3.org/1999/xlink" x="0px" y="0px"
	 width="268px" height="94.868px" viewBox="0 0 268 94.868" enable-background="new 0 0 268 94.868" xml:space="preserve">
<g>
	<path fill="#47C7FB" d="M0,53.697c0.019-0.107,0.052-0.214,0.054-0.322c0.108-5.929,1.466-11.558,4.042-16.896
		c1.18-2.444,2.604-4.741,4.246-6.902c0.102-0.134,0.206-0.265,0.321-0.412c1.466,0.725,2.781,1.711,4.314,2.327
		c-0.492,0.861-1,1.75-1.507,2.64c-0.443,0.778-0.313,1.259,0.467,1.704c0.841,0.48,1.683,0.961,2.528,1.437
		c0.591,0.333,1.125,0.19,1.465-0.397c0.519-0.897,1.035-1.798,1.543-2.702c0.315-0.56,0.155-1.12-0.407-1.443
		c-0.839-0.484-1.684-0.96-2.526-1.441c-0.104-0.06-0.205-0.125-0.256-0.157c0.395-0.666,0.783-1.308,1.158-1.958
		c0.665-1.151,1.326-2.306,1.982-3.463c0.585-1.032,0.313-1.99-0.718-2.585c-1.112-0.641-2.223-1.286-3.332-1.933
		c-0.821-0.479-1.042-1.313-0.568-2.146c0.742-1.303,1.486-2.604,2.235-3.903c0.483-0.838,1.323-1.062,2.168-0.58
		c1.301,0.744,2.602,1.49,3.901,2.237c0.813,0.467,1.048,1.291,0.593,2.109c-0.671,1.21-1.347,2.419-2.026,3.625
		c-0.6,1.065-0.338,2.02,0.708,2.642c3.258,1.933,6.603,3.707,10.007,5.366c0.12,0.058,0.236,0.122,0.381,0.198
		c-0.282,0.492-0.552,0.957-0.818,1.423c-1.899,3.316-3.751,6.656-5.134,10.231c-0.942,2.434-1.705,4.916-2.053,7.514
		c-1.086,8.074,1.042,15.175,6.527,21.206c3.613,3.972,8.1,6.504,13.378,7.54c5.271,1.034,10.378,0.386,15.261-1.825
		c5.55-2.513,9.789-6.464,12.59-11.894c1.631-3.162,2.511-6.538,2.565-10.102c0.101-6.698-1.831-12.713-6.157-17.885
		c-2.242-2.68-4.975-4.73-8.18-6.141c-0.103-0.045-0.204-0.095-0.306-0.143c-0.007-0.003-0.007-0.019-0.031-0.088
		c0.607,0.104,1.188,0.191,1.764,0.302c3.711,0.715,7.207,1.989,10.368,4.091c5.227,3.474,8.51,8.315,10.027,14.379
		c0.425,1.7,0.67,3.428,0.758,5.177c0.003,0.085,0.036,0.17,0.055,0.254v2.776c-0.02,0.107-0.048,0.214-0.057,0.324
		c-0.057,0.662-0.089,1.328-0.167,1.988c-0.506,4.282-1.771,8.339-3.673,12.2c-2.626,5.329-6.265,9.862-10.863,13.611
		c-6.702,5.468-14.389,8.467-23.016,9.063c-0.544,0.038-1.088,0.083-1.634,0.125h-2.505c-0.085-0.019-0.169-0.052-0.256-0.054
		c-2.124-0.057-4.228-0.296-6.31-0.709c-8.083-1.605-15.058-5.316-20.915-11.109c-3.258-3.224-5.884-6.911-7.883-11.039
		c-2.589-5.343-3.948-10.983-4.059-16.921C0.052,54.927,0.019,54.82,0,54.713V53.697z"/>
	<path fill="#47C7FB" d="M41.103,0c0.838,0.477,1.677,0.954,2.515,1.433c0.662,0.379,0.787,0.83,0.412,1.484
		c-0.419,0.733-0.837,1.466-1.259,2.197c-0.317,0.546-0.795,0.678-1.344,0.368c-0.765-0.431-1.528-0.867-2.288-1.308
		c-0.554-0.321-0.674-0.781-0.356-1.343c0.388-0.686,0.791-1.364,1.167-2.056C40.13,0.442,40.343,0.159,40.696,0H41.103z"/>
	<path fill="#47C7FB" d="M44.493,33.317c-0.065,0.194-0.133,0.569-0.309,0.883c-1.065,1.896-2.148,3.783-3.237,5.666
		c-0.637,1.103-1.826,1.413-2.938,0.779c-1.859-1.061-3.718-2.124-5.574-3.19c-1.137-0.652-1.458-1.85-0.809-2.984
		c1.058-1.848,2.117-3.697,3.176-5.543c0.654-1.139,1.843-1.465,2.98-0.815c1.87,1.068,3.736,2.14,5.607,3.206
		C44.096,31.722,44.444,32.336,44.493,33.317"/>
	<path fill="#47C7FB" d="M37.245,17.596c-0.098,0.283-0.156,0.588-0.3,0.845c-0.86,1.534-1.735,3.059-2.614,4.582
		c-0.485,0.842-1.455,1.111-2.307,0.63c-1.542-0.869-3.079-1.746-4.611-2.629c-0.844-0.487-1.116-1.466-0.638-2.311
		c0.872-1.541,1.752-3.076,2.641-4.606c0.5-0.86,1.471-1.117,2.338-0.625c1.529,0.868,3.053,1.745,4.577,2.622
		C36.896,16.429,37.184,16.92,37.245,17.596"/>
	<path fill="#47C7FB" d="M39.289,13.692c0.07-0.198,0.113-0.412,0.214-0.593c0.572-1.022,1.156-2.038,1.742-3.052
		c0.348-0.601,0.99-0.785,1.6-0.443c1.042,0.583,2.078,1.177,3.108,1.78c0.568,0.332,0.748,0.973,0.427,1.551
		c-0.591,1.064-1.195,2.121-1.811,3.17c-0.309,0.528-0.93,0.717-1.469,0.422c-1.107-0.604-2.202-1.233-3.29-1.874
		C39.47,14.454,39.31,14.114,39.289,13.692"/>
	<polygon points="127.677,46.551 132.48,46.551 119.586,78.396 113.182,62.474 106.735,78.396 93.84,46.551 98.643,46.551 
		106.735,66.455 110.759,56.546 106.735,46.551 111.495,46.551 113.182,50.618 115.562,56.546 119.586,66.455 	"/>
	<path d="M141.632,55.508c1.583,0,3.072,0.303,4.47,0.908c1.396,0.606,2.619,1.428,3.67,2.466s1.879,2.265,2.484,3.678
		c0.604,1.414,0.907,2.914,0.907,4.5v11.207h-4.457V76.17c-0.98,0.743-2.063,1.328-3.245,1.757s-2.452,0.643-3.808,0.643
		c-1.587,0-3.08-0.303-4.479-0.908c-1.4-0.606-2.618-1.428-3.657-2.466c-1.038-1.039-1.86-2.257-2.466-3.657
		c-0.606-1.398-0.909-2.891-0.909-4.478c0-1.586,0.302-3.086,0.907-4.5c0.604-1.413,1.425-2.64,2.461-3.678s2.253-1.86,3.649-2.466
		C138.558,55.811,140.048,55.508,141.632,55.508 M141.653,74.113c0.98,0,1.896-0.188,2.747-0.566s1.594-0.885,2.229-1.524
		c0.635-0.638,1.14-1.386,1.514-2.241c0.375-0.856,0.563-1.764,0.563-2.722c0-0.987-0.188-1.908-0.563-2.764
		c-0.374-0.855-0.879-1.604-1.514-2.243c-0.635-0.638-1.378-1.146-2.229-1.524c-0.851-0.377-1.767-0.565-2.747-0.565
		c-0.981,0-1.897,0.188-2.748,0.565c-0.851,0.377-1.594,0.886-2.229,1.524c-0.635,0.639-1.14,1.387-1.514,2.243
		c-0.376,0.856-0.563,1.777-0.563,2.764c0,0.958,0.187,1.865,0.563,2.722c0.374,0.855,0.879,1.603,1.514,2.241
		c0.634,0.639,1.377,1.146,2.229,1.524C139.756,73.925,140.672,74.113,141.653,74.113"/>
	<polygon points="174.321,55.551 166.792,72.815 164.369,78.354 161.946,72.815 154.417,55.551 159.221,55.551 164.369,67.32 
		169.519,55.551 	"/>
	<path d="M189.38,68.402h-8.697c0.173,0.779,0.468,1.508,0.886,2.185c0.419,0.678,0.931,1.262,1.537,1.752
		c0.605,0.491,1.283,0.873,2.033,1.147c0.75,0.274,1.543,0.411,2.38,0.411c1.01,0,1.954-0.202,2.834-0.606
		c0.88-0.403,1.651-0.966,2.315-1.688h0.822h4.413c-0.173,0.433-0.383,0.844-0.628,1.233s-0.512,0.772-0.8,1.146
		c-1.038,1.327-2.337,2.387-3.895,3.18c-1.558,0.794-3.245,1.19-5.063,1.19c-1.587,0-3.072-0.296-4.457-0.887
		c-1.384-0.591-2.596-1.406-3.634-2.445c-1.039-1.039-1.854-2.25-2.445-3.635c-0.592-1.385-0.887-2.87-0.887-4.457
		c0-1.586,0.295-3.072,0.887-4.457c0.591-1.385,1.406-2.597,2.445-3.635c1.038-1.038,2.25-1.853,3.634-2.444
		c1.385-0.591,2.87-0.887,4.457-0.887c1.817,0,3.505,0.397,5.063,1.19c1.558,0.794,2.856,1.868,3.895,3.224
		c0.951,1.154,1.644,2.51,2.077,4.067c0.26,0.924,0.39,1.904,0.39,2.942c0,0.519-0.044,1.01-0.13,1.471h-4.501H189.38z
		 M187.519,59.964c-1.413,0-2.676,0.365-3.786,1.092c-1.111,0.728-1.954,1.691-2.531,2.889h10.082h2.553
		c-0.145-0.229-0.281-0.456-0.411-0.685s-0.267-0.443-0.411-0.643c-0.664-0.828-1.471-1.477-2.423-1.947
		C189.639,60.2,188.614,59.964,187.519,59.964"/>
	<path d="M220.23,46.464c2.191,0,4.254,0.418,6.188,1.254c1.932,0.837,3.612,1.977,5.04,3.418c1.429,1.443,2.554,3.137,3.376,5.084
		c0.821,1.947,1.233,4.031,1.233,6.252c0,2.192-0.412,4.255-1.233,6.187c-0.822,1.933-1.947,3.621-3.376,5.063
		c-1.428,1.443-3.108,2.582-5.04,3.418c-1.934,0.837-3.996,1.254-6.188,1.254c-2.193,0-4.248-0.417-6.166-1.254
		c-1.919-0.836-3.592-1.976-5.02-3.418c-1.428-1.442-2.553-3.129-3.375-5.063c-0.822-1.932-1.233-3.995-1.233-6.187
		c0-2.221,0.411-4.306,1.233-6.252c0.822-1.948,1.947-3.642,3.375-5.084c1.428-1.442,3.101-2.581,5.02-3.418
		C215.982,46.882,218.037,46.464,220.23,46.464 M220.23,73.94c1.499,0,2.921-0.302,4.262-0.906c1.341-0.603,2.51-1.422,3.505-2.457
		c0.995-1.034,1.78-2.248,2.358-3.643c0.576-1.393,0.865-2.88,0.865-4.461c0-1.581-0.289-3.075-0.865-4.483
		c-0.578-1.408-1.363-2.637-2.358-3.686c-0.995-1.049-2.164-1.875-3.505-2.479c-1.341-0.603-2.763-0.905-4.262-0.905
		c-1.501,0-2.914,0.302-4.241,0.905c-1.327,0.604-2.488,1.43-3.482,2.479c-0.995,1.049-1.782,2.278-2.358,3.686
		c-0.577,1.408-0.865,2.902-0.865,4.483c0,1.581,0.288,3.068,0.865,4.461c0.576,1.395,1.363,2.609,2.358,3.643
		c0.994,1.035,2.155,1.854,3.482,2.457C217.316,73.638,218.729,73.94,220.23,73.94"/>
	<path d="M255.365,73.94c1.846,0,3.541-0.439,5.084-1.32c1.543-0.88,2.806-2.056,3.786-3.526L268,71.907
		c-1.442,1.961-3.253,3.519-5.431,4.673c-2.179,1.154-4.579,1.731-7.204,1.731c-2.164,0-4.197-0.418-6.101-1.255
		c-1.904-0.836-3.563-1.969-4.977-3.397c-1.414-1.428-2.531-3.1-3.354-5.019c-0.822-1.918-1.233-3.973-1.233-6.166
		s0.411-4.248,1.233-6.166s1.939-3.591,3.354-5.02c1.413-1.428,3.072-2.56,4.977-3.396c1.903-0.836,3.937-1.255,6.101-1.255
		c2.625,0,5.025,0.578,7.204,1.731c2.178,1.154,3.988,2.711,5.431,4.673l-3.765,2.813c-0.98-1.471-2.243-2.646-3.786-3.526
		c-1.543-0.879-3.238-1.319-5.084-1.319c-1.5,0-2.906,0.303-4.219,0.908c-1.313,0.606-2.46,1.428-3.439,2.466
		c-0.982,1.039-1.761,2.25-2.337,3.635c-0.577,1.385-0.865,2.871-0.865,4.457s0.288,3.072,0.865,4.457
		c0.576,1.385,1.354,2.596,2.337,3.634c0.979,1.039,2.127,1.861,3.439,2.466C252.459,73.637,253.865,73.94,255.365,73.94"/>
</g>
</svg>
