<?xml version="1.0" encoding="utf-8"?>
<!-- Generator: Adobe Illustrator 16.0.0, SVG Export Plug-In . SVG Version: 6.00 Build 0)  -->
<!DOCTYPE svg PUBLIC "-//W3C//DTD SVG 1.1//EN" "http://www.w3.org/Graphics/SVG/1.1/DTD/svg11.dtd">
<svg version="1.1" id="Шар_1" xmlns="http://www.w3.org/2000/svg" xmlns:xlink="http://www.w3.org/1999/xlink" x="0px" y="0px"
	 width="64px" height="84px" viewBox="0 0 64 85.334" enable-background="new 0 0 64 85.334" xml:space="preserve" fill="#4595d4">
<path d="M32,0C14.354,0,0,14.356,0,32c0,23.607,29.524,51.667,30.781,52.851c0.344,0.321,0.781,0.483,1.219,0.483
	s0.875-0.162,1.219-0.483C34.476,83.667,64,55.607,64,32C64,14.356,49.646,0,32,0z M34.943,14.017
	c-0.306,0.552-0.619,1.099-0.938,1.643c-0.16,0.273-0.481,0.372-0.761,0.219c-0.573-0.313-1.141-0.639-1.704-0.971
	c-0.177-0.104-0.26-0.279-0.27-0.498c0.036-0.103,0.058-0.213,0.11-0.307c0.296-0.529,0.599-1.056,0.902-1.581
	c0.181-0.311,0.512-0.407,0.828-0.23c0.54,0.302,1.076,0.61,1.611,0.922C35.017,13.386,35.11,13.718,34.943,14.017z M31.008,8.784
	c0.201-0.355,0.41-0.706,0.604-1.065c0.094-0.172,0.204-0.319,0.387-0.402h0.211c0.434,0.248,0.868,0.495,1.303,0.743
	c0.343,0.196,0.408,0.43,0.213,0.769c-0.217,0.38-0.433,0.759-0.652,1.138c-0.163,0.282-0.411,0.351-0.696,0.19
	c-0.396-0.223-0.791-0.449-1.185-0.677C30.905,9.313,30.843,9.075,31.008,8.784z M33.394,23.539
	c0.367,0.209,0.548,0.527,0.572,1.036c-0.033,0.101-0.068,0.294-0.16,0.457c-0.552,0.983-1.112,1.959-1.677,2.935
	c-0.329,0.57-0.945,0.731-1.521,0.403c-0.963-0.549-1.926-1.1-2.887-1.652c-0.589-0.338-0.756-0.958-0.419-1.546
	c0.548-0.957,1.096-1.914,1.645-2.871c0.339-0.59,0.954-0.759,1.543-0.422C31.458,22.431,32.425,22.986,33.394,23.539z
	 M24.789,17.01c0.451-0.798,0.907-1.593,1.368-2.386c0.258-0.445,0.762-0.579,1.211-0.323c0.791,0.449,1.581,0.904,2.37,1.358
	c0.293,0.168,0.441,0.423,0.474,0.773c-0.051,0.146-0.081,0.304-0.155,0.437c-0.445,0.794-0.899,1.584-1.354,2.374
	c-0.251,0.437-0.754,0.575-1.194,0.326c-0.799-0.449-1.595-0.903-2.389-1.361C24.683,17.955,24.542,17.447,24.789,17.01z
	 M53.079,37.129c-0.011,0.056-0.025,0.111-0.03,0.167c-0.029,0.344-0.046,0.688-0.087,1.03c-0.262,2.218-0.917,4.319-1.902,6.319
	c-1.36,2.761-3.245,5.107-5.627,7.051c-3.471,2.831-7.452,4.385-11.921,4.693c-0.281,0.021-0.563,0.043-0.846,0.064h-1.298
	c-0.044-0.009-0.088-0.026-0.132-0.028c-1.101-0.029-2.19-0.152-3.269-0.366c-4.188-0.832-7.8-2.754-10.834-5.755
	c-1.687-1.669-3.047-3.579-4.082-5.717c-1.342-2.768-2.046-5.689-2.103-8.765c-0.002-0.056-0.019-0.11-0.028-0.167v-0.526
	c0.01-0.055,0.026-0.11,0.028-0.166c0.056-3.071,0.76-5.987,2.094-8.752c0.611-1.266,1.349-2.456,2.199-3.575
	c0.053-0.069,0.106-0.138,0.166-0.213c0.76,0.376,1.44,0.887,2.235,1.205c-0.255,0.446-0.519,0.907-0.78,1.367
	c-0.23,0.403-0.162,0.652,0.241,0.882c0.436,0.249,0.872,0.499,1.31,0.745c0.307,0.172,0.582,0.098,0.759-0.206
	c0.27-0.465,0.536-0.931,0.8-1.399c0.163-0.291,0.08-0.58-0.211-0.748c-0.435-0.25-0.872-0.498-1.309-0.747
	c-0.054-0.031-0.106-0.065-0.133-0.082c0.204-0.344,0.405-0.677,0.6-1.014c0.345-0.597,0.687-1.194,1.026-1.793
	c0.304-0.535,0.163-1.032-0.372-1.339c-0.575-0.333-1.15-0.666-1.726-1.002c-0.425-0.247-0.539-0.679-0.294-1.11
	c0.385-0.675,0.771-1.349,1.158-2.022c0.25-0.434,0.685-0.55,1.122-0.3c0.675,0.385,1.349,0.771,2.021,1.158
	c0.421,0.242,0.542,0.669,0.308,1.093c-0.349,0.627-0.698,1.252-1.05,1.877c-0.311,0.552-0.175,1.046,0.366,1.368
	c1.688,1.001,3.42,1.92,5.184,2.779c0.062,0.03,0.122,0.063,0.197,0.103c-0.146,0.254-0.285,0.495-0.424,0.737
	c-0.983,1.717-1.943,3.448-2.659,5.299c-0.487,1.261-0.882,2.546-1.063,3.892c-0.563,4.181,0.54,7.859,3.381,10.983
	c1.872,2.058,4.195,3.369,6.93,3.905c2.73,0.536,5.375,0.2,7.904-0.945c2.875-1.301,5.07-3.347,6.521-6.161
	c0.844-1.637,1.301-3.386,1.328-5.232c0.053-3.469-0.948-6.584-3.188-9.263c-1.161-1.388-2.577-2.45-4.236-3.181
	c-0.054-0.023-0.105-0.049-0.158-0.074c0,0-0.004-0.01-0.016-0.046c0.314,0.053,0.614,0.099,0.913,0.157
	c1.922,0.37,3.733,1.03,5.37,2.118c2.707,1.8,4.407,4.307,5.193,7.448c0.22,0.88,0.347,1.775,0.393,2.682
	c0.002,0.044,0.019,0.087,0.029,0.131V37.129z"/>
</svg>
