<?xml version="1.0" encoding="utf-8"?>
<!-- Generator: Adobe Illustrator 16.0.0, SVG Export Plug-In . SVG Version: 6.00 Build 0)  -->
<!DOCTYPE svg PUBLIC "-//W3C//DTD SVG 1.1//EN" "http://www.w3.org/Graphics/SVG/1.1/DTD/svg11.dtd">
<svg version="1.1" id="BACKGROUND_1" xmlns="http://www.w3.org/2000/svg" xmlns:xlink="http://www.w3.org/1999/xlink" x="0px"
	 y="0px" width="556px" height="396.961px" viewBox="0 0 556 396.961" enable-background="new 0 0 556 396.961"
	 xml:space="preserve">
<g>
	<path fill="#CECEEA" d="M241.481,128.567v-3.335l-3.085-0.519c-0.115-0.629-0.279-1.242-0.489-1.833l2.411-1.99l-1.668-2.888
		l-2.933,1.094c-0.41-0.481-0.858-0.929-1.34-1.34l1.095-2.933l-2.889-1.668l-1.99,2.411c-0.591-0.209-1.204-0.373-1.833-0.489
		l-0.518-3.085h-3.336l-0.519,3.085c-0.629,0.116-1.242,0.279-1.833,0.489l-1.99-2.411l-2.889,1.668l1.095,2.933
		c-0.481,0.411-0.929,0.859-1.34,1.34l-2.933-1.094l-1.668,2.888l2.411,1.99c-0.21,0.591-0.373,1.204-0.489,1.833l-3.085,0.519
		v3.335l3.085,0.518c0.116,0.629,0.279,1.242,0.489,1.833l-2.411,1.99l1.668,2.889l2.933-1.094c0.411,0.48,0.859,0.929,1.34,1.34
		l-1.095,2.933l2.889,1.668l1.99-2.411c0.591,0.21,1.204,0.373,1.833,0.489l0.519,3.085h3.336l0.518-3.085
		c0.629-0.116,1.242-0.279,1.833-0.489l1.99,2.411l2.889-1.668l-1.095-2.933c0.481-0.411,0.93-0.858,1.34-1.34l2.933,1.094
		l1.668-2.889l-2.411-1.99c0.21-0.591,0.374-1.204,0.489-1.833L241.481,128.567z M233.936,126.899c0,4.065-3.296,7.362-7.361,7.362
		c-4.065,0-7.362-3.296-7.362-7.362c0-4.065,3.296-7.361,7.362-7.361C230.64,119.538,233.936,122.834,233.936,126.899z"/>
	<g>
		<circle opacity="0.93" fill="#CECEEA" cx="513.582" cy="211.111" r="3.677"/>
		<path opacity="0.93" fill="#CECEEA" d="M506.953,150.262c0,0.312,0.032,0.623,0.089,0.923h-15.05v-1.112h14.972
			C506.953,150.14,506.953,150.195,506.953,150.262z"/>
		<path opacity="0.93" fill="#CECEEA" d="M556,151.185v-1.112h-38.926c0.011,0.067,0.011,0.122,0.011,0.189
			c0,0.312-0.033,0.623-0.09,0.923H556z"/>
		<circle opacity="0.93" fill="#CECEEA" cx="512.018" cy="150.258" r="5.069"/>
		<circle opacity="0.93" fill="#CECEEA" cx="534.82" cy="195.586" r="3.18"/>
		<path opacity="0.93" fill="#CECEEA" d="M534.82,202.017c-3.553,0-6.442-2.891-6.442-6.443c0-3.552,2.89-6.442,6.442-6.442
			c3.552,0,6.442,2.891,6.442,6.442C541.262,199.126,538.372,202.017,534.82,202.017z M534.82,190.243
			c-2.938,0-5.33,2.391-5.33,5.33s2.392,5.331,5.33,5.331s5.33-2.392,5.33-5.331S537.758,190.243,534.82,190.243z"/>
		<path opacity="0.93" fill="#CECEEA" d="M509.9,211.117c0,0.233,0.022,0.467,0.067,0.689H496.14v-1.112h13.793
			C509.912,210.828,509.9,210.973,509.9,211.117z"/>
		<path opacity="0.93" fill="#CECEEA" d="M556,222.93h-9.783c-2.19,0-4.294-0.945-5.739-2.581l-6.051-6.829
			c-1.592-1.791-3.882-2.825-6.296-2.825h-10.912c0.022,0.134,0.033,0.278,0.033,0.423c0,0.233-0.022,0.467-0.066,0.689h10.945
			c2.091,0,4.082,0.89,5.462,2.458l6.05,6.818c1.669,1.881,4.061,2.959,6.574,2.959H556V222.93z"/>
		<path opacity="0.93" fill="#CECEEA" d="M556,167.036h-15.562c-1.546,0-3.034,0.466-4.304,1.349l-9.889,6.873
			c-2.207,1.535-4.794,2.345-7.482,2.345h-21.3v1.112h21.3c2.917,0,5.724-0.88,8.117-2.544l9.888-6.873
			c1.083-0.752,2.352-1.15,3.67-1.15H556V167.036z"/>
		<path opacity="0.93" fill="#CECEEA" d="M528.41,194.933c-0.023,0.211-0.034,0.423-0.034,0.646c0,0.155,0.011,0.312,0.021,0.467
			h-30.744v-1.112H528.41z"/>
		<path opacity="0.93" fill="#CECEEA" d="M531.634,195.589c0,0.155,0.012,0.312,0.034,0.456h-2.159l0.023-1.112h2.169
			C531.658,195.144,531.634,195.366,531.634,195.589z"/>
		<path opacity="0.93" fill="#CECEEA" d="M540.111,194.933c0.022,0.211,0.033,0.423,0.033,0.646c0,0.155-0.011,0.312-0.022,0.467
			h-2.157c0.021-0.145,0.033-0.301,0.033-0.456c0-0.223-0.022-0.445-0.067-0.656H540.111z"/>
		<path opacity="0.93" fill="#CECEEA" d="M556,196.045v-1.112h-14.777c0.022,0.211,0.033,0.423,0.033,0.646
			c0,0.155-0.011,0.312-0.022,0.467H556z"/>
	</g>
	<g>
		<path fill="#CECEEA" d="M325.983,21.489h-14.271l-7.136,12.359l7.136,12.359h14.271l7.136-12.359L325.983,21.489z M324.479,43.604
			h-11.265l-5.631-9.755l5.631-9.755h11.265l5.633,9.755L324.479,43.604z"/>
		<g>
			<path opacity="0.48" fill="#CECEEA" d="M506.382,88.804v-7.927l-7.334-1.235c-0.271-1.498-0.661-2.953-1.159-4.357l5.727-4.729
				l-3.958-6.869l-6.972,2.605c-0.981-1.15-2.047-2.208-3.189-3.189l2.605-6.97l-6.869-3.968l-4.729,5.735
				c-1.404-0.499-2.859-0.888-4.356-1.167l-1.235-7.326h-7.927l-1.235,7.326c-1.497,0.279-2.952,0.668-4.356,1.167l-4.729-5.735
				l-6.869,3.968l2.605,6.97c-1.151,0.981-2.208,2.039-3.189,3.189l-6.972-2.605l-3.967,6.869l5.735,4.729
				c-0.498,1.404-0.889,2.859-1.167,4.357l-7.335,1.235v7.927l7.335,1.235c0.278,1.498,0.669,2.953,1.167,4.357l-5.735,4.729
				l3.967,6.869l6.972-2.605c0.981,1.142,2.038,2.208,3.189,3.189l-2.605,6.971l6.869,3.959l4.729-5.728
				c1.404,0.5,2.859,0.889,4.356,1.159l1.235,7.334h7.927l1.235-7.334c1.497-0.271,2.952-0.66,4.356-1.159l4.729,5.728l6.869-3.959
				l-2.605-6.971c1.143-0.981,2.208-2.047,3.189-3.189l6.972,2.605l3.958-6.869l-5.727-4.729c0.498-1.404,0.889-2.859,1.159-4.357
				L506.382,88.804z M483.571,95.465l-7.372-7.372c0.355-0.559,0.609-1.176,0.762-1.845h10.423c0.551,0,0.962,0.491,0.887,1.036
				c-0.411,3.006-1.595,5.766-3.341,8.077C484.597,95.799,483.958,95.854,483.571,95.465z M472.358,87.171
				c-0.229,0.144-0.49,0.253-0.762,0.313c-0.211,0.059-0.423,0.084-0.65,0.084c-0.221,0-0.44-0.025-0.644-0.084
				c-0.271-0.06-0.533-0.161-0.762-0.304c-0.381-0.229-0.693-0.55-0.922-0.931c-0.144-0.228-0.254-0.49-0.313-0.761
				c-0.061-0.212-0.085-0.423-0.085-0.652c0-0.22,0.024-0.44,0.085-0.643c0.059-0.271,0.16-0.533,0.304-0.761
				c0.229-0.381,0.55-0.703,0.931-0.931c0.229-0.144,0.491-0.246,0.762-0.304c0.203-0.059,0.423-0.084,0.644-0.084
				c0.228,0,0.439,0.025,0.65,0.084c0.271,0.059,0.533,0.169,0.762,0.313c0.381,0.228,0.702,0.542,0.931,0.922
				c0.144,0.228,0.245,0.49,0.304,0.761c0.061,0.203,0.085,0.423,0.085,0.643c0,0.229-0.024,0.44-0.085,0.652
				c-0.059,0.271-0.169,0.533-0.313,0.761C473.051,86.629,472.739,86.943,472.358,87.171z M456.969,95.361
				c-1.746-2.312-2.929-5.071-3.341-8.077c-0.075-0.544,0.336-1.036,0.887-1.036h10.423c0.152,0.668,0.406,1.286,0.762,1.845
				l-7.372,7.372C457.94,95.854,457.301,95.799,456.969,95.361z M458.328,74.216l7.372,7.372c-0.355,0.559-0.617,1.185-0.762,1.845
				h-10.423c-0.551,0-0.962-0.491-0.887-1.036c0.412-3.005,1.595-5.765,3.341-8.077C457.301,73.881,457.94,73.827,458.328,74.216z
				 M476.96,83.432c-0.145-0.66-0.406-1.286-0.762-1.845l7.373-7.373c0.388-0.388,1.025-0.334,1.357,0.103
				c1.753,2.312,2.931,5.073,3.341,8.08c0.075,0.544-0.336,1.035-0.887,1.035H476.96z M481.575,72.219l-7.373,7.372
				c-0.558-0.355-1.176-0.609-1.844-0.761V68.405c0-0.55,0.49-0.96,1.036-0.886c3.004,0.412,5.765,1.595,8.076,3.341
				C481.909,71.192,481.962,71.831,481.575,72.219z M469.541,68.405V78.83c-0.66,0.144-1.286,0.406-1.844,0.761l-7.373-7.372
				c-0.388-0.389-0.334-1.027,0.104-1.358c2.312-1.747,5.072-2.93,8.076-3.341C469.05,67.445,469.541,67.855,469.541,68.405z
				 M460.323,97.462l7.374-7.373c0.558,0.355,1.184,0.617,1.844,0.761v10.424c0,0.55-0.49,0.96-1.035,0.886
				c-3.007-0.41-5.767-1.588-8.079-3.341C459.989,98.489,459.935,97.851,460.323,97.462z M472.358,101.275V90.851
				c0.668-0.153,1.286-0.406,1.844-0.761l7.373,7.372c0.388,0.388,0.334,1.027-0.104,1.358c-2.312,1.747-5.072,2.93-8.076,3.341
				C472.848,102.235,472.358,101.825,472.358,101.275z"/>
			<g opacity="0.29">
				<path fill="#CECEEA" d="M307.458,283.856v-14.98l-9.91-1.665c-0.175-0.745-0.372-1.483-0.59-2.213l7.747-6.395l-7.489-12.975
					l-9.425,3.518c-0.521-0.553-1.06-1.092-1.612-1.613l3.517-9.424l-12.974-7.49l-6.395,7.747c-0.73-0.217-1.468-0.413-2.213-0.59
					l-1.665-9.909h-14.98l-1.666,9.909c-0.745,0.177-1.483,0.373-2.212,0.59l-6.395-7.747l-12.973,7.49l3.516,9.424
					c-0.552,0.521-1.091,1.061-1.613,1.613l-9.424-3.518l-7.49,12.975l7.748,6.395c-0.217,0.729-0.415,1.468-0.589,2.213
					l-9.911,1.665v14.98l9.911,1.666c0.175,0.744,0.372,1.482,0.589,2.212l-7.748,6.396l7.49,12.973l9.424-3.516
					c0.522,0.552,1.061,1.09,1.613,1.612l-3.516,9.424l12.973,7.49l6.395-7.748c0.729,0.219,1.468,0.415,2.212,0.59l1.666,9.911
					h14.98l1.665-9.911c0.745-0.175,1.483-0.371,2.213-0.59l6.395,7.748l12.974-7.49l-3.517-9.424
					c0.553-0.522,1.091-1.061,1.612-1.612l9.425,3.516l7.489-12.973l-7.747-6.396c0.218-0.729,0.415-1.468,0.59-2.212
					L307.458,283.856z M301.082,294.783l-5.112,8.854l-8.987-3.354c-1.261,1.474-2.634,2.847-4.107,4.106l3.354,8.988l-8.854,5.111
					l-6.099-7.39c-1.811,0.644-3.688,1.145-5.618,1.498l-1.589,9.456h-10.223l-1.589-9.456c-1.929-0.354-3.807-0.854-5.618-1.498
					l-6.099,7.39l-8.854-5.111l3.354-8.988c-1.474-1.26-2.847-2.633-4.106-4.106l-8.988,3.354l-5.112-8.854l7.39-6.098
					c-0.643-1.813-1.144-3.69-1.499-5.619l-9.456-1.589v-10.223l9.456-1.589c0.354-1.93,0.855-3.807,1.499-5.618l-7.39-6.1
					l5.112-8.853l8.988,3.354c1.26-1.475,2.632-2.848,4.106-4.107l-3.354-8.987l8.854-5.112l6.099,7.389
					c1.812-0.642,3.689-1.143,5.618-1.498l1.589-9.456h10.223l1.589,9.456c1.929,0.355,3.807,0.856,5.618,1.498l6.099-7.389
					l8.854,5.112l-3.354,8.987c1.474,1.26,2.847,2.633,4.107,4.107l8.987-3.354l5.112,8.853l-7.389,6.1
					c0.642,1.812,1.144,3.688,1.498,5.618l9.455,1.589v10.223l-9.455,1.589c-0.354,1.929-0.856,3.807-1.498,5.619L301.082,294.783z"
					/>
				<path fill="#CECEEA" d="M258.958,253.805c-12.459,0-22.562,10.102-22.562,22.562c0,12.459,10.103,22.563,22.562,22.563
					c12.459,0,22.562-10.104,22.562-22.563C281.52,263.906,271.417,253.805,258.958,253.805z M258.958,296.116
					c-10.89,0-19.75-8.859-19.75-19.75c0-10.89,8.861-19.751,19.75-19.751c10.89,0,19.75,8.861,19.75,19.751
					C278.708,287.257,269.848,296.116,258.958,296.116z"/>
			</g>
			<g opacity="0.5">
				<path fill="#CECEEA" d="M476.119,371.68v-6.318l-4.181-0.702c-0.073-0.314-0.156-0.626-0.248-0.934l3.267-2.697l-3.158-5.47
					l-3.974,1.482c-0.221-0.233-0.447-0.461-0.682-0.68l1.484-3.975l-5.472-3.159l-2.697,3.268
					c-0.308-0.093-0.619-0.175-0.933-0.249l-0.703-4.18h-6.317l-0.702,4.18c-0.313,0.074-0.625,0.156-0.934,0.249l-2.696-3.268
					l-5.472,3.159l1.482,3.975c-0.232,0.219-0.46,0.446-0.68,0.68l-3.975-1.482l-3.159,5.47l3.268,2.697
					c-0.092,0.308-0.175,0.619-0.248,0.934l-4.181,0.702v6.318l4.181,0.702c0.073,0.314,0.156,0.625,0.248,0.934l-3.268,2.696
					l3.159,5.471l3.975-1.482c0.22,0.233,0.447,0.461,0.68,0.68l-1.482,3.975l5.472,3.159l2.696-3.268
					c0.309,0.093,0.62,0.175,0.934,0.249l0.702,4.18h6.317l0.703-4.18c0.313-0.074,0.625-0.156,0.933-0.249l2.697,3.268l5.472-3.159
					l-1.484-3.975c0.234-0.219,0.461-0.446,0.682-0.68l3.974,1.482l3.158-5.471l-3.267-2.696c0.092-0.309,0.175-0.619,0.248-0.934
					L476.119,371.68z M473.428,376.287l-2.154,3.734l-3.792-1.414c-0.53,0.621-1.109,1.2-1.731,1.731l1.415,3.791l-3.733,2.155
					l-2.572-3.116c-0.765,0.271-1.556,0.482-2.369,0.632l-0.671,3.988h-4.311l-0.671-3.988c-0.813-0.149-1.605-0.36-2.369-0.632
					l-2.572,3.116l-3.734-2.155l1.415-3.791c-0.622-0.531-1.201-1.11-1.732-1.731l-3.79,1.414l-2.156-3.734l3.117-2.571
					c-0.271-0.765-0.482-1.557-0.633-2.37l-3.987-0.669v-4.313l3.987-0.669c0.15-0.813,0.361-1.605,0.633-2.37l-3.117-2.572
					l2.156-3.733l3.79,1.414c0.531-0.621,1.11-1.2,1.732-1.731l-1.415-3.791l3.734-2.155l2.572,3.116
					c0.764-0.271,1.556-0.483,2.369-0.632l0.671-3.987h4.311l0.671,3.987c0.813,0.148,1.604,0.36,2.369,0.632l2.572-3.116
					l3.733,2.155l-1.415,3.791c0.622,0.531,1.201,1.11,1.731,1.731l3.792-1.414l2.154,3.733l-3.115,2.572
					c0.271,0.765,0.482,1.557,0.632,2.37l3.988,0.669v4.313l-3.988,0.669c-0.149,0.813-0.361,1.605-0.632,2.37L473.428,376.287z"/>
				<path fill="#CECEEA" d="M455.664,359.005c-5.254,0-9.514,4.262-9.514,9.516s4.26,9.516,9.514,9.516
					c5.256,0,9.516-4.262,9.516-9.516S460.919,359.005,455.664,359.005z M455.664,376.85c-4.592,0-8.329-3.736-8.329-8.329
					s3.737-8.329,8.329-8.329c4.593,0,8.33,3.736,8.33,8.329S460.256,376.85,455.664,376.85z"/>
			</g>
			<g opacity="0.27">
				<path fill="#CECEEA" d="M455.902,34.68v-9.279l-6.14-1.031c-0.107-0.461-0.23-0.918-0.365-1.371l4.8-3.96l-4.64-8.036
					l-5.838,2.178c-0.322-0.342-0.657-0.676-0.999-1l2.179-5.837l-8.036-4.639l-3.96,4.799c-0.452-0.135-0.91-0.257-1.371-0.365
					L430.5,0h-9.278l-1.031,6.139c-0.462,0.108-0.919,0.23-1.371,0.365l-3.961-4.799l-8.035,4.639L409,12.181
					c-0.342,0.323-0.676,0.657-0.999,1l-5.838-2.178l-4.64,8.036l4.8,3.96c-0.135,0.453-0.257,0.91-0.365,1.371l-6.139,1.031v9.279
					l6.139,1.032c0.108,0.461,0.23,0.918,0.365,1.37l-4.8,3.961l4.64,8.036l5.838-2.178c0.323,0.342,0.657,0.676,0.999,0.999
					l-2.178,5.837l8.035,4.64l3.961-4.799c0.452,0.135,0.909,0.257,1.371,0.366l1.031,6.138h9.278l1.032-6.138
					c0.461-0.108,0.919-0.231,1.371-0.366l3.96,4.799l8.036-4.64L442.72,47.9c0.342-0.323,0.677-0.657,0.999-0.999l5.838,2.178
					l4.64-8.036l-4.8-3.961c0.135-0.452,0.258-0.909,0.365-1.37L455.902,34.68z M451.951,41.448l-3.165,5.484l-5.568-2.078
					c-0.779,0.913-1.63,1.763-2.543,2.543l2.077,5.567l-5.483,3.167l-3.777-4.577c-1.122,0.398-2.285,0.708-3.479,0.928
					l-0.984,5.857h-6.332l-0.984-5.857c-1.194-0.22-2.357-0.53-3.479-0.928l-3.778,4.577l-5.483-3.167l2.077-5.567
					c-0.913-0.78-1.764-1.63-2.543-2.543l-5.567,2.078l-3.166-5.484l4.576-3.777c-0.397-1.122-0.708-2.285-0.928-3.48l-5.857-0.983
					v-6.333l5.857-0.984c0.22-1.195,0.53-2.357,0.928-3.479l-4.576-3.777l3.166-5.484l5.567,2.078
					c0.779-0.913,1.63-1.764,2.543-2.543l-2.077-5.567l5.483-3.167l3.778,4.577c1.122-0.398,2.285-0.708,3.479-0.928l0.984-5.857
					h6.332l0.984,5.857c1.194,0.22,2.357,0.53,3.479,0.928l3.777-4.577l5.483,3.167l-2.077,5.567c0.913,0.78,1.764,1.63,2.543,2.543
					l5.568-2.078l3.165,5.484l-4.576,3.777c0.398,1.122,0.709,2.285,0.928,3.479l5.857,0.984v6.333l-5.857,0.983
					c-0.219,1.195-0.529,2.358-0.928,3.48L451.951,41.448z"/>
				<path fill="#CECEEA" d="M425.861,16.066c-7.717,0-13.975,6.257-13.975,13.975s6.258,13.975,13.975,13.975
					c7.718,0,13.975-6.258,13.975-13.975S433.579,16.066,425.861,16.066z M425.861,42.274c-6.745,0-12.233-5.488-12.233-12.233
					c0-6.745,5.488-12.233,12.233-12.233s12.233,5.488,12.233,12.233C438.094,36.786,432.606,42.274,425.861,42.274z"/>
			</g>
			<path opacity="0.27" fill="#CECEEA" d="M518.538,303.641v-10.43l-9.648-1.622c-0.361-1.969-0.872-3.884-1.528-5.732l7.539-6.223
				l-5.216-9.033l-9.171,3.423c-1.285-1.505-2.686-2.906-4.189-4.191l3.423-9.17l-9.034-5.216l-6.223,7.539
				c-1.849-0.656-3.765-1.168-5.733-1.529l-1.62-9.648h-10.432l-1.621,9.648c-1.968,0.361-3.884,0.873-5.731,1.529l-6.224-7.539
				l-9.033,5.216l3.422,9.17c-1.505,1.285-2.904,2.687-4.189,4.191l-9.172-3.423l-5.215,9.033l7.539,6.223
				c-0.655,1.849-1.167,3.764-1.528,5.732l-9.648,1.622v10.43l9.648,1.621c0.361,1.969,0.873,3.884,1.528,5.733l-7.539,6.223
				l5.215,9.033l9.172-3.423c1.285,1.505,2.685,2.906,4.189,4.189l-3.422,9.172l9.033,5.216l6.224-7.539
				c1.848,0.655,3.764,1.166,5.731,1.529l1.621,9.647h10.432l1.62-9.647c1.969-0.363,3.885-0.874,5.733-1.529l6.223,7.539
				l9.034-5.216l-3.423-9.172c1.504-1.283,2.904-2.685,4.189-4.189l9.171,3.423l5.216-9.033l-7.539-6.223
				c0.656-1.85,1.167-3.765,1.528-5.733L518.538,303.641z M485.009,298.426c0,7.228-5.86,13.089-13.089,13.089
				s-13.089-5.861-13.089-13.089c0-7.229,5.86-13.09,13.089-13.09S485.009,291.197,485.009,298.426z"/>
			<path opacity="0.27" fill="#CECEEA" d="M385.538,23.969v-3.947l-3.651-0.613c-0.137-0.745-0.33-1.47-0.577-2.168l2.853-2.354
				l-1.974-3.418l-3.471,1.295c-0.486-0.569-1.016-1.1-1.585-1.585l1.295-3.47l-3.418-1.973l-2.354,2.853
				c-0.7-0.248-1.424-0.441-2.17-0.579l-0.612-3.65h-3.946l-0.613,3.65c-0.745,0.137-1.47,0.331-2.17,0.579l-2.354-2.853
				l-3.419,1.973l1.295,3.47c-0.569,0.486-1.098,1.016-1.585,1.585l-3.469-1.295l-1.974,3.418l2.852,2.354
				c-0.247,0.699-0.441,1.424-0.578,2.168l-3.65,0.613v3.947l3.65,0.613c0.137,0.745,0.331,1.47,0.578,2.169l-2.852,2.354
				l1.974,3.418l3.469-1.294c0.487,0.568,1.016,1.099,1.585,1.584l-1.295,3.47l3.419,1.973l2.354-2.853
				c0.7,0.248,1.425,0.441,2.17,0.579l0.613,3.65h3.946l0.612-3.65c0.746-0.137,1.47-0.331,2.17-0.579l2.354,2.853l3.418-1.973
				l-1.295-3.47c0.569-0.486,1.099-1.016,1.586-1.584l3.47,1.294l1.974-3.418l-2.853-2.354c0.247-0.7,0.44-1.425,0.577-2.169
				L385.538,23.969z M372.851,21.996c0,2.735-2.217,4.952-4.952,4.952c-2.734,0-4.952-2.217-4.952-4.952
				c0-2.735,2.218-4.953,4.952-4.953C370.634,17.043,372.851,19.261,372.851,21.996z"/>
			<g opacity="0.55">
				<polygon fill="#CECEEA" points="520.359,225.189 504.226,228.499 504.226,221.194 520.359,217.883 				"/>
				<polygon fill="#CECEEA" points="520.359,236.744 504.226,240.054 504.226,232.748 520.359,229.438 				"/>
				<polygon opacity="0.65" fill="#CECEEA" points="520.359,248.226 504.226,251.535 504.226,244.23 520.359,240.919 				"/>
			</g>
			<g opacity="0.27">
				<polygon fill="#CECEEA" points="521.177,108.197 521.168,108.202 521.16,108.197 521.16,108.208 511.868,114.475 
					511.868,121.052 521.168,114.78 530.47,121.052 530.47,114.475 521.177,108.208 				"/>
				<polygon fill="#CECEEA" points="521.177,118.534 521.168,118.54 521.16,118.534 521.16,118.546 511.868,124.812 511.868,131.39 
					521.168,125.118 530.47,131.39 530.47,124.812 521.177,118.546 				"/>
				<polygon fill="#CECEEA" points="521.177,97.805 521.177,97.793 521.168,97.799 521.16,97.793 521.16,97.805 511.868,104.071 
					511.868,110.648 521.168,104.376 530.47,110.648 530.47,104.071 				"/>
			</g>
			<g>
				<polygon fill="#CECEEA" points="314.489,329.551 296.014,333.342 296.014,324.976 314.489,321.185 				"/>
				<polygon fill="#CECEEA" points="314.489,345.481 296.014,349.271 296.014,340.906 314.489,337.115 				"/>
			</g>
			<polygon opacity="0.78" fill="#CECEEA" points="302.976,36.489 290.216,36.489 283.835,47.54 290.216,58.589 302.976,58.589 
				309.355,47.54 			"/>
			<polygon opacity="0.71" fill="#CECEEA" points="399.747,323.408 384.903,323.408 377.481,336.265 384.903,349.119 
				399.747,349.119 407.168,336.265 			"/>
			<path opacity="0.93" fill="#CECEEA" d="M424.94,337.437h-14.843l-7.422,12.854l7.422,12.854h14.843l7.423-12.854L424.94,337.437z
				 M423.569,360.771h-12.101l-6.049-10.479l6.049-10.479h12.101l6.05,10.479L423.569,360.771z"/>
			<polygon opacity="0.48" fill="#CECEEA" points="399.383,351.912 389.327,351.912 384.298,360.621 389.327,369.33 399.383,369.33 
				404.41,360.621 			"/>
			<polygon opacity="0.65" fill="#CECEEA" points="250.265,75.066 240.512,75.066 235.635,83.512 240.512,91.959 250.265,91.959 
				255.142,83.512 			"/>
			<polygon fill="#CECEEA" points="268.06,64.993 258.307,64.993 253.431,73.44 258.307,81.886 268.06,81.886 272.937,73.44 			"/>
			<polygon opacity="0.63" fill="#CECEEA" points="300.613,15.381 291.095,15.381 286.335,23.625 291.095,31.868 300.613,31.868 
				305.372,23.625 			"/>
			<path opacity="0.48" fill="#CECEEA" d="M373.347,373.303v-5.962l-5.508-0.924c-0.207-1.127-0.502-2.222-0.877-3.28l4.306-3.554
				l-2.98-5.162l-5.235,1.954c-0.735-0.86-1.537-1.662-2.397-2.397l1.954-5.235l-5.163-2.98l-3.553,4.306
				c-1.059-0.375-2.153-0.67-3.279-0.877l-0.926-5.508h-5.96l-0.926,5.508c-1.127,0.207-2.222,0.502-3.278,0.877l-3.555-4.306
				l-5.161,2.98l1.953,5.235c-0.86,0.735-1.662,1.537-2.396,2.397l-5.237-1.954l-2.98,5.162l4.306,3.554
				c-0.375,1.059-0.67,2.153-0.876,3.28l-5.508,0.924v5.962l5.508,0.925c0.206,1.126,0.501,2.222,0.876,3.278l-4.306,3.555
				l2.98,5.162l5.237-1.955c0.734,0.86,1.536,1.662,2.396,2.397l-1.953,5.237l5.161,2.979l3.555-4.306
				c1.057,0.376,2.151,0.67,3.278,0.877l0.926,5.508h5.96l0.926-5.508c1.126-0.207,2.221-0.501,3.279-0.877l3.553,4.306l5.163-2.979
				l-1.954-5.237c0.86-0.735,1.662-1.537,2.397-2.397l5.235,1.955l2.98-5.162l-4.306-3.555c0.375-1.057,0.67-2.152,0.877-3.278
				L373.347,373.303z M346.708,380.408c-5.571,0-10.087-4.516-10.087-10.087c0-5.57,4.516-10.087,10.087-10.087
				c5.57,0,10.087,4.517,10.087,10.087C356.795,375.893,352.279,380.408,346.708,380.408z"/>
		</g>
		<g>
			<g opacity="0.93">
				<path fill="#CECEEA" d="M372.859,304.251c-62.798,0-113.887-51.089-113.887-113.886c0-62.798,51.089-113.887,113.887-113.887
					c62.797,0,113.887,51.089,113.887,113.887C486.746,253.162,435.656,304.251,372.859,304.251z M372.859,77.591
					c-62.184,0-112.774,50.59-112.774,112.774c0,62.184,50.591,112.773,112.774,112.773c62.185,0,112.774-50.59,112.774-112.773
					C485.633,128.181,435.043,77.591,372.859,77.591z"/>
				<path fill="#CECEEA" d="M372.859,315.935c-69.24,0-125.571-56.329-125.571-125.569S303.619,64.794,372.859,64.794
					s125.57,56.331,125.57,125.571S442.099,315.935,372.859,315.935z M372.859,65.907c-68.626,0-124.458,55.832-124.458,124.458
					c0,68.626,55.833,124.457,124.458,124.457s124.457-55.831,124.457-124.457C497.316,121.739,441.485,65.907,372.859,65.907z"/>
				<path fill="#CECEEA" d="M257.774,112.768l-0.922-0.623c23.851-35.305,61.782-57.604,104.065-61.178l0.094,1.108
					C319.063,55.622,281.435,77.743,257.774,112.768z"/>
				<path fill="#CECEEA" d="M372.859,293.002c-43.684,0-82.657-27.709-96.981-68.951l1.05-0.365
					c14.168,40.795,52.72,68.204,95.931,68.204V293.002z M412.099,285.233l-0.426-1.028c38.095-15.773,62.71-52.608,62.71-93.84
					c0-18.502-5.023-36.611-14.529-52.368l0.951-0.574c9.611,15.93,14.69,34.237,14.69,52.942
					C475.496,232.049,450.611,269.287,412.099,285.233z M271.334,190.365h-1.112c0-56.595,46.043-102.637,102.637-102.637
					c8.687,0,17.317,1.087,25.65,3.231l-0.277,1.078c-8.243-2.121-16.779-3.196-25.373-3.196
					C316.877,88.84,271.334,134.384,271.334,190.365z"/>
				<circle fill="#CECEEA" cx="255.255" cy="115.59" r="4.554"/>
				<circle fill="#CECEEA" cx="360.926" cy="51.632" r="4.554"/>
				<circle fill="#CECEEA" cx="474.279" cy="185.667" r="4.554"/>
				<circle fill="#CECEEA" cx="350.533" cy="313.862" r="4.554"/>
				<circle fill="#CECEEA" cx="249.219" cy="171.207" r="3.688"/>
				<circle fill="#CECEEA" cx="271.172" cy="190.395" r="3.688"/>
				<circle fill="#CECEEA" cx="375.572" cy="76.949" r="3.449"/>
			</g>
			<g>
				<path fill="#CECEEA" d="M449.725,196.607v-17.199l-15.892-2.67c-0.598-3.25-1.449-6.409-2.531-9.46l12.425-10.256l-8.6-14.896
					l-15.11,5.639c-2.12-2.483-4.433-4.796-6.916-6.917l5.639-15.109l-14.896-8.6l-10.255,12.424
					c-3.052-1.083-6.212-1.934-9.461-2.53l-2.67-15.893h-17.199l-2.67,15.893c-3.249,0.597-6.409,1.448-9.461,2.53l-10.255-12.424
					l-14.896,8.6l5.639,15.109c-2.483,2.121-4.796,4.434-6.917,6.917l-15.109-5.639l-8.6,14.896l12.424,10.256
					c-1.081,3.051-1.933,6.211-2.53,9.46l-15.893,2.67v17.199l15.893,2.67c0.598,3.249,1.449,6.409,2.53,9.461l-12.424,10.255
					l8.6,14.896l15.109-5.639c2.121,2.483,4.434,4.796,6.917,6.918l-5.639,15.108l14.896,8.6l10.255-12.425
					c3.052,1.082,6.212,1.934,9.461,2.531l2.67,15.893h17.199l2.67-15.893c3.249-0.598,6.409-1.449,9.461-2.531l10.255,12.425
					l14.896-8.6l-5.639-15.108c2.483-2.122,4.796-4.435,6.916-6.918l15.11,5.639l8.6-14.896l-12.425-10.255
					c1.082-3.052,1.934-6.212,2.531-9.461L449.725,196.607z M418.093,188.008c0,24.979-20.255,45.235-45.234,45.235
					s-45.234-20.256-45.234-45.235s20.255-45.234,45.234-45.234S418.093,163.028,418.093,188.008z"/>
				<path opacity="0.2" fill="#CECEEA" d="M372.606,55.525c-73.411,0-132.923,59.512-132.923,132.923
					c0,73.411,59.512,132.923,132.923,132.923s132.923-59.512,132.923-132.923C505.529,115.037,446.017,55.525,372.606,55.525z
					 M372.606,304.1c-63.873,0-115.652-51.779-115.652-115.651c0-63.873,51.779-115.652,115.652-115.652
					s115.651,51.779,115.651,115.652C488.257,252.32,436.479,304.1,372.606,304.1z"/>
				<path opacity="0.17" fill="#CECEEA" d="M372.606,82.357c-58.592,0-106.09,47.499-106.09,106.091
					c0,58.591,47.499,106.09,106.09,106.09c58.591,0,106.09-47.499,106.09-106.09C478.696,129.856,431.197,82.357,372.606,82.357z
					 M372.606,280.753c-50.979,0-92.306-41.326-92.306-92.305c0-50.979,41.326-92.306,92.306-92.306
					c50.979,0,92.306,41.327,92.306,92.306C464.912,239.427,423.584,280.753,372.606,280.753z"/>
				<path fill="#CECEEA" d="M372.862,172.319c-8.665,0-15.695,7.029-15.695,15.684c0,8.665,7.03,15.694,15.695,15.694
					c8.664,0,15.684-7.029,15.684-15.694C388.545,179.349,381.526,172.319,372.862,172.319z M372.862,200.606
					c-6.957,0-12.603-5.646-12.603-12.603c0-6.949,5.646-12.593,12.603-12.593c6.958,0,12.593,5.644,12.593,12.593
					C385.455,194.961,379.82,200.606,372.862,200.606z"/>
				<path fill="#CECEEA" d="M372.862,172.319c-8.665,0-15.695,7.029-15.695,15.684c0,8.665,7.03,15.694,15.695,15.694
					c8.664,0,15.684-7.029,15.684-15.694C388.545,179.349,381.526,172.319,372.862,172.319z M372.862,200.606
					c-6.957,0-12.603-5.646-12.603-12.603c0-6.949,5.646-12.593,12.603-12.593c6.958,0,12.593,5.644,12.593,12.593
					C385.455,194.961,379.82,200.606,372.862,200.606z"/>
				<path fill="#CECEEA" d="M372.862,172.319c-8.665,0-15.695,7.029-15.695,15.684c0,8.665,7.03,15.694,15.695,15.694
					c8.664,0,15.684-7.029,15.684-15.694C388.545,179.349,381.526,172.319,372.862,172.319z M372.862,200.606
					c-6.957,0-12.603-5.646-12.603-12.603c0-6.949,5.646-12.593,12.603-12.593c6.958,0,12.593,5.644,12.593,12.593
					C385.455,194.961,379.82,200.606,372.862,200.606z"/>
				<path fill="#CECEEA" d="M372.862,166.39c-11.946,0-21.624,9.678-21.624,21.613c0,11.946,9.678,21.624,21.624,21.624
					c11.935,0,21.623-9.678,21.623-21.624C394.485,176.068,384.796,166.39,372.862,166.39z M372.862,203.697
					c-8.665,0-15.695-7.029-15.695-15.694c0-8.654,7.03-15.684,15.695-15.684c8.664,0,15.684,7.029,15.684,15.684
					C388.545,196.668,381.526,203.697,372.862,203.697z"/>
				<path fill="#CECEEA" d="M372.862,170.65c-9.593,0-17.362,7.77-17.362,17.354c0,9.593,7.77,17.362,17.362,17.362
					c9.583,0,17.362-7.77,17.362-17.362C390.224,178.42,382.445,170.65,372.862,170.65z M372.862,200.606
					c-6.957,0-12.603-5.646-12.603-12.603c0-6.949,5.646-12.593,12.603-12.593c6.958,0,12.593,5.644,12.593,12.593
					C385.455,194.961,379.82,200.606,372.862,200.606z"/>
				<path fill="#CECEEA" d="M372.861,176.488c-6.362,0-11.525,5.162-11.525,11.517c0,6.362,5.163,11.523,11.525,11.523
					c6.363,0,11.517-5.161,11.517-11.523C384.377,181.65,379.224,176.488,372.861,176.488z"/>
				<path fill="#CECEEA" d="M372.861,177.788c-5.646,0-10.224,4.58-10.224,10.217c0,5.646,4.578,10.224,10.224,10.224
					c5.645,0,10.217-4.578,10.217-10.224C383.078,182.368,378.505,177.788,372.861,177.788z"/>
				<path opacity="0.51" fill="#CECEEA" d="M372.859,147.308c-22.476,0-40.701,18.225-40.701,40.7s18.226,40.701,40.701,40.701
					s40.701-18.226,40.701-40.701S395.334,147.308,372.859,147.308z M372.859,227.105c-21.591,0-39.098-17.507-39.098-39.098
					s17.507-39.098,39.098-39.098c21.59,0,39.098,17.507,39.098,39.098S394.449,227.105,372.859,227.105z"/>
				<path fill="#CECEEA" d="M372.859,149.944c-21.021,0-38.064,17.044-38.064,38.064c0,21.021,17.044,38.064,38.064,38.064
					c21.02,0,38.064-17.044,38.064-38.064C410.923,166.988,393.878,149.944,372.859,149.944z M372.859,225.479
					c-20.692,0-37.471-16.778-37.471-37.471c0-20.692,16.778-37.47,37.471-37.47s37.471,16.778,37.471,37.47
					C410.33,208.7,393.551,225.479,372.859,225.479z"/>
				<path fill="#CECEEA" d="M372.859,158.273c-16.42,0-29.734,13.314-29.734,29.734s13.314,29.734,29.734,29.734
					s29.734-13.314,29.734-29.734S389.279,158.273,372.859,158.273z M372.859,217.109c-16.071,0-29.102-13.03-29.102-29.102
					c0-16.07,13.03-29.102,29.102-29.102s29.102,13.031,29.102,29.102C401.96,204.079,388.93,217.109,372.859,217.109z"/>
				<path opacity="0.43" fill="#CECEEA" d="M372.859,160.171c-15.372,0-27.837,12.464-27.837,27.836s12.465,27.836,27.837,27.836
					c15.371,0,27.836-12.464,27.836-27.836S388.23,160.171,372.859,160.171z M372.859,215.252
					c-15.045,0-27.244-12.199-27.244-27.244c0-15.044,12.199-27.244,27.244-27.244s27.244,12.2,27.244,27.244
					C400.103,203.053,387.904,215.252,372.859,215.252z"/>
				<path fill="#CECEEA" d="M372.859,162.939c-13.844,0-25.068,11.225-25.068,25.068c0,13.844,11.225,25.068,25.068,25.068
					c13.843,0,25.068-11.225,25.068-25.068C397.927,174.165,386.702,162.939,372.859,162.939z M372.859,212.543
					c-13.549,0-24.535-10.986-24.535-24.535s10.986-24.535,24.535-24.535s24.535,10.986,24.535,24.535
					S386.408,212.543,372.859,212.543z"/>
				<g opacity="0.91">
					<g>
						<path fill="#CECEEA" d="M371.438,151.368v4.631h2.842v-4.631H371.438z M373.775,155.494h-1.832v-3.621h1.832V155.494z"/>
						<path fill="#CECEEA" d="M374.28,224.648v-4.632h-2.842v4.632H374.28z M371.943,220.521h1.832v3.622h-1.832V220.521z"/>
					</g>
					<g>
						<path fill="#CECEEA" d="M366.667,151.867l0.604,4.591l2.818-0.371l-0.605-4.592L366.667,151.867z M369.523,155.653
							l-1.816,0.239l-0.473-3.589l1.816-0.24L369.523,155.653z"/>
						<path fill="#CECEEA" d="M379.05,224.148l-0.604-4.592l-2.818,0.372l0.605,4.592L379.05,224.148z M376.195,220.363l1.816-0.239
							l0.473,3.59l-1.816,0.239L376.195,220.363z"/>
					</g>
					<g>
						<path fill="#CECEEA" d="M362.002,152.984l1.199,4.474l2.745-0.736l-1.198-4.474L362.002,152.984z M365.328,156.365
							l-1.769,0.474l-0.938-3.497l1.77-0.474L365.328,156.365z"/>
						<path fill="#CECEEA" d="M383.714,223.032l-1.199-4.475l-2.744,0.736l1.199,4.474L383.714,223.032z M380.39,219.65l1.768-0.474
							l0.938,3.498l-1.77,0.474L380.39,219.65z"/>
					</g>
					<g>
						<path fill="#CECEEA" d="M357.524,154.701l1.773,4.279l2.625-1.088l-1.772-4.279L357.524,154.701z M361.263,157.619
							l-1.692,0.701l-1.386-3.345l1.691-0.701L361.263,157.619z"/>
						<path fill="#CECEEA" d="M388.194,221.314l-1.773-4.278l-2.625,1.088l1.772,4.279L388.194,221.314z M384.456,218.396l1.691-0.7
							l1.386,3.346l-1.692,0.7L384.456,218.396z"/>
					</g>
					<g>
						<path fill="#CECEEA" d="M353.308,156.987l2.316,4.011l2.46-1.421l-2.314-4.011L353.308,156.987z M357.395,159.392
							l-1.586,0.917l-1.811-3.136l1.586-0.916L357.395,159.392z"/>
						<path fill="#CECEEA" d="M392.41,219.029l-2.316-4.012l-2.46,1.421l2.314,4.012L392.41,219.029z M388.323,216.624l1.586-0.917
							l1.811,3.137l-1.586,0.915L388.323,216.624z"/>
					</g>
					<g>
						<path fill="#CECEEA" d="M349.426,159.804l2.819,3.675l2.256-1.73l-2.82-3.674L349.426,159.804z M353.792,161.655l-1.453,1.115
							l-2.205-2.873l1.453-1.115L353.792,161.655z"/>
						<path fill="#CECEEA" d="M396.292,216.211l-2.82-3.675l-2.255,1.73l2.82,3.675L396.292,216.211z M391.926,214.36l1.452-1.115
							l2.205,2.873l-1.454,1.115L391.926,214.36z"/>
					</g>
					<g>
						<path fill="#CECEEA" d="M345.946,163.104l3.275,3.275l2.009-2.009l-3.274-3.275L345.946,163.104z M350.515,164.37
							l-1.294,1.294l-2.561-2.56l1.295-1.295L350.515,164.37z"/>
						<path fill="#CECEEA" d="M399.772,212.911l-3.275-3.274l-2.01,2.009l3.275,3.275L399.772,212.911z M395.202,211.646
							l1.295-1.295l2.562,2.561l-1.296,1.296L395.202,211.646z"/>
					</g>
					<g>
						<path fill="#CECEEA" d="M342.925,166.83l3.675,2.819l1.729-2.254l-3.674-2.819L342.925,166.83z M347.622,167.488l-1.115,1.454
							l-2.873-2.205l1.115-1.453L347.622,167.488z"/>
						<path fill="#CECEEA" d="M402.792,209.186l-3.675-2.819l-1.73,2.255l3.675,2.819L402.792,209.186z M398.096,208.527
							l1.115-1.452l2.873,2.204l-1.115,1.453L398.096,208.527z"/>
					</g>
					<g>
						<path fill="#CECEEA" d="M340.417,170.918l4.012,2.316l1.421-2.461l-4.011-2.315L340.417,170.918z M345.16,170.958
							l-0.916,1.586l-3.136-1.81l0.915-1.586L345.16,170.958z"/>
						<path fill="#CECEEA" d="M405.301,205.097l-4.012-2.314l-1.421,2.46l4.011,2.316L405.301,205.097z M400.558,205.058
							l0.916-1.586l3.136,1.811l-0.916,1.586L400.558,205.058z"/>
					</g>
					<g>
						<path fill="#CECEEA" d="M338.463,175.299l4.28,1.772l1.087-2.625l-4.278-1.772L338.463,175.299z M343.17,174.719l-0.7,1.692
							l-3.346-1.386l0.7-1.692L343.17,174.719z"/>
						<path fill="#CECEEA" d="M407.254,200.717l-4.279-1.772l-1.088,2.625l4.278,1.773L407.254,200.717z M402.547,201.297l0.7-1.692
							l3.346,1.385l-0.7,1.692L402.547,201.297z"/>
					</g>
					<g>
						<path fill="#CECEEA" d="M337.099,179.897l4.475,1.199l0.735-2.745l-4.475-1.199L337.099,179.897z M341.69,178.708l-0.474,1.77
							l-3.498-0.937l0.474-1.77L341.69,178.708z"/>
						<path fill="#CECEEA" d="M408.619,196.119l-4.475-1.199l-0.735,2.745l4.475,1.199L408.619,196.119z M404.028,197.308
							l0.474-1.769l3.498,0.937l-0.474,1.77L404.028,197.308z"/>
					</g>
					<g>
						<path fill="#CECEEA" d="M336.346,184.635l4.592,0.604l0.372-2.818l-4.592-0.604L336.346,184.635z M340.743,182.856
							l-0.239,1.816l-3.59-0.472l0.239-1.816L340.743,182.856z"/>
						<path fill="#CECEEA" d="M409.371,191.382l-4.591-0.605l-0.372,2.818l4.592,0.604L409.371,191.382z M404.975,193.16
							l0.239-1.816l3.59,0.473l-0.239,1.816L404.975,193.16z"/>
					</g>
					<g>
						<path fill="#CECEEA" d="M336.218,189.429h4.632v-2.842h-4.632V189.429z M340.345,187.092v1.832h-3.621v-1.832H340.345z"/>
						<path fill="#CECEEA" d="M409.5,186.587h-4.632v2.842h4.632V186.587z M405.373,188.924v-1.832h3.62v1.832H405.373z"/>
					</g>
					<g>
						<path fill="#CECEEA" d="M336.718,194.199l4.592-0.604l-0.372-2.818l-4.592,0.605L336.718,194.199z M340.503,191.344
							l0.239,1.816l-3.59,0.473l-0.239-1.816L340.503,191.344z"/>
						<path fill="#CECEEA" d="M409,181.817l-4.592,0.604l0.372,2.818l4.591-0.604L409,181.817z M405.214,184.672l-0.239-1.816
							l3.59-0.473l0.239,1.816L405.214,184.672z"/>
					</g>
					<g>
						<path fill="#CECEEA" d="M337.834,198.864l4.475-1.199l-0.735-2.745l-4.475,1.199L337.834,198.864z M341.216,195.539
							l0.474,1.769l-3.498,0.938l-0.474-1.77L341.216,195.539z"/>
						<path fill="#CECEEA" d="M407.883,177.152l-4.475,1.199l0.735,2.745l4.475-1.199L407.883,177.152z M404.501,180.478
							l-0.474-1.77l3.498-0.937l0.474,1.77L404.501,180.478z"/>
					</g>
					<g>
						<path fill="#CECEEA" d="M339.552,203.343l4.278-1.773l-1.087-2.625l-4.28,1.772L339.552,203.343z M342.47,199.604l0.7,1.692
							l-3.346,1.385l-0.7-1.692L342.47,199.604z"/>
						<path fill="#CECEEA" d="M406.166,172.674l-4.278,1.772l1.088,2.625l4.279-1.772L406.166,172.674z M403.248,176.412l-0.7-1.692
							l3.346-1.386l0.7,1.692L403.248,176.412z"/>
					</g>
					<g>
						<path fill="#CECEEA" d="M341.838,207.559l4.011-2.316l-1.421-2.46l-4.012,2.314L341.838,207.559z M344.244,203.472
							l0.916,1.586l-3.137,1.811l-0.915-1.586L344.244,203.472z"/>
						<path fill="#CECEEA" d="M403.879,168.458l-4.011,2.315l1.421,2.461l4.012-2.316L403.879,168.458z M401.474,172.544
							l-0.916-1.586l3.136-1.811l0.916,1.586L401.474,172.544z"/>
					</g>
					<g>
						<path fill="#CECEEA" d="M344.656,211.44l3.674-2.819l-1.729-2.255l-3.675,2.819L344.656,211.44z M346.506,207.075l1.115,1.452
							l-2.873,2.205l-1.115-1.453L346.506,207.075z"/>
						<path fill="#CECEEA" d="M401.062,164.576l-3.675,2.819l1.73,2.254l3.675-2.819L401.062,164.576z M399.211,168.941
							l-1.115-1.454l2.873-2.204l1.115,1.453L399.211,168.941z"/>
					</g>
					<g>
						<path fill="#CECEEA" d="M347.956,214.921l3.274-3.275l-2.009-2.009l-3.275,3.274L347.956,214.921z M349.221,210.351
							l1.294,1.295l-2.56,2.562l-1.295-1.296L349.221,210.351z"/>
						<path fill="#CECEEA" d="M397.762,161.095l-3.275,3.275l2.01,2.009l3.275-3.275L397.762,161.095z M396.497,165.665
							l-1.295-1.294l2.561-2.561l1.296,1.295L396.497,165.665z"/>
					</g>
					<g>
						<path fill="#CECEEA" d="M351.681,217.941l2.82-3.675l-2.256-1.73l-2.819,3.675L351.681,217.941z M352.339,213.245l1.453,1.115
							l-2.205,2.873l-1.453-1.115L352.339,213.245z"/>
						<path fill="#CECEEA" d="M394.037,158.075l-2.82,3.674l2.255,1.73l2.82-3.675L394.037,158.075z M393.378,162.771l-1.452-1.115
							l2.203-2.873l1.454,1.115L393.378,162.771z"/>
					</g>
					<g>
						<path fill="#CECEEA" d="M355.77,220.45l2.314-4.012l-2.46-1.421l-2.316,4.012L355.77,220.45z M355.809,215.707l1.586,0.917
							l-1.811,3.135l-1.586-0.915L355.809,215.707z"/>
						<path fill="#CECEEA" d="M389.948,155.566l-2.314,4.011l2.46,1.421l2.316-4.011L389.948,155.566z M389.909,160.309
							l-1.586-0.917l1.811-3.136l1.586,0.916L389.909,160.309z"/>
					</g>
					<g>
						<path fill="#CECEEA" d="M360.15,222.403l1.772-4.279l-2.625-1.088l-1.773,4.278L360.15,222.403z M359.571,217.696l1.692,0.7
							l-1.387,3.346l-1.691-0.7L359.571,217.696z"/>
						<path fill="#CECEEA" d="M385.568,153.613l-1.772,4.279l2.625,1.088l1.773-4.279L385.568,153.613z M386.147,158.319
							l-1.691-0.701l1.385-3.346l1.692,0.701L386.147,158.319z"/>
					</g>
					<g>
						<path fill="#CECEEA" d="M364.749,223.768l1.198-4.474l-2.745-0.736l-1.199,4.475L364.749,223.768z M363.559,219.177
							l1.769,0.474l-0.937,3.498l-1.77-0.474L363.559,219.177z"/>
						<path fill="#CECEEA" d="M380.97,152.249l-1.199,4.474l2.744,0.736l1.199-4.474L380.97,152.249z M382.158,156.839l-1.768-0.474
							l0.936-3.498l1.77,0.474L382.158,156.839z"/>
					</g>
					<g>
						<path fill="#CECEEA" d="M369.485,224.521l0.605-4.592l-2.818-0.372l-0.604,4.592L369.485,224.521z M367.707,220.124
							l1.816,0.239l-0.473,3.59l-1.816-0.239L367.707,220.124z"/>
						<path fill="#CECEEA" d="M376.233,151.496l-0.605,4.592l2.818,0.371l0.604-4.591L376.233,151.496z M378.011,155.892
							l-1.816-0.239l0.473-3.59l1.816,0.24L378.011,155.892z"/>
					</g>
				</g>
				<path opacity="0.38" fill="#CECEEA" d="M374.241,152.738c18.715,0.556,33.789,15.626,34.345,34.342
					c0.016,0.356,0.02,0.717,0.02,1.079c0,0.36-0.004,0.721-0.02,1.078c-0.556,18.715-15.63,33.785-34.345,34.341
					c-0.357,0.017-0.714,0.02-1.075,0.02s-0.722-0.003-1.079-0.02c-18.72-0.556-33.789-15.626-34.345-34.341h-5.888
					c0.561,21.967,18.262,39.674,40.232,40.234c0.357,0.011,0.718,0.015,1.079,0.015s0.718-0.004,1.075-0.015
					c21.966-0.561,39.673-18.268,40.233-40.234c0.011-0.357,0.016-0.718,0.016-1.078c0-0.362-0.005-0.723-0.016-1.079
					c-0.561-21.967-18.268-39.674-40.233-40.233V152.738z"/>
				<path fill="#CECEEA" d="M423.417,173.528c-1.172-4.382-2.912-8.528-5.133-12.364c-2.252-3.891-4.986-7.467-8.146-10.625
					c-3.158-3.158-6.732-5.894-10.624-8.145c-3.836-2.22-7.982-3.961-12.364-5.133c-4.235-1.132-8.683-1.745-13.275-1.745
					c-4.592,0-9.039,0.613-13.274,1.745c-4.382,1.172-8.527,2.913-12.364,5.133c-3.892,2.251-7.467,4.987-10.625,8.145
					c-3.157,3.158-5.893,6.734-8.145,10.625c-2.221,3.836-3.961,7.982-5.133,12.364l3.345,0.896
					c1.093-4.086,2.716-7.953,4.786-11.53c2.1-3.628,4.65-6.963,7.595-9.907c2.945-2.945,6.28-5.496,9.908-7.595
					c3.577-2.07,7.443-3.694,11.529-4.786c3.949-1.056,8.097-1.627,12.378-1.627c4.282,0,8.43,0.572,12.379,1.627
					c4.086,1.092,7.952,2.716,11.529,4.786c3.628,2.099,6.963,4.65,9.908,7.595c2.944,2.944,5.495,6.278,7.595,9.907
					c2.07,3.577,3.693,7.444,4.786,11.53c1.056,3.95,1.627,8.096,1.627,12.379c0,4.282-0.571,8.428-1.627,12.377
					c-1.093,4.087-2.716,7.953-4.786,11.53c-2.1,3.629-4.651,6.963-7.595,9.907c-2.945,2.945-6.28,5.495-9.908,7.596
					c-3.577,2.07-7.443,3.692-11.529,4.785c-3.949,1.057-8.097,1.628-12.379,1.628v3.462c4.593,0,9.04-0.613,13.275-1.745
					c4.382-1.172,8.528-2.912,12.364-5.132c3.892-2.252,7.466-4.987,10.624-8.146c3.159-3.158,5.894-6.733,8.146-10.624
					c2.221-3.837,3.961-7.983,5.133-12.365c1.132-4.235,1.744-8.683,1.744-13.274C425.162,182.211,424.549,177.763,423.417,173.528z
					"/>
				<g>
					<g>
						
							<rect x="288.867" y="207.703" transform="matrix(-0.2587 -0.966 0.966 -0.2587 163.8603 547.2875)" fill="#CECEEA" width="6.131" height="6.13"/>
					</g>
					<g>
						
							<rect x="292.492" y="218.378" transform="matrix(-0.3825 -0.9239 0.9239 -0.3825 204.0196 579.2306)" fill="#CECEEA" width="6.129" height="6.13"/>
					</g>
					<g>
						
							<rect x="297.478" y="228.489" transform="matrix(-0.4999 -0.8661 0.8661 -0.4999 250.2572 607.6054)" fill="#CECEEA" width="6.13" height="6.13"/>
					</g>
					<g>
						
							<rect x="303.74" y="237.863" transform="matrix(-0.6087 -0.7934 0.7934 -0.6087 302.3842 631)" fill="#CECEEA" width="6.131" height="6.13"/>
					</g>
					
						<rect x="311.173" y="246.339" transform="matrix(-0.7069 -0.7073 0.7073 -0.7069 359.9946 647.9688)" fill="#CECEEA" width="6.131" height="6.129"/>
					
						<rect x="319.649" y="253.772" transform="matrix(-0.7933 -0.6088 0.6088 -0.7933 422.3525 657.0643)" fill="#CECEEA" width="6.13" height="6.13"/>
					
						<rect x="329.023" y="260.035" transform="matrix(-0.866 -0.5001 0.5001 -0.866 488.1068 657.007)" fill="#CECEEA" width="6.13" height="6.13"/>
					
						<rect x="339.134" y="265.021" transform="matrix(-0.9239 -0.3826 0.3826 -0.9239 555.7821 646.7072)" fill="#CECEEA" width="6.131" height="6.131"/>
					
						<rect x="349.809" y="268.645" transform="matrix(-0.966 -0.2587 0.2587 -0.966 623.4472 625.4581)" fill="#CECEEA" width="6.131" height="6.132"/>
				</g>
				<g>
					<g>
						<rect x="372.116" y="99.211" fill="#CECEEA" width="6.13" height="6.13"/>
					</g>
					<g>
						
							<rect x="360.866" y="99.949" transform="matrix(0.9914 -0.1306 0.1306 0.9914 -10.3345 48.3972)" fill="#CECEEA" width="6.13" height="6.13"/>
					</g>
					<path fill="#CECEEA" d="M436.123,132.444l-4.924-4.924l4.924-4.925l4.925,4.925L436.123,132.444z M432.378,127.52l3.744,3.745
						l3.745-3.745l-3.745-3.745L432.378,127.52z"/>
					<path fill="#CECEEA" d="M428.29,124.969l-5.525-4.24l4.24-5.526l5.524,4.24L428.29,124.969z M423.933,120.575l4.202,3.224
						l3.225-4.202l-4.201-3.224L423.933,120.575z"/>
					<path fill="#CECEEA" d="M419.548,118.58l-6.032-3.482l3.481-6.032l6.033,3.482L419.548,118.58z M414.657,114.792l4.585,2.648
						l2.648-4.587l-4.586-2.647L414.657,114.792z"/>
					<path fill="#CECEEA" d="M410.046,113.387l-6.435-2.665l2.666-6.435l6.435,2.665L410.046,113.387z M404.703,110.27l4.893,2.027
						l2.026-4.893l-4.893-2.027L404.703,110.27z"/>
					<path fill="#CECEEA" d="M399.95,109.478l-6.727-1.802l1.801-6.728l6.729,1.803L399.95,109.478z M394.244,107.086l5.115,1.37
						l1.372-5.115l-5.116-1.37L394.244,107.086z"/>
					<path fill="#CECEEA" d="M389.428,106.921l-6.905-0.909l0.908-6.905l6.906,0.91L389.428,106.921z M383.459,105.294l5.25,0.691
						l0.692-5.25l-5.252-0.691L383.459,105.294z"/>
				</g>
				<g opacity="0.66">
					<path opacity="0.93" fill="#CECEEA" d="M372.085,243.354v-15.851c-6.951-0.071-13.469-1.954-19.101-5.202l-7.927,13.729
						C353.022,240.627,362.246,243.281,372.085,243.354z"/>
					<path opacity="0.93" fill="#CECEEA" d="M392.016,222.301c-5.633,3.248-12.148,5.131-19.101,5.202v15.851
						c9.839-0.072,19.063-2.727,27.027-7.323L392.016,222.301z"/>
					<path opacity="0.93" fill="#CECEEA" d="M353.605,154.11c5.488-3.033,11.782-4.785,18.48-4.854v-15.851
						c-9.585,0.071-18.586,2.594-26.408,6.975L353.605,154.11z"/>
					<path opacity="0.93" fill="#CECEEA" d="M317.535,187.253h15.854c0.191-6.776,2.107-13.122,5.323-18.613l-13.729-7.927
						C320.417,168.537,317.729,177.588,317.535,187.253z"/>
					<path opacity="0.93" fill="#CECEEA" d="M372.916,133.405v15.851c6.697,0.069,12.992,1.821,18.48,4.854l7.927-13.73
						C391.501,135.999,382.501,133.476,372.916,133.405z"/>
					<path opacity="0.93" fill="#CECEEA" d="M420.018,160.713l-13.729,7.927c3.215,5.492,5.131,11.837,5.322,18.613h15.854
						C427.271,177.588,424.584,168.537,420.018,160.713z"/>
					<path opacity="0.93" fill="#CECEEA" d="M406.492,207.773c-3.312,5.791-8.061,10.655-13.761,14.104l7.927,13.729
						c8.105-4.843,14.861-11.71,19.563-19.907L406.492,207.773z"/>
					<path opacity="0.93" fill="#CECEEA" d="M411.626,188.084c0,0.099,0.003,0.196,0.003,0.295c0,6.762-1.714,13.12-4.731,18.669
						l13.729,7.928c4.366-7.882,6.854-16.948,6.854-26.597c0-0.099-0.003-0.196-0.003-0.295H411.626z"/>
					<path opacity="0.93" fill="#CECEEA" d="M352.27,221.878c-5.701-3.449-10.45-8.313-13.761-14.104l-13.73,7.927
						c4.704,8.197,11.459,15.064,19.564,19.907L352.27,221.878z"/>
					<path opacity="0.93" fill="#CECEEA" d="M392.12,154.518c5.616,3.262,10.348,7.881,13.744,13.409l13.732-7.929
						c-4.791-7.932-11.527-14.555-19.551-19.208L392.12,154.518z"/>
					<path opacity="0.93" fill="#CECEEA" d="M339.137,167.927c3.396-5.527,8.127-10.146,13.744-13.409l-7.927-13.729
						c-8.022,4.653-14.76,11.276-19.55,19.208L339.137,167.927z"/>
					<path opacity="0.93" fill="#CECEEA" d="M338.104,207.048c-3.018-5.549-4.732-11.907-4.732-18.669
						c0-0.099,0.003-0.196,0.004-0.295h-15.852c0,0.099-0.003,0.196-0.003,0.295c0,9.648,2.487,18.715,6.853,26.597L338.104,207.048
						z"/>
				</g>
				<g opacity="0.66">
					<path opacity="0.93" fill="#CECEEA" d="M371.635,302.881v-33.015c-14.478-0.15-28.051-4.07-39.782-10.835l-16.509,28.596
						C331.931,297.2,351.143,302.729,371.635,302.881z"/>
					<path opacity="0.93" fill="#CECEEA" d="M413.148,259.031c-11.73,6.765-25.306,10.685-39.783,10.835v33.015
						c20.492-0.152,39.705-5.681,56.292-15.254L413.148,259.031z"/>
					<path opacity="0.93" fill="#CECEEA" d="M333.144,117.002c11.432-6.316,24.541-9.964,38.491-10.11V73.878
						c-19.964,0.147-38.71,5.404-55.001,14.527L333.144,117.002z"/>
					<path opacity="0.93" fill="#CECEEA" d="M258.018,186.034h33.021c0.398-14.115,4.389-27.33,11.086-38.769l-28.596-16.509
						C264.021,147.051,258.423,165.904,258.018,186.034z"/>
					<path opacity="0.93" fill="#CECEEA" d="M373.365,73.878v33.014c13.951,0.146,27.06,3.793,38.491,10.11l16.511-28.597
						C412.076,79.282,393.33,74.026,373.365,73.878z"/>
					<path opacity="0.93" fill="#CECEEA" d="M471.472,130.756l-28.596,16.509c6.697,11.438,10.687,24.653,11.087,38.768h33.02
						C486.578,165.904,480.98,147.051,471.472,130.756z"/>
					<path opacity="0.93" fill="#CECEEA" d="M443.298,228.771c-6.898,12.064-16.788,22.194-28.661,29.38l16.509,28.595
						c16.883-10.087,30.953-24.391,40.749-41.463L443.298,228.771z"/>
					<path opacity="0.93" fill="#CECEEA" d="M453.99,187.764c0.003,0.205,0.009,0.409,0.009,0.615
						c0,14.08-3.571,27.327-9.856,38.883l28.597,16.512c9.091-16.417,14.273-35.3,14.273-55.395c0-0.206-0.007-0.41-0.008-0.615
						H453.99z"/>
					<path opacity="0.93" fill="#CECEEA" d="M330.365,258.151c-11.874-7.186-21.765-17.315-28.661-29.38l-28.597,16.512
						c9.795,17.072,23.867,31.376,40.749,41.463L330.365,258.151z"/>
					<path opacity="0.93" fill="#CECEEA" d="M413.362,117.854c11.7,6.793,21.554,16.414,28.626,27.928l28.604-16.514
						c-9.978-16.521-24.011-30.316-40.72-40.008L413.362,117.854z"/>
					<path opacity="0.93" fill="#CECEEA" d="M303.012,145.781c7.074-11.514,16.927-21.134,28.626-27.928l-16.509-28.595
						c-16.71,9.692-30.743,23.487-40.72,40.008L303.012,145.781z"/>
					<path opacity="0.93" fill="#CECEEA" d="M300.859,227.262c-6.285-11.556-9.855-24.803-9.855-38.883
						c0-0.206,0.005-0.41,0.007-0.615h-33.014c-0.001,0.205-0.008,0.409-0.008,0.615c0,20.095,5.183,38.978,14.274,55.395
						L300.859,227.262z"/>
				</g>
				<g opacity="0.66">
					<path opacity="0.93" fill="#CECEEA" d="M372.25,221.402v-9.521c-4.176-0.044-8.091-1.174-11.473-3.124l-4.762,8.246
						C360.8,219.765,366.341,221.359,372.25,221.402z"/>
					<path opacity="0.93" fill="#CECEEA" d="M384.223,208.757c-3.383,1.95-7.298,3.08-11.473,3.124v9.521
						c5.91-0.043,11.451-1.638,16.234-4.399L384.223,208.757z"/>
					<path opacity="0.93" fill="#CECEEA" d="M361.15,167.794c3.297-1.822,7.078-2.875,11.101-2.916v-9.522
						c-5.757,0.043-11.164,1.559-15.862,4.19L361.15,167.794z"/>
					<path opacity="0.93" fill="#CECEEA" d="M339.483,187.703h9.522c0.115-4.071,1.266-7.882,3.197-11.181l-8.247-4.762
						C341.214,176.46,339.6,181.897,339.483,187.703z"/>
					<path opacity="0.93" fill="#CECEEA" d="M372.75,155.356v9.522c4.023,0.042,7.804,1.094,11.101,2.916l4.762-8.248
						C383.915,156.915,378.507,155.399,372.75,155.356z"/>
					<path opacity="0.93" fill="#CECEEA" d="M401.044,171.76l-8.246,4.762c1.931,3.299,3.081,7.11,3.196,11.181h9.523
						C405.402,181.897,403.787,176.46,401.044,171.76z"/>
					<path opacity="0.93" fill="#CECEEA" d="M392.918,200.029c-1.988,3.479-4.841,6.4-8.265,8.473l4.761,8.247
						c4.868-2.909,8.927-7.034,11.752-11.958L392.918,200.029z"/>
					<path opacity="0.93" fill="#CECEEA" d="M396.002,188.201c0.001,0.06,0.002,0.118,0.002,0.178c0,4.061-1.029,7.881-2.842,11.215
						l8.247,4.761c2.622-4.733,4.117-10.18,4.117-15.976c0-0.06-0.002-0.118-0.002-0.178H396.002z"/>
					<path opacity="0.93" fill="#CECEEA" d="M360.348,208.502c-3.425-2.072-6.277-4.993-8.267-8.473l-8.247,4.762
						c2.825,4.924,6.883,9.049,11.752,11.958L360.348,208.502z"/>
					<path opacity="0.93" fill="#CECEEA" d="M384.285,168.039c3.375,1.959,6.217,4.734,8.257,8.055l8.249-4.763
						c-2.877-4.765-6.925-8.743-11.743-11.539L384.285,168.039z"/>
					<path opacity="0.93" fill="#CECEEA" d="M352.46,176.094c2.038-3.321,4.881-6.095,8.255-8.055l-4.761-8.247
						c-4.82,2.795-8.867,6.774-11.745,11.539L352.46,176.094z"/>
					<path opacity="0.93" fill="#CECEEA" d="M351.838,199.594c-1.813-3.334-2.843-7.154-2.843-11.215
						c0-0.06,0.001-0.118,0.003-0.178h-9.522c0,0.06-0.002,0.118-0.002,0.178c0,5.796,1.494,11.242,4.116,15.976L351.838,199.594z"
						/>
				</g>
			</g>
		</g>
	</g>
	<g>
		<path opacity="0.93" fill="#CECEEA" d="M249.505,212.363v1.112h-29.266c0.045-0.3,0.067-0.612,0.067-0.924
			c0-0.066,0-0.123-0.011-0.188H249.505z"/>
		<path opacity="0.93" fill="#CECEEA" d="M206.035,212.552c0-0.066,0-0.123,0.011-0.188H91.466c-3.615,0-7.141-1.269-9.934-3.561
			l-16.795-22.246c-3.227-4.271-8.354-6.818-13.715-6.818H0v1.112h51.021c5.017,0,9.811,2.38,12.825,6.385l16.84,22.291l0.089,0.089
			c2.992,2.491,6.796,3.86,10.689,3.86h114.636C206.057,213.176,206.035,212.863,206.035,212.552z"/>
		<path opacity="0.93" fill="#CECEEA" d="M213.172,219.686c-3.936,0-7.137-3.201-7.137-7.137s3.202-7.138,7.137-7.138
			c3.936,0,7.138,3.202,7.138,7.138S217.108,219.686,213.172,219.686z M213.172,206.523c-3.322,0-6.025,2.702-6.025,6.025
			c0,3.321,2.703,6.024,6.025,6.024s6.025-2.703,6.025-6.024C219.198,209.226,216.495,206.523,213.172,206.523z"/>
		<circle opacity="0.93" fill="#CECEEA" cx="213.173" cy="212.549" r="3.476"/>
		<circle opacity="0.93" fill="#CECEEA" cx="41.875" cy="231.318" r="4.301"/>
		<circle opacity="0.93" fill="#CECEEA" cx="172.573" cy="202.397" r="4.301"/>
		<circle opacity="0.93" fill="#CECEEA" cx="177.77" cy="165.744" r="4.301"/>
		<path opacity="0.93" fill="#CECEEA" d="M63.333,126.853c-3.936,0-7.138-3.202-7.138-7.137c0-3.937,3.202-7.138,7.138-7.138
			c3.936,0,7.137,3.202,7.137,7.138C70.47,123.651,67.269,126.853,63.333,126.853z M63.333,113.69c-3.322,0-6.025,2.703-6.025,6.026
			c0,3.322,2.703,6.025,6.025,6.025c3.323,0,6.025-2.703,6.025-6.025C69.358,116.393,66.656,113.69,63.333,113.69z"/>
		<path fill="#CECEEA" d="M70.431,118.928c0.034,0.267,0.045,0.523,0.045,0.79c0,0.111,0,0.211-0.011,0.323 M56.205,120.04
			c-0.011-0.111-0.011-0.211-0.011-0.323c0-0.267,0.011-0.522,0.044-0.79"/>
		<circle opacity="0.93" fill="#CECEEA" cx="63.333" cy="119.716" r="3.476"/>
		<circle opacity="0.93" fill="#CECEEA" cx="128.185" cy="257.308" r="4.067"/>
		<circle opacity="0.93" fill="#CECEEA" cx="144.719" cy="257.308" r="4.067"/>
		<circle opacity="0.93" fill="#CECEEA" cx="160.466" cy="257.308" r="4.066"/>
		<circle opacity="0.93" fill="#CECEEA" cx="83.345" cy="327.013" r="4.493"/>
		<circle opacity="0.93" fill="#CECEEA" cx="269.844" cy="305.693" r="4.067"/>
		<g opacity="0.93">
			<path fill="#CECEEA" d="M171.311,274.991c-4.132,0-7.482,3.35-7.482,7.482s3.35,7.482,7.482,7.482
				c4.133,0,7.483-3.35,7.483-7.482S175.444,274.991,171.311,274.991z M171.311,288.822c-3.506,0-6.348-2.843-6.348-6.349
				s2.842-6.348,6.348-6.348c3.506,0,6.348,2.842,6.348,6.348S174.817,288.822,171.311,288.822z"/>
			<circle fill="#CECEEA" cx="171.311" cy="282.473" r="3.51"/>
		</g>
		<g opacity="0.93">
			<polygon fill="#CECEEA" points="224.975,165.299 224.968,165.305 224.96,165.299 224.96,165.31 216.989,170.684 216.989,176.326 
				224.968,170.947 232.946,176.326 232.946,170.684 224.975,165.31 			"/>
			<polygon fill="#CECEEA" points="224.975,174.167 224.968,174.172 224.96,174.167 224.96,174.177 216.989,179.551 
				216.989,185.193 224.968,179.813 232.946,185.193 232.946,179.551 224.975,174.177 			"/>
			<polygon fill="#CECEEA" points="224.975,156.386 224.975,156.375 224.968,156.381 224.96,156.375 224.96,156.386 
				216.989,161.761 216.989,167.403 224.968,162.022 232.946,167.403 232.946,161.761 			"/>
		</g>
		<g opacity="0.93">
			<polygon fill="#CECEEA" points="60.416,215.756 60.411,215.75 60.416,215.743 60.407,215.743 55.774,208.874 50.912,208.874 
				55.548,215.75 50.912,222.626 55.774,222.626 60.407,215.756 			"/>
			<polygon fill="#CECEEA" points="68.098,215.756 68.107,215.756 68.103,215.75 68.107,215.743 68.098,215.743 63.466,208.874 
				58.603,208.874 63.24,215.75 58.603,222.626 63.466,222.626 			"/>
		</g>
		<path opacity="0.93" fill="#CECEEA" d="M247.847,192.341v1.112H136.926c-7.13,0-12.925-5.795-12.925-12.925v-19.565
			c0-3.349-2.725-6.073-6.073-6.073h-41.29c-7.62,0-13.815-6.196-13.815-13.815v-14.249c0.167,0.011,0.345,0.022,0.512,0.022
			c0.2,0,0.4-0.011,0.601-0.022v14.249c0,7.007,5.695,12.703,12.703,12.703h41.29c3.96,0,7.186,3.226,7.186,7.186v19.565
			c0,6.519,5.294,11.813,11.813,11.813H247.847z"/>
		<line opacity="0.93" fill="#CECEEA" x1="63.936" y1="126.825" x2="63.936" y2="141.074"/>
		<path opacity="0.93" fill="#CECEEA" d="M51.3,79.996H0v1.112h51.3c6.351,0,11.523,5.172,11.523,11.523v19.967
			c0.167-0.012,0.345-0.022,0.512-0.022c0.2,0,0.4,0.011,0.601,0.022V92.632C63.936,85.658,58.274,79.996,51.3,79.996z"/>
		<path opacity="0.93" fill="#CECEEA" d="M24.86,263.529H0v1.112h24.86c9.076,0,16.462,7.386,16.462,16.463v20.989h1.112v-20.989
			C42.434,271.416,34.548,263.529,24.86,263.529z"/>
		<path opacity="0.93" fill="#CECEEA" d="M115.103,362.104v12.646c0,9.21-7.486,16.696-16.696,16.696h-40.4
			c-9.199,0-16.685-7.486-16.685-16.696v-71.545h1.112v71.545c0,8.598,6.986,15.584,15.573,15.584h40.4
			c8.598,0,15.583-6.986,15.583-15.584v-13.492L115.103,362.104z"/>
		<path opacity="0.93" fill="#CECEEA" d="M304.542,294.675v1.112H124.257c-5.05,0-9.154,4.105-9.154,9.155v55.761l-1.112-0.847
			v-54.914c0-5.663,4.605-10.268,10.267-10.268H304.542z"/>
		<path opacity="0.93" fill="#CECEEA" d="M91.977,270.27l-18.464,25.606c-2.814,3.894-7.353,6.218-12.158,6.218H0v1.112h61.355
			c5.161,0,10.044-2.503,13.059-6.685l18.42-25.528L91.977,270.27z"/>
		<path opacity="0.93" fill="#CECEEA" d="M124.179,257.968h-12.881c-5.684,0-11.056,2.747-14.382,7.364l-3.437,4.761l-0.846-0.734
			l3.381-4.683c3.526-4.895,9.244-7.82,15.284-7.82h12.858c-0.022,0.145-0.033,0.3-0.033,0.457
			C124.124,257.535,124.146,257.756,124.179,257.968z"/>
		<path opacity="0.93" fill="#CECEEA" d="M140.653,257.313c0,0.223,0.022,0.443,0.055,0.655h-8.509
			c0.033-0.212,0.055-0.433,0.055-0.655c0-0.157-0.011-0.313-0.033-0.457h8.465C140.664,257,140.653,257.155,140.653,257.313z"/>
		<path opacity="0.93" fill="#CECEEA" d="M156.403,257.313c0,0.223,0.022,0.443,0.056,0.655h-7.731
			c0.033-0.212,0.056-0.433,0.056-0.655c0-0.157-0.011-0.313-0.033-0.457h7.686C156.415,257,156.403,257.155,156.403,257.313z"/>
		<path opacity="0.93" fill="#CECEEA" d="M267.302,256.855v1.112H164.479c0.033-0.212,0.056-0.433,0.056-0.655
			c0-0.157-0.011-0.313-0.033-0.457H267.302z"/>
		<path opacity="0.93" fill="#CECEEA" d="M0,230.905v1.112h37.64c-0.044-0.223-0.067-0.467-0.067-0.701
			c0-0.144,0.011-0.277,0.022-0.411H0z"/>
		<path opacity="0.93" fill="#CECEEA" d="M258.036,240.916v1.112H157.471c-2.97,0-5.817-0.935-8.22-2.681l-6.641-4.85
			c-2.225-1.623-4.861-2.48-7.62-2.48H46.105c0.044-0.223,0.066-0.467,0.066-0.701c0-0.144-0.011-0.277-0.022-0.411h88.841
			c2.992,0,5.862,0.935,8.275,2.691l6.641,4.851c2.213,1.613,4.827,2.469,7.563,2.469H258.036z"/>
		<path opacity="0.93" fill="#CECEEA" d="M70.465,120.04h56.962c4.85,0,9.644,1.602,13.515,4.504l28.687,21.513
			c3.448,2.592,7.73,4.016,12.057,4.016h73.569v-1.112h-73.569c-4.082,0-8.131-1.346-11.401-3.793l-28.675-21.512
			c-4.06-3.048-9.099-4.727-14.182-4.727H70.431L70.465,120.04z"/>
		<polygon opacity="0.93" fill="#CECEEA" points="0,118.928 0,120.04 56.205,120.04 56.238,118.928 		"/>
		<path opacity="0.93" fill="#CECEEA" d="M265.833,305.053h-32.202c-3.27,0-6.363,1.424-8.487,3.904l-47.608,55.649
			c-3.904,4.572-9.599,7.186-15.605,7.186h-27.975c-2.714,0-5.395-0.901-7.564-2.536l-21.757-16.483
			c-4.004-3.037-8.988-4.661-14.004-4.661c-7.085,0.033-45.33,0.089-90.631,0.141v1.112c45.301-0.052,83.546-0.107,90.631-0.141
			c4.783-0.023,9.521,1.546,13.326,4.438l21.768,16.483c2.358,1.78,5.272,2.759,8.231,2.759h27.975
			c6.34,0,12.335-2.759,16.451-7.575l47.607-55.648c1.913-2.235,4.694-3.516,7.642-3.516h32.18
			c-0.022-0.155-0.034-0.312-0.034-0.467C265.778,305.476,265.8,305.264,265.833,305.053z"/>
		<path opacity="0.93" fill="#CECEEA" d="M41.322,348.211c-12.096,0.016-26.843,0.031-41.322,0.047v1.112
			c14.479-0.016,29.226-0.031,41.322-0.047h1.112v-1.112H41.322z"/>
		<path opacity="0.93" fill="#CECEEA" d="M324.498,305.053v1.112h-50.622c0.022-0.155,0.033-0.312,0.033-0.467
			c0-0.223-0.022-0.435-0.056-0.646H324.498z"/>
		<polygon opacity="0.93" fill="#CECEEA" points="0,203.187 75.893,203.187 75.059,202.074 0,202.074 		"/>
		<path opacity="0.93" fill="#CECEEA" d="M168.35,203.187H77.294l-0.845-1.112h91.833c-0.011,0.1-0.011,0.211-0.011,0.322
			C168.271,202.664,168.293,202.93,168.35,203.187z"/>
		<path opacity="0.93" fill="#CECEEA" d="M111.259,281.93c-2.529,0-4.981-0.904-6.905-2.548L71.961,251.7
			c-3.489-2.981-7.938-4.624-12.528-4.624H0v1.112h59.434c4.325,0,8.517,1.548,11.805,4.357l32.393,27.681
			c2.125,1.816,4.833,2.815,7.627,2.815h52.971v-1.112H111.259z"/>
		<path opacity="0.93" fill="#CECEEA" d="M78.896,326.376H0v1.112h78.874c-0.011-0.155-0.022-0.312-0.022-0.478
			C78.852,326.799,78.863,326.576,78.896,326.376z"/>
		<path opacity="0.93" fill="#CECEEA" d="M220.217,314.696l-0.927,1.112h-45.624c-3.315,0-6.518,1.213-8.999,3.416l-4.149,3.681
			c-3.326,2.959-7.608,4.583-12.058,4.583H87.817c0.011-0.155,0.022-0.312,0.022-0.478c0-0.212-0.012-0.435-0.045-0.635h60.667
			c4.171,0,8.197-1.523,11.323-4.305l4.149-3.671c2.681-2.392,6.14-3.704,9.733-3.704H220.217z"/>
		<path opacity="0.93" fill="#CECEEA" d="M173.522,165.089H0v1.112h173.489c-0.012-0.156-0.022-0.3-0.022-0.456
			C173.466,165.523,173.489,165.3,173.522,165.089z"/>
		<path opacity="0.93" fill="#CECEEA" d="M0,143.766h63.09c-0.078-0.367-0.133-0.734-0.178-1.112H0V143.766z"/>
		<ellipse fill="#CECEEA" cx="117.698" cy="326.846" rx="28.443" ry="2.322"/>
		<ellipse fill="#CECEEA" cx="205.781" cy="241.475" rx="46.913" ry="2.322"/>
		<ellipse fill="#CECEEA" cx="66.184" cy="165.465" rx="46.913" ry="2.322"/>
		<ellipse fill="#CECEEA" cx="217.09" cy="149.708" rx="46.914" ry="2.323"/>
		<ellipse fill="#CECEEA" cx="73.863" cy="391.196" rx="36.053" ry="2.022"/>
		<ellipse fill="#CECEEA" cx="211.854" cy="295.254" rx="29.627" ry="1.842"/>
		<path fill="#CECEEA" d="M66.753,247.424c0,1.017-13.265,1.843-29.627,1.843c-16.363,0-30.717-0.826-30.717-1.843
			c0-1.018,14.354-1.842,30.717-1.842C53.488,245.582,66.753,246.406,66.753,247.424z"/>
	</g>
	<g>
		<circle fill="#CECEEA" cx="172.902" cy="202.021" r="13.204"/>
		<circle fill="#CECEEA" cx="176.981" cy="166.427" r="13.204"/>
		<circle fill="#CECEEA" cx="102.953" cy="155.078" r="11.222"/>
		<circle fill="#CECEEA" cx="466.69" cy="273.641" r="14.345"/>
		<circle fill="#CECEEA" cx="271.021" cy="188.991" r="12.012"/>
		<circle fill="#CECEEA" cx="170.306" cy="370.869" r="13.204"/>
		<circle fill="#CECEEA" cx="41.091" cy="231.643" r="13.204"/>
	</g>
</g>
</svg>
