<?xml version="1.0" encoding="utf-8"?>
<!-- Generator: Adobe Illustrator 16.0.0, SVG Export Plug-In . SVG Version: 6.00 Build 0)  -->
<!DOCTYPE svg PUBLIC "-//W3C//DTD SVG 1.1//EN" "http://www.w3.org/Graphics/SVG/1.1/DTD/svg11.dtd">
<svg version="1.1" id="Шар_1" xmlns="http://www.w3.org/2000/svg" xmlns:xlink="http://www.w3.org/1999/xlink" x="0px" y="0px"
	 width="45px" height="45.001px" viewBox="0 0 45 45.001" enable-background="new 0 0 45 45.001" xml:space="preserve">
<g>
	<g>
		<path fill="#E0E1E7" d="M43.502,23.905L44.951,24C44.983,23.505,45,23,45,22.5h-1.452C43.548,22.972,43.533,23.44,43.502,23.905z"
			/>
	</g>
	<g>
		<path fill="#E0E1E7" d="M6.698,36.407L5.61,37.368C6.259,38.103,6.958,38.8,7.69,39.44l0.956-1.093
			C7.961,37.749,7.306,37.095,6.698,36.407z"/>
	</g>
	<g>
		<path fill="#E0E1E7" d="M10.025,41.229c0.814,0.543,1.671,1.038,2.547,1.469l0.641-1.303c-0.819-0.403-1.62-0.865-2.382-1.375
			L10.025,41.229z"/>
	</g>
	<g>
		<path fill="#E0E1E7" d="M15.291,43.821c0.924,0.312,1.881,0.567,2.843,0.756l0.28-1.424c-0.899-0.177-1.794-0.415-2.659-0.708
			L15.291,43.821z"/>
	</g>
	<g>
		<path fill="#E0E1E7" d="M39.994,34.209l1.206,0.808c0.544-0.812,1.041-1.668,1.474-2.545l-1.301-0.644
			C40.967,32.647,40.504,33.449,39.994,34.209z"/>
	</g>
	<g>
		<path fill="#E0E1E7" d="M1.863,26.666L0.44,26.951c0.192,0.957,0.45,1.912,0.766,2.837l1.374-0.469
			C2.284,28.453,2.042,27.56,1.863,26.666z"/>
	</g>
	<g>
		<path fill="#E0E1E7" d="M2.338,32.5c0.434,0.874,0.931,1.729,1.477,2.54L5.02,34.23c-0.51-0.76-0.975-1.559-1.381-2.377
			L2.338,32.5z"/>
	</g>
	<g>
		<path fill="#E0E1E7" d="M21.141,43.505l-0.093,1.45c0.48,0.03,0.964,0.046,1.452,0.046c0.497,0,0.998-0.017,1.486-0.048
			l-0.095-1.448C22.983,43.563,22.051,43.564,21.141,43.505z"/>
	</g>
	<g>
		<path fill="#E0E1E7" d="M42.429,29.29l1.375,0.468c0.315-0.923,0.572-1.88,0.763-2.841l-1.424-0.284
			C42.964,27.531,42.724,28.424,42.429,29.29z"/>
	</g>
	<g>
		<path fill="#E0E1E7" d="M26.618,43.146l0.283,1.423c0.958-0.19,1.914-0.445,2.84-0.76l-0.467-1.375
			C28.409,42.729,27.515,42.968,26.618,43.146z"/>
	</g>
	<g>
		<path fill="#E0E1E7" d="M36.372,38.333l0.957,1.092c0.733-0.643,1.433-1.342,2.079-2.077l-1.091-0.958
			C37.712,37.077,37.058,37.73,36.372,38.333z"/>
	</g>
	<g>
		<path fill="#E0E1E7" d="M31.811,41.384l0.643,1.301c0.874-0.432,1.73-0.927,2.543-1.471l-0.807-1.206
			C33.428,40.517,32.628,40.979,31.811,41.384z"/>
	</g>
	<g>
		<path fill="#E0E1E7" d="M1.452,22.5c0-11.606,9.442-21.048,21.048-21.048c3.734,0,7.352,0.981,10.548,2.837L30.94,5.132
			l0.539,1.348l4.085-1.634v-4.12h-1.452v2.515C30.613,1.126,26.624,0,22.5,0C10.094,0,0,10.094,0,22.5C0,23,0.017,23.505,0.049,24
			l1.448-0.095C1.467,23.44,1.452,22.972,1.452,22.5z"/>
	</g>
	<g>
		<circle fill="#E0E1E7" cx="42.823" cy="7.984" r="0.726"/>
		<path fill="#E0E1E7" d="M42.823,9.29c-0.72,0-1.306-0.585-1.306-1.305c0-0.72,0.585-1.306,1.306-1.306
			c0.72,0,1.305,0.586,1.305,1.306C44.128,8.705,43.542,9.29,42.823,9.29z M42.823,7.838c-0.079,0-0.146,0.067-0.146,0.147
			c0,0.158,0.292,0.158,0.292,0C42.969,7.905,42.902,7.838,42.823,7.838z"/>
	</g>
	<g>
		<path fill="#E0E1E7" d="M21.774,14.485c-2.187-0.11-4.165-0.693-5.826-1.427c1.838-3.597,4.399-5.713,5.826-6.685V14.485z"/>
	</g>
	<g>
		<path fill="#E0E1E7" d="M14.678,12.44c-1.574-0.837-2.755-1.726-3.412-2.271c2.355-2.147,5.324-3.63,8.609-4.151
			C18.313,7.294,16.251,9.39,14.678,12.44z"/>
	</g>
	<g>
		<path fill="#E0E1E7" d="M14.055,13.771c-0.946,2.217-1.608,4.872-1.699,8.004H5.824C6,17.705,7.641,14.009,10.229,11.2
			C10.934,11.802,12.256,12.823,14.055,13.771z"/>
	</g>
	<g>
		<path fill="#E0E1E7" d="M12.355,23.226c0.09,3.134,0.753,5.787,1.699,8.004c-1.798,0.948-3.121,1.969-3.825,2.571
			C7.64,30.992,6,27.296,5.824,23.226H12.355z"/>
	</g>
	<g>
		<path fill="#E0E1E7" d="M14.678,32.561c1.573,3.05,3.635,5.146,5.198,6.423c-3.286-0.521-6.255-2.004-8.609-4.151
			C11.923,34.287,13.104,33.397,14.678,32.561z"/>
	</g>
	<g>
		<path fill="#E0E1E7" d="M15.978,31.931c1.655-0.729,3.623-1.305,5.797-1.415v8.097C20.36,37.628,17.816,35.496,15.978,31.931z"/>
	</g>
	<g>
		<path fill="#E0E1E7" d="M21.774,29.063c-2.429,0.11-4.604,0.738-6.417,1.537c-0.859-2.043-1.462-4.487-1.55-7.373h6.649
			c0.219,0.615,0.703,1.099,1.318,1.318L21.774,29.063L21.774,29.063L21.774,29.063z"/>
	</g>
	<g>
		<path fill="#E0E1E7" d="M20.456,21.775h-6.65c0.086-2.897,0.68-5.343,1.527-7.383c1.817,0.804,4.002,1.437,6.441,1.546v4.519
			C21.16,20.676,20.675,21.16,20.456,21.775z"/>
	</g>
	<g>
		<circle fill="#E0E1E7" cx="22.5" cy="22.5" r="0.726"/>
		<path fill="#E0E1E7" d="M22.5,23.806c-0.72,0-1.305-0.585-1.305-1.305c0-0.72,0.585-1.306,1.305-1.306
			c0.72,0,1.306,0.585,1.306,1.306C23.806,23.22,23.22,23.806,22.5,23.806z M22.5,22.354c-0.079,0-0.146,0.067-0.146,0.146
			c0,0.159,0.292,0.159,0.292,0C22.646,22.421,22.579,22.354,22.5,22.354z"/>
	</g>
	<g>
		<circle fill="#E0E1E7" cx="29.758" cy="13.791" r="0.726"/>
		<path fill="#E0E1E7" d="M29.758,15.096c-0.72,0-1.306-0.586-1.306-1.306s0.585-1.305,1.306-1.305c0.72,0,1.306,0.585,1.306,1.305
			S30.478,15.096,29.758,15.096z M29.758,13.645c-0.079,0-0.146,0.066-0.146,0.146c0,0.159,0.292,0.159,0.292,0
			C29.904,13.711,29.837,13.645,29.758,13.645z"/>
	</g>
	<g>
		<circle fill="#E0E1E7" cx="36.29" cy="17.42" r="0.726"/>
		<path fill="#E0E1E7" d="M36.29,18.725c-0.72,0-1.305-0.585-1.305-1.305s0.585-1.305,1.305-1.305c0.72,0,1.306,0.585,1.306,1.305
			S37.01,18.725,36.29,18.725z M36.29,17.274c-0.081,0-0.146,0.065-0.146,0.146c0,0.161,0.292,0.161,0.292,0
			C36.437,17.339,36.371,17.274,36.29,17.274z"/>
	</g>
	<g>
		<polygon fill="#E0E1E7" points="22.945,22.871 22.055,22.129 29.62,13.051 36.113,16.658 42.346,7.655 43.299,8.314 
			36.468,18.181 29.896,14.531 		"/>
	</g>
</g>
</svg>
