<?xml version="1.0" encoding="utf-8"?>
<!-- Generator: Adobe Illustrator 16.0.0, SVG Export Plug-In . SVG Version: 6.00 Build 0)  -->
<!DOCTYPE svg PUBLIC "-//W3C//DTD SVG 1.1//EN" "http://www.w3.org/Graphics/SVG/1.1/DTD/svg11.dtd">
<svg version="1.1" id="Шар_1" xmlns="http://www.w3.org/2000/svg" xmlns:xlink="http://www.w3.org/1999/xlink" x="0px" y="0px"
	 width="72px" height="72px" viewBox="0 0 72 72" enable-background="new 0 0 72 72" xml:space="preserve">
<g>
	<g>
		<circle fill="#3B4248" cx="36" cy="36" r="35.198"/>
		<path fill="#E0E1E7" d="M36,72C16.15,72,0,55.85,0,36C0,16.149,16.15,0,36,0s36,16.149,36,36C72,55.85,55.85,72,36,72z M36,1.604
			C17.034,1.604,1.604,17.034,1.604,36S17.034,70.396,36,70.396c18.966,0,34.396-15.43,34.396-34.396S54.966,1.604,36,1.604z"/>
	</g>
	<g>
		<g>
			<g>
				<g>
					<path fill="#E0E1E7" d="M51.943,26.408c-2.37,0-4.298,1.928-4.298,4.298c0,0.865,0.257,1.669,0.697,2.344l-4.644,4.644
						c-0.675-0.441-1.479-0.698-2.344-0.698c-0.896,0-1.729,0.276-2.418,0.746l-4.692-4.692c0.441-0.675,0.698-1.479,0.698-2.344
						c0-2.371-1.928-4.298-4.298-4.298s-4.298,1.928-4.298,4.298c0,0.864,0.257,1.669,0.698,2.343l-4.644,4.645
						c-0.675-0.441-1.479-0.698-2.344-0.698c-2.37,0-4.298,1.928-4.298,4.298c0,2.371,1.928,4.299,4.298,4.299
						s4.298-1.928,4.298-4.299c0-0.864-0.257-1.669-0.698-2.344l4.644-4.644c0.675,0.441,1.48,0.698,2.344,0.698
						c0.865,0,1.669-0.257,2.344-0.698l4.717,4.718c-0.411,0.659-0.65,1.438-0.65,2.27c0,2.371,1.929,4.299,4.299,4.299
						s4.298-1.928,4.298-4.299c0-0.863-0.258-1.669-0.697-2.343l4.645-4.645c0.674,0.441,1.479,0.698,2.343,0.698
						c2.37,0,4.299-1.928,4.299-4.298C56.242,28.335,54.313,26.408,51.943,26.408z M20.057,43.815c-1.391,0-2.521-1.13-2.521-2.521
						c0-1.39,1.131-2.521,2.521-2.521c1.39,0,2.522,1.131,2.522,2.521C22.579,42.685,21.448,43.815,20.057,43.815z M30.645,33.228
						c-1.39,0-2.521-1.131-2.521-2.521c0-1.391,1.131-2.522,2.521-2.522c1.391,0,2.522,1.131,2.522,2.522
						C33.167,32.096,32.036,33.228,30.645,33.228z M41.355,43.815c-1.391,0-2.522-1.13-2.522-2.521c0-1.391,1.132-2.521,2.522-2.521
						c1.39,0,2.521,1.13,2.521,2.521C43.876,42.685,42.745,43.815,41.355,43.815z M51.943,33.228c-1.391,0-2.521-1.131-2.521-2.521
						c0-1.391,1.131-2.522,2.521-2.522s2.521,1.131,2.521,2.522C54.464,32.096,53.333,33.228,51.943,33.228z"/>
					<path fill="#3B4248" d="M41.355,45.726c-2.444,0-4.433-1.988-4.433-4.433c0-0.792,0.213-1.567,0.615-2.249l-4.567-4.568
						c-0.699,0.434-1.501,0.662-2.326,0.662c-0.824,0-1.626-0.229-2.325-0.662l-4.492,4.492c0.433,0.7,0.661,1.502,0.661,2.325
						c0,2.444-1.988,4.433-4.432,4.433s-4.432-1.988-4.432-4.433c0-2.443,1.988-4.432,4.432-4.432c0.825,0,1.626,0.229,2.325,0.662
						l4.493-4.493c-0.433-0.699-0.661-1.5-0.661-2.325c0-2.444,1.988-4.432,4.432-4.432c2.444,0,4.432,1.988,4.432,4.432
						c0,0.824-0.229,1.625-0.662,2.325l4.539,4.539c0.716-0.463,1.544-0.708,2.4-0.708c0.825,0,1.626,0.229,2.325,0.662l4.492-4.493
						c-0.434-0.7-0.661-1.501-0.661-2.325c0-2.444,1.987-4.432,4.432-4.432s4.432,1.988,4.432,4.432s-1.987,4.432-4.432,4.432
						c-0.824,0-1.625-0.229-2.324-0.662l-4.493,4.493c0.433,0.699,0.661,1.501,0.661,2.324
						C45.787,43.738,43.798,45.726,41.355,45.726z M33.007,34.135l4.87,4.871l-0.057,0.09c-0.412,0.661-0.63,1.421-0.63,2.198
						c0,2.297,1.868,4.165,4.165,4.165c2.296,0,4.164-1.868,4.164-4.165c0-0.808-0.233-1.593-0.676-2.27l-0.06-0.091l4.798-4.798
						l0.091,0.059c0.678,0.442,1.462,0.676,2.271,0.676c2.296,0,4.165-1.868,4.165-4.165s-1.869-4.165-4.165-4.165
						c-2.297,0-4.165,1.868-4.165,4.165c0,0.808,0.234,1.594,0.677,2.271l0.059,0.091l-4.797,4.797l-0.091-0.06
						c-0.677-0.441-1.462-0.676-2.271-0.676c-0.84,0-1.649,0.25-2.342,0.723l-0.092,0.063l-4.847-4.847l0.059-0.091
						c0.442-0.677,0.676-1.462,0.676-2.271c0-2.296-1.868-4.165-4.165-4.165s-4.165,1.868-4.165,4.165
						c0,0.808,0.234,1.593,0.676,2.271l0.06,0.091l-4.798,4.797l-0.091-0.06c-0.677-0.441-1.462-0.676-2.271-0.676
						c-2.296,0-4.165,1.868-4.165,4.164c0,2.297,1.868,4.165,4.165,4.165s4.165-1.868,4.165-4.165c0-0.808-0.234-1.593-0.676-2.271
						l-0.06-0.091l4.797-4.797l0.091,0.06c0.677,0.442,1.462,0.676,2.271,0.676c0.809,0,1.594-0.234,2.271-0.676L33.007,34.135z
						 M41.355,43.949c-1.464,0-2.655-1.19-2.655-2.655c0-1.464,1.191-2.654,2.655-2.654s2.655,1.19,2.655,2.654
						C44.01,42.758,42.819,43.949,41.355,43.949z M41.355,38.907c-1.317,0-2.389,1.07-2.389,2.387c0,1.317,1.071,2.388,2.389,2.388
						c1.316,0,2.388-1.07,2.388-2.388C43.743,39.977,42.671,38.907,41.355,38.907z M20.057,43.949c-1.464,0-2.655-1.19-2.655-2.655
						c0-1.464,1.191-2.654,2.655-2.654s2.655,1.19,2.655,2.654C22.712,42.758,21.521,43.949,20.057,43.949z M20.057,38.907
						c-1.317,0-2.388,1.07-2.388,2.387c0,1.317,1.071,2.388,2.388,2.388s2.388-1.07,2.388-2.388
						C22.445,39.977,21.374,38.907,20.057,38.907z M51.943,33.361c-1.464,0-2.655-1.191-2.655-2.655
						c0-1.464,1.191-2.655,2.655-2.655s2.655,1.191,2.655,2.655C54.598,32.17,53.407,33.361,51.943,33.361z M51.943,28.318
						c-1.317,0-2.388,1.071-2.388,2.388s1.07,2.388,2.388,2.388c1.316,0,2.388-1.071,2.388-2.388S53.259,28.318,51.943,28.318z
						 M30.645,33.361c-1.464,0-2.655-1.191-2.655-2.655c0-1.464,1.191-2.655,2.655-2.655c1.464,0,2.656,1.191,2.656,2.655
						C33.301,32.17,32.109,33.361,30.645,33.361z M30.645,28.318c-1.316,0-2.388,1.071-2.388,2.388s1.071,2.388,2.388,2.388
						c1.317,0,2.388-1.071,2.388-2.388S31.962,28.318,30.645,28.318z"/>
				</g>
			</g>
		</g>
		<g>
			<g>
				<g>
					<path fill="#E0E1E7" d="M29.736,37.322c-0.347-0.347-0.909-0.347-1.256,0l-1.807,1.807c-0.347,0.348-0.347,0.91,0,1.257
						c0.173,0.173,0.4,0.26,0.628,0.26c0.227,0,0.455-0.087,0.628-0.26l1.807-1.807C30.083,38.231,30.083,37.668,29.736,37.322z"/>
					<path fill="#3B4248" d="M27.301,40.779c-0.273,0-0.529-0.106-0.723-0.299c-0.398-0.398-0.398-1.047,0-1.445l1.807-1.808
						c0.386-0.386,1.059-0.386,1.445,0c0.398,0.398,0.398,1.047,0,1.445l-1.807,1.808C27.83,40.672,27.573,40.779,27.301,40.779z
						 M29.107,37.196c-0.201,0-0.391,0.078-0.533,0.221l-1.807,1.807c-0.294,0.295-0.294,0.773,0,1.067
						c0.285,0.285,0.782,0.285,1.067,0l1.807-1.807c0.294-0.295,0.294-0.773,0-1.067C29.499,37.274,29.309,37.196,29.107,37.196z"/>
				</g>
			</g>
		</g>
		<g>
			<g>
				<g>
					<path fill="#E0E1E7" d="M45.327,31.646c-0.347-0.347-0.909-0.347-1.256,0l-1.807,1.807c-0.348,0.347-0.348,0.91,0,1.256
						c0.173,0.173,0.4,0.26,0.628,0.26s0.454-0.087,0.627-0.26l1.808-1.807C45.673,32.556,45.673,31.994,45.327,31.646z"/>
					<path fill="#3B4248" d="M42.892,35.104c-0.273,0-0.53-0.106-0.723-0.299c-0.193-0.193-0.3-0.449-0.3-0.722
						c0-0.273,0.106-0.53,0.3-0.723l1.807-1.807c0.387-0.386,1.06-0.385,1.445,0c0.398,0.399,0.398,1.047,0,1.446l-1.808,1.807
						C43.421,34.997,43.165,35.104,42.892,35.104z M44.699,31.52c-0.202,0-0.392,0.079-0.534,0.221l-1.807,1.808
						c-0.143,0.143-0.221,0.332-0.221,0.534c0,0.201,0.078,0.391,0.221,0.533c0.285,0.285,0.782,0.285,1.067,0l1.807-1.807
						c0.295-0.294,0.295-0.773,0-1.068C45.089,31.599,44.9,31.52,44.699,31.52z"/>
				</g>
			</g>
		</g>
	</g>
</g>
</svg>
