<?xml version="1.0" encoding="utf-8"?>
<!-- Generator: Adobe Illustrator 16.0.0, SVG Export Plug-In . SVG Version: 6.00 Build 0)  -->
<!DOCTYPE svg PUBLIC "-//W3C//DTD SVG 1.1//EN" "http://www.w3.org/Graphics/SVG/1.1/DTD/svg11.dtd">
<svg version="1.1" id="Шар_1" xmlns="http://www.w3.org/2000/svg" xmlns:xlink="http://www.w3.org/1999/xlink" x="0px" y="0px"
	 width="16px" height="8.71px" viewBox="0 0 16 8.71" enable-background="new 0 0 16 8.71" xml:space="preserve">
<path d="M12.859,0H4.355C1.994,0,0,1.995,0,4.355C0,6.716,1.994,8.71,4.355,8.71h7.595V7.695H4.355c-1.842,0-3.34-1.498-3.34-3.34
	c0-1.841,1.499-3.34,3.34-3.34h8.504c1.191,0,2.125,0.934,2.125,2.125s-0.934,2.125-2.125,2.125H5.975
	c-0.544,0-0.91-0.366-0.91-0.91c0-0.544,0.366-0.91,0.91-0.91h5.976V2.43H5.975c-1.079,0-1.925,0.846-1.925,1.925
	c0,1.08,0.846,1.925,1.925,1.925h6.885C14.591,6.28,16,4.872,16,3.14S14.591,0,12.859,0z"/>
</svg>
