<?xml version="1.0" encoding="utf-8"?>
<!-- Generator: Adobe Illustrator 16.0.0, SVG Export Plug-In . SVG Version: 6.00 Build 0)  -->
<!DOCTYPE svg PUBLIC "-//W3C//DTD SVG 1.1//EN" "http://www.w3.org/Graphics/SVG/1.1/DTD/svg11.dtd">
<svg version="1.1" id="Шар_1" xmlns="http://www.w3.org/2000/svg" xmlns:xlink="http://www.w3.org/1999/xlink" x="0px" y="0px"
	 width="34px" height="33.486px" viewBox="0 0 34 33.486" enable-background="new 0 0 34 33.486" xml:space="preserve">
<g>
	<g>
		<path d="M33.048,31.582H0.952C0.426,31.582,0,32.009,0,32.534c0,0.526,0.426,0.952,0.952,0.952h32.096
			c0.526,0,0.952-0.426,0.952-0.952C34,32.009,33.574,31.582,33.048,31.582z"/>
	</g>
	<polygon points="6.017,26.247 1.235,26.247 1.235,9.923 6.017,9.923 6.017,26.247 	"/>
	<rect x="7.922" y="18.969" width="4.783" height="7.278"/>
	<polygon points="19.392,10.969 19.392,26.247 14.609,26.247 14.609,0 19.392,0 	"/>
	<rect x="21.295" y="11.921" width="4.783" height="14.326"/>
	<polygon points="32.765,26.247 27.982,26.247 27.982,10.969 27.982,4.495 32.765,4.495 32.765,26.247 	"/>
</g>
</svg>
