<?xml version="1.0" encoding="utf-8"?>
<!-- Generator: Adobe Illustrator 16.0.0, SVG Export Plug-In . SVG Version: 6.00 Build 0)  -->
<!DOCTYPE svg PUBLIC "-//W3C//DTD SVG 1.1//EN" "http://www.w3.org/Graphics/SVG/1.1/DTD/svg11.dtd">
<svg version="1.1" id="Capa_1" xmlns="http://www.w3.org/2000/svg" xmlns:xlink="http://www.w3.org/1999/xlink" x="0px" y="0px"
	 width="58px" height="58px" viewBox="24 13.52 58 58" enable-background="new 24 13.52 58 58" xml:space="preserve">
<g>
	<circle fill="#393939" cx="53" cy="42.52" r="29"/>
	<g>
		<path fill="none" d="M49.051,36.405c0.534,0,1.059,0.042,1.57,0.123l7.16-7.159c-0.274-0.024-0.552-0.038-0.833-0.038
			c-0.385,0-0.766,0.024-1.139,0.07l-7.009,7.009C48.884,36.407,48.968,36.405,49.051,36.405z"/>
		<path fill="none" d="M50.899,37.413l-3.005,3.005c0.104,0.517,0.253,1.017,0.44,1.498l4.063-4.062
			C51.916,37.667,51.416,37.519,50.899,37.413z"/>
		<path fill="none" d="M48.083,35.963l6.258-6.258C51.339,30.59,48.968,32.961,48.083,35.963z"/>
		<path fill="none" d="M53.027,37.224l7.268-7.267c-0.481-0.188-0.981-0.336-1.498-0.441l-7.212,7.212
			C52.082,36.857,52.563,37.024,53.027,37.224z"/>
		<path fill="none" d="M49.051,37.228c-0.382,0-0.763,0.024-1.14,0.071l-0.134,0.133c-0.046,0.374-0.07,0.754-0.07,1.14
			c0,0.28,0.014,0.558,0.038,0.832l2.139-2.138C49.61,37.241,49.333,37.228,49.051,37.228z"/>
		<path fill="none" d="M44.39,38.487c-0.01,0.006-0.021,0.006-0.031,0.011c-0.015,0.008-0.029,0.015-0.044,0.023
			c-0.335,0.184-0.7,0.479-1.067,0.764c-0.359,0.278-0.855,0.776-0.885,0.805c-1.649,1.725-2.552,3.971-2.552,6.377
			c0,5.096,4.146,9.241,9.241,9.241c4.372,0,8.044-3.051,8.999-7.136c-0.361,0.04-0.729,0.061-1.102,0.061
			c-0.625,0-1.236-0.058-1.83-0.167c-0.01-0.002-0.021-0.003-0.03-0.006c-0.836-0.157-1.635-0.417-2.385-0.768
			c-0.028-0.01-0.057-0.022-0.082-0.038c-0.682-0.326-1.32-0.726-1.906-1.189c-0.029-0.018-0.057-0.038-0.081-0.063
			c-0.003-0.004-0.006-0.007-0.01-0.011c-0.563-0.455-1.074-0.971-1.527-1.535c-0.004-0.003-0.007-0.006-0.011-0.009
			c-0.025-0.025-0.046-0.054-0.063-0.084c-0.461-0.588-0.857-1.229-1.18-1.912c-0.016-0.026-0.028-0.053-0.038-0.082
			c-0.348-0.753-0.605-1.557-0.758-2.396c-0.002-0.012-0.004-0.023-0.006-0.034c-0.103-0.575-0.156-1.166-0.156-1.77
			c0-0.372,0.021-0.739,0.061-1.101c-0.648,0.151-1.278,0.374-1.879,0.661c-0.05,0.025-0.112,0.056-0.187,0.094
			C44.715,38.309,44.55,38.394,44.39,38.487z"/>
		<path fill="none" d="M54.999,38.355l7.309-7.309c-0.382-0.273-0.786-0.517-1.209-0.73l-7.287,7.288
			C54.225,37.827,54.622,38.079,54.999,38.355z"/>
		<path fill="none" d="M57.893,41.666l7.289-7.289c-0.215-0.421-0.462-0.822-0.736-1.203l-7.31,7.309
			C57.416,40.858,57.668,41.253,57.893,41.666z"/>
		<path fill="none" d="M56.617,39.839l7.314-7.315c-0.299-0.346-0.624-0.669-0.972-0.967l-7.314,7.314
			C55.991,39.172,56.315,39.496,56.617,39.839z"/>
		<path fill="none" d="M57.647,43.075l-4.092,4.092c0.479,0.189,0.977,0.34,1.491,0.448l3.049-3.049
			C57.987,44.051,57.836,43.553,57.647,43.075z"/>
		<path fill="none" d="M58.983,44.841c0.087,0.53,0.133,1.073,0.133,1.627c0,0.061-0.001,0.121-0.003,0.182l7.016-7.015
			c0.04-0.349,0.062-0.704,0.062-1.063c0-0.302-0.015-0.6-0.043-0.894L58.983,44.841z"/>
		<path fill="none" d="M65.544,35.178l-7.269,7.269c0.202,0.462,0.37,0.942,0.502,1.437l7.215-7.215
			C65.884,36.155,65.734,35.656,65.544,35.178z"/>
		<path fill="none" d="M65.842,41.084l-6.381,6.381C62.542,46.593,64.971,44.163,65.842,41.084z"/>
		<path fill="none" d="M53.202,38.213l-4.508,4.508c0.213,0.422,0.457,0.826,0.73,1.208l4.985-4.985
			C54.028,38.671,53.624,38.427,53.202,38.213z"/>
		<path fill="none" d="M56.056,47.769c0.294,0.028,0.592,0.043,0.893,0.043c0.36,0,0.715-0.021,1.063-0.062l0.219-0.219
			c0.04-0.349,0.062-0.703,0.062-1.063c0-0.301-0.015-0.599-0.043-0.893L56.056,47.769z"/>
		<path fill="none" d="M55.062,39.455l-5.126,5.126c0.298,0.348,0.621,0.673,0.967,0.973l5.132-5.132
			C55.735,40.076,55.41,39.753,55.062,39.455z"/>
		<path fill="none" d="M56.548,41.071l-4.996,4.997c0.38,0.274,0.781,0.521,1.202,0.736l4.53-4.53
			C57.07,41.854,56.823,41.452,56.548,41.071z"/>
		<path fill="#FFFFFF" d="M44.88,38.225c-0.149,0.076-0.337,0.172-0.521,0.273c0.01-0.005,0.021-0.005,0.031-0.011
			C44.55,38.394,44.715,38.309,44.88,38.225z"/>
		<path fill="#FFFFFF" d="M66.845,36.741c-0.001-0.011-0.003-0.021-0.006-0.032c-0.157-0.835-0.417-1.634-0.768-2.384
			c-0.01-0.028-0.022-0.056-0.038-0.083c-0.326-0.681-0.726-1.319-1.189-1.906c-0.018-0.029-0.038-0.056-0.063-0.081
			c-0.004-0.004-0.007-0.007-0.011-0.01c-0.455-0.563-0.971-1.075-1.535-1.528c-0.003-0.003-0.006-0.007-0.01-0.01
			c-0.024-0.025-0.053-0.046-0.083-0.063c-0.588-0.461-1.229-0.858-1.912-1.18c-0.026-0.016-0.053-0.028-0.081-0.038
			c-0.754-0.348-1.558-0.605-2.397-0.758c-0.011-0.002-0.021-0.004-0.031-0.005c-0.575-0.103-1.168-0.157-1.772-0.157
			c-0.465,0-0.922,0.033-1.37,0.094c-0.002,0-0.003,0-0.004,0c-4.251,0.583-7.664,3.831-8.495,7.998
			c-0.854,0.17-1.682,0.454-2.464,0.838c0.113-0.031,0.565,0.637,0.565,0.637s-0.045,0.022-0.114,0.056
			c0.601-0.287,1.23-0.51,1.879-0.661c-0.039,0.362-0.061,0.729-0.061,1.101c0,0.604,0.054,1.195,0.156,1.77
			c0.002,0.011,0.004,0.022,0.006,0.034c0.152,0.839,0.41,1.642,0.758,2.396c0.01,0.029,0.022,0.056,0.038,0.082
			c0.322,0.683,0.719,1.324,1.18,1.912c0.018,0.03,0.038,0.059,0.063,0.084c0.004,0.003,0.007,0.006,0.011,0.009
			c0.453,0.564,0.965,1.08,1.527,1.535c0.004,0.004,0.007,0.007,0.01,0.011c0.024,0.024,0.052,0.045,0.081,0.063
			c0.586,0.464,1.225,0.863,1.906,1.189c0.025,0.016,0.054,0.028,0.082,0.038c0.75,0.351,1.549,0.61,2.385,0.768
			c0.01,0.003,0.021,0.004,0.03,0.006c0.594,0.109,1.205,0.167,1.83,0.167c0.372,0,0.74-0.021,1.102-0.061
			c-0.955,4.085-4.627,7.136-8.999,7.136c-5.095,0-9.241-4.146-9.241-9.241c0-2.406,0.903-4.652,2.552-6.377
			c0,0.001-0.004,0.004-0.004,0.004c-0.008,0.008-0.577-0.586-0.577-0.587c-0.815,0.851-1.468,1.826-1.944,2.906
			c-0.563,1.281-0.85,2.644-0.85,4.053c0,5.549,4.515,10.063,10.063,10.063c4.875,0,8.95-3.483,9.869-8.092
			c4.192-0.836,7.453-4.283,8.009-8.569c0-0.002,0-0.005,0.001-0.007c0.054-0.423,0.082-0.854,0.082-1.292
			C67.012,37.946,66.955,37.335,66.845,36.741z M64.446,33.174c0.274,0.38,0.521,0.782,0.736,1.203l-7.289,7.289
			c-0.225-0.413-0.478-0.808-0.757-1.183L64.446,33.174z M63.931,32.524l-7.314,7.315c-0.302-0.344-0.626-0.667-0.972-0.967
			l7.314-7.314C63.307,31.855,63.632,32.179,63.931,32.524z M62.307,31.046l-7.309,7.309c-0.377-0.276-0.773-0.528-1.188-0.751
			l7.287-7.288C61.521,30.529,61.925,30.773,62.307,31.046z M58.796,29.516c0.517,0.105,1.017,0.254,1.498,0.441l-7.268,7.267
			c-0.464-0.2-0.945-0.367-1.442-0.497L58.796,29.516z M55.81,29.4c0.373-0.046,0.754-0.07,1.139-0.07
			c0.281,0,0.559,0.014,0.833,0.038l-7.16,7.159c-0.512-0.08-1.036-0.123-1.57-0.123c-0.083,0-0.167,0.002-0.25,0.004L55.81,29.4z
			 M54.341,29.705l-6.258,6.258C48.968,32.961,51.339,30.59,54.341,29.705z M47.746,39.403c-0.024-0.274-0.038-0.552-0.038-0.832
			c0-0.386,0.024-0.766,0.07-1.14l0.134-0.133c0.377-0.047,0.758-0.071,1.14-0.071c0.281,0,0.559,0.013,0.833,0.038L47.746,39.403z
			 M47.894,40.418l3.005-3.005c0.517,0.105,1.017,0.254,1.498,0.441l-4.063,4.062C48.147,41.436,47.999,40.935,47.894,40.418z
			 M49.424,43.929c-0.273-0.382-0.518-0.786-0.73-1.208l4.508-4.508c0.422,0.213,0.826,0.458,1.208,0.73L49.424,43.929z
			 M49.936,44.582l5.126-5.126c0.348,0.298,0.673,0.621,0.973,0.967l-5.132,5.132C50.557,45.254,50.234,44.929,49.936,44.582z
			 M51.552,46.068l4.996-4.997c0.274,0.38,0.521,0.782,0.736,1.203l-4.53,4.53C52.333,46.589,51.932,46.342,51.552,46.068z
			 M55.046,47.615c-0.515-0.108-1.013-0.259-1.491-0.448l4.092-4.092c0.189,0.479,0.34,0.977,0.448,1.491L55.046,47.615z
			 M58.231,47.532l-0.219,0.219c-0.349,0.04-0.703,0.062-1.063,0.062c-0.301,0-0.599-0.015-0.893-0.043l2.193-2.193
			c0.028,0.294,0.043,0.592,0.043,0.893C58.292,46.829,58.271,47.183,58.231,47.532z M58.778,43.883
			c-0.132-0.495-0.3-0.975-0.502-1.437l7.269-7.269c0.189,0.479,0.34,0.977,0.448,1.491L58.778,43.883z M59.461,47.465l6.381-6.381
			C64.971,44.163,62.542,46.593,59.461,47.465z M66.128,39.635l-7.016,7.015c0.002-0.061,0.003-0.121,0.003-0.182
			c0-0.554-0.046-1.097-0.133-1.627l7.164-7.164c0.028,0.294,0.043,0.592,0.043,0.894C66.19,38.931,66.168,39.286,66.128,39.635z"/>
		<path fill="#FFFFFF" d="M42.358,40.096c0,0,0.004-0.003,0.004-0.004c0.029-0.029,0.526-0.527,0.885-0.805
			c0.367-0.285,0.732-0.581,1.067-0.764c0.015-0.008,0.029-0.016,0.044-0.023c0.185-0.101,0.372-0.197,0.521-0.273
			c0.074-0.038,0.137-0.069,0.187-0.094c0.069-0.034,0.114-0.056,0.114-0.056s-0.452-0.668-0.565-0.637
			c-0.002,0-0.005-0.002-0.007-0.001c-0.105,0.051-0.7,0.344-1.047,0.557s-0.587,0.402-0.989,0.736
			c-0.401,0.335-0.792,0.779-0.792,0.779l0,0C41.782,39.509,42.351,40.104,42.358,40.096z"/>
	</g>
</g>
</svg>
