<?xml version="1.0" encoding="utf-8"?>
<!-- Generator: Adobe Illustrator 16.0.0, SVG Export Plug-In . SVG Version: 6.00 Build 0)  -->
<!DOCTYPE svg PUBLIC "-//W3C//DTD SVG 1.1//EN" "http://www.w3.org/Graphics/SVG/1.1/DTD/svg11.dtd">
<svg version="1.1" id="Шар_1" xmlns="http://www.w3.org/2000/svg" xmlns:xlink="http://www.w3.org/1999/xlink" x="0px" y="0px"
	 width="43px" height="42.865px" viewBox="0 0 43 42.865" enable-background="new 0 0 43 42.865" xml:space="preserve" fill="#e0e1e8">
<g>
	<path d="M39.141,33.627c-0.581-0.427-1.559-1.042-3.034-1.67l-3.014-3.014c0.598-2.182,0.924-4.479,0.981-6.846h8.907
		C42.835,26.373,41.438,30.334,39.141,33.627z"/>
	<path d="M42.982,20.614h-8.9l0,0c-0.079-3.271-0.672-6.154-1.564-8.663c3.595-0.931,5.663-2.156,6.625-2.864
		C41.439,12.38,42.835,16.34,42.982,20.614z"/>
	<path d="M27.925,23.775c0.324-0.535,0.613-1.093,0.85-1.678h3.816c-0.049,1.936-0.29,3.819-0.72,5.624L27.925,23.775z"/>
	<path d="M28.601,26.548l-1.918,1.918l-1.532-1.532c0.711-0.564,1.353-1.208,1.918-1.918L28.601,26.548z"/>
	<path d="M29.258,20.614c0.246-0.95,0.391-1.941,0.391-2.967c0-1.757-0.394-3.419-1.082-4.922c0.893-0.126,1.725-0.271,2.496-0.433
		c0.871,2.4,1.455,5.168,1.536,8.322H29.258z"/>
	<path d="M38.251,7.896c-0.837,0.61-2.786,1.775-6.276,2.661C29.747,5.263,26.267,1.812,24.022,0
		C29.756,0.676,34.805,3.614,38.251,7.896z"/>
	<path d="M22.232,0.489c1.906,1.386,5.835,4.759,8.276,10.403c-0.824,0.169-1.725,0.315-2.697,0.439
		c-1.319-2.088-3.265-3.738-5.579-4.678V0.489z"/>
	<path d="M18.92,0.005c-1.674,1.339-4.016,3.58-6.032,6.843c-1.576,0.717-2.967,1.766-4.085,3.061
		C6.667,9.167,5.373,8.368,4.728,7.897C8.167,3.624,13.202,0.689,18.92,0.005z"/>
	<path d="M20.749,0.486v5.685c-0.95-0.246-1.941-0.391-2.967-0.391c-0.89,0-1.753,0.106-2.587,0.293
		C17.243,3.254,19.459,1.417,20.749,0.486z"/>
	<path d="M3.839,9.086c0.703,0.517,1.991,1.31,4.025,2.063c-1.229,1.868-1.949,4.101-1.949,6.499c0,1.025,0.145,2.017,0.391,2.967H0
		C0.146,16.34,1.543,12.379,3.839,9.086z"/>
	<path d="M0,22.097h6.789c0.57,1.403,1.401,2.67,2.432,3.746c0.272,1.777,0.693,3.411,1.219,4.912
		c-3.592,0.93-5.64,2.158-6.602,2.868C1.542,30.331,0.146,26.372,0,22.097z"/>
	<path d="M4.726,34.81c0.83-0.61,2.755-1.776,6.242-2.659c2.209,5.329,5.675,8.751,7.937,10.554
		C13.19,42.016,8.162,39.082,4.726,34.81z"/>
	<path d="M20.749,42.223c-1.909-1.384-5.851-4.76-8.291-10.41c2.214-0.447,4.952-0.766,8.291-0.807V42.223z"/>
	<path d="M20.749,29.522c-3.567,0.044-6.486,0.395-8.845,0.891c-0.345-0.95-0.643-1.958-0.883-3.025
		c1.92,1.337,4.249,2.127,6.761,2.127c1.025,0,2.017-0.145,2.967-0.391V29.522z"/>
	<path d="M22.232,28.641c0.585-0.238,1.144-0.526,1.678-0.85l1.893,1.894c-1.154-0.091-2.346-0.144-3.571-0.16V28.641z"/>
	<path d="M22.232,31.008c1.823,0.023,3.575,0.131,5.221,0.326l2.236,2.236c-2.42,4.601-5.75,7.422-7.457,8.654V31.008z"/>
	<path d="M24.064,42.706c1.873-1.497,4.577-4.125,6.721-8.039l3.764,3.764C31.57,40.716,27.978,42.237,24.064,42.706z"/>
	<path d="M35.7,37.484l-7.969-7.969l1.917-1.918l7.97,7.969C37.02,36.244,36.379,36.885,35.7,37.484z"/>
	<path d="M41.643,42.865c-0.361,0-0.702-0.141-0.958-0.397l-3.934-3.934c0.677-0.602,1.316-1.241,1.918-1.918l3.934,3.934
		C42.859,40.807,43,41.147,43,41.509C43,42.257,42.392,42.865,41.643,42.865z"/>
	<g>
		<path d="M17.782,10.23c-4.09,0-7.417,3.327-7.417,7.417c0,2.42,1.169,4.565,2.967,5.92v-0.728c0-1.864,1.153-3.461,2.783-4.123
			c-1.205-0.613-2.042-1.852-2.042-3.294c0-2.045,1.664-3.708,3.708-3.708s3.709,1.663,3.709,3.708c0,1.442-0.836,2.681-2.042,3.294
			c1.629,0.662,2.783,2.259,2.783,4.123v0.728c1.797-1.355,2.967-3.5,2.967-5.92C25.199,13.558,21.872,10.23,17.782,10.23z"/>
		<circle cx="17.782" cy="15.422" r="2.225"/>
		<path d="M17.782,19.873c-1.637,0-2.967,1.331-2.967,2.967v1.601c0.909,0.399,1.912,0.624,2.967,0.624s2.058-0.224,2.967-0.624
			v-1.601C20.749,21.203,19.418,19.873,17.782,19.873z"/>
		<path d="M17.782,7.264c-5.726,0-10.384,4.658-10.384,10.384s4.658,10.384,10.384,10.384s10.384-4.658,10.384-10.384
			S23.508,7.264,17.782,7.264z M17.782,26.547c-4.908,0-8.9-3.992-8.9-8.9c0-4.908,3.992-8.9,8.9-8.9c4.908,0,8.9,3.992,8.9,8.9
			C26.683,22.555,22.69,26.547,17.782,26.547z"/>
	</g>
</g>
</svg>
