<?xml version="1.0" encoding="utf-8"?>
<!-- Generator: Adobe Illustrator 16.0.0, SVG Export Plug-In . SVG Version: 6.00 Build 0)  -->
<!DOCTYPE svg PUBLIC "-//W3C//DTD SVG 1.1//EN" "http://www.w3.org/Graphics/SVG/1.1/DTD/svg11.dtd">
<svg version="1.1" id="Шар_1" xmlns="http://www.w3.org/2000/svg" xmlns:xlink="http://www.w3.org/1999/xlink" x="0px" y="0px"
	 width="72px" height="72px" viewBox="0 0 72 72" enable-background="new 0 0 72 72" xml:space="preserve">
<g>
	<g>
		<circle fill="#3B4248" cx="36" cy="36" r="35.198"/>
		<path fill="#E0E1E7" d="M36,72C16.15,72,0,55.85,0,36C0,16.149,16.15,0,36,0s36,16.149,36,36C72,55.85,55.85,72,36,72z M36,1.604
			C17.034,1.604,1.604,17.034,1.604,36S17.034,70.396,36,70.396c18.966,0,34.396-15.43,34.396-34.396S54.966,1.604,36,1.604z"/>
	</g>
	<g>
		<g>
			<g>
				<path fill="#E0E1E7" d="M50.616,21.047c0-0.038-0.004-0.077-0.012-0.114c-0.001-0.008-0.003-0.015-0.005-0.022
					c-0.007-0.029-0.016-0.059-0.027-0.087c-0.004-0.011-0.009-0.022-0.014-0.033c-0.003-0.008-0.006-0.016-0.01-0.023
					c-0.011-0.021-0.023-0.041-0.036-0.061c-0.003-0.004-0.005-0.01-0.008-0.014c-0.021-0.031-0.045-0.059-0.07-0.086
					c-0.007-0.006-0.015-0.013-0.021-0.02c-0.021-0.02-0.043-0.039-0.067-0.056c-0.008-0.005-0.016-0.012-0.023-0.017
					c-0.03-0.02-0.063-0.038-0.097-0.052c-0.007-0.003-0.014-0.005-0.021-0.008c-0.029-0.011-0.059-0.02-0.089-0.027
					c-0.011-0.003-0.021-0.005-0.032-0.007c-0.038-0.006-0.076-0.012-0.116-0.012H27.879c-0.049,0-0.096,0.006-0.142,0.017
					c-0.013,0.003-0.025,0.008-0.038,0.012c-0.033,0.009-0.064,0.02-0.094,0.034c-0.015,0.007-0.028,0.015-0.042,0.023
					c-0.026,0.015-0.052,0.031-0.076,0.049c-0.014,0.01-0.026,0.021-0.04,0.033c-0.023,0.021-0.044,0.044-0.064,0.068
					c-0.007,0.009-0.016,0.015-0.022,0.024l-5.847,7.796c-0.004,0.005-0.007,0.011-0.01,0.017c-0.007,0.009-0.012,0.018-0.018,0.027
					c-0.015,0.024-0.029,0.049-0.041,0.075c-0.004,0.009-0.009,0.018-0.013,0.027c-0.014,0.035-0.025,0.07-0.033,0.106
					c-0.001,0.008-0.002,0.016-0.004,0.024c-0.005,0.032-0.009,0.064-0.009,0.096c0,0.006-0.002,0.012-0.002,0.017v22.088
					c0,0.004,0.001,0.008,0.001,0.011c0,0.039,0.004,0.077,0.011,0.114c0.001,0.009,0.004,0.015,0.006,0.022
					c0.007,0.03,0.016,0.059,0.027,0.088c0.004,0.011,0.009,0.021,0.014,0.032c0.003,0.008,0.006,0.016,0.01,0.023
					c0.011,0.021,0.023,0.041,0.036,0.061c0.003,0.005,0.005,0.01,0.008,0.015c0.021,0.03,0.045,0.06,0.071,0.085
					c0.007,0.007,0.014,0.014,0.021,0.02c0.021,0.021,0.043,0.039,0.067,0.057c0.008,0.005,0.016,0.011,0.023,0.016
					c0.031,0.021,0.063,0.038,0.097,0.053c0.007,0.003,0.014,0.005,0.021,0.008c0.028,0.012,0.058,0.021,0.088,0.027
					c0.011,0.003,0.021,0.005,0.032,0.007c0.038,0.007,0.077,0.013,0.116,0.013h22.088c0.049,0,0.097-0.007,0.142-0.017
					c0.014-0.004,0.025-0.009,0.039-0.013c0.032-0.009,0.063-0.021,0.094-0.034c0.015-0.007,0.028-0.016,0.043-0.023
					c0.026-0.015,0.052-0.031,0.076-0.05c0.013-0.01,0.026-0.021,0.039-0.032c0.023-0.021,0.045-0.044,0.064-0.067
					c0.008-0.009,0.016-0.015,0.022-0.024l5.848-7.796c0.003-0.005,0.007-0.011,0.01-0.016c0.007-0.01,0.012-0.019,0.019-0.028
					c0.015-0.024,0.028-0.049,0.04-0.074c0.004-0.01,0.009-0.019,0.013-0.028c0.015-0.034,0.025-0.069,0.033-0.105
					c0.001-0.008,0.002-0.016,0.004-0.024c0.005-0.031,0.008-0.063,0.01-0.096c0-0.006,0.002-0.012,0.002-0.018V21.058
					C50.618,21.054,50.616,21.051,50.616,21.047z M27.229,23.007v5.197h-3.897L27.229,23.007z M22.682,29.503h4.547V42.93
					l-4.547,6.063V29.503z M43.471,50.292H23.332l4.872-6.497h15.267V50.292z M43.471,42.497H28.529V29.503h14.942V42.497
					L43.471,42.497z M43.796,28.204H28.529v-6.497h20.139L43.796,28.204z M44.77,48.993v-5.197h3.898L44.77,48.993z M49.318,42.497
					H44.77V29.07l4.548-6.063V42.497z"/>
			</g>
		</g>
	</g>
</g>
</svg>
