<?xml version="1.0" encoding="utf-8"?>
<!-- Generator: Adobe Illustrator 16.0.0, SVG Export Plug-In . SVG Version: 6.00 Build 0)  -->
<!DOCTYPE svg PUBLIC "-//W3C//DTD SVG 1.1//EN" "http://www.w3.org/Graphics/SVG/1.1/DTD/svg11.dtd">
<svg version="1.1" id="Шар_1" xmlns="http://www.w3.org/2000/svg" xmlns:xlink="http://www.w3.org/1999/xlink" x="0px" y="0px"
	 width="72px" height="72px" viewBox="0 0 72 72" enable-background="new 0 0 72 72" xml:space="preserve">
<g>
	<g>
		<circle fill="#3B4248" cx="36" cy="36" r="35.198"/>
		<path fill="#E0E1E7" d="M36,72C16.15,72,0,55.85,0,36C0,16.149,16.15,0,36,0s36,16.149,36,36C72,55.85,55.85,72,36,72z M36,1.604
			C17.034,1.604,1.604,17.034,1.604,36S17.034,70.396,36,70.396c18.966,0,34.396-15.43,34.396-34.396S54.966,1.604,36,1.604z"/>
	</g>
	<g>
		<g>
			<g>
				<g>
					<path fill="#E0E1E7" d="M36,22.806c-7.275,0-13.194,5.918-13.194,13.194c0,7.274,5.919,13.193,13.194,13.193
						S49.194,43.274,49.194,36C49.194,28.724,43.275,22.806,36,22.806z M44.076,36c0,0.79-0.112,1.564-0.335,2.31l-7.232-2.933
						l-4.318-6.499c1.167-0.625,2.469-0.955,3.809-0.955C40.454,27.923,44.076,31.546,44.076,36z M34.838,35.641l-6.58,2.668
						c-0.222-0.745-0.335-1.519-0.335-2.31c0-2.45,1.104-4.742,2.986-6.271L34.838,35.641z M35.231,47.629
						c-6.07-0.397-10.886-5.462-10.886-11.63c0-6.168,4.816-11.232,10.886-11.629v2.046c-1.627,0.129-3.188,0.667-4.552,1.575
						c0,0,0,0,0,0l0,0h0c-2.688,1.79-4.292,4.784-4.292,8.008c0,1.251,0.237,2.467,0.703,3.614c0.711,1.752,1.914,3.246,3.479,4.319
						c1.392,0.955,2.99,1.518,4.664,1.649V47.629z M28.838,39.734L36,36.83l7.162,2.904c-1.383,2.66-4.116,4.342-7.162,4.342
						C32.954,44.076,30.221,42.395,28.838,39.734z M36.769,47.629v-2.047c1.673-0.132,3.271-0.694,4.663-1.649
						c1.565-1.073,2.768-2.567,3.479-4.318v-0.001l0,0v-0.001c0.467-1.147,0.703-2.363,0.703-3.613c0-5.042-3.902-9.191-8.846-9.584
						V24.37C42.838,24.768,47.655,29.831,47.655,36C47.655,42.167,42.838,47.232,36.769,47.629z"/>
				</g>
			</g>
		</g>
		<g>
			<g>
				<g>
					<path fill="#E0E1E7" d="M54.729,31.587h-3.024c-0.35-1.25-0.846-2.447-1.479-3.574l2.138-2.138c0.3-0.3,0.3-0.787,0-1.087
						l-5.153-5.153c-0.301-0.3-0.787-0.3-1.088,0l-2.137,2.137c-1.127-0.633-2.325-1.128-3.574-1.479v-3.023
						c0-0.425-0.344-0.77-0.769-0.77h-7.286c-0.425,0-0.769,0.345-0.769,0.77v3.023c-1.25,0.35-2.448,0.845-3.574,1.479
						l-2.139-2.137c-0.3-0.3-0.787-0.3-1.087,0l-5.152,5.152c-0.301,0.301-0.301,0.788,0,1.088l2.137,2.137
						c-0.633,1.126-1.129,2.324-1.479,3.574h-3.023c-0.425,0-0.769,0.345-0.769,0.769v7.287c0,0.424,0.344,0.769,0.769,0.769h3.023
						c0.351,1.25,0.846,2.447,1.479,3.574l-2.137,2.138c-0.301,0.3-0.301,0.787,0,1.088l5.152,5.152c0.3,0.3,0.787,0.301,1.087,0
						l2.138-2.138c1.128,0.634,2.325,1.129,3.574,1.479v3.023c0,0.425,0.344,0.77,0.769,0.77h7.286c0.425,0,0.769-0.345,0.769-0.77
						v-3.023c1.249-0.351,2.446-0.846,3.574-1.479l2.137,2.138c0.301,0.3,0.788,0.3,1.088,0l5.153-5.152
						c0.301-0.301,0.301-0.788,0-1.088l-2.138-2.138c0.634-1.127,1.129-2.324,1.479-3.574h3.023c0.425,0,0.77-0.345,0.77-0.769
						v-7.287C55.498,31.932,55.154,31.587,54.729,31.587z M51.111,38.874c-0.356,0-0.665,0.243-0.748,0.589
						c-0.362,1.505-0.953,2.933-1.757,4.245c-0.186,0.303-0.14,0.693,0.111,0.945l2.015,2.015l-4.065,4.064l-2.014-2.015
						c-0.252-0.251-0.643-0.297-0.945-0.111c-1.314,0.805-2.742,1.396-4.244,1.757c-0.347,0.082-0.59,0.392-0.59,0.748v2.85h-5.748
						v-2.85c0-0.356-0.243-0.666-0.589-0.748c-1.502-0.361-2.931-0.952-4.245-1.757c-0.303-0.186-0.694-0.14-0.945,0.111
						l-2.015,2.015l-4.064-4.064l2.014-2.015c0.251-0.251,0.298-0.643,0.112-0.945c-0.804-1.313-1.395-2.739-1.757-4.245
						c-0.083-0.346-0.392-0.589-0.748-0.589H18.04v-5.748h2.849c0.355,0,0.665-0.244,0.748-0.589
						c0.362-1.505,0.953-2.933,1.757-4.245c0.186-0.303,0.139-0.694-0.112-0.946l-2.014-2.014l4.064-4.065l2.015,2.014
						c0.251,0.251,0.643,0.298,0.945,0.112c1.312-0.804,2.74-1.394,4.245-1.756c0.345-0.083,0.589-0.392,0.589-0.748V18.04h5.747
						v2.849c0,0.355,0.243,0.665,0.59,0.748c1.504,0.362,2.933,0.953,4.244,1.757c0.303,0.186,0.693,0.139,0.945-0.112l2.014-2.014
						l4.065,4.065l-2.015,2.014c-0.251,0.251-0.297,0.643-0.111,0.946c0.804,1.312,1.395,2.74,1.757,4.245
						c0.083,0.346,0.392,0.589,0.748,0.589h2.849v5.748H51.111L51.111,38.874z"/>
				</g>
			</g>
		</g>
	</g>
</g>
</svg>
