<?xml version="1.0" encoding="utf-8"?>
<!-- Generator: Adobe Illustrator 16.0.0, SVG Export Plug-In . SVG Version: 6.00 Build 0)  -->
<!DOCTYPE svg PUBLIC "-//W3C//DTD SVG 1.1//EN" "http://www.w3.org/Graphics/SVG/1.1/DTD/svg11.dtd">
<svg version="1.1" id="Шар_1" xmlns="http://www.w3.org/2000/svg" xmlns:xlink="http://www.w3.org/1999/xlink" x="0px" y="0px"
	 width="37px" height="33.801px" viewBox="0 0 37 33.801" enable-background="new 0 0 37 33.801" xml:space="preserve">
<g>
	<path fill="#E0E1E7" d="M23.383,33.801h-9.766c0.601-1.953,0.949-3.995,1.039-6.094h7.688
		C22.434,29.805,22.783,31.847,23.383,33.801z"/>
	<path fill="#E0E1E7" d="M37,23.884c0,1.148-0.934,2.082-2.081,2.082H2.081C0.934,25.966,0,25.033,0,23.884v-0.18h37V23.884
		L37,23.884z"/>
	<path fill="#E0E1E7" d="M34.919,0H2.081C0.934,0,0,0.933,0,2.081v19.883h37V2.081C37,0.933,36.066,0,34.919,0z M13.459,16.597
		c-0.172,0.201-0.417,0.305-0.662,0.305c-0.2,0-0.401-0.069-0.565-0.209l-5.906-5.049c-0.193-0.166-0.305-0.407-0.305-0.662
		s0.111-0.497,0.305-0.662l5.906-5.05c0.365-0.313,0.915-0.269,1.228,0.096c0.312,0.366,0.27,0.915-0.096,1.228l-5.132,4.388
		l5.132,4.387C13.729,15.681,13.772,16.231,13.459,16.597z M21.548,4.431l-4.44,13.64c-0.12,0.367-0.461,0.602-0.828,0.602
		c-0.089,0-0.18-0.014-0.27-0.043c-0.457-0.149-0.707-0.641-0.558-1.098l4.439-13.64c0.149-0.457,0.64-0.708,1.098-0.559
		C21.447,3.482,21.697,3.974,21.548,4.431z M30.674,11.643l-5.906,5.049c-0.164,0.14-0.365,0.209-0.565,0.209
		c-0.246,0-0.49-0.104-0.662-0.305c-0.313-0.366-0.27-0.916,0.096-1.228l5.132-4.387l-5.132-4.388
		c-0.366-0.313-0.409-0.862-0.096-1.228c0.313-0.365,0.862-0.409,1.228-0.096l5.906,5.05c0.193,0.165,0.305,0.407,0.305,0.662
		S30.868,11.478,30.674,11.643z"/>
</g>
</svg>
