<?xml version="1.0" encoding="utf-8"?>
<!-- Generator: Adobe Illustrator 16.0.0, SVG Export Plug-In . SVG Version: 6.00 Build 0)  -->
<!DOCTYPE svg PUBLIC "-//W3C//DTD SVG 1.1//EN" "http://www.w3.org/Graphics/SVG/1.1/DTD/svg11.dtd">
<svg version="1.1" id="Шар_1" xmlns="http://www.w3.org/2000/svg" xmlns:xlink="http://www.w3.org/1999/xlink" x="0px" y="0px"
	 width="58px" height="58px" viewBox="13.519 18.166 58 58" enable-background="new 13.519 18.166 58 58" xml:space="preserve">
<g>
	<circle fill="#393939" cx="42.519" cy="47.167" r="29"/>
	<g>
		<path fill="#FFFFFF" d="M44.68,45.273l4.775-5.804c0.288-0.371,0.453-0.823,0.453-1.276v-4.569c0-1.111-0.905-2.017-2.017-2.017
			H37.147c-1.111,0-2.017,0.905-2.017,2.017v4.569c0,0.453,0.165,0.906,0.453,1.276l4.775,5.804
			c0.247,0.288,0.576,0.535,0.947,0.658c0.412,0.124,0.824,0.206,1.235,0.206c0.411,0,0.823-0.082,1.234-0.206
			C44.104,45.808,44.434,45.561,44.68,45.273z M43.323,44.696c-0.536,0.165-1.112,0.165-1.647,0
			c-0.123-0.04-0.247-0.123-0.329-0.246l-4.775-5.763c-0.124-0.124-0.165-0.288-0.165-0.453v-4.61c0-0.411,0.33-0.741,0.741-0.741
			H47.85c0.412,0,0.741,0.33,0.741,0.741v4.569c0,0.165-0.042,0.33-0.164,0.453l-4.776,5.804
			C43.57,44.573,43.446,44.656,43.323,44.696z"/>
		<path fill="#FFFFFF" d="M34.843,52.97l2.017,1.441l-2.017,1.439c-0.33,0.247-0.453,0.659-0.33,1.029
			c0.124,0.371,0.494,0.659,0.906,0.659h2.676l-0.865,2.675c-0.123,0.371,0,0.824,0.329,1.029c0.33,0.247,0.782,0.247,1.112,0
			l2.182-1.563l0.782,2.388c0.124,0.369,0.495,0.658,0.906,0.658c0.411,0,0.782-0.247,0.905-0.658l0.782-2.388l2.182,1.563
			c0.165,0.124,0.37,0.165,0.535,0.165c0.206,0,0.37-0.041,0.535-0.165c0.33-0.247,0.453-0.658,0.33-1.029l-0.865-2.634h2.676
			c0.411,0,0.782-0.247,0.905-0.658c0.124-0.371,0-0.824-0.329-1.029l-2.018-1.44l2.018-1.441c0.329-0.246,0.453-0.658,0.329-1.029
			c-0.123-0.37-0.494-0.658-0.905-0.658h-2.676l0.865-2.634c0.123-0.371,0-0.824-0.33-1.029c-0.329-0.247-0.782-0.247-1.112,0
			l-2.223,1.481l-0.781-2.388c-0.124-0.37-0.494-0.659-0.906-0.659s-0.783,0.247-0.906,0.659l-0.7,2.388l-2.182-1.564
			c-0.33-0.247-0.782-0.247-1.112,0c-0.329,0.247-0.452,0.658-0.329,1.029l0.865,2.634h-2.676c-0.412,0-0.782,0.247-0.906,0.66
			C34.39,52.311,34.513,52.723,34.843,52.97z M38.794,59.598l0.659-2.018h0.699l0.289,0.823L38.794,59.598z M44.599,58.404
			l0.287-0.823h0.7l0.659,2.018L44.599,58.404z M46.493,52.558h2.017l-1.482,1.07l-0.699-0.535L46.493,52.558z M42.499,48.196
			l0.577,1.77l-0.577,0.412l-0.577-0.412L42.499,48.196z M40.4,50.418l1.111,0.781l0.453,0.33c0.33,0.246,0.783,0.246,1.112,0
			l0.453-0.33l1.11-0.781l1.646-1.194l-0.658,2.017l-0.411,1.277l-0.124,0.411c-0.123,0.37,0,0.823,0.329,1.029l0.577,0.411
			l1.11,0.782l1.482,1.07h-2.017h-1.358H44.68c-0.41,0-0.782,0.247-0.905,0.658L43.57,57.54l-0.413,1.275l-0.658,1.853l-0.577-1.77
			l-0.412-1.276l-0.206-0.699c-0.124-0.371-0.494-0.659-0.905-0.659h-0.535h-1.358h-2.017l1.482-1.07l1.111-0.781L39.659,54
			c0.33-0.247,0.453-0.659,0.33-1.029l-0.124-0.412l-0.412-1.275l-0.659-2.059L40.4,50.418z M38.506,52.558l0.165,0.577l-0.7,0.493
			l-1.482-1.07H38.506z"/>
	</g>
</g>
</svg>
