<?xml version="1.0" encoding="utf-8"?>
<!-- Generator: Adobe Illustrator 16.0.0, SVG Export Plug-In . SVG Version: 6.00 Build 0)  -->
<!DOCTYPE svg PUBLIC "-//W3C//DTD SVG 1.1//EN" "http://www.w3.org/Graphics/SVG/1.1/DTD/svg11.dtd">
<svg version="1.1" id="Шар_1" xmlns="http://www.w3.org/2000/svg" xmlns:xlink="http://www.w3.org/1999/xlink" x="0px" y="0px"
	 width="72px" height="72px" viewBox="0 0 72 72" enable-background="new 0 0 72 72" xml:space="preserve">
<g>
	<g>
		<circle fill="#3B4248" cx="36" cy="36" r="35.198"/>
		<path fill="#E0E1E7" d="M36,72C16.15,72,0,55.85,0,36C0,16.149,16.15,0,36,0s36,16.149,36,36C72,55.85,55.85,72,36,72z M36,1.604
			C17.034,1.604,1.604,17.034,1.604,36S17.034,70.396,36,70.396c18.966,0,34.396-15.43,34.396-34.396S54.966,1.604,36,1.604z"/>
	</g>
	<g>
		<g>
			<path fill="#E0E1E7" d="M34.331,24.304h1.054v5.962c0,0.216,0.175,0.392,0.392,0.392h0.804c0.217,0,0.393-0.176,0.393-0.392
				v-7.129c0-0.216-0.176-0.392-0.393-0.392h-2.25c-0.216,0-0.392,0.176-0.392,0.392v0.774
				C33.939,24.128,34.114,24.304,34.331,24.304z"/>
		</g>
		<g>
			<path fill="#E0E1E7" d="M28.542,45.573H25.59l1.569-1.662c0.624-0.666,1.367-1.653,1.367-2.579c0-1.282-1.029-2.145-2.561-2.145
				c-0.921,0-1.892,0.396-2.663,1.088c-0.135,0.122-0.17,0.32-0.083,0.479l0.355,0.652c0.059,0.107,0.164,0.182,0.285,0.2
				s0.243-0.021,0.331-0.105c0.503-0.486,1.128-0.776,1.672-0.776c0.472,0,1.035,0.125,1.035,0.719c0,0.289-0.267,0.848-0.863,1.443
				c-0.003,0.004-0.008,0.008-0.011,0.012l-2.669,2.902c-0.066,0.072-0.104,0.167-0.104,0.266v0.672
				c0,0.217,0.175,0.392,0.392,0.392h4.899c0.216,0,0.392-0.175,0.392-0.392v-0.774C28.934,45.748,28.758,45.573,28.542,45.573z"/>
		</g>
		<g>
			<path fill="#E0E1E7" d="M45.947,35.005c-0.76,0-1.494,0.107-2.192,0.302L41.58,32.64c1.583-1.488,2.574-3.599,2.574-5.938
				c0-4.496-3.657-8.154-8.154-8.154s-8.154,3.658-8.154,8.154c0,2.339,0.991,4.45,2.575,5.938l-2.175,2.667
				c-0.698-0.195-1.433-0.302-2.192-0.302c-4.497,0-8.155,3.657-8.155,8.153s3.658,8.154,8.155,8.154c4.2,0,7.668-3.192,8.106-7.279
				h3.682c0.438,4.087,3.905,7.279,8.105,7.279c4.497,0,8.155-3.658,8.155-8.154S50.444,35.005,45.947,35.005z M29.4,26.702
				c0-3.639,2.961-6.6,6.6-6.6s6.6,2.96,6.6,6.6s-2.961,6.6-6.6,6.6S29.4,30.341,29.4,26.702z M31.489,33.491
				c1.293,0.862,2.844,1.365,4.511,1.365c1.667,0,3.218-0.503,4.511-1.365l1.896,2.324c-2.588,1.253-4.417,3.835-4.598,6.854H34.19
				c-0.18-3.019-2.009-5.601-4.597-6.854L31.489,33.491z M26.053,49.759c-3.64,0-6.6-2.961-6.6-6.601c0-3.639,2.96-6.599,6.6-6.599
				c3.639,0,6.599,2.96,6.599,6.599C32.652,46.798,29.692,49.759,26.053,49.759z M45.947,49.759c-3.639,0-6.6-2.961-6.6-6.601
				c0-3.639,2.961-6.599,6.6-6.599c3.64,0,6.601,2.96,6.601,6.599C52.547,46.798,49.586,49.759,45.947,49.759z"/>
		</g>
		<g>
			<path fill="#E0E1E7" d="M46.596,42.262l1.685-1.871c0.065-0.071,0.101-0.165,0.101-0.262v-0.55c0-0.217-0.175-0.393-0.392-0.393
				h-4.104c-0.217,0-0.392,0.176-0.392,0.393v0.774c0,0.216,0.175,0.392,0.392,0.392h2.203l-1.496,1.657
				c-0.065,0.072-0.102,0.166-0.102,0.263v0.519c0,0.217,0.176,0.393,0.392,0.393h0.877c0.915,0,1.379,0.324,1.379,0.962
				c0,0.673-0.512,1.075-1.369,1.075c-0.562,0-1.144-0.213-1.596-0.584c-0.092-0.074-0.211-0.104-0.327-0.081
				c-0.115,0.024-0.214,0.099-0.269,0.203l-0.357,0.683c-0.09,0.172-0.039,0.385,0.118,0.498c0.691,0.5,1.623,0.798,2.491,0.798
				c1.727,0,2.887-1.054,2.887-2.622C48.717,43.311,47.898,42.46,46.596,42.262z"/>
		</g>
	</g>
</g>
</svg>
