<?xml version="1.0" encoding="utf-8"?>
<!-- Generator: Adobe Illustrator 16.0.0, SVG Export Plug-In . SVG Version: 6.00 Build 0)  -->
<!DOCTYPE svg PUBLIC "-//W3C//DTD SVG 1.1//EN" "http://www.w3.org/Graphics/SVG/1.1/DTD/svg11.dtd">
<svg version="1.1" id="Шар_1" xmlns="http://www.w3.org/2000/svg" xmlns:xlink="http://www.w3.org/1999/xlink" x="0px" y="0px"
	 width="46px" height="46px" viewBox="0 0 46 46" enable-background="new 0 0 46 46" xml:space="preserve" fill="#e0e1e8">
<g>
	<path d="M28.787,23c0-3.195-2.602-5.787-5.788-5.787S17.212,19.804,17.212,23c0,3.196,2.601,5.788,5.787,5.788
		S28.787,26.195,28.787,23z"/>
	<path d="M23,26.525c-1.942,0-3.525-1.583-3.525-3.526c0-1.942,1.583-3.525,3.525-3.525c1.943,0,3.526,1.583,3.526,3.525
		C26.525,24.942,24.942,26.525,23,26.525z"/>
	<path d="M14.62,21.869c-0.622,0-1.131,0.509-1.131,1.131s0.509,1.131,1.131,1.131c0.622,0,1.132-0.509,1.132-1.131
		S15.242,21.869,14.62,21.869z"/>
	<path d="M9.784,23c0,0.622,0.509,1.131,1.132,1.131c0.622,0,1.131-0.509,1.131-1.131s-0.509-1.131-1.131-1.131
		C10.293,21.869,9.784,22.377,9.784,23z"/>
	<path d="M8.342,23c0-2.3-1.876-4.176-4.175-4.176C1.866,18.824,0,20.699,0,23s1.875,4.176,4.176,4.176
		C6.476,27.176,8.342,25.3,8.342,23z M4.176,24.913c-1.056,0-1.914-0.857-1.914-1.914c0-1.056,0.858-1.913,1.914-1.913
		c1.055,0,1.913,0.857,1.913,1.913C6.089,24.056,5.222,24.913,4.176,24.913z"/>
	<circle cx="35.084" cy="23" r="1.131"/>
	<path d="M31.38,24.131c0.621,0,1.131-0.509,1.131-1.131s-0.51-1.131-1.131-1.131c-0.622,0-1.131,0.509-1.131,1.131
		S30.758,24.131,31.38,24.131z"/>
	<path d="M41.824,18.824c-2.301,0-4.177,1.875-4.177,4.176s1.876,4.176,4.177,4.176C44.124,27.176,46,25.3,46,23
		S44.124,18.824,41.824,18.824z M41.824,24.913c-1.057,0-1.914-0.857-1.914-1.914c0-1.056,0.857-1.913,1.914-1.913
		c1.056,0,1.914,0.857,1.914,1.913C43.738,24.056,42.88,24.913,41.824,24.913z"/>
	<path d="M23,30.248c-0.622,0-1.131,0.51-1.131,1.132c0,0.621,0.509,1.131,1.131,1.131c0.623,0,1.131-0.51,1.131-1.131
		C24.131,30.758,23.622,30.248,23,30.248z"/>
	<path d="M23,33.953c-0.622,0-1.131,0.509-1.131,1.131c0,0.623,0.509,1.131,1.131,1.131c0.623,0,1.131-0.508,1.131-1.131
		C24.131,34.462,23.622,33.953,23,33.953z"/>
	<path d="M23,37.657c-2.3,0-4.176,1.877-4.176,4.176C18.824,44.134,20.699,46,23,46s4.176-1.876,4.176-4.176
		C27.176,39.523,25.3,37.657,23,37.657z M23,43.738c-1.056,0-1.913-0.858-1.913-1.914c0-1.057,0.857-1.914,1.913-1.914
		c1.056,0,1.914,0.857,1.914,1.914C24.913,42.88,24.056,43.738,23,43.738z"/>
	<path d="M23,15.751c0.623,0,1.131-0.51,1.131-1.132c0-0.622-0.509-1.131-1.131-1.131c-0.622,0-1.131,0.509-1.131,1.131
		C21.869,15.242,22.377,15.751,23,15.751z"/>
	<circle cx="23" cy="10.915" r="1.131"/>
	<path d="M23,8.342c2.3,0,4.176-1.876,4.176-4.175C27.176,1.866,25.3,0,23,0s-4.176,1.875-4.176,4.176S20.699,8.342,23,8.342z
		 M23,2.262c1.056,0,1.914,0.858,1.914,1.914c0,1.055-0.857,1.913-1.914,1.913c-1.056,0-1.913-0.858-1.913-1.913
		C21.086,3.12,21.944,2.262,23,2.262z"/>
	<path d="M16.278,28.128c-0.442,0.443-0.442,1.159,0,1.602c0.443,0.443,1.16,0.443,1.603,0c0.443-0.442,0.443-1.158,0-1.602
		C17.429,27.685,16.712,27.685,16.278,28.128z"/>
	<circle cx="14.459" cy="31.54" r="1.131"/>
	<path d="M6.74,33.359c-1.631,1.631-1.631,4.27,0,5.9c1.63,1.631,4.27,1.631,5.9,0c1.631-1.631,1.631-4.27,0-5.9
		C11.01,31.737,8.361,31.737,6.74,33.359z M11.038,37.667c-0.745,0.744-1.951,0.744-2.696,0c-0.745-0.745-0.745-1.951,0-2.696
		c0.745-0.744,1.951-0.744,2.696,0C11.783,35.707,11.783,36.922,11.038,37.667z"/>
	<circle cx="31.54" cy="14.46" r="1.131"/>
	<circle cx="28.929" cy="17.071" r="1.131"/>
	<path d="M39.26,12.64c1.631-1.63,1.631-4.27,0-5.9c-1.631-1.631-4.27-1.631-5.9,0c-1.631,1.63-1.631,4.27,0,5.9
		C34.99,14.271,37.639,14.262,39.26,12.64z M34.962,8.333c0.745-0.745,1.95-0.745,2.695,0c0.745,0.744,0.745,1.951,0,2.695
		c-0.745,0.745-1.95,0.745-2.695,0C34.217,10.293,34.217,9.077,34.962,8.333z"/>
	<circle cx="31.54" cy="31.54" r="1.131"/>
	<path d="M28.128,28.128c-0.443,0.443-0.443,1.159,0,1.602c0.442,0.443,1.159,0.443,1.602,0c0.443-0.442,0.443-1.158,0-1.602
		C29.287,27.685,28.57,27.685,28.128,28.128z"/>
	<path d="M33.359,33.359c-1.631,1.631-1.631,4.27,0,5.9s4.27,1.631,5.9,0s1.631-4.27,0-5.9
		C37.639,31.737,34.99,31.737,33.359,33.359z M37.667,37.667c-0.745,0.744-1.951,0.744-2.696,0c-0.744-0.745-0.744-1.951,0-2.696
		c0.745-0.744,1.951-0.744,2.696,0C38.411,35.707,38.411,36.922,37.667,37.667z"/>
	<circle cx="17.071" cy="17.071" r="1.131"/>
	<circle cx="14.459" cy="14.46" r="1.131"/>
	<path d="M12.64,12.64c1.631-1.63,1.631-4.27,0-5.9c-1.63-1.631-4.27-1.631-5.9,0c-1.631,1.63-1.631,4.27,0,5.9
		C8.361,14.262,11.01,14.262,12.64,12.64z M8.333,8.333c0.745-0.745,1.951-0.745,2.696,0c0.745,0.744,0.745,1.951,0,2.695
		c-0.745,0.745-1.951,0.745-2.696,0C7.588,10.293,7.588,9.077,8.333,8.333z"/>
</g>
</svg>
