<?xml version="1.0" encoding="utf-8"?>
<!-- Generator: Adobe Illustrator 16.0.0, SVG Export Plug-In . SVG Version: 6.00 Build 0)  -->
<!DOCTYPE svg PUBLIC "-//W3C//DTD SVG 1.1//EN" "http://www.w3.org/Graphics/SVG/1.1/DTD/svg11.dtd">
<svg version="1.1" id="Шар_1" xmlns="http://www.w3.org/2000/svg" xmlns:xlink="http://www.w3.org/1999/xlink" x="0px" y="0px"
	 width="38px" height="44.291px" viewBox="0 0 38 44.291" enable-background="new 0 0 38 44.291" xml:space="preserve" fill="#e0e1e7">
<g>
	<path d="M0,25.07c0.009-0.05,0.024-0.1,0.025-0.15c0.05-2.768,0.685-5.396,1.887-7.889c0.551-1.141,1.216-2.213,1.982-3.222
		c0.047-0.063,0.096-0.124,0.15-0.192c0.685,0.339,1.298,0.799,2.014,1.086c-0.229,0.402-0.467,0.817-0.703,1.232
		c-0.207,0.363-0.146,0.588,0.218,0.795c0.393,0.224,0.786,0.449,1.18,0.67c0.276,0.156,0.525,0.089,0.684-0.185
		c0.242-0.419,0.483-0.839,0.721-1.262c0.147-0.262,0.072-0.522-0.19-0.674c-0.392-0.226-0.786-0.448-1.179-0.673
		c-0.049-0.027-0.096-0.059-0.12-0.073c0.185-0.311,0.366-0.611,0.541-0.914c0.311-0.538,0.619-1.077,0.925-1.617
		c0.274-0.481,0.146-0.929-0.335-1.207c-0.519-0.3-1.038-0.601-1.556-0.903C5.861,9.671,5.758,9.282,5.979,8.893
		c0.347-0.608,0.694-1.216,1.043-1.822C7.249,6.68,7.641,6.575,8.035,6.8C8.643,7.147,9.25,7.495,9.857,7.844
		c0.379,0.218,0.489,0.603,0.277,0.985C9.82,9.395,9.505,9.958,9.188,10.521c-0.28,0.498-0.158,0.943,0.331,1.233
		c1.521,0.903,3.083,1.73,4.672,2.505c0.056,0.027,0.11,0.057,0.178,0.092c-0.132,0.229-0.258,0.446-0.382,0.664
		c-0.887,1.548-1.751,3.108-2.397,4.777c-0.44,1.136-0.796,2.295-0.958,3.508c-0.507,3.77,0.486,7.085,3.047,9.9
		c1.687,1.854,3.782,3.037,6.246,3.521c2.461,0.482,4.846,0.18,7.125-0.852c2.591-1.173,4.57-3.018,5.878-5.553
		c0.762-1.476,1.173-3.052,1.198-4.716c0.047-3.127-0.854-5.935-2.874-8.35c-1.047-1.251-2.323-2.208-3.819-2.867
		c-0.048-0.021-0.096-0.044-0.143-0.067c-0.003-0.001-0.003-0.009-0.014-0.042c0.284,0.048,0.555,0.089,0.824,0.141
		c1.732,0.334,3.365,0.929,4.84,1.91c2.44,1.622,3.973,3.882,4.681,6.713c0.199,0.794,0.313,1.601,0.354,2.417
		c0.001,0.04,0.016,0.079,0.025,0.119v1.296c-0.009,0.05-0.022,0.1-0.027,0.151c-0.026,0.31-0.042,0.62-0.078,0.928
		c-0.236,2-0.826,3.894-1.715,5.696c-1.226,2.488-2.925,4.604-5.072,6.355c-3.129,2.552-6.718,3.953-10.745,4.231
		c-0.254,0.018-0.508,0.039-0.763,0.058h-1.17c-0.04-0.008-0.079-0.024-0.12-0.025c-0.991-0.026-1.974-0.138-2.946-0.331
		c-3.774-0.75-7.03-2.481-9.765-5.187c-1.521-1.505-2.747-3.227-3.681-5.153c-1.208-2.495-1.843-5.127-1.895-7.9
		c-0.001-0.05-0.017-0.1-0.025-0.15V25.07z"/>
	<path d="M19.189,0c0.391,0.223,0.783,0.445,1.174,0.669c0.309,0.177,0.367,0.387,0.192,0.693c-0.195,0.342-0.391,0.685-0.587,1.026
		c-0.148,0.255-0.371,0.316-0.628,0.171c-0.357-0.201-0.713-0.404-1.068-0.61c-0.259-0.15-0.315-0.365-0.167-0.627
		c0.181-0.32,0.369-0.637,0.545-0.96C18.735,0.207,18.835,0.074,19,0H19.189z"/>
	<path d="M20.772,15.555c-0.031,0.09-0.062,0.265-0.145,0.412c-0.497,0.885-1.003,1.766-1.511,2.645
		c-0.297,0.515-0.852,0.66-1.372,0.364c-0.868-0.495-1.736-0.992-2.603-1.49c-0.531-0.305-0.681-0.863-0.377-1.393
		c0.494-0.863,0.988-1.726,1.482-2.588c0.305-0.532,0.86-0.684,1.391-0.381c0.873,0.499,1.745,0.999,2.618,1.497
		C20.587,14.81,20.75,15.097,20.772,15.555"/>
	<path d="M17.389,8.215c-0.046,0.132-0.073,0.275-0.14,0.395c-0.401,0.716-0.811,1.428-1.221,2.139
		c-0.227,0.394-0.679,0.519-1.077,0.294c-0.72-0.406-1.438-0.815-2.153-1.228c-0.394-0.228-0.521-0.685-0.298-1.079
		c0.407-0.719,0.818-1.436,1.233-2.15c0.233-0.402,0.687-0.522,1.091-0.292c0.714,0.405,1.425,0.815,2.137,1.224
		C17.226,7.67,17.36,7.9,17.389,8.215"/>
	<path d="M18.343,6.393c0.033-0.092,0.053-0.192,0.1-0.277c0.268-0.477,0.54-0.951,0.814-1.425c0.163-0.28,0.462-0.366,0.747-0.207
		c0.486,0.272,0.97,0.55,1.451,0.831c0.265,0.155,0.349,0.454,0.199,0.725c-0.276,0.497-0.558,0.99-0.846,1.48
		c-0.144,0.247-0.434,0.335-0.686,0.197c-0.517-0.282-1.028-0.576-1.536-0.875C18.427,6.748,18.353,6.59,18.343,6.393"/>
</g>
</svg>
