<?xml version="1.0" encoding="utf-8"?>
<!-- Generator: Adobe Illustrator 16.0.0, SVG Export Plug-In . SVG Version: 6.00 Build 0)  -->
<!DOCTYPE svg PUBLIC "-//W3C//DTD SVG 1.1//EN" "http://www.w3.org/Graphics/SVG/1.1/DTD/svg11.dtd">
<svg version="1.1" id="Шар_1" xmlns="http://www.w3.org/2000/svg" xmlns:xlink="http://www.w3.org/1999/xlink" x="0px" y="0px"
	 width="72px" height="72px" viewBox="0 0 72 72" enable-background="new 0 0 72 72" xml:space="preserve">
<g>
	<g>
		<circle fill="#3B4248" cx="36" cy="36" r="35.198"/>
		<path fill="#E0E1E7" d="M36,72C16.15,72,0,55.85,0,36C0,16.149,16.15,0,36,0s36,16.149,36,36C72,55.85,55.85,72,36,72z M36,1.604
			C17.034,1.604,1.604,17.034,1.604,36S17.034,70.396,36,70.396c18.966,0,34.396-15.43,34.396-34.396S54.966,1.604,36,1.604z"/>
	</g>
	<g>
		<g>
			<g>
				<g>
					<path fill="#E0E1E7" d="M48.13,27.19v-3.32h-3.32v-5.231h-2.265v5.231h-2.854v-5.231h-2.265v5.231h-2.854v-5.231h-2.265v5.231
						h-2.854v-5.231H27.19v5.231h-3.32v3.32h-5.231v2.265h5.231v2.854h-5.231v2.265h5.231v2.854h-5.231v2.265h5.231v2.854h-5.231
						v2.265h5.231v3.32h3.32v5.231h2.265V48.13h2.854v5.231h2.265V48.13h2.854v5.231h2.265V48.13h2.854v5.231h2.265V48.13h3.32
						v-3.32h5.231v-2.265H48.13v-2.854h5.231v-2.265H48.13v-2.854h5.231v-2.265H48.13v-2.854h5.231V27.19H48.13L48.13,27.19z
						 M45.866,45.866L45.866,45.866H26.134V26.134h19.731V45.866z"/>
					<path fill="#3B4248" d="M45.078,53.629h-2.8v-5.231h-2.319v5.231H37.16v-5.231H34.84v5.231h-2.799v-5.231h-2.319v5.231h-2.799
						v-5.231h-3.321v-3.32h-5.231v-2.8h5.231v-2.319h-5.231V37.16h5.231V34.84h-5.231v-2.799h5.231v-2.319h-5.231v-2.799h5.231
						v-3.32h3.321v-5.231h2.799v5.231h2.319v-5.231h2.799v5.231h2.319v-5.231h2.799v5.231h2.319v-5.231h2.8v5.231h3.32v3.32h5.231
						v2.799h-5.231v2.319h5.231v2.799h-5.231v2.319h5.231v2.799h-5.231v2.319h5.231v2.8h-5.231v3.32h-3.32V53.629z M42.813,53.094
						h1.729v-5.231h3.32v-3.32h5.231v-1.729h-5.231v-3.389h5.231v-1.729h-5.231v-3.389h5.231v-1.73h-5.231v-3.389h5.231v-1.729
						h-5.231v-3.32h-3.32v-5.231h-1.729v5.231h-3.389v-5.231h-1.729v5.231h-3.389v-5.231h-1.73v5.231h-3.389v-5.231h-1.729v5.231
						h-3.321v3.32h-5.231v1.729h5.231v3.389h-5.231v1.73h5.231v3.389h-5.231v1.729h5.231v3.389h-5.231v1.729h5.231v3.32h3.321v5.231
						h1.729v-5.231h3.389v5.231h1.73v-5.231h3.389v5.231h1.729v-5.231h3.389V53.094z M46.133,46.133H25.867V25.867h20.266V46.133z
						 M26.402,45.598h19.196V26.402H26.402V45.598z"/>
				</g>
			</g>
		</g>
		<g>
			<g>
				<g>
					<path fill="#E0E1E7" d="M44.123,34.205c0-1.554-0.963-2.91-2.334-3.475c-0.094-1.827-1.609-3.284-3.458-3.284
						c-0.896,0-1.715,0.343-2.331,0.904c-0.616-0.561-1.434-0.904-2.33-0.904c-1.849,0-3.365,1.458-3.458,3.284
						c-1.372,0.565-2.335,1.921-2.335,3.475c0,0.649,0.166,1.261,0.457,1.794c-0.297,0.546-0.457,1.162-0.457,1.796
						c0,1.568,0.967,2.914,2.335,3.476c0.094,1.826,1.609,3.283,3.458,3.283c0.896,0,1.714-0.343,2.33-0.904
						c0.616,0.562,1.434,0.904,2.331,0.904c1.849,0,3.364-1.457,3.458-3.283c1.368-0.562,2.334-1.907,2.334-3.476
						c0-0.635-0.159-1.25-0.457-1.796C43.958,35.466,44.123,34.854,44.123,34.205z M34.868,41.092c0,0.66-0.537,1.197-1.198,1.197
						c-0.539,0-0.996-0.357-1.146-0.848c0.723-0.177,1.386-0.565,1.893-1.126l-1.679-1.521c-0.286,0.316-0.679,0.491-1.105,0.491
						c-0.823,0-1.492-0.67-1.492-1.491c0-0.048,0.002-0.095,0.006-0.142c0.456,0.197,0.958,0.308,1.485,0.308v-2.265
						c-0.823,0-1.492-0.669-1.492-1.492c0-0.536,0.289-1.013,0.721-1.276c0.391,0.545,0.939,0.978,1.591,1.222l0.795-2.12
						c-0.465-0.174-0.777-0.625-0.777-1.123c0-0.661,0.537-1.198,1.198-1.198s1.198,0.537,1.198,1.198V41.092z M41.852,37.654
						c0.004,0.047,0.006,0.094,0.006,0.142c0,0.822-0.669,1.491-1.491,1.491c-0.427,0-0.819-0.175-1.105-0.491l-1.679,1.521
						c0.508,0.561,1.171,0.949,1.894,1.126c-0.15,0.49-0.606,0.848-1.146,0.848c-0.661,0-1.198-0.537-1.198-1.197V30.908
						c0-0.661,0.537-1.198,1.198-1.198c0.66,0,1.198,0.537,1.198,1.198c0,0.497-0.313,0.948-0.777,1.123l0.795,2.12
						c0.652-0.245,1.199-0.677,1.591-1.222c0.434,0.263,0.721,0.74,0.721,1.276c0,0.823-0.669,1.492-1.491,1.492v2.265
						C40.894,37.961,41.396,37.851,41.852,37.654z"/>
					<path fill="#3B4248" d="M38.331,44.822c-0.851,0-1.67-0.29-2.331-0.82c-0.661,0.53-1.479,0.82-2.33,0.82
						c-1.931,0-3.53-1.467-3.712-3.37c-1.432-0.656-2.348-2.074-2.348-3.656c0-0.623,0.146-1.24,0.423-1.796
						c-0.277-0.555-0.423-1.172-0.423-1.794c0-1.58,0.916-2.997,2.347-3.656c0.181-1.903,1.781-3.371,3.713-3.371
						c0.851,0,1.669,0.289,2.33,0.819c0.661-0.53,1.479-0.819,2.331-0.819c1.931,0,3.53,1.467,3.713,3.371
						c1.431,0.659,2.347,2.076,2.347,3.656c0,0.623-0.146,1.24-0.423,1.794c0.277,0.555,0.423,1.173,0.423,1.796
						c0,1.583-0.916,3-2.347,3.656C41.861,43.355,40.261,44.822,38.331,44.822z M36,43.289l0.18,0.164
						c0.59,0.538,1.354,0.834,2.15,0.834c1.702,0,3.104-1.33,3.19-3.029l0.009-0.17l0.157-0.063
						c1.317-0.541,2.169-1.808,2.169-3.229c0-0.582-0.147-1.159-0.425-1.668l-0.069-0.128l0.069-0.128
						c0.277-0.508,0.425-1.084,0.425-1.666c0-1.418-0.852-2.685-2.169-3.228l-0.157-0.064l-0.009-0.169
						c-0.087-1.699-1.488-3.03-3.19-3.03c-0.797,0-1.561,0.296-2.15,0.833L36,28.711l-0.18-0.165
						c-0.59-0.538-1.354-0.833-2.15-0.833c-1.703,0-3.104,1.331-3.191,3.03l-0.009,0.169l-0.156,0.064
						c-1.318,0.543-2.169,1.81-2.169,3.228c0,0.582,0.146,1.158,0.424,1.666l0.07,0.128l-0.07,0.128
						c-0.277,0.509-0.424,1.086-0.424,1.668c0,1.421,0.851,2.688,2.169,3.229l0.157,0.063l0.009,0.17
						c0.087,1.699,1.489,3.029,3.191,3.029c0.796,0,1.56-0.296,2.15-0.834L36,43.289z M38.331,42.557
						c-0.809,0-1.466-0.657-1.466-1.465V30.908c0-0.808,0.657-1.465,1.466-1.465c0.808,0,1.466,0.657,1.466,1.465
						c0,0.517-0.277,0.994-0.71,1.256l0.612,1.632c0.484-0.23,0.903-0.58,1.222-1.023l0.145-0.201l0.212,0.129
						c0.523,0.318,0.849,0.895,0.849,1.504c0,0.879-0.648,1.61-1.491,1.739v1.741c0.384-0.029,0.756-0.121,1.111-0.275l0.338-0.146
						l0.034,0.366c0.006,0.055,0.008,0.109,0.008,0.166c0,0.97-0.789,1.758-1.759,1.758c-0.412,0-0.798-0.138-1.109-0.394
						l-1.29,1.168c0.439,0.415,0.978,0.709,1.572,0.854l0.274,0.067l-0.083,0.271C39.542,42.14,38.978,42.557,38.331,42.557z
						 M37.4,40.512v0.58c0,0.513,0.417,0.931,0.931,0.931c0.311,0,0.6-0.16,0.77-0.411C38.448,41.396,37.865,41.02,37.4,40.512z
						 M38.331,29.978c-0.514,0-0.931,0.417-0.931,0.931v9.212l0.003-0.003l1.877-1.699l0.179,0.198
						c0.236,0.26,0.559,0.402,0.908,0.402c0.589,0,1.083-0.418,1.198-0.974c-0.387,0.122-0.788,0.184-1.198,0.184h-0.268v-2.8h0.268
						c0.675,0,1.225-0.549,1.225-1.225c0-0.345-0.15-0.674-0.403-0.905c-0.413,0.497-0.944,0.875-1.548,1.102l-0.25,0.094
						l-0.983-2.621l0.25-0.094c0.361-0.135,0.604-0.486,0.604-0.872C39.261,30.395,38.843,29.978,38.331,29.978z M33.67,42.557
						c-0.638,0-1.214-0.426-1.401-1.037l-0.083-0.271l0.275-0.067c0.595-0.146,1.134-0.439,1.572-0.854l-1.289-1.168
						c-0.312,0.256-0.698,0.394-1.11,0.394c-0.97,0-1.759-0.788-1.759-1.758c0-0.057,0.002-0.111,0.007-0.166l0.034-0.367
						l0.338,0.146c0.355,0.154,0.728,0.246,1.111,0.275v-1.741c-0.843-0.129-1.491-0.859-1.491-1.739
						c0-0.609,0.325-1.186,0.849-1.504l0.211-0.129l0.145,0.201c0.318,0.443,0.737,0.793,1.222,1.024l0.612-1.632
						c-0.433-0.262-0.709-0.739-0.709-1.256c0-0.808,0.657-1.465,1.465-1.465c0.808,0,1.465,0.657,1.465,1.465v10.184
						C35.135,41.9,34.478,42.557,33.67,42.557z M32.899,41.612c0.171,0.251,0.459,0.411,0.771,0.411
						c0.513,0,0.931-0.418,0.931-0.931v-0.58C34.136,41.02,33.553,41.396,32.899,41.612z M32.72,38.418l1.88,1.702v-9.212
						c0-0.513-0.417-0.931-0.931-0.931s-0.931,0.417-0.931,0.931c0,0.386,0.243,0.737,0.604,0.872l0.25,0.094l-0.983,2.621
						l-0.25-0.094c-0.604-0.227-1.135-0.605-1.548-1.102c-0.252,0.231-0.402,0.561-0.402,0.905c0,0.675,0.549,1.225,1.224,1.225
						H31.9v2.8h-0.267c-0.411,0-0.812-0.062-1.198-0.184c0.116,0.556,0.609,0.974,1.198,0.974c0.35,0,0.672-0.143,0.908-0.402
						L32.72,38.418z"/>
				</g>
			</g>
		</g>
	</g>
</g>
</svg>
