<?xml version="1.0" encoding="utf-8"?>
<!-- Generator: Adobe Illustrator 16.0.0, SVG Export Plug-In . SVG Version: 6.00 Build 0)  -->
<!DOCTYPE svg PUBLIC "-//W3C//DTD SVG 1.1//EN" "http://www.w3.org/Graphics/SVG/1.1/DTD/svg11.dtd">
<svg version="1.1" id="Шар_1" xmlns="http://www.w3.org/2000/svg" xmlns:xlink="http://www.w3.org/1999/xlink" x="0px" y="0px"
	 width="57px" height="57px" viewBox="0 0 57 57" enable-background="new 0 0 57 57" xml:space="preserve">
<g>
	<g>
		<circle fill="#ECEFF1" cx="28.5" cy="28.5" r="27.865"/>
		<path fill="#C2C2C2" d="M28.5,57C12.785,57,0,44.215,0,28.5S12.785,0,28.5,0S57,12.785,57,28.5S44.215,57,28.5,57z M28.5,1.27
			C13.485,1.27,1.27,13.485,1.27,28.5S13.485,55.73,28.5,55.73S55.73,43.515,55.73,28.5S43.515,1.27,28.5,1.27z"/>
	</g>
	<g>
		<g>
			<g>
				<g>
					<path fill="#55666C" d="M39.117,19.858H17.883c-0.409,0-0.74,0.332-0.74,0.741v3.688h22.715v-3.688
						C39.858,20.19,39.526,19.858,39.117,19.858z M31.44,23.06c-0.544,0-0.987-0.443-0.987-0.988c0-0.544,0.443-0.987,0.987-0.987
						c0.545,0,0.988,0.443,0.988,0.987C32.428,22.617,31.985,23.06,31.44,23.06z M34.131,23.06c-0.544,0-0.987-0.443-0.987-0.988
						c0-0.544,0.443-0.987,0.987-0.987c0.545,0,0.988,0.443,0.988,0.987C35.119,22.617,34.676,23.06,34.131,23.06z M36.822,23.06
						c-0.545,0-0.988-0.443-0.988-0.988c0-0.544,0.443-0.987,0.988-0.987c0.544,0,0.987,0.443,0.987,0.987
						C37.809,22.617,37.366,23.06,36.822,23.06z"/>
				</g>
			</g>
		</g>
		<g>
			<g>
				<g>
					<path fill="#55666C" d="M17.143,25.768v10.633c0,0.409,0.332,0.741,0.74,0.741h21.234c0.409,0,0.741-0.332,0.741-0.741V25.768
						H17.143z M27.588,32.019l-2.424,2.063c-0.312,0.265-0.779,0.228-1.044-0.084c-0.266-0.312-0.228-0.779,0.083-1.044l1.762-1.499
						l-1.762-1.5c-0.311-0.265-0.349-0.732-0.083-1.044c0.265-0.312,0.732-0.349,1.044-0.084l2.424,2.063
						C27.936,31.186,27.936,31.723,27.588,32.019z M32.316,34.259h-2.926c-0.409,0-0.741-0.332-0.741-0.741s0.332-0.741,0.741-0.741
						h2.926c0.409,0,0.741,0.332,0.741,0.741S32.725,34.259,32.316,34.259z"/>
				</g>
			</g>
		</g>
	</g>
</g>
</svg>
