<?xml version="1.0" encoding="utf-8"?>
<!-- Generator: Adobe Illustrator 16.0.0, SVG Export Plug-In . SVG Version: 6.00 Build 0)  -->
<!DOCTYPE svg PUBLIC "-//W3C//DTD SVG 1.1//EN" "http://www.w3.org/Graphics/SVG/1.1/DTD/svg11.dtd">
<svg version="1.1" id="Шар_1" xmlns="http://www.w3.org/2000/svg" xmlns:xlink="http://www.w3.org/1999/xlink" x="0px" y="0px"
	 width="57px" height="57px" viewBox="0 0 57 57" enable-background="new 0 0 57 57" xml:space="preserve">
<g>
	<g>
		<circle fill="#ECEFF1" cx="28.5" cy="28.5" r="27.865"/>
		<path fill="#C2C2C2" d="M28.5,57C12.785,57,0,44.215,0,28.5C0,12.785,12.785,0,28.5,0C44.215,0,57,12.785,57,28.5
			C57,44.215,44.215,57,28.5,57z M28.5,1.27C13.485,1.27,1.27,13.485,1.27,28.5c0,15.015,12.215,27.23,27.23,27.23
			c15.015,0,27.23-12.215,27.23-27.23C55.73,13.485,43.515,1.27,28.5,1.27z"/>
	</g>
	<g>
		<g>
			<path fill="#5B666B" d="M21.589,35.493l-4.246,1.138l1.163-4.337c-0.801-1.376-1.262-2.976-1.262-4.682
				c0-5.148,4.173-9.322,9.322-9.322c5.147,0,9.321,4.174,9.321,9.322s-4.174,9.322-9.321,9.322
				C24.734,36.933,23.029,36.405,21.589,35.493z"/>
		</g>
		<g>
			<path fill="#5B666B" d="M39.666,38.434L35.803,37.4c-1.311,0.829-2.861,1.311-4.526,1.311c-1.187,0-2.315-0.245-3.34-0.686
				c5.146-0.674,9.135-5.085,9.135-10.413c0-1.543-0.338-3.009-0.938-4.331c2.19,1.533,3.624,4.074,3.624,6.949
				c0,1.553-0.42,3.008-1.148,4.26L39.666,38.434z"/>
		</g>
	</g>
</g>
</svg>
