<?xml version="1.0" encoding="utf-8"?>
<!-- Generator: Adobe Illustrator 16.0.0, SVG Export Plug-In . SVG Version: 6.00 Build 0)  -->
<!DOCTYPE svg PUBLIC "-//W3C//DTD SVG 1.1//EN" "http://www.w3.org/Graphics/SVG/1.1/DTD/svg11.dtd">
<svg version="1.1" id="Шар_1" xmlns="http://www.w3.org/2000/svg" xmlns:xlink="http://www.w3.org/1999/xlink" x="0px" y="0px"
	 width="57px" height="57px" viewBox="0 0 57 57" enable-background="new 0 0 57 57" xml:space="preserve">
<g>
	<g>
		<circle fill="#ECEFF1" cx="28.5" cy="28.5" r="27.865"/>
		<path fill="#C2C2C2" d="M28.501,57C12.785,57,0,44.215,0,28.5C0,12.785,12.785,0,28.501,0C44.216,0,57,12.785,57,28.5
			C57,44.215,44.216,57,28.501,57z M28.501,1.27c-15.016,0-27.23,12.215-27.23,27.23c0,15.015,12.215,27.23,27.23,27.23
			c15.015,0,27.229-12.215,27.229-27.23C55.73,13.485,43.516,1.27,28.501,1.27z"/>
	</g>
	<g>
		<g>
			<path fill-rule="evenodd" clip-rule="evenodd" fill="#55666C" d="M42.815,37.882c-0.901,0.983-1.802,1.966-2.805,3.061
				c0-0.646,0-1.174,0-1.776c-1.977,0-3.867,0-5.71,0c0.982-0.805,1.948-1.61,2.936-2.389c0.146-0.114,0.389-0.139,0.588-0.144
				c0.696-0.017,1.394-0.006,2.154-0.006c0-0.592,0-1.132,0-1.86c0.872,0.952,1.619,1.773,2.374,2.587
				c0.138,0.148,0.308,0.268,0.463,0.399C42.815,37.797,42.815,37.84,42.815,37.882z"/>
		</g>
		<g>
			<path fill-rule="evenodd" clip-rule="evenodd" fill="#55666C" d="M23.389,32.118c0.509-0.212,0.994-0.415,1.616-0.675
				c-0.547,1.411-1.052,2.713-1.582,4.081c-1.356-0.536-2.661-1.052-4.079-1.612c0.625-0.282,1.132-0.512,1.674-0.757
				c-0.459-1.381-0.66-2.763-0.542-4.203c0.327-3.976,3.561-7.513,7.503-8.146c5.037-0.81,9.567,2.231,10.697,7.182
				c1.231,5.397-2.947,10.932-8.476,11.046c-5.221,0.106-10.446,0.033-15.669,0.038c-0.063,0-0.125-0.018-0.284-0.043
				c0.374-0.422,0.713-0.805,1.083-1.222c-0.354-0.373-0.697-0.732-1.145-1.203c0.354,0,0.575,0,0.796,0
				c4.863,0,9.725,0.002,14.588-0.001c3.865-0.002,6.847-3.056,6.754-6.912c-0.089-3.722-3.282-6.633-7.083-6.457
				c-4.182,0.193-7.211,4.442-6.025,8.453C23.257,31.826,23.323,31.957,23.389,32.118z"/>
		</g>
		<g>
			<path fill-rule="evenodd" clip-rule="evenodd" fill="#55666C" d="M24.683,17.648c0.241-0.473,0.488-0.96,0.81-1.591
				c0.504,1.434,0.967,2.748,1.453,4.129c-1.391,0.475-2.722,0.929-4.17,1.424c0.272-0.566,0.495-1.028,0.719-1.491
				c-0.688-0.331-1.599-0.033-2.149,0.697c-0.668,0.886-0.559,1.866,0.343,2.9c-0.413,0.695-0.833,1.4-1.253,2.107
				c-1.636-0.86-2.511-3.29-1.861-5.229C19.397,18.134,21.449,17.136,24.683,17.648z"/>
		</g>
	</g>
</g>
</svg>
