<?xml version="1.0" encoding="utf-8"?>
<!-- Generator: Adobe Illustrator 16.0.0, SVG Export Plug-In . SVG Version: 6.00 Build 0)  -->
<!DOCTYPE svg PUBLIC "-//W3C//DTD SVG 1.1//EN" "http://www.w3.org/Graphics/SVG/1.1/DTD/svg11.dtd">
<svg version="1.1" id="Шар_1" xmlns="http://www.w3.org/2000/svg" xmlns:xlink="http://www.w3.org/1999/xlink" x="0px" y="0px"
	 width="39px" height="38.57px" viewBox="0 0 39 38.57" enable-background="new 0 0 39 38.57" xml:space="preserve">
<g>
	<path d="M33.827,6.032c-1.1,0.773-1.822,2.05-1.822,3.494c0,2.883,3.35,5.707,3.732,6.019c0.156,0.127,0.345,0.191,0.535,0.191
		c0.19,0,0.379-0.064,0.535-0.191c0.155-0.126,0.8-0.668,1.511-1.458c0.387,1.403,0.615,2.846,0.68,4.311H31.74
		c-0.124-5.205-1.333-10.08-3.439-13.808c-0.917-1.623-1.962-2.956-3.099-3.974C28.478,1.616,31.456,3.47,33.827,6.032z"/>
	<path d="M18.655,0v18.398H8.95c0.065-2.612,0.415-5.128,1.023-7.435c0.985,1.947,2.841,3.51,3.12,3.738
		c0.155,0.127,0.345,0.191,0.535,0.191c0.19,0,0.379-0.063,0.536-0.191c0.382-0.313,3.731-3.136,3.731-6.02
		c0-2.353-1.914-4.267-4.267-4.267c-0.311,0-0.615,0.035-0.908,0.098C14.416,1.89,16.479,0.323,18.655,0z"/>
	<path d="M13.796,0.619c-1.136,1.018-2.181,2.35-3.097,3.972C8.593,8.318,7.383,13.193,7.26,18.398H0.003
		C0.381,10.009,6.079,2.981,13.796,0.619z"/>
	<path d="M0,20.088h7.258c0.113,5.237,1.324,10.145,3.44,13.892c0.916,1.622,1.961,2.954,3.097,3.972
		C6.053,35.581,0.343,28.515,0,20.088z"/>
	<path d="M18.655,38.57c-2.418-0.359-4.695-2.251-6.485-5.422c-1.977-3.5-3.111-8.113-3.222-13.061h9.707v4.428
		c-1.97,0.377-3.464,2.112-3.464,4.19c0,2.525,2.569,5.004,3.464,5.792V38.57L18.655,38.57z"/>
	<path d="M25.204,37.952c1.136-1.018,2.181-2.35,3.097-3.972c2.117-3.748,3.328-8.655,3.44-13.892H39
		C38.657,28.515,32.947,35.581,25.204,37.952z"/>
	<path d="M26.09,20.088c-0.467,0-0.845-0.378-0.845-0.845c0-0.467,0.378-0.845,0.845-0.845h3.96
		c-0.122-4.916-1.254-9.496-3.22-12.976C25.04,2.251,22.763,0.359,20.345,0v24.533c1.928,0.409,3.38,2.124,3.38,4.173
		c0,2.45-2.418,4.856-3.38,5.716v4.148c2.418-0.359,4.695-2.251,6.485-5.422c1.977-3.5,3.111-8.113,3.222-13.061H26.09z
		 M23.049,20.088h-0.507c-0.467,0-0.845-0.378-0.845-0.845c0-0.467,0.378-0.845,0.845-0.845h0.507c0.466,0,0.845,0.378,0.845,0.845
		C23.894,19.709,23.515,20.088,23.049,20.088z"/>
	<path d="M36.271,6.949c-1.421,0-2.577,1.156-2.577,2.577c0,1.478,1.555,3.268,2.576,4.236c1.021-0.97,2.578-2.763,2.578-4.236
		C38.849,8.105,37.692,6.949,36.271,6.949z M37.117,9.653c0,0.467-0.378,0.845-0.845,0.845c-0.466,0-0.845-0.378-0.845-0.845V9.315
		c0-0.466,0.378-0.845,0.845-0.845c0.467,0,0.845,0.379,0.845,0.845V9.653z"/>
	<path d="M13.628,6.104c-1.421,0-2.577,1.156-2.577,2.577c0,1.479,1.556,3.268,2.576,4.236c1.021-0.97,2.578-2.763,2.578-4.236
		C16.205,7.26,15.049,6.104,13.628,6.104z M14.473,8.809c0,0.466-0.378,0.844-0.845,0.844s-0.845-0.378-0.845-0.844V8.47
		c0-0.466,0.378-0.845,0.845-0.845s0.845,0.378,0.845,0.845V8.809z"/>
	<path d="M19.458,26.129c-1.421,0-2.577,1.156-2.577,2.577c0,1.478,1.555,3.268,2.576,4.236c1.021-0.97,2.578-2.763,2.578-4.236
		C22.035,27.285,20.879,26.129,19.458,26.129z M20.303,28.833c0,0.467-0.378,0.845-0.845,0.845c-0.466,0-0.844-0.378-0.844-0.845
		v-0.338c0-0.466,0.378-0.845,0.844-0.845c0.467,0,0.845,0.378,0.845,0.845V28.833z"/>
</g>
</svg>
