<?xml version="1.0" encoding="utf-8"?>
<!-- Generator: Adobe Illustrator 16.0.0, SVG Export Plug-In . SVG Version: 6.00 Build 0)  -->
<!DOCTYPE svg PUBLIC "-//W3C//DTD SVG 1.1//EN" "http://www.w3.org/Graphics/SVG/1.1/DTD/svg11.dtd">
<svg version="1.1" id="Шар_1" xmlns="http://www.w3.org/2000/svg" xmlns:xlink="http://www.w3.org/1999/xlink" x="0px" y="0px"
	 width="72px" height="72px" viewBox="0 0 72 72" enable-background="new 0 0 72 72" xml:space="preserve">
<g>
	<g>
		<circle fill="#3B4248" cx="36" cy="36" r="35.198"/>
		<path fill="#E0E1E7" d="M36,72C16.15,72,0,55.85,0,36C0,16.149,16.15,0,36,0s36,16.149,36,36C72,55.85,55.85,72,36,72z M36,1.604
			C17.034,1.604,1.604,17.034,1.604,36S17.034,70.396,36,70.396c18.966,0,34.396-15.43,34.396-34.396S54.966,1.604,36,1.604z"/>
	</g>
	<g>
		<g>
			<g>
				<g>
					<path fill="#E0E1E7" d="M46.987,32.769v1.938H40.03l-3.384-1.692V30.83h0.97c0.891,0,1.616-0.724,1.616-1.616
						c0-0.526-0.257-0.989-0.647-1.284v-0.687c0.826-0.738,1.293-1.769,1.293-2.875c0-2.138-1.738-3.877-3.877-3.877
						c-2.139,0-3.877,1.739-3.877,3.877c0,1.107,0.467,2.138,1.292,2.875v0.687c-0.39,0.295-0.646,0.759-0.646,1.284
						c0,0.892,0.725,1.616,1.616,1.616h0.969v2.186l-4.677,2.338l4.676,2.338v2.187H21.136v-1.939h3.877v-5.17h-9.048v5.17h3.878
						v1.939v0.646v2.585h-3.878v5.17h9.048v-5.17h-3.877V41.17h14.218v1.938h-3.877v5.17h3.877v2.586h-1.292
						c-1.425,0-2.585,1.159-2.585,2.585c0,1.425,1.16,2.585,2.585,2.585h3.878c1.426,0,2.585-1.16,2.585-2.585
						c0-1.426-1.159-2.585-2.585-2.585h-1.293v-2.586h3.878v-5.17h-3.878V41.17v-1.293v-2.186L40.03,36h6.957v1.939h3.877v5.262
						c-1.111,0.288-1.938,1.292-1.938,2.493c0,1.426,1.159,2.585,2.585,2.585s2.585-1.159,2.585-2.585
						c0-1.201-0.827-2.205-1.938-2.493v-5.262h3.878v-5.17H46.987z M23.721,44.401v2.585h-6.463v-2.585H23.721z M17.258,36.646
						v-2.585h6.463v2.585H17.258z M36,21.782c1.425,0,2.584,1.159,2.584,2.584c0,0.809-0.377,1.558-1.035,2.056l-0.257,0.193v0.983
						h-0.646v-1.412c0.75-0.268,1.292-0.979,1.292-1.82c0-1.068-0.87-1.938-1.939-1.938s-1.939,0.87-1.939,1.938
						c0,0.842,0.542,1.553,1.293,1.82v1.412h-0.646v-0.983l-0.256-0.194c-0.659-0.497-1.036-1.246-1.036-2.055
						C33.415,22.941,34.575,21.782,36,21.782z M36.646,24.367c0,0.357-0.29,0.646-0.646,0.646s-0.646-0.29-0.646-0.646
						c0-0.356,0.291-0.646,0.646-0.646S36.646,24.01,36.646,24.367z M34.384,29.537c-0.178,0-0.323-0.146-0.323-0.323
						c0-0.177,0.145-0.323,0.323-0.323h3.231c0.178,0,0.323,0.146,0.323,0.323c0,0.178-0.145,0.323-0.323,0.323H34.384z
						 M37.939,52.156c0.713,0.001,1.293,0.581,1.293,1.294c0,0.712-0.58,1.292-1.293,1.292h-3.878c-0.713,0-1.292-0.58-1.292-1.292
						c0-0.713,0.58-1.294,1.292-1.294H37.939z M39.232,44.401v2.585h-6.463v-2.585H39.232z M36,36.57l-2.433-1.216L36,34.137
						l2.432,1.216L36,36.57z M52.803,45.695c0,0.712-0.58,1.292-1.293,1.292s-1.292-0.58-1.292-1.292
						c0-0.714,0.579-1.294,1.292-1.294S52.803,44.981,52.803,45.695z M54.742,36.646h-6.463v-2.585l0,0h6.463V36.646z"/>
				</g>
				<g>
					<path fill="#E0E1E7" d="M27.598,19.843c0.842,0,1.552-0.542,1.82-1.292h2.507c-1.666,1.171-2.808,3.034-3.001,5.17h-1.326
						v3.878h3.877v-3.878h-1.254c0.323-2.903,2.79-5.17,5.778-5.17c2.988,0,5.456,2.267,5.778,5.17h-1.254v3.878h3.877v-3.878
						h-1.325c-0.194-2.137-1.336-4-3.002-5.17h2.508c0.268,0.75,0.979,1.293,1.819,1.293c1.069,0,1.939-0.87,1.939-1.939
						s-0.87-1.939-1.939-1.939c-0.841,0-1.552,0.542-1.819,1.292H29.418c-0.268-0.75-0.979-1.292-1.82-1.292
						c-1.069,0-1.939,0.87-1.939,1.939S26.53,19.843,27.598,19.843z M30.184,26.306h-1.292v-1.292h1.292V26.306z M41.817,25.013
						h1.292v1.292h-1.292V25.013z M44.401,17.258c0.356,0,0.646,0.29,0.646,0.646s-0.29,0.646-0.646,0.646
						c-0.355,0-0.646-0.289-0.646-0.646S44.045,17.258,44.401,17.258z M27.598,17.258c0.356,0,0.646,0.29,0.646,0.646
						s-0.29,0.646-0.646,0.646c-0.356,0-0.646-0.289-0.646-0.646S27.242,17.258,27.598,17.258z"/>
				</g>
			</g>
		</g>
	</g>
</g>
</svg>
