<?xml version="1.0" encoding="utf-8"?>
<!-- Generator: Adobe Illustrator 16.0.0, SVG Export Plug-In . SVG Version: 6.00 Build 0)  -->
<!DOCTYPE svg PUBLIC "-//W3C//DTD SVG 1.1//EN" "http://www.w3.org/Graphics/SVG/1.1/DTD/svg11.dtd">
<svg version="1.1" id="Шар_1" xmlns="http://www.w3.org/2000/svg" xmlns:xlink="http://www.w3.org/1999/xlink" x="0px" y="0px"
	 width="72px" height="72px" viewBox="0 0 72 72" enable-background="new 0 0 72 72" xml:space="preserve">
<g>
	<g>
		<circle fill="#3B4248" cx="36" cy="36" r="35.198"/>
		<path fill="#E0E1E7" d="M36,72C16.15,72,0,55.85,0,36C0,16.149,16.15,0,36,0s36,16.149,36,36C72,55.85,55.85,72,36,72z M36,1.604
			C17.034,1.604,1.604,17.034,1.604,36S17.034,70.396,36,70.396c18.966,0,34.396-15.43,34.396-34.396S54.966,1.604,36,1.604z"/>
	</g>
	<g>
		<g>
			<g>
				<g>
					<path fill="#E0E1E7" d="M40.362,21.178c-5.767,0-10.458,4.691-10.458,10.458c0,1.906,0.513,3.694,1.408,5.234l-9.339,9.339
						c-1.054,1.054-1.054,2.77,0,3.823c0.527,0.526,1.219,0.79,1.912,0.79s1.384-0.264,1.912-0.79l9.34-9.342
						c1.539,0.892,3.324,1.402,5.226,1.402c5.766,0,10.456-4.69,10.456-10.458C50.818,25.869,46.127,21.178,40.362,21.178z
						 M24.565,48.802c-0.376,0.376-0.988,0.376-1.364,0s-0.376-0.987,0-1.364l0.586-0.586l1.364,1.364L24.565,48.802z
						 M26.381,46.987l-1.364-1.364l0.942-0.941l1.364,1.364L26.381,46.987z M28.552,44.816l-1.364-1.364l5.135-5.135
						c0.412,0.495,0.869,0.951,1.365,1.363L28.552,44.816z M40.362,40.354c-4.808,0-8.719-3.911-8.719-8.718
						c0-4.808,3.911-8.719,8.719-8.719c4.807,0,8.718,3.911,8.718,8.719C49.08,36.443,45.168,40.354,40.362,40.354z"/>
					<path fill="#3B4248" d="M23.884,50.956c-0.758,0-1.471-0.294-2.006-0.829s-0.83-1.248-0.83-2.006
						c0-0.759,0.294-1.472,0.83-2.007l9.267-9.267c-0.899-1.584-1.375-3.384-1.375-5.211c0-5.84,4.751-10.591,10.592-10.591
						c5.839,0,10.59,4.751,10.59,10.59c0,5.84-4.751,10.591-10.59,10.591c-1.825,0-3.622-0.474-5.204-1.369l-9.269,9.27
						C25.354,50.662,24.642,50.956,23.884,50.956z M40.362,21.312c-5.693,0-10.324,4.631-10.324,10.324
						c0,1.815,0.48,3.602,1.389,5.167l0.052,0.089l-9.412,9.412c-0.484,0.484-0.751,1.13-0.751,1.817
						c0,0.687,0.267,1.332,0.751,1.816s1.13,0.752,1.817,0.752s1.332-0.268,1.817-0.752l9.413-9.414l0.089,0.052
						c1.563,0.905,3.347,1.384,5.159,1.384c5.691,0,10.323-4.631,10.323-10.324C50.685,25.943,46.053,21.312,40.362,21.312z
						 M23.884,49.218c-0.294,0-0.569-0.114-0.777-0.321c-0.428-0.429-0.428-1.125,0-1.553l0.681-0.682l1.553,1.554l-0.681,0.681
						C24.453,49.104,24.177,49.218,23.884,49.218z M23.788,47.041l-0.492,0.492c-0.324,0.324-0.324,0.852,0,1.175
						c0.314,0.313,0.862,0.313,1.175,0l0.491-0.491L23.788,47.041z M26.381,47.175l-1.553-1.553l1.131-1.13l1.553,1.553
						L26.381,47.175z M25.206,45.623l1.175,1.175l0.752-0.752l-1.175-1.175L25.206,45.623z M28.552,45.004l-1.553-1.553l5.333-5.333
						l0.094,0.112c0.406,0.487,0.859,0.94,1.348,1.347l0.113,0.094L28.552,45.004z M27.377,43.452l1.175,1.175l4.938-4.938
						c-0.421-0.359-0.816-0.754-1.176-1.174L27.377,43.452z M40.362,40.488c-4.881,0-8.853-3.971-8.853-8.852
						c0-4.882,3.971-8.853,8.853-8.853c4.881,0,8.852,3.971,8.852,8.853C49.213,36.517,45.243,40.488,40.362,40.488z M40.362,23.05
						c-4.734,0-8.585,3.851-8.585,8.585c0,4.733,3.851,8.584,8.585,8.584c4.733,0,8.584-3.851,8.584-8.584
						C48.946,26.901,45.095,23.05,40.362,23.05z"/>
				</g>
			</g>
		</g>
		<g>
			<g>
				<g>
					<path fill="#E0E1E7" d="M44.969,30.657c-0.48,0-0.869,0.39-0.869,0.87v3.777c0,0.48,0.389,0.869,0.869,0.869
						s0.869-0.389,0.869-0.869v-3.777C45.838,31.046,45.449,30.657,44.969,30.657z"/>
					<path fill="#3B4248" d="M44.969,36.307c-0.553,0-1.003-0.45-1.003-1.003v-3.777c0-0.553,0.45-1.003,1.003-1.003
						s1.002,0.45,1.002,1.003v3.777C45.971,35.857,45.522,36.307,44.969,36.307z M44.969,30.791c-0.406,0-0.735,0.33-0.735,0.736
						v3.777c0,0.405,0.329,0.736,0.735,0.736c0.405,0,0.735-0.331,0.735-0.736v-3.777C45.705,31.121,45.375,30.791,44.969,30.791z"
						/>
				</g>
			</g>
		</g>
		<g>
			<g>
				<g>
					<path fill="#E0E1E7" d="M42.092,26.775c-0.479,0-0.869,0.389-0.869,0.869v7.659c0,0.48,0.39,0.869,0.869,0.869
						c0.48,0,0.869-0.389,0.869-0.869v-7.659C42.961,27.165,42.573,26.775,42.092,26.775z"/>
					<path fill="#3B4248" d="M42.092,36.307c-0.553,0-1.003-0.45-1.003-1.003v-7.659c0-0.553,0.45-1.003,1.003-1.003
						s1.003,0.45,1.003,1.003v7.659C43.095,35.857,42.645,36.307,42.092,36.307z M42.092,26.909c-0.405,0-0.735,0.33-0.735,0.735
						v7.659c0,0.405,0.33,0.736,0.735,0.736c0.406,0,0.736-0.331,0.736-0.736v-7.659C42.829,27.239,42.499,26.909,42.092,26.909z"/>
				</g>
			</g>
		</g>
		<g>
			<g>
				<g>
					<path fill="#E0E1E7" d="M39.175,28.716c-0.479,0-0.869,0.389-0.869,0.869v5.771c0,0.479,0.39,0.869,0.869,0.869
						c0.48,0,0.869-0.39,0.869-0.869v-5.771C40.044,29.105,39.656,28.716,39.175,28.716z"/>
					<path fill="#3B4248" d="M39.175,36.359c-0.553,0-1.002-0.45-1.002-1.003v-5.771c0-0.553,0.449-1.002,1.002-1.002
						s1.003,0.45,1.003,1.002v5.771C40.178,35.909,39.728,36.359,39.175,36.359z M39.175,28.85c-0.405,0-0.735,0.33-0.735,0.735
						v5.771c0,0.405,0.33,0.735,0.735,0.735c0.406,0,0.735-0.33,0.735-0.735v-5.771C39.911,29.18,39.582,28.85,39.175,28.85z"/>
				</g>
			</g>
		</g>
		<g>
			<g>
				<g>
					<path fill="#E0E1E7" d="M36.135,26.828c-0.48,0-0.869,0.389-0.869,0.869v7.66c0,0.479,0.389,0.869,0.869,0.869
						s0.87-0.39,0.87-0.869v-7.66C37.004,27.217,36.615,26.828,36.135,26.828z"/>
					<path fill="#3B4248" d="M36.135,36.359c-0.553,0-1.003-0.45-1.003-1.003v-7.66c0-0.553,0.45-1.002,1.003-1.002
						s1.003,0.45,1.003,1.002v7.66C37.138,35.909,36.688,36.359,36.135,36.359z M36.135,26.961c-0.406,0-0.735,0.33-0.735,0.735
						v7.66c0,0.405,0.33,0.735,0.735,0.735s0.736-0.33,0.736-0.735v-7.66C36.871,27.291,36.541,26.961,36.135,26.961z"/>
				</g>
			</g>
		</g>
	</g>
</g>
</svg>
