<?xml version="1.0" encoding="utf-8"?>
<!-- Generator: Adobe Illustrator 16.0.0, SVG Export Plug-In . SVG Version: 6.00 Build 0)  -->
<!DOCTYPE svg PUBLIC "-//W3C//DTD SVG 1.1//EN" "http://www.w3.org/Graphics/SVG/1.1/DTD/svg11.dtd">
<svg version="1.1" id="Layer_1" xmlns="http://www.w3.org/2000/svg" xmlns:xlink="http://www.w3.org/1999/xlink" x="0px" y="0px"
	 width="58px" height="58px" viewBox="13.519 13.072 58 58" enable-background="new 13.519 13.072 58 58" xml:space="preserve">
<g>
	<circle fill="#393939" cx="42.519" cy="42.072" r="29"/>
	<g>
		<g>
			<g>
				<path fill="#FFFFFF" d="M42.519,32.093c-1.56,0-2.828,1.269-2.828,2.829s1.269,2.828,2.828,2.828s2.828-1.269,2.828-2.828
					S44.079,32.093,42.519,32.093z M42.519,36.619c-0.936,0-1.697-0.761-1.697-1.697s0.761-1.697,1.697-1.697
					s1.697,0.762,1.697,1.697S43.455,36.619,42.519,36.619z"/>
			</g>
		</g>
		<g>
			<g>
				<g>
					<path fill="#FFFFFF" d="M48.502,36.019l-0.495-0.286c-0.034-0.02-0.055-0.058-0.049-0.095c0.03-0.236,0.046-0.478,0.046-0.717
						c0-0.238-0.016-0.479-0.047-0.716c-0.005-0.037,0.015-0.075,0.05-0.095l0.495-0.286c0.588-0.34,0.79-1.094,0.45-1.682
						l-0.81-1.404c-0.165-0.285-0.43-0.489-0.748-0.574c-0.317-0.085-0.649-0.042-0.935,0.123l-0.495,0.286
						c-0.034,0.02-0.078,0.018-0.107-0.004c-0.381-0.293-0.799-0.535-1.241-0.718c-0.033-0.014-0.056-0.05-0.056-0.09v-0.571
						c0-0.679-0.553-1.231-1.231-1.231h-1.621c-0.679,0-1.23,0.552-1.23,1.231v0.571c0,0.04-0.023,0.076-0.056,0.09
						c-0.443,0.183-0.861,0.425-1.242,0.718c-0.029,0.022-0.072,0.024-0.107,0.004l-0.495-0.286
						c-0.285-0.164-0.617-0.208-0.934-0.123c-0.318,0.085-0.583,0.289-0.748,0.574l-0.81,1.404
						c-0.165,0.285-0.208,0.617-0.123,0.934c0.085,0.318,0.289,0.583,0.573,0.748l0.496,0.286c0.034,0.02,0.054,0.058,0.049,0.095
						c-0.031,0.236-0.047,0.478-0.047,0.716s0.016,0.479,0.047,0.716c0.005,0.037-0.015,0.075-0.049,0.095l-0.495,0.286
						c-0.588,0.339-0.79,1.094-0.451,1.682l0.81,1.404c0.339,0.588,1.094,0.791,1.682,0.451l0.496-0.286
						c0.034-0.02,0.077-0.019,0.106,0.005c0.381,0.293,0.799,0.535,1.242,0.718c0.033,0.014,0.056,0.05,0.056,0.09v0.571
						c0,0.679,0.552,1.231,1.231,1.231h1.621c0.679,0,1.231-0.552,1.231-1.231v-0.571c0-0.04,0.022-0.076,0.056-0.089
						c0.442-0.183,0.86-0.425,1.242-0.718c0.029-0.023,0.072-0.024,0.107-0.005l0.494,0.286c0.588,0.34,1.343,0.137,1.683-0.451
						l0.81-1.404C49.292,37.113,49.09,36.358,48.502,36.019z M47.973,37.135l-0.811,1.404c-0.027,0.047-0.088,0.064-0.137,0.037
						l-0.495-0.287c-0.433-0.25-0.968-0.215-1.361,0.088c-0.303,0.232-0.635,0.424-0.985,0.569c-0.459,0.19-0.755,0.635-0.755,1.135
						v0.571c0,0.055-0.045,0.1-0.1,0.1h-1.621c-0.055,0-0.1-0.045-0.1-0.1v-0.571c0-0.5-0.296-0.945-0.753-1.135
						c-0.351-0.146-0.683-0.337-0.986-0.57c-0.218-0.168-0.48-0.254-0.745-0.254c-0.211,0-0.424,0.055-0.617,0.167l-0.496,0.286
						c-0.048,0.028-0.109,0.011-0.136-0.036l-0.811-1.404c-0.017-0.03-0.015-0.058-0.01-0.075c0.005-0.019,0.017-0.044,0.047-0.061
						l0.496-0.287c0.432-0.25,0.67-0.729,0.605-1.223c-0.025-0.188-0.037-0.378-0.037-0.568c0-0.19,0.012-0.382,0.037-0.569
						c0.065-0.493-0.173-0.972-0.605-1.222l-0.495-0.286c-0.048-0.027-0.064-0.088-0.037-0.136l0.811-1.404
						c0.017-0.03,0.042-0.042,0.061-0.046s0.046-0.007,0.076,0.01l0.496,0.286c0.433,0.25,0.967,0.215,1.362-0.087
						c0.303-0.233,0.634-0.425,0.985-0.57c0.458-0.19,0.754-0.635,0.754-1.135v-0.571c0-0.055,0.045-0.1,0.1-0.1h1.621
						c0.055,0,0.1,0.045,0.1,0.1v0.571c0,0.5,0.296,0.945,0.755,1.135c0.351,0.145,0.682,0.337,0.984,0.57
						c0.395,0.303,0.93,0.337,1.362,0.087l0.496-0.286c0.029-0.017,0.057-0.015,0.075-0.01s0.044,0.017,0.061,0.046l0.811,1.404
						c0.018,0.03,0.015,0.058,0.01,0.076c-0.004,0.018-0.017,0.043-0.046,0.061l-0.495,0.287c-0.433,0.25-0.671,0.729-0.605,1.222
						c0.024,0.188,0.037,0.379,0.037,0.568c0,0.19-0.013,0.382-0.037,0.57c-0.064,0.493,0.173,0.972,0.605,1.221l0.495,0.286
						C47.985,37.026,48.001,37.087,47.973,37.135z"/>
				</g>
			</g>
			<g>
				<g>
					<path fill="#FFFFFF" d="M51.875,41.306c1.157-1.794,1.769-3.876,1.769-6.021c0-2.947-1.141-5.724-3.212-7.819
						c-2.069-2.094-4.829-3.268-7.771-3.304c-0.047-0.001-0.094-0.001-0.141-0.001c-2.915,0-5.67,1.126-7.771,3.182
						c-2.133,2.086-3.324,4.868-3.353,7.832c-0.021,2.167,0.581,4.272,1.741,6.089c1.035,1.621,2.464,2.939,4.152,3.839
						l-3.042,4.259c-0.218,0.305-0.247,0.7-0.075,1.033c0.171,0.333,0.51,0.539,0.884,0.539h2.371v1.054
						c0,0.667,0.542,1.209,1.209,1.209H46.4c0.668,0,1.21-0.542,1.21-1.209v-1.054h2.371c0.374,0,0.713-0.206,0.885-0.539
						c0.171-0.333,0.143-0.729-0.075-1.033l-3.041-4.259C49.421,44.21,50.841,42.907,51.875,41.306z M37.429,49.802h-2.106
						l2.106-2.948V49.802z M46.479,51.987c0,0.043-0.035,0.078-0.079,0.078h-7.762c-0.043,0-0.078-0.035-0.078-0.078v-0.345
						l7.919-0.659V51.987z M46.479,49.847l-7.919,0.66v-1.128l7.919-0.659V49.847z M49.715,49.802H47.61v-2.948L49.715,49.802z
						 M46.801,44.315c-0.197,0.095-0.322,0.293-0.322,0.511v0.497l-1.749,0.146c-0.292,0.023-0.518,0.269-0.518,0.563
						c0,0.331,0.282,0.591,0.612,0.564l1.654-0.139v1.128l-7.919,0.66v-1.128l3.51-0.293c0.293-0.024,0.519-0.269,0.519-0.563
						c0-0.33-0.283-0.591-0.612-0.563l-3.416,0.284v-1.156c0-0.218-0.125-0.416-0.323-0.511c-3.506-1.666-5.748-5.25-5.71-9.13
						c0.025-2.662,1.096-5.16,3.012-7.035c1.888-1.847,4.362-2.859,6.981-2.859c0.042,0,0.084,0,0.126,0
						c5.44,0.068,9.866,4.55,9.866,9.992C52.512,39.122,50.27,42.667,46.801,44.315z"/>
				</g>
			</g>
			<g>
				<g>
					<path fill="#FFFFFF" d="M39.502,53.574c-0.313,0-0.565,0.253-0.565,0.564v5.28c0,0.313,0.253,0.565,0.565,0.565
						c0.312,0,0.565-0.253,0.565-0.565v-5.28C40.068,53.827,39.815,53.574,39.502,53.574z"/>
				</g>
			</g>
			<g>
				<g>
					<path fill="#FFFFFF" d="M45.536,53.574c-0.313,0-0.565,0.253-0.565,0.564v5.28c0,0.313,0.253,0.565,0.565,0.565
						s0.566-0.253,0.566-0.565v-5.28C46.102,53.827,45.848,53.574,45.536,53.574z"/>
				</g>
			</g>
			<g>
				<g>
					<path fill="#FFFFFF" d="M42.518,53.574c-0.312,0-0.565,0.253-0.565,0.564v5.28c0,0.313,0.253,0.565,0.565,0.565
						c0.313,0,0.566-0.253,0.566-0.565v-5.28C43.084,53.827,42.831,53.574,42.518,53.574z"/>
				</g>
			</g>
		</g>
	</g>
</g>
</svg>
