<?xml version="1.0" encoding="utf-8"?>
<!-- Generator: Adobe Illustrator 16.0.0, SVG Export Plug-In . SVG Version: 6.00 Build 0)  -->
<!DOCTYPE svg PUBLIC "-//W3C//DTD SVG 1.1//EN" "http://www.w3.org/Graphics/SVG/1.1/DTD/svg11.dtd">
<svg version="1.1" id="Шар_1" xmlns="http://www.w3.org/2000/svg" xmlns:xlink="http://www.w3.org/1999/xlink" x="0px" y="0px"
	 width="72px" height="72px" viewBox="0 0 72 72" enable-background="new 0 0 72 72" xml:space="preserve">
<g>
	<g>
		<circle fill="#3B4248" cx="36" cy="36" r="35.198"/>
		<path fill="#E0E1E7" d="M36,72C16.15,72,0,55.85,0,36C0,16.149,16.15,0,36,0s36,16.149,36,36C72,55.85,55.85,72,36,72z M36,1.604
			C17.034,1.604,1.604,17.034,1.604,36S17.034,70.396,36,70.396c18.966,0,34.396-15.43,34.396-34.396S54.966,1.604,36,1.604z"/>
	</g>
	<g>
		<g>
			<g>
				<g>
					<path fill="#E0E1E7" d="M37.667,45.292H33.95c-1.708,0-3.097,1.39-3.097,3.098v3.718c0,1.708,1.39,3.097,3.097,3.097h3.717
						c1.708,0,3.098-1.389,3.098-3.097V48.39C40.765,46.682,39.375,45.292,37.667,45.292z M39.526,52.108
						c0,1.024-0.834,1.858-1.858,1.858H33.95c-1.024,0-1.858-0.834-1.858-1.858V48.39c0-1.024,0.834-1.858,1.858-1.858h3.717
						c1.024,0,1.858,0.834,1.858,1.858V52.108z"/>
				</g>
				<g>
					<path fill="#E0E1E7" d="M35.809,26.707c2.733,0,4.957-2.223,4.957-4.955c0-2.733-2.224-4.957-4.957-4.957
						c-2.732,0-4.956,2.224-4.956,4.957C30.853,24.484,33.076,26.707,35.809,26.707z M35.809,18.035c2.05,0,3.717,1.667,3.717,3.717
						s-1.667,3.717-3.717,3.717c-2.049,0-3.717-1.667-3.717-3.717S33.759,18.035,35.809,18.035z"/>
				</g>
				<g>
					<path fill="#E0E1E7" d="M26.516,31.044h-9.912v9.912h9.912V31.044z M25.277,39.717h-7.434v-7.434h7.434V39.717z"/>
				</g>
				<g>
					<path fill="#E0E1E7" d="M55.396,40.957l-5.339-10.678l-5.339,10.678H55.396z M53.391,39.717h-6.668l3.334-6.668L53.391,39.717z
						"/>
				</g>
				<g>
					<path fill="#E0E1E7" d="M48.567,29.657l1.109-0.553c-1.584-3.177-4.234-5.735-7.463-7.204L41.7,23.027
						C44.671,24.379,47.11,26.734,48.567,29.657z"/>
				</g>
				<g>
					<path fill="#E0E1E7" d="M29.917,23.027L29.404,21.9c-3.394,1.543-6.118,4.258-7.674,7.647l1.126,0.517
						C24.288,26.947,26.795,24.449,29.917,23.027z"/>
				</g>
				<g>
					<path fill="#E0E1E7" d="M41.746,48.952l0.517,1.127c3.369-1.548,6.078-4.256,7.625-7.626l-1.126-0.516
						C47.337,45.038,44.846,47.529,41.746,48.952z"/>
				</g>
				<g>
					<path fill="#E0E1E7" d="M22.857,41.937l-1.126,0.517c1.548,3.369,4.255,6.078,7.625,7.625l0.517-1.126
						C26.771,47.529,24.281,45.038,22.857,41.937z"/>
				</g>
				<g>
					<path fill="#E0E1E7" d="M35.809,33.522c-1.366,0-2.478,1.111-2.478,2.478c0,1.367,1.112,2.478,2.478,2.478
						c1.367,0,2.478-1.111,2.478-2.478C38.287,34.634,37.175,33.522,35.809,33.522z M35.809,37.239
						c-0.683,0-1.239-0.556-1.239-1.239s0.556-1.239,1.239-1.239c0.684,0,1.24,0.556,1.24,1.239S36.492,37.239,35.809,37.239z"/>
				</g>
				<g>
					<path fill="#E0E1E7" d="M42.624,36.62v-1.239h-1.275c-0.12-1.074-0.546-2.054-1.188-2.857l0.904-0.904l-0.876-0.876
						l-0.904,0.904c-0.802-0.642-1.783-1.068-2.856-1.187v-1.275h-1.239v1.275c-1.074,0.119-2.055,0.545-2.856,1.187l-0.905-0.904
						l-0.876,0.876l0.905,0.904c-0.643,0.803-1.068,1.783-1.187,2.857h-1.276v1.239h1.276c0.119,1.073,0.544,2.054,1.187,2.856
						l-0.905,0.905l0.876,0.876l0.905-0.905c0.802,0.642,1.783,1.067,2.856,1.187v1.275h1.239v-1.275
						c1.073-0.119,2.055-0.545,2.856-1.187l0.904,0.905l0.876-0.876l-0.904-0.905c0.642-0.803,1.067-1.783,1.188-2.856H42.624z
						 M35.809,40.336c-2.39,0-4.336-1.945-4.336-4.336c0-2.391,1.946-4.336,4.336-4.336s4.337,1.946,4.337,4.336
						C40.146,38.391,38.199,40.336,35.809,40.336z"/>
				</g>
			</g>
		</g>
	</g>
</g>
</svg>
