<?xml version="1.0" encoding="utf-8"?>
<!-- Generator: Adobe Illustrator 16.0.0, SVG Export Plug-In . SVG Version: 6.00 Build 0)  -->
<!DOCTYPE svg PUBLIC "-//W3C//DTD SVG 1.1//EN" "http://www.w3.org/Graphics/SVG/1.1/DTD/svg11.dtd">
<svg version="1.1" id="Шар_1" xmlns="http://www.w3.org/2000/svg" xmlns:xlink="http://www.w3.org/1999/xlink" x="0px" y="0px"
	 width="52px" height="62.121px" viewBox="0 0 52 62.121" enable-background="new 0 0 52 62.121" xml:space="preserve">
<g>
	<path d="M37.864,0c2.179,1.242,4.36,2.482,6.539,3.726c1.721,0.986,2.046,2.156,1.071,3.859c-1.09,1.904-2.177,3.813-3.273,5.712
		c-0.823,1.422-2.067,1.765-3.496,0.958c-1.988-1.122-3.973-2.254-5.949-3.399c-1.44-0.837-1.753-2.033-0.926-3.493
		c1.009-1.783,2.056-3.548,3.034-5.346C35.336,1.151,35.89,0.414,36.808,0H37.864z"/>
	<path d="M27.833,45.753c-0.253,0.736-0.405,1.531-0.78,2.199c-2.236,3.987-4.513,7.954-6.796,11.913
		c-1.262,2.189-3.784,2.888-5.999,1.64c-4.008-2.26-8.005-4.54-11.99-6.84c-2.194-1.266-2.901-3.811-1.658-6.007
		c2.266-4.005,4.556-7.997,6.867-11.974c1.298-2.239,3.825-2.908,6.078-1.629c3.977,2.259,7.939,4.539,11.902,6.818
		C26.926,42.722,27.675,43.998,27.833,45.753"/>
	<path d="M33.15,35.605c0.181-0.515,0.292-1.069,0.555-1.544c1.489-2.655,3.007-5.298,4.532-7.934
		c0.905-1.563,2.572-2.04,4.16-1.155c2.708,1.519,5.402,3.062,8.084,4.63c1.477,0.863,1.943,2.527,1.108,4.035
		c-1.536,2.765-3.108,5.513-4.708,8.241c-0.803,1.375-2.417,1.866-3.819,1.1c-2.88-1.57-5.725-3.207-8.553-4.872
		C33.619,37.582,33.203,36.702,33.15,35.605"/>
</g>
</svg>
