<?xml version="1.0" encoding="utf-8"?>
<!-- Generator: Adobe Illustrator 16.0.0, SVG Export Plug-In . SVG Version: 6.00 Build 0)  -->
<!DOCTYPE svg PUBLIC "-//W3C//DTD SVG 1.1//EN" "http://www.w3.org/Graphics/SVG/1.1/DTD/svg11.dtd">
<svg version="1.1" id="Шар_1" xmlns="http://www.w3.org/2000/svg" xmlns:xlink="http://www.w3.org/1999/xlink" x="0px" y="0px"
	 width="20px" height="19.111px" viewBox="0 0 20 19.111" enable-background="new 0 0 20 19.111" xml:space="preserve">
<g>
	<path id="LinkedIn_1_" fill="#FFFFFF" d="M20,11.717v7.394h-4.287v-6.899c0-1.733-0.62-2.916-2.172-2.916
		c-1.184,0-1.889,0.797-2.199,1.568C11.229,11.14,11.2,11.524,11.2,11.91v7.202H6.912c0,0,0.058-11.685,0-12.895H11.2v1.828
		c-0.009,0.014-0.021,0.028-0.028,0.042H11.2V8.044c0.57-0.877,1.586-2.131,3.864-2.131C17.885,5.913,20,7.756,20,11.717z M2.426,0
		C0.959,0,0,0.962,0,2.228c0,1.238,0.932,2.229,2.369,2.229h0.029c1.496,0,2.426-0.991,2.426-2.229C4.795,0.962,3.894,0,2.426,0z
		 M0.255,19.111h4.286V6.216H0.255V19.111z"/>
</g>
</svg>
