<?xml version="1.0" encoding="utf-8"?>
<!-- Generator: Adobe Illustrator 16.0.0, SVG Export Plug-In . SVG Version: 6.00 Build 0)  -->
<!DOCTYPE svg PUBLIC "-//W3C//DTD SVG 1.1//EN" "http://www.w3.org/Graphics/SVG/1.1/DTD/svg11.dtd">
<svg version="1.1" id="Шар_1" xmlns="http://www.w3.org/2000/svg" xmlns:xlink="http://www.w3.org/1999/xlink" x="0px" y="0px"
	 width="35px" height="44px" viewBox="0 0 66 76.927" enable-background="new 0 0 66 76.927" xml:space="preserve" fill="#E0E1E7">
<g>
	<path d="M0,43.542c0.015-0.086,0.042-0.173,0.044-0.26c0.087-4.808,1.189-9.373,3.278-13.701c0.957-1.982,2.111-3.844,3.443-5.596
		c0.082-0.108,0.167-0.215,0.26-0.334c1.189,0.588,2.255,1.388,3.499,1.887c-0.399,0.698-0.812,1.419-1.222,2.14
		c-0.359,0.631-0.253,1.021,0.378,1.382c0.682,0.389,1.365,0.779,2.05,1.165c0.48,0.271,0.912,0.154,1.188-0.321
		c0.421-0.728,0.84-1.458,1.252-2.191c0.255-0.455,0.125-0.908-0.33-1.17c-0.681-0.393-1.366-0.779-2.049-1.168
		c-0.084-0.048-0.167-0.102-0.208-0.127c0.32-0.54,0.635-1.061,0.939-1.587c0.539-0.934,1.075-1.87,1.607-2.808
		c0.475-0.837,0.254-1.614-0.582-2.097c-0.902-0.52-1.802-1.042-2.702-1.567c-0.666-0.388-0.845-1.064-0.461-1.739
		c0.602-1.057,1.206-2.112,1.813-3.166c0.392-0.679,1.073-0.861,1.758-0.47c1.055,0.603,2.11,1.208,3.164,1.814
		c0.659,0.379,0.85,1.047,0.481,1.71c-0.544,0.982-1.092,1.961-1.643,2.939c-0.486,0.864-0.274,1.638,0.574,2.142
		c2.643,1.568,5.354,3.006,8.115,4.352c0.097,0.046,0.191,0.099,0.309,0.16c-0.229,0.399-0.448,0.776-0.664,1.154
		c-1.54,2.689-3.042,5.397-4.163,8.296c-0.764,1.973-1.382,3.986-1.665,6.093c-0.88,6.547,0.846,12.306,5.293,17.195
		c2.93,3.221,6.567,5.275,10.848,6.115c4.274,0.838,8.416,0.312,12.375-1.48c4.501-2.038,7.938-5.241,10.21-9.645
		c1.322-2.563,2.037-5.301,2.08-8.192c0.082-5.432-1.484-10.308-4.992-14.502c-1.818-2.173-4.034-3.835-6.633-4.979
		c-0.083-0.036-0.166-0.077-0.248-0.116c-0.005-0.003-0.005-0.016-0.025-0.072c0.493,0.084,0.963,0.156,1.431,0.246
		c3.009,0.58,5.844,1.613,8.407,3.317c4.238,2.817,6.9,6.743,8.13,11.66c0.345,1.378,0.543,2.779,0.615,4.198
		c0.002,0.069,0.029,0.137,0.044,0.206v2.251c-0.016,0.087-0.039,0.174-0.046,0.263c-0.046,0.537-0.072,1.077-0.136,1.611
		c-0.411,3.472-1.436,6.762-2.978,9.893c-2.13,4.322-5.081,7.997-8.809,11.038c-5.435,4.433-11.668,6.865-18.663,7.349
		c-0.441,0.031-0.883,0.067-1.325,0.101h-2.032c-0.069-0.015-0.137-0.042-0.208-0.044c-1.722-0.046-3.428-0.24-5.117-0.575
		c-6.555-1.303-12.21-4.311-16.959-9.009c-2.642-2.613-4.771-5.604-6.393-8.951c-2.1-4.333-3.202-8.906-3.291-13.721
		C0.042,44.54,0.015,44.454,0,44.366V43.542z"/>
	<path d="M33.329,0c0.68,0.387,1.36,0.774,2.039,1.162c0.537,0.307,0.638,0.673,0.334,1.203c-0.34,0.594-0.679,1.189-1.021,1.782
		c-0.257,0.443-0.645,0.55-1.09,0.298c-0.62-0.35-1.239-0.703-1.855-1.06c-0.449-0.26-0.547-0.633-0.289-1.089
		c0.314-0.556,0.641-1.106,0.946-1.667C32.541,0.359,32.713,0.129,33,0H33.329z"/>
	<path d="M36.079,27.017c-0.053,0.157-0.108,0.461-0.251,0.716c-0.863,1.538-1.742,3.067-2.625,4.594
		c-0.517,0.894-1.481,1.146-2.383,0.632c-1.507-0.86-3.015-1.723-4.52-2.587c-0.922-0.529-1.183-1.5-0.656-2.42
		c0.857-1.499,1.716-2.997,2.575-4.495c0.53-0.924,1.494-1.188,2.417-0.661c1.516,0.866,3.03,1.735,4.546,2.6
		C35.757,25.723,36.039,26.221,36.079,27.017"/>
	<path d="M30.201,14.269c-0.079,0.229-0.126,0.477-0.244,0.685c-0.697,1.244-1.407,2.48-2.119,3.715
		c-0.394,0.683-1.18,0.9-1.871,0.511c-1.25-0.704-2.497-1.415-3.739-2.132c-0.684-0.395-0.905-1.189-0.517-1.874
		c0.707-1.249,1.421-2.494,2.142-3.735c0.404-0.697,1.192-0.906,1.895-0.507c1.24,0.704,2.476,1.416,3.712,2.127
		C29.918,13.322,30.151,13.721,30.201,14.269"/>
	<path d="M31.859,11.103c0.057-0.161,0.091-0.333,0.173-0.48c0.464-0.829,0.938-1.653,1.414-2.475
		c0.282-0.487,0.802-0.636,1.297-0.36c0.845,0.473,1.685,0.955,2.521,1.443c0.46,0.27,0.606,0.789,0.346,1.258
		c-0.479,0.862-0.969,1.719-1.468,2.571c-0.25,0.428-0.754,0.582-1.191,0.342c-0.898-0.49-1.785-1-2.667-1.52
		C32.005,11.72,31.875,11.445,31.859,11.103"/>
</g>
</svg>
