<?xml version="1.0" encoding="utf-8"?>
<!-- Generator: Adobe Illustrator 16.0.0, SVG Export Plug-In . SVG Version: 6.00 Build 0)  -->
<!DOCTYPE svg PUBLIC "-//W3C//DTD SVG 1.1//EN" "http://www.w3.org/Graphics/SVG/1.1/DTD/svg11.dtd">
<svg version="1.1" id="Шар_1" xmlns="http://www.w3.org/2000/svg" xmlns:xlink="http://www.w3.org/1999/xlink" x="0px" y="0px"
	 width="72px" height="72px" viewBox="0 0 72 72" enable-background="new 0 0 72 72" xml:space="preserve">
<g>
	<g>
		<circle fill="#3B4248" cx="36" cy="36" r="35.198"/>
		<path fill="#E0E1E7" d="M36,72C16.15,72,0,55.85,0,36C0,16.149,16.15,0,36,0s36,16.149,36,36C72,55.85,55.85,72,36,72z M36,1.604
			C17.034,1.604,1.604,17.034,1.604,36S17.034,70.396,36,70.396c18.966,0,34.396-15.43,34.396-34.396S54.966,1.604,36,1.604z"/>
	</g>
	<g>
		<g>
			<g>
				<g>
					<path fill="#E0E1E7" d="M44.862,35.803L44.862,35.803c-0.271,0-0.501,0.197-0.542,0.464c-0.655,4.363-4.471,7.706-9.034,7.616
						C30.569,43.791,26.7,40,26.518,35.285c-0.198-5.098,3.892-9.31,8.948-9.31c4.539,0,8.302,3.396,8.878,7.78
						c0.036,0.272,0.27,0.473,0.543,0.473c0.33,0,0.587-0.291,0.544-0.618c-0.652-4.947-4.915-8.772-10.046-8.732
						c-5.546,0.044-10.038,4.632-9.97,10.177c0.068,5.485,4.55,9.925,10.051,9.925c5.034,0,9.215-3.72,9.939-8.555
						C45.455,36.098,45.195,35.803,44.862,35.803z"/>
					<path fill="#E0E1E7" d="M35.465,45.116c-5.547,0-10.116-4.512-10.185-10.057c-0.033-2.719,1.003-5.293,2.919-7.249
						c1.915-1.954,4.466-3.042,7.183-3.064l0.082,0c5.092,0,9.433,3.804,10.098,8.848c0.025,0.194-0.034,0.389-0.164,0.537
						c-0.129,0.147-0.316,0.232-0.513,0.232c-0.341,0-0.631-0.253-0.675-0.589c-0.575-4.369-4.335-7.664-8.746-7.664
						c-2.417,0-4.674,0.962-6.355,2.71c-1.68,1.746-2.553,4.041-2.459,6.461c0.181,4.658,3.975,8.377,8.638,8.47
						c4.408,0.098,8.248-3.167,8.899-7.503c0.05-0.33,0.339-0.578,0.673-0.578c0.2,0,0.39,0.087,0.52,0.238
						c0.129,0.149,0.186,0.346,0.157,0.54C44.796,41.389,40.466,45.116,35.465,45.116z M35.465,25.013h-0.08
						c-2.646,0.021-5.129,1.081-6.995,2.984c-1.866,1.904-2.875,4.411-2.842,7.058c0.067,5.4,4.516,9.793,9.917,9.793
						c4.869,0,9.086-3.629,9.808-8.441c0.018-0.117-0.018-0.235-0.095-0.326c-0.08-0.092-0.195-0.145-0.316-0.145
						c-0.203,0-0.379,0.15-0.409,0.35c-0.663,4.408-4.526,7.732-8.987,7.732c-0.061,0-0.121,0-0.182-0.002
						c-4.805-0.095-8.713-3.928-8.899-8.727c-0.097-2.494,0.803-4.857,2.534-6.656c1.731-1.801,4.057-2.792,6.548-2.792
						c4.545,0,8.419,3.395,9.011,7.896c0.026,0.203,0.203,0.356,0.41,0.356c0.119,0,0.233-0.051,0.313-0.142
						c0.078-0.089,0.114-0.208,0.099-0.325C44.65,28.717,40.423,25.013,35.465,25.013z"/>
				</g>
			</g>
		</g>
		<g>
			<g>
				<g>
					<path fill="#E0E1E7" d="M51.877,47.466l-5.509-5.509c1.311-2.026,2.072-4.439,2.072-7.027c0-7.155-5.82-12.976-12.976-12.976
						c-7.155,0-12.976,5.821-12.976,12.976s5.821,12.975,12.976,12.975c2.587,0,5.001-0.762,7.026-2.071L48,51.342
						c0.518,0.518,1.206,0.803,1.938,0.803c0.731,0,1.421-0.285,1.938-0.803C52.946,50.274,52.946,48.535,51.877,47.466z
						 M35.465,46.81c-6.55,0-11.879-5.329-11.879-11.879c0-6.55,5.329-11.879,11.879-11.879s11.879,5.329,11.879,11.879
						C47.344,41.481,42.015,46.81,35.465,46.81z M51.102,50.567c-0.312,0.312-0.724,0.481-1.163,0.481s-0.853-0.17-1.163-0.481
						l-5.377-5.376c0.87-0.675,1.652-1.457,2.327-2.326l5.376,5.377C51.744,48.882,51.744,49.925,51.102,50.567z"/>
					<path fill="#E0E1E7" d="M49.939,52.279c-0.769,0-1.49-0.299-2.033-0.842l-5.433-5.433c-2.097,1.332-4.518,2.035-7.008,2.035
						c-7.229,0-13.109-5.881-13.109-13.109c0-7.229,5.88-13.109,13.109-13.109s13.109,5.88,13.109,13.109
						c0,2.491-0.703,4.912-2.035,7.008l5.433,5.433c1.12,1.121,1.12,2.944,0,4.065C51.428,51.98,50.707,52.279,49.939,52.279z
						 M42.509,45.664l5.586,5.585c0.492,0.492,1.147,0.763,1.844,0.763s1.352-0.271,1.844-0.763c1.017-1.018,1.017-2.672,0-3.688
						l-5.585-5.585l0.059-0.09c1.342-2.075,2.051-4.479,2.051-6.955c0-7.081-5.761-12.842-12.842-12.842S22.624,27.85,22.624,34.931
						c0,7.081,5.761,12.841,12.842,12.841c2.475,0,4.879-0.709,6.954-2.05L42.509,45.664z M49.939,51.182
						c-0.476,0-0.922-0.185-1.258-0.521l-5.483-5.483l0.119-0.093c0.861-0.667,1.636-1.442,2.303-2.303l0.094-0.12l5.483,5.484
						c0.692,0.693,0.692,1.821,0,2.515C50.86,50.998,50.414,51.182,49.939,51.182z M43.6,45.203l5.271,5.271
						c0.285,0.285,0.665,0.442,1.068,0.442s0.783-0.157,1.068-0.442c0.589-0.59,0.589-1.549,0-2.138l-5.27-5.27
						C45.11,43.857,44.391,44.575,43.6,45.203z M35.465,46.943c-6.624,0-12.013-5.389-12.013-12.012s5.389-12.013,12.013-12.013
						c6.624,0,12.013,5.389,12.013,12.013S42.089,46.943,35.465,46.943z M35.465,23.186c-6.477,0-11.745,5.269-11.745,11.745
						c0,6.476,5.269,11.746,11.745,11.746s11.745-5.27,11.745-11.746C47.21,28.454,41.942,23.186,35.465,23.186z"/>
				</g>
			</g>
		</g>
		<g>
			<g>
				<g>
					<path fill="#E0E1E7" d="M22.307,29.996h-2.924c-0.303,0-0.548,0.246-0.548,0.548c0,0.303,0.246,0.548,0.548,0.548h2.924
						c0.303,0,0.548-0.245,0.548-0.548C22.855,30.242,22.61,29.996,22.307,29.996z"/>
					<path fill="#E0E1E7" d="M22.307,31.227h-2.924c-0.376,0-0.682-0.306-0.682-0.682s0.306-0.682,0.682-0.682h2.924
						c0.376,0,0.682,0.306,0.682,0.682S22.683,31.227,22.307,31.227z M19.383,30.13c-0.229,0-0.415,0.186-0.415,0.415
						s0.186,0.415,0.415,0.415h2.924c0.229,0,0.415-0.186,0.415-0.415s-0.186-0.415-0.415-0.415H19.383z"/>
				</g>
			</g>
		</g>
		<g>
			<g>
				<g>
					<path fill="#E0E1E7" d="M42.044,29.996h-3.184c-0.239-0.842-1.015-1.461-1.934-1.461c-0.918,0-1.694,0.619-1.934,1.461h-6.107
						c-0.303,0-0.548,0.246-0.548,0.548c0,0.303,0.246,0.548,0.548,0.548h6.107c0.239,0.843,1.016,1.462,1.934,1.462
						c0.919,0,1.694-0.619,1.934-1.462h3.184c0.303,0,0.549-0.245,0.549-0.548C42.593,30.242,42.347,29.996,42.044,29.996z
						 M36.927,31.458c-0.504,0-0.914-0.41-0.914-0.914s0.41-0.914,0.914-0.914s0.914,0.41,0.914,0.914S37.431,31.458,36.927,31.458z
						"/>
					<path fill="#E0E1E7" d="M36.927,32.688c-0.919,0-1.741-0.596-2.032-1.462h-6.009c-0.376,0-0.682-0.306-0.682-0.682
						s0.306-0.682,0.682-0.682h6.009c0.292-0.866,1.113-1.462,2.032-1.462c0.92,0,1.741,0.596,2.032,1.462h3.085
						c0.376,0,0.683,0.306,0.683,0.682s-0.307,0.682-0.683,0.682h-3.085C38.668,32.092,37.847,32.688,36.927,32.688z M28.886,30.13
						c-0.229,0-0.415,0.186-0.415,0.415s0.186,0.415,0.415,0.415h6.208l0.027,0.097c0.229,0.804,0.971,1.365,1.805,1.365
						c0.835,0,1.577-0.562,1.805-1.365l0.028-0.097h3.284c0.229,0,0.415-0.186,0.415-0.415s-0.186-0.415-0.415-0.415H38.76
						l-0.028-0.097c-0.228-0.804-0.97-1.365-1.805-1.365c-0.834,0-1.577,0.561-1.805,1.365l-0.027,0.097H28.886z M36.927,31.592
						c-0.577,0-1.047-0.47-1.047-1.048s0.47-1.047,1.047-1.047c0.578,0,1.048,0.47,1.048,1.047S37.505,31.592,36.927,31.592z
						 M36.927,29.765c-0.43,0-0.78,0.35-0.78,0.78s0.35,0.78,0.78,0.78c0.431,0,0.78-0.35,0.78-0.78S37.358,29.765,36.927,29.765z"
						/>
				</g>
			</g>
		</g>
		<g>
			<g>
				<g>
					<path fill="#E0E1E7" d="M50.817,29.996h-2.193c-0.303,0-0.548,0.246-0.548,0.548c0,0.303,0.245,0.548,0.548,0.548h2.193
						c0.303,0,0.548-0.245,0.548-0.548C51.365,30.242,51.12,29.996,50.817,29.996z"/>
					<path fill="#E0E1E7" d="M50.817,31.227h-2.193c-0.376,0-0.682-0.306-0.682-0.682s0.306-0.682,0.682-0.682h2.193
						c0.375,0,0.682,0.306,0.682,0.682S51.192,31.227,50.817,31.227z M48.624,30.13c-0.229,0-0.415,0.186-0.415,0.415
						s0.187,0.415,0.415,0.415h2.193c0.229,0,0.414-0.186,0.414-0.415s-0.186-0.415-0.414-0.415H48.624z"/>
				</g>
			</g>
		</g>
		<g>
			<g>
				<g>
					<path fill="#E0E1E7" d="M42.044,38.768h-7.569c-0.239-0.843-1.015-1.462-1.934-1.462c-1.109,0-2.011,0.902-2.011,2.011
						s0.902,2.01,2.011,2.01c0.918,0,1.694-0.619,1.934-1.462h7.569c0.303,0,0.549-0.245,0.549-0.548S42.347,38.768,42.044,38.768z
						 M32.542,40.23c-0.504,0-0.914-0.409-0.914-0.913s0.41-0.914,0.914-0.914c0.503,0,0.914,0.41,0.914,0.914
						S33.045,40.23,32.542,40.23z"/>
					<path fill="#E0E1E7" d="M32.542,41.46c-1.183,0-2.144-0.962-2.144-2.144c0-1.183,0.961-2.145,2.144-2.145
						c0.919,0,1.741,0.597,2.032,1.463h7.471c0.376,0,0.683,0.306,0.683,0.682s-0.307,0.682-0.683,0.682h-7.471
						C34.282,40.864,33.461,41.46,32.542,41.46z M32.542,37.44c-1.035,0-1.877,0.842-1.877,1.877c0,1.034,0.842,1.876,1.877,1.876
						c0.834,0,1.577-0.561,1.805-1.364l0.028-0.098h7.67c0.229,0,0.415-0.186,0.415-0.414s-0.186-0.415-0.415-0.415h-7.67
						l-0.028-0.097C34.118,38.001,33.376,37.44,32.542,37.44z M32.542,40.364c-0.578,0-1.048-0.47-1.048-1.047
						c0-0.578,0.47-1.048,1.048-1.048c0.577,0,1.047,0.47,1.047,1.048C33.588,39.894,33.119,40.364,32.542,40.364z M32.542,38.537
						c-0.43,0-0.78,0.35-0.78,0.78c0,0.43,0.35,0.78,0.78,0.78c0.43,0,0.78-0.351,0.78-0.78
						C33.321,38.886,32.971,38.537,32.542,38.537z"/>
				</g>
			</g>
		</g>
		<g>
			<g>
				<g>
					<path fill="#E0E1E7" d="M50.086,38.768h-1.463c-0.303,0-0.548,0.246-0.548,0.549s0.245,0.548,0.548,0.548h1.463
						c0.302,0,0.548-0.245,0.548-0.548S50.388,38.768,50.086,38.768z"/>
					<path fill="#E0E1E7" d="M50.086,39.999h-1.463c-0.376,0-0.682-0.306-0.682-0.682s0.306-0.682,0.682-0.682h1.463
						c0.375,0,0.682,0.306,0.682,0.682S50.461,39.999,50.086,39.999z M48.624,38.902c-0.229,0-0.415,0.187-0.415,0.415
						s0.187,0.414,0.415,0.414h1.463c0.229,0,0.414-0.186,0.414-0.414s-0.186-0.415-0.414-0.415H48.624z"/>
				</g>
			</g>
		</g>
		<g>
			<g>
				<g>
					<path fill="#E0E1E7" d="M31.079,49.734h-9.031c-0.239-0.843-1.015-1.462-1.934-1.462c-1.109,0-2.011,0.902-2.011,2.01
						c0,1.109,0.902,2.011,2.011,2.011c0.918,0,1.694-0.619,1.934-1.463h9.032c0.303,0,0.548-0.244,0.548-0.548
						C31.628,49.979,31.382,49.734,31.079,49.734z M20.114,51.196c-0.504,0-0.914-0.409-0.914-0.914c0-0.503,0.41-0.914,0.914-0.914
						c0.503,0,0.914,0.411,0.914,0.914C21.028,50.787,20.618,51.196,20.114,51.196z"/>
					<path fill="#E0E1E7" d="M20.114,52.426c-1.182,0-2.144-0.962-2.144-2.145c0-1.182,0.962-2.144,2.144-2.144
						c0.919,0,1.741,0.596,2.032,1.462h8.933c0.376,0,0.682,0.306,0.682,0.682s-0.306,0.682-0.682,0.682h-8.933
						C21.855,51.83,21.034,52.426,20.114,52.426z M20.114,48.405c-1.035,0-1.877,0.843-1.877,1.877c0,1.035,0.842,1.877,1.877,1.877
						c0.834,0,1.577-0.562,1.805-1.365l0.028-0.097h9.133c0.229,0,0.415-0.187,0.415-0.415s-0.186-0.414-0.415-0.414h-9.132
						l-0.028-0.098C21.691,48.966,20.949,48.405,20.114,48.405z M20.114,51.33c-0.578,0-1.048-0.47-1.048-1.048
						c0-0.577,0.47-1.047,1.048-1.047c0.577,0,1.047,0.47,1.047,1.047C21.162,50.86,20.691,51.33,20.114,51.33z M20.114,49.501
						c-0.43,0-0.78,0.351-0.78,0.78c0,0.431,0.35,0.78,0.78,0.78s0.78-0.35,0.78-0.78C20.894,49.852,20.544,49.501,20.114,49.501z"
						/>
				</g>
			</g>
		</g>
		<g>
			<g>
				<g>
					<path fill="#E0E1E7" d="M50.086,17.569c-1.324,0-2.432,0.943-2.687,2.193h-6.087c-0.302,0-0.548,0.246-0.548,0.548
						c0,0.303,0.246,0.548,0.548,0.548H47.4c0.255,1.25,1.362,2.193,2.687,2.193c1.511,0,2.74-1.23,2.74-2.742
						C52.827,18.799,51.597,17.569,50.086,17.569z M50.086,21.955c-0.908,0-1.646-0.738-1.646-1.645
						c0-0.907,0.737-1.645,1.646-1.645c0.906,0,1.645,0.738,1.645,1.645C51.731,21.217,50.993,21.955,50.086,21.955z"/>
					<path fill="#E0E1E7" d="M50.086,23.186c-1.324,0-2.482-0.916-2.794-2.193h-5.979c-0.376,0-0.682-0.306-0.682-0.682
						s0.306-0.682,0.682-0.682h5.979c0.312-1.277,1.47-2.193,2.794-2.193c1.585,0,2.874,1.29,2.874,2.875
						C52.96,21.896,51.671,23.186,50.086,23.186z M41.313,19.896c-0.229,0-0.414,0.186-0.414,0.415s0.186,0.415,0.414,0.415h6.195
						l0.022,0.107c0.246,1.209,1.321,2.086,2.556,2.086c1.438,0,2.607-1.17,2.607-2.608c0-1.438-1.17-2.607-2.607-2.607
						c-1.234,0-2.31,0.877-2.556,2.086l-0.022,0.107H41.313z M50.086,22.089c-0.981,0-1.779-0.798-1.779-1.779
						c0-0.98,0.798-1.778,1.779-1.778c0.98,0,1.778,0.798,1.778,1.778C51.865,21.291,51.067,22.089,50.086,22.089z M50.086,18.799
						c-0.834,0-1.512,0.678-1.512,1.511c0,0.833,0.678,1.512,1.512,1.512c0.833,0,1.511-0.678,1.511-1.512
						C51.597,19.477,50.919,18.799,50.086,18.799z"/>
				</g>
			</g>
		</g>
	</g>
</g>
</svg>
