<?xml version="1.0" encoding="utf-8"?>
<!-- Generator: Adobe Illustrator 16.0.0, SVG Export Plug-In . SVG Version: 6.00 Build 0)  -->
<!DOCTYPE svg PUBLIC "-//W3C//DTD SVG 1.1//EN" "http://www.w3.org/Graphics/SVG/1.1/DTD/svg11.dtd">
<svg version="1.1" id="Шар_1" xmlns="http://www.w3.org/2000/svg" xmlns:xlink="http://www.w3.org/1999/xlink" x="0px" y="0px"
	 width="72px" height="72px" viewBox="0 0 72 72" enable-background="new 0 0 72 72" xml:space="preserve">
<g>
	<g>
		<circle fill="#3B4248" cx="36" cy="36" r="35.198"/>
		<path fill="#E0E1E7" d="M36,72C16.15,72,0,55.85,0,36C0,16.149,16.15,0,36,0s36,16.149,36,36C72,55.85,55.85,72,36,72z M36,1.604
			C17.034,1.604,1.604,17.034,1.604,36S17.034,70.396,36,70.396c18.966,0,34.396-15.43,34.396-34.396S54.966,1.604,36,1.604z"/>
	</g>
	<g>
		<g>
			<g>
				<path fill="#E0E1E7" d="M55.53,33.089c-1.301,0-2.403,0.856-2.776,2.035h-7.597c-0.099-0.046-0.201-0.088-0.306-0.126
					c0.07-0.385,0.105-0.776,0.105-1.171c0-1.549-0.545-2.972-1.452-4.09l4.961-4.961c0.41,0.214,0.868,0.328,1.345,0.328
					c0.084,0,0.168-0.004,0.251-0.011l1.362,3.286c0.14,0.338,0.466,0.542,0.811,0.542c0.111,0,0.226-0.021,0.335-0.067
					c0.447-0.185,0.659-0.698,0.475-1.145l-1.361-3.287c0.063-0.054,0.126-0.11,0.187-0.17c0.55-0.55,0.853-1.281,0.853-2.059
					c0-0.778-0.303-1.509-0.853-2.059c-0.55-0.55-1.281-0.852-2.059-0.852c-0.778,0-1.509,0.302-2.06,0.852
					c-0.549,0.55-0.853,1.282-0.853,2.059c0,0.476,0.114,0.934,0.328,1.344l-4.999,4.998c-1.064-0.761-2.368-1.211-3.775-1.211
					c-0.538,0-1.066,0.066-1.575,0.192v-8.268c0.533-0.168,1-0.486,1.352-0.904l3.287,1.362c0.11,0.045,0.225,0.067,0.336,0.067
					c0.344,0,0.67-0.204,0.81-0.541c0.186-0.447-0.026-0.96-0.474-1.146L38.9,16.723c0.008-0.083,0.012-0.167,0.012-0.252
					c0-1.605-1.306-2.912-2.912-2.912c-1.605,0-2.911,1.306-2.911,2.911c0,1.3,0.856,2.404,2.035,2.776v8.99
					c-0.782,0.465-1.465,1.095-1.999,1.856c-0.277-0.068-0.563-0.103-0.848-0.103c-0.32,0-0.63,0.042-0.924,0.123l-6.578-6.578
					c0.214-0.411,0.328-0.869,0.328-1.344c0-0.085-0.005-0.169-0.011-0.253l3.286-1.361c0.448-0.186,0.66-0.698,0.474-1.146
					c-0.185-0.447-0.698-0.66-1.145-0.475l-3.287,1.361c-0.054-0.063-0.11-0.126-0.17-0.187c-0.55-0.55-1.281-0.852-2.059-0.852
					c-0.778,0-1.509,0.302-2.059,0.852c-0.55,0.55-0.853,1.281-0.853,2.059c0,0.777,0.303,1.509,0.853,2.059
					c0.55,0.55,1.281,0.853,2.059,0.853c0.476,0,0.934-0.114,1.344-0.328l6.246,6.247c-0.462,0.458-0.8,1.043-0.956,1.699
					c-1.523,0.233-2.827,1.14-3.6,2.404h-5.979c-0.168-0.533-0.486-1-0.904-1.352l1.362-3.288c0.185-0.447-0.027-0.96-0.474-1.146
					c-0.447-0.185-0.96,0.027-1.146,0.475l-1.361,3.287c-0.083-0.007-0.167-0.012-0.253-0.012c-1.605,0-2.911,1.306-2.911,2.911
					c0,1.606,1.306,2.912,2.911,2.912c1.3,0,2.404-0.856,2.776-2.035h5.31c-0.054,0.298-0.083,0.604-0.083,0.916
					c0,2.296,1.514,4.243,3.596,4.898l-4.535,4.535c-0.411-0.215-0.869-0.328-1.344-0.328c-0.085,0-0.169,0.005-0.253,0.011
					l-1.361-3.286c-0.186-0.447-0.698-0.659-1.146-0.474c-0.447,0.185-0.66,0.698-0.475,1.145l1.362,3.287
					c-0.064,0.054-0.127,0.11-0.187,0.17c-0.55,0.55-0.852,1.281-0.852,2.059c0,0.778,0.302,1.509,0.852,2.059
					c0.55,0.551,1.281,0.854,2.059,0.854c0.777,0,1.509-0.303,2.059-0.854c0.55-0.55,0.853-1.28,0.853-2.059
					c0-0.476-0.114-0.934-0.328-1.344l5.54-5.54h4.81v9.828c-0.533,0.168-1,0.486-1.352,0.904l-3.287-1.361
					c-0.447-0.186-0.96,0.026-1.146,0.474c-0.186,0.447,0.027,0.961,0.474,1.146l3.287,1.361c-0.007,0.083-0.012,0.168-0.012,0.253
					c0,1.604,1.306,2.911,2.911,2.911c1.606,0,2.912-1.307,2.912-2.911c0-1.301-0.856-2.403-2.035-2.776v-9.827h4.811l5.539,5.539
					c-0.215,0.41-0.328,0.868-0.328,1.344c0,0.085,0.005,0.169,0.012,0.252l-3.287,1.362c-0.447,0.186-0.659,0.698-0.474,1.146
					c0.14,0.337,0.466,0.541,0.81,0.541c0.112,0,0.226-0.021,0.335-0.066l3.287-1.361c0.054,0.063,0.11,0.126,0.17,0.186
					c0.551,0.551,1.281,0.854,2.059,0.854c0.778,0,1.509-0.303,2.059-0.854c0.551-0.55,0.854-1.28,0.854-2.059
					c0-0.777-0.303-1.508-0.854-2.059c-0.55-0.55-1.28-0.853-2.059-0.853c-0.476,0-0.934,0.113-1.344,0.328L44.11,42.87
					c1.936-0.322,3.416-2.007,3.416-4.034c0-0.707-0.179-1.375-0.497-1.959h5.725c0.168,0.533,0.486,1,0.904,1.352l-1.361,3.287
					c-0.186,0.448,0.026,0.961,0.475,1.146c0.109,0.046,0.223,0.067,0.335,0.067c0.344,0,0.67-0.204,0.81-0.541l1.361-3.287
					c0.083,0.008,0.168,0.012,0.253,0.012c1.604,0,2.911-1.306,2.911-2.912C58.441,34.395,57.134,33.089,55.53,33.089z
					 M48.991,21.371c0.219-0.218,0.51-0.339,0.819-0.339c0.309,0,0.6,0.121,0.818,0.339s0.34,0.51,0.34,0.819s-0.121,0.6-0.34,0.819
					c-0.108,0.109-0.236,0.194-0.374,0.251c-0.001,0-0.001,0-0.001,0c-0.001,0-0.001,0-0.002,0
					c-0.138,0.057-0.288,0.087-0.441,0.087c-0.31,0-0.601-0.12-0.819-0.338c0,0,0,0,0,0c0,0,0,0-0.001,0
					c-0.219-0.219-0.338-0.51-0.338-0.818C48.652,21.881,48.772,21.59,48.991,21.371z M23.01,23.009
					C23.01,23.01,23.01,23.01,23.01,23.009C23.01,23.01,23.009,23.01,23.01,23.009c-0.22,0.219-0.511,0.34-0.819,0.34
					c-0.31,0-0.601-0.121-0.819-0.339c-0.219-0.219-0.339-0.509-0.339-0.819s0.121-0.601,0.339-0.82
					c0.219-0.218,0.51-0.339,0.819-0.339s0.6,0.121,0.819,0.339c0.109,0.109,0.194,0.236,0.251,0.374c0,0,0,0.001,0,0.002
					c0,0,0,0,0,0.001c0.057,0.139,0.087,0.288,0.087,0.442C23.349,22.5,23.229,22.791,23.01,23.009z M16.47,37.158
					c-0.638,0-1.158-0.519-1.158-1.158c0-0.638,0.52-1.158,1.158-1.158c0.639,0,1.158,0.52,1.158,1.158
					C17.628,36.639,17.109,37.158,16.47,37.158z M23.01,50.628c-0.219,0.219-0.509,0.34-0.819,0.34s-0.601-0.121-0.82-0.34
					c-0.218-0.219-0.339-0.51-0.339-0.819c0-0.309,0.121-0.6,0.339-0.818c0.109-0.109,0.237-0.194,0.375-0.252c0,0,0.001,0,0.001,0
					c0,0,0,0,0.001,0c0.138-0.057,0.288-0.087,0.442-0.087c0.309,0,0.6,0.119,0.818,0.338l0,0.001c0,0,0,0,0,0
					c0.218,0.219,0.339,0.51,0.339,0.818C23.349,50.119,23.229,50.41,23.01,50.628z M48.99,48.991
					C48.991,48.991,48.991,48.991,48.99,48.991L48.99,48.991c0.22-0.22,0.511-0.339,0.82-0.339c0.309,0,0.6,0.12,0.818,0.339
					s0.34,0.51,0.34,0.818c0,0.31-0.121,0.601-0.34,0.819s-0.51,0.34-0.818,0.34c-0.31,0-0.601-0.121-0.819-0.34
					c-0.109-0.108-0.194-0.236-0.252-0.375l0,0c0-0.001,0-0.001,0-0.002c-0.057-0.138-0.087-0.288-0.087-0.442
					C48.652,49.5,48.771,49.209,48.99,48.991z M34.842,16.47c0-0.638,0.52-1.158,1.158-1.158c0.639,0,1.158,0.52,1.158,1.158
					c0,0.639-0.519,1.158-1.158,1.158C35.362,17.628,34.842,17.109,34.842,16.47z M37.158,55.53c0,0.639-0.519,1.158-1.158,1.158
					c-0.638,0-1.158-0.52-1.158-1.158s0.52-1.158,1.158-1.158C36.639,54.372,37.158,54.891,37.158,55.53z M43.436,41.173H29.607
					c-1.863,0-3.38-1.517-3.38-3.381c0-1.863,1.517-3.379,3.38-3.379c0.484,0,0.877-0.393,0.877-0.876
					c0-0.989,0.804-1.793,1.793-1.793c0.288,0,0.563,0.066,0.817,0.197c0.425,0.218,0.946,0.056,1.172-0.364
					c0.831-1.543,2.435-2.502,4.185-2.502c2.62,0,4.751,2.131,4.751,4.751c0,0.525-0.085,1.042-0.252,1.534
					c-0.086,0.252-0.053,0.53,0.091,0.754c0.144,0.225,0.381,0.372,0.646,0.399c0.292,0.032,0.568,0.116,0.816,0.244
					c0.019,0.011,0.037,0.021,0.056,0.03c0.729,0.397,1.213,1.17,1.213,2.05C45.773,40.125,44.725,41.173,43.436,41.173z
					 M55.53,37.158c-0.639,0-1.158-0.519-1.158-1.158c0-0.638,0.52-1.158,1.158-1.158s1.158,0.52,1.158,1.158
					C56.688,36.639,56.168,37.158,55.53,37.158z"/>
			</g>
		</g>
	</g>
	<g>
		<g>
			<g>
				<path fill="#E0E1E7" d="M40.891,26.225l-0.013-0.005c-0.261-0.108-0.56,0.016-0.668,0.277s0.017,0.56,0.277,0.667l0.013,0.006
					c0.064,0.026,0.13,0.039,0.195,0.039c0.201,0,0.391-0.119,0.473-0.316C41.276,26.631,41.152,26.333,40.891,26.225z"/>
			</g>
		</g>
	</g>
	<g>
		<g>
			<g>
				<path fill="#E0E1E7" d="M33.117,25.934c-0.108-0.261-0.407-0.385-0.668-0.277l-0.013,0.005
					c-0.261,0.108-0.385,0.407-0.277,0.668c0.082,0.197,0.271,0.316,0.473,0.316c0.065,0,0.131-0.013,0.195-0.04l0.013-0.005
					C33.101,26.493,33.225,26.195,33.117,25.934z"/>
			</g>
		</g>
	</g>
	<g>
		<g>
			<g>
				<path fill="#E0E1E7" d="M26.745,30.948c-0.261-0.108-0.56,0.016-0.668,0.277l-0.005,0.014c-0.108,0.261,0.016,0.56,0.277,0.667
					c0.064,0.026,0.13,0.039,0.195,0.039c0.201,0,0.391-0.119,0.473-0.316l0.005-0.014C27.129,31.355,27.005,31.056,26.745,30.948z"
					/>
			</g>
		</g>
	</g>
	<g>
		<g>
			<g>
				<path fill="#E0E1E7" d="M26.459,39.291l-0.005-0.014c-0.108-0.261-0.407-0.385-0.668-0.276
					c-0.261,0.107-0.385,0.406-0.277,0.667l0.005,0.014c0.082,0.197,0.272,0.315,0.473,0.315c0.065,0,0.131-0.012,0.195-0.038
					C26.443,39.85,26.567,39.551,26.459,39.291z"/>
			</g>
		</g>
	</g>
	<g>
		<g>
			<g>
				<path fill="#E0E1E7" d="M31.482,45.101l-0.014-0.006c-0.261-0.107-0.56,0.017-0.667,0.277c-0.108,0.261,0.016,0.56,0.277,0.667
					l0.013,0.006c0.064,0.026,0.13,0.039,0.195,0.039c0.201,0,0.391-0.119,0.473-0.316C31.867,45.507,31.743,45.208,31.482,45.101z"
					/>
			</g>
		</g>
	</g>
	<g>
		<g>
			<g>
				<path fill="#E0E1E7" d="M39.81,45.935c-0.107-0.261-0.406-0.385-0.667-0.277l-0.014,0.005c-0.261,0.108-0.385,0.407-0.277,0.668
					c0.082,0.197,0.272,0.316,0.473,0.316c0.065,0,0.131-0.013,0.195-0.039l0.014-0.006C39.794,46.495,39.918,46.196,39.81,45.935z"
					/>
			</g>
		</g>
	</g>
	<g>
		<g>
			<g>
				<path fill="#E0E1E7" d="M45.621,40.358c-0.261-0.107-0.56,0.017-0.668,0.277l-0.005,0.014c-0.108,0.261,0.016,0.56,0.276,0.667
					c0.064,0.026,0.13,0.039,0.195,0.039c0.201,0,0.392-0.119,0.473-0.315l0.006-0.014C46.005,40.765,45.881,40.466,45.621,40.358z"
					/>
			</g>
		</g>
	</g>
	<g>
		<g>
			<g>
				<path fill="#E0E1E7" d="M46.46,32.597l-0.006-0.013c-0.107-0.261-0.406-0.385-0.668-0.277c-0.261,0.108-0.385,0.407-0.276,0.668
					l0.005,0.013c0.082,0.197,0.272,0.316,0.473,0.316c0.065,0,0.132-0.012,0.195-0.039C46.444,33.157,46.568,32.857,46.46,32.597z"
					/>
			</g>
		</g>
	</g>
</g>
</svg>
