<?xml version="1.0" encoding="utf-8"?>
<!-- Generator: Adobe Illustrator 16.0.0, SVG Export Plug-In . SVG Version: 6.00 Build 0)  -->
<!DOCTYPE svg PUBLIC "-//W3C//DTD SVG 1.1//EN" "http://www.w3.org/Graphics/SVG/1.1/DTD/svg11.dtd">
<svg version="1.1" id="Шар_1" xmlns="http://www.w3.org/2000/svg" xmlns:xlink="http://www.w3.org/1999/xlink" x="0px" y="0px"
	 width="45px" height="31.497px" viewBox="0 0 45 31.497" enable-background="new 0 0 45 31.497" xml:space="preserve" fill="#e0e1e7">
<g>
	<path d="M12.644,14.938c0,0-0.334-0.056-0.708-0.061c-0.532-0.007-0.758,0.189-0.756,0.188c-0.157,0.111-0.233,0.276-0.233,0.505
		c0,0.146,0.027,0.26,0.078,0.339c0.034,0.053,0.048,0.073,0.151,0.155c-0.002,0,0.234,0.184,0.764,0.152
		c0.373-0.022,0.705-0.094,0.705-0.094h0V14.938z"/>
	<path d="M28.259,13.38c-0.343,0-0.587,0.118-0.747,0.362c-0.161,0.246-0.243,0.597-0.243,1.043s0.082,0.799,0.243,1.047
		c0.16,0.247,0.404,0.366,0.747,0.366c0.342,0,0.588-0.12,0.75-0.366c0.164-0.249,0.247-0.601,0.247-1.047s-0.083-0.798-0.247-1.043
		C28.847,13.498,28.601,13.38,28.259,13.38z"/>
	<path d="M17.77,13.364c-0.342,0-0.585,0.134-0.746,0.378c-0.105,0.161-0.174,0.367-0.21,0.615l1.86,0
		c-0.018-0.24-0.065-0.455-0.172-0.616C18.338,13.498,18.112,13.364,17.77,13.364z"/>
	<path d="M38.659,13.364c-0.343,0-0.586,0.134-0.746,0.378c-0.105,0.161-0.174,0.367-0.211,0.615l1.86,0
		c-0.019-0.24-0.065-0.455-0.173-0.616C39.228,13.498,39.001,13.364,38.659,13.364z"/>
	<path d="M35.299,4.267c-1.396,0-2.725,0.298-3.925,0.834c-1.379-2.459-3.971-4.116-6.941-4.116c-2.235,0-4.255,0.938-5.707,2.45
		C17.129,1.347,14.611,0,11.776,0c-4.827,0-8.74,3.908-8.74,8.729c0,1.233,0.257,2.407,0.719,3.471C1.51,13.511,0,15.964,0,18.773
		c0,4.191,3.362,7.589,7.511,7.589c0.529,0,1.045-0.056,1.544-0.161c1.139,3.092,4.108,5.296,7.593,5.296
		c3.345,0,6.216-2.032,7.448-4.93c0.937,0.458,1.989,0.714,3.103,0.714c2.657,0,4.974-1.465,6.189-3.632
		c0.618,0.125,1.257,0.19,1.911,0.19c5.357,0,9.701-4.382,9.701-9.787S40.656,4.267,35.299,4.267z M9.636,15.624
		c0,0.791-0.574,1.281-1.497,1.281c-0.453,0-0.887-0.071-1.345-0.314c-0.087-0.049-0.173-0.094-0.257-0.155
		c-0.009-0.013-0.047-0.028-0.019-0.102L6.7,15.829c0.029-0.087,0.095-0.058,0.122-0.042c0.05,0.031,0.087,0.058,0.152,0.096
		c0.537,0.339,1.034,0.342,1.189,0.342c0.401,0,0.65-0.212,0.65-0.499V15.71c0-0.313-0.383-0.43-0.827-0.566l-0.098-0.03
		c-0.609-0.174-1.26-0.425-1.26-1.195v-0.016c0-0.731,0.59-1.242,1.435-1.242h0.092c0.497,0,0.976,0.144,1.323,0.355
		c0.031,0.019,0.063,0.056,0.045,0.104c-0.017,0.045-0.17,0.458-0.188,0.505c-0.033,0.086-0.122,0.028-0.122,0.028
		c-0.304-0.167-0.775-0.3-1.173-0.3c-0.357,0-0.588,0.189-0.588,0.448v0.016c0,0.301,0.395,0.43,0.853,0.578l0.079,0.025
		c0.606,0.192,1.254,0.458,1.254,1.188V15.624z M13.415,16.651c0,0-0.096,0.026-0.183,0.046c-0.087,0.02-0.401,0.084-0.657,0.127
		c-0.258,0.043-0.524,0.066-0.792,0.066c-0.253,0-0.485-0.023-0.69-0.07c-0.208-0.047-0.386-0.125-0.531-0.23
		c-0.146-0.106-0.26-0.243-0.34-0.408c-0.08-0.164-0.12-0.364-0.12-0.595c0-0.227,0.047-0.429,0.14-0.601
		c0.092-0.172,0.219-0.316,0.378-0.43c0.158-0.113,0.341-0.198,0.545-0.252c0.203-0.055,0.418-0.083,0.642-0.083
		c0.165,0,0.301,0.004,0.407,0.012c0,0,0.206,0.019,0.43,0.051v-0.11c0-0.348-0.072-0.512-0.214-0.622
		c-0.146-0.112-0.363-0.168-0.645-0.168c0,0-0.635-0.008-1.137,0.265c-0.023,0.014-0.043,0.021-0.043,0.021
		s-0.063,0.021-0.085-0.042l-0.185-0.496c-0.028-0.072,0.023-0.104,0.023-0.104c0.234-0.184,0.804-0.294,0.804-0.294
		c0.189-0.038,0.503-0.064,0.699-0.064c0.521,0,0.924,0.122,1.198,0.361c0.275,0.241,0.415,0.628,0.415,1.151l0.001,2.385
		C13.475,16.566,13.479,16.635,13.415,16.651z M15.166,16.727c0,0.043-0.031,0.079-0.075,0.079h-0.692
		c-0.043,0-0.075-0.036-0.075-0.079V11.16c0-0.043,0.031-0.079,0.075-0.079h0.692c0.044,0,0.075,0.036,0.075,0.079V16.727z
		 M19.485,14.936c-0.007,0.067-0.076,0.068-0.076,0.068l-2.608-0.002c0.016,0.396,0.111,0.676,0.304,0.867
		c0.188,0.187,0.488,0.306,0.892,0.307c0.619,0.001,0.884-0.124,1.071-0.193c0,0,0.072-0.026,0.098,0.045l0.17,0.478
		c0.035,0.081,0.007,0.108-0.021,0.125c-0.164,0.09-0.561,0.258-1.314,0.261c-0.366,0.001-0.684-0.052-0.947-0.153
		c-0.264-0.102-0.484-0.248-0.656-0.435c-0.172-0.186-0.299-0.409-0.378-0.663c-0.079-0.252-0.118-0.532-0.118-0.833
		c0-0.295,0.038-0.575,0.114-0.832c0.076-0.258,0.195-0.486,0.354-0.677s0.36-0.346,0.601-0.458c0.24-0.113,0.536-0.168,0.861-0.168
		c0.279,0,0.534,0.061,0.747,0.152c0.163,0.07,0.327,0.197,0.495,0.377c0.106,0.114,0.268,0.364,0.333,0.611
		C19.575,14.4,19.488,14.908,19.485,14.936z M21.653,16.905c-0.453,0-0.887-0.071-1.346-0.314c-0.086-0.049-0.172-0.094-0.257-0.155
		c-0.009-0.013-0.047-0.028-0.02-0.102l0.183-0.505c0.026-0.083,0.104-0.053,0.121-0.042c0.049,0.032,0.087,0.058,0.152,0.096
		c0.537,0.339,1.033,0.342,1.189,0.342c0.401,0,0.65-0.212,0.65-0.499V15.71c0-0.313-0.383-0.43-0.827-0.566l-0.098-0.03
		c-0.61-0.174-1.26-0.425-1.26-1.195v-0.016c0-0.731,0.59-1.242,1.435-1.242h0.092c0.496,0,0.975,0.144,1.323,0.355
		c0.031,0.019,0.062,0.056,0.044,0.104c-0.016,0.045-0.17,0.458-0.188,0.505c-0.033,0.086-0.123,0.028-0.123,0.028
		c-0.304-0.167-0.775-0.3-1.172-0.3c-0.358,0-0.588,0.189-0.588,0.448v0.016c0,0.301,0.395,0.43,0.852,0.578l0.079,0.025
		c0.607,0.192,1.254,0.458,1.254,1.188v0.015C23.149,16.415,22.576,16.905,21.653,16.905z M26.209,13.379
		c-0.015,0.079-0.088,0.076-0.088,0.076h-0.858l-0.588,3.325c-0.062,0.344-0.139,0.639-0.229,0.876
		c-0.091,0.24-0.187,0.416-0.339,0.583c-0.141,0.155-0.299,0.271-0.481,0.336c-0.182,0.065-0.4,0.099-0.641,0.099
		c-0.114,0-0.237-0.002-0.382-0.036c-0.104-0.025-0.162-0.042-0.238-0.07c-0.033-0.012-0.059-0.052-0.041-0.104
		c0.018-0.052,0.172-0.475,0.193-0.53c0.027-0.067,0.094-0.042,0.094-0.042c0.047,0.02,0.079,0.034,0.141,0.046
		c0.062,0.013,0.146,0.023,0.209,0.023c0.113,0,0.217-0.014,0.307-0.044c0.108-0.037,0.172-0.1,0.238-0.185
		c0.069-0.088,0.125-0.209,0.183-0.371c0.058-0.164,0.11-0.38,0.155-0.643l0.585-3.265h-0.576c-0.069,0-0.092-0.032-0.085-0.083
		l0.098-0.542c0.015-0.079,0.087-0.076,0.087-0.076h0.593l0.031-0.177c0.089-0.523,0.265-0.921,0.524-1.183
		c0.261-0.263,0.633-0.396,1.104-0.396c0.135,0,0.254,0.009,0.354,0.027c0.099,0.019,0.175,0.036,0.258,0.061
		c0.019,0.007,0.068,0.032,0.048,0.091l-0.199,0.548c-0.017,0.041-0.028,0.066-0.113,0.041c-0.021-0.006-0.053-0.016-0.134-0.033
		c-0.059-0.012-0.136-0.021-0.214-0.021c-0.103,0-0.197,0.013-0.28,0.04c-0.08,0.026-0.154,0.072-0.218,0.136
		c-0.065,0.065-0.143,0.161-0.184,0.279c-0.096,0.276-0.133,0.569-0.138,0.588h0.834c0.07,0,0.092,0.032,0.085,0.084L26.209,13.379z
		 M30.027,15.613c-0.076,0.256-0.194,0.481-0.351,0.669c-0.158,0.189-0.357,0.339-0.593,0.446c-0.235,0.107-0.513,0.162-0.825,0.162
		s-0.591-0.054-0.826-0.162c-0.235-0.107-0.435-0.257-0.592-0.446c-0.157-0.188-0.275-0.414-0.351-0.669
		c-0.075-0.254-0.113-0.533-0.113-0.828c0-0.295,0.038-0.574,0.113-0.828c0.075-0.256,0.193-0.481,0.351-0.669
		c0.157-0.189,0.356-0.34,0.592-0.45s0.514-0.166,0.826-0.166s0.59,0.056,0.825,0.166c0.236,0.11,0.436,0.261,0.593,0.45
		c0.156,0.188,0.274,0.414,0.351,0.669c0.075,0.254,0.113,0.533,0.113,0.828S30.103,15.359,30.027,15.613z M33.251,12.889
		c-0.024,0.071-0.151,0.428-0.196,0.547c-0.018,0.045-0.045,0.076-0.096,0.071c0,0-0.15-0.035-0.286-0.035
		c-0.095,0-0.229,0.012-0.35,0.049c-0.119,0.036-0.228,0.101-0.322,0.194c-0.096,0.093-0.172,0.222-0.229,0.383
		c-0.058,0.164-0.087,0.424-0.087,0.685v1.943c0,0.043-0.035,0.079-0.079,0.079h-0.685c-0.044,0-0.079-0.036-0.079-0.079v-3.891
		c0-0.044,0.031-0.079,0.074-0.079h0.669c0.044,0,0.075,0.035,0.075,0.079v0.318c0.1-0.134,0.278-0.252,0.44-0.325
		c0.163-0.073,0.345-0.128,0.673-0.108c0.171,0.011,0.393,0.058,0.438,0.075C33.229,12.801,33.271,12.83,33.251,12.889z
		 M36.512,16.694c-0.291,0.115-0.696,0.194-1.091,0.194c-0.668,0-1.18-0.192-1.521-0.572c-0.34-0.378-0.513-0.895-0.513-1.534
		c0-0.296,0.042-0.575,0.126-0.83c0.083-0.255,0.209-0.48,0.375-0.669c0.165-0.188,0.374-0.34,0.62-0.449
		c0.247-0.11,0.535-0.166,0.859-0.166c0.217,0,0.411,0.014,0.578,0.039c0.178,0.027,0.414,0.091,0.514,0.13
		c0.019,0.007,0.068,0.032,0.048,0.091c-0.071,0.206-0.122,0.339-0.189,0.526c-0.029,0.08-0.089,0.053-0.089,0.053
		c-0.255-0.08-0.497-0.117-0.815-0.117c-0.381,0-0.667,0.127-0.854,0.376c-0.188,0.25-0.294,0.579-0.296,1.015
		c-0.001,0.479,0.118,0.833,0.331,1.053c0.212,0.219,0.509,0.33,0.881,0.33c0.152,0,0.295-0.01,0.423-0.03
		c0.127-0.02,0.246-0.06,0.358-0.102c0,0,0.073-0.029,0.099,0.046l0.188,0.523C36.567,16.667,36.512,16.694,36.512,16.694z
		 M40.374,14.936c-0.007,0.067-0.076,0.068-0.076,0.068l-2.607-0.002c0.016,0.396,0.11,0.676,0.304,0.867
		c0.188,0.187,0.487,0.306,0.892,0.307c0.619,0.001,0.884-0.124,1.071-0.193c0,0,0.072-0.026,0.098,0.045l0.171,0.478
		c0.034,0.081,0.007,0.108-0.021,0.125c-0.164,0.09-0.561,0.258-1.314,0.261c-0.365,0.001-0.684-0.052-0.946-0.153
		c-0.264-0.102-0.484-0.248-0.656-0.435c-0.172-0.186-0.299-0.409-0.378-0.663c-0.078-0.252-0.118-0.532-0.118-0.833
		c0-0.295,0.038-0.575,0.114-0.832c0.076-0.258,0.195-0.486,0.354-0.677s0.36-0.346,0.601-0.458
		c0.239-0.113,0.535-0.168,0.861-0.168c0.279,0,0.534,0.061,0.747,0.152c0.163,0.07,0.327,0.197,0.495,0.377
		c0.106,0.114,0.268,0.364,0.333,0.611C40.464,14.4,40.377,14.908,40.374,14.936z"/>
</g>
</svg>
