<?xml version="1.0" encoding="utf-8"?>
<!-- Generator: Adobe Illustrator 16.0.0, SVG Export Plug-In . SVG Version: 6.00 Build 0)  -->
<!DOCTYPE svg PUBLIC "-//W3C//DTD SVG 1.1//EN" "http://www.w3.org/Graphics/SVG/1.1/DTD/svg11.dtd">
<svg version="1.1" id="Layer_1" xmlns="http://www.w3.org/2000/svg" xmlns:xlink="http://www.w3.org/1999/xlink" x="0px" y="0px"
	 width="58px" height="58px" viewBox="10.899 10.142 58 58" enable-background="new 10.899 10.142 58 58" xml:space="preserve">
<g>
	<circle fill="#393939" cx="39.899" cy="39.142" r="29"/>
	<g>
		<path fill="#FFFFFF" d="M44.939,34.283h-0.183v-2.417c0-2.68-2.18-4.861-4.861-4.861c-2.68,0-4.861,2.181-4.861,4.861
			c0,0.337,0.277,0.615,0.615,0.615c0.338,0,0.614-0.277,0.614-0.615c0-2.005,1.634-3.639,3.639-3.639
			c2.005,0,3.639,1.634,3.639,3.639v2.417h-8.689c-0.878,0-1.593,0.716-1.593,1.594v6.637c0,0.877,0.715,1.593,1.593,1.593h10.08
			c0.878,0,1.594-0.716,1.594-1.593v-6.637C46.526,34.999,45.817,34.283,44.939,34.283z M45.303,42.507
			c0,0.202-0.161,0.364-0.364,0.364H34.852c-0.203,0-0.364-0.162-0.364-0.364V35.87c0-0.203,0.162-0.365,0.364-0.365h10.08
			c0.203,0,0.365,0.162,0.365,0.365v6.637H45.303z"/>
		<path fill="#FFFFFF" d="M40.071,37.464c-0.446-0.088-0.912,0.162-1.101,0.587c-0.196,0.439-0.068,0.932,0.331,1.223
			c0.081,0.06,0.095,0.115,0.095,0.202c0,0.439,0,0.872,0,1.311l0,0c0,0.357,0.378,0.634,0.763,0.439
			c0.162-0.082,0.256-0.257,0.243-0.439l0,0c0-0.439,0-0.871,0-1.311c0-0.094,0.02-0.155,0.108-0.215
			c0.277-0.203,0.412-0.479,0.412-0.817C40.909,37.957,40.564,37.558,40.071,37.464z"/>
		<path fill="#FFFFFF" d="M31.166,38.841H27.77c-0.27-0.938-1.127-1.627-2.154-1.627c-1.235,0-2.242,1.006-2.242,2.242
			c0,1.235,1.006,2.242,2.242,2.242c1.02,0,1.884-0.689,2.154-1.627h3.403c0.337,0,0.614-0.277,0.614-0.614
			C31.78,39.118,31.503,38.841,31.166,38.841z M25.616,40.468c-0.561,0-1.013-0.452-1.013-1.013c0-0.561,0.452-1.013,1.013-1.013
			s1.013,0.452,1.013,1.013C26.628,40.016,26.176,40.468,25.616,40.468z"/>
		<path fill="#FFFFFF" d="M31.166,35.242h-3.72c-0.668,0-1.215-0.547-1.215-1.215v-1.999c0.939-0.27,1.627-1.127,1.627-2.154
			c0-1.235-1.006-2.241-2.242-2.241s-2.242,1.006-2.242,2.241c0,1.02,0.689,1.884,1.627,2.154v1.999
			c0,1.344,1.094,2.438,2.438,2.438h3.727c0.338,0,0.615-0.277,0.615-0.615C31.78,35.512,31.503,35.242,31.166,35.242z
			 M24.596,29.875c0-0.56,0.453-1.013,1.013-1.013c0.561,0,1.013,0.453,1.013,1.013s-0.452,1.013-1.013,1.013
			C25.049,30.887,24.596,30.435,24.596,29.875z"/>
		<path fill="#FFFFFF" d="M31.166,42.439h-3.72c-1.343,0-2.437,1.094-2.437,2.437v1.999c-0.938,0.271-1.627,1.128-1.627,2.153
			c0,1.235,1.006,2.242,2.242,2.242s2.241-1.007,2.241-2.242c0-1.019-0.688-1.883-1.627-2.153v-1.999
			c0-0.668,0.547-1.215,1.215-1.215h3.727c0.338,0,0.614-0.276,0.614-0.614C31.78,42.717,31.503,42.439,31.166,42.439z
			 M26.628,49.029c0,0.561-0.452,1.014-1.013,1.014s-1.013-0.453-1.013-1.014c0-0.56,0.452-1.013,1.013-1.013
			S26.628,48.469,26.628,49.029z"/>
		<path fill="#FFFFFF" d="M54.175,37.213c-1.02,0-1.884,0.689-2.153,1.627h-3.403c-0.337,0-0.614,0.277-0.614,0.615
			c0,0.337,0.277,0.614,0.614,0.614h3.403c0.27,0.938,1.127,1.627,2.153,1.627c1.236,0,2.241-1.006,2.241-2.242
			C56.417,38.22,55.412,37.213,54.175,37.213z M54.175,40.468c-0.561,0-1.013-0.452-1.013-1.013c0-0.561,0.452-1.013,1.013-1.013
			s1.013,0.452,1.013,1.013C55.195,40.016,54.736,40.468,54.175,40.468z"/>
		<path fill="#FFFFFF" d="M54.791,46.875v-1.999c0-1.343-1.095-2.437-2.438-2.437h-3.726c-0.339,0-0.615,0.277-0.615,0.615
			c0,0.337,0.276,0.614,0.615,0.614h3.727c0.668,0,1.215,0.547,1.215,1.216v1.998c-0.938,0.271-1.627,1.128-1.627,2.154
			c0,1.234,1.006,2.241,2.241,2.241s2.241-1.007,2.241-2.241C56.417,48.01,55.728,47.146,54.791,46.875z M54.175,50.049
			c-0.561,0-1.013-0.452-1.013-1.013s0.452-1.014,1.013-1.014s1.013,0.453,1.013,1.014C55.195,49.589,54.736,50.049,54.175,50.049z"
			/>
		<path fill="#FFFFFF" d="M48.626,36.464h3.727c1.343,0,2.438-1.094,2.438-2.438v-1.999c0.938-0.27,1.626-1.127,1.626-2.154
			c0-1.235-1.005-2.241-2.241-2.241c-1.235,0-2.241,1.006-2.241,2.241c0,1.02,0.688,1.884,1.627,2.154v1.999
			c0,0.668-0.547,1.215-1.215,1.215h-3.728c-0.337,0-0.614,0.277-0.614,0.615C48.011,36.188,48.288,36.464,48.626,36.464z
			 M53.163,29.875c0-0.56,0.452-1.013,1.013-1.013s1.013,0.453,1.013,1.013s-0.452,1.013-1.013,1.013S53.163,30.435,53.163,29.875z"
			/>
	</g>
</g>
</svg>
