<?xml version="1.0" encoding="utf-8"?>
<!-- Generator: Adobe Illustrator 16.0.0, SVG Export Plug-In . SVG Version: 6.00 Build 0)  -->
<!DOCTYPE svg PUBLIC "-//W3C//DTD SVG 1.1//EN" "http://www.w3.org/Graphics/SVG/1.1/DTD/svg11.dtd">
<svg version="1.1" id="Шар_1" xmlns="http://www.w3.org/2000/svg" xmlns:xlink="http://www.w3.org/1999/xlink" x="0px" y="0px"
	 width="40px" height="34.617px" viewBox="0 0 40 34.617" enable-background="new 0 0 40 34.617" xml:space="preserve">
<g>
	<path fill="#E0E1E7" d="M13.043,16.756c-0.639,0-1.159,0.52-1.159,1.159v1.159c0,0.64,0.521,1.16,1.159,1.16
		c0.64,0,1.16-0.52,1.16-1.16v-1.159C14.203,17.276,13.683,16.756,13.043,16.756z"/>
	<path fill="#E0E1E7" d="M22.319,16.756c-0.64,0-1.16,0.52-1.16,1.159v1.159c0,0.64,0.52,1.16,1.16,1.16
		c0.639,0,1.159-0.52,1.159-1.16v-1.159C23.479,17.276,22.958,16.756,22.319,16.756z"/>
	<path fill="#E0E1E7" d="M8.406,6.708c-0.639,0-1.159,0.52-1.159,1.159v1.16c0,0.639,0.521,1.159,1.159,1.159
		c0.64,0,1.16-0.52,1.16-1.159v-1.16C9.565,7.228,9.045,6.708,8.406,6.708z"/>
	<path fill="#E0E1E7" d="M31.595,6.708c-0.64,0-1.16,0.52-1.16,1.159v1.16c0,0.639,0.52,1.159,1.16,1.159
		c0.639,0,1.159-0.52,1.159-1.159v-1.16C32.754,7.228,32.234,6.708,31.595,6.708z"/>
	<path fill="#E0E1E7" d="M33.763,0H6.238C2.798,0,0,2.798,0,6.238v15.351c0,3.439,2.798,6.237,6.238,6.237h2.378l-0.4,5.548
		c-0.033,0.455,0.204,0.887,0.605,1.104c0.173,0.093,0.362,0.139,0.551,0.139c0.25,0,0.499-0.081,0.705-0.239l8.563-6.552h15.122
		c3.439,0,6.237-2.798,6.237-6.238V6.238C40,2.798,37.202,0,33.763,0z M7.247,21.393c0,0.641-0.519,1.16-1.159,1.16
		c-0.641,0-1.16-0.519-1.16-1.16v-5.797c0-0.64,0.519-1.159,1.16-1.159c0.64,0,1.159,0.519,1.159,1.159V21.393z M8.406,12.505
		c-1.917,0-3.478-1.561-3.478-3.479v-1.16c0-1.918,1.561-3.478,3.478-3.478c1.918,0,3.479,1.56,3.479,3.478v1.16
		C11.884,10.944,10.324,12.505,8.406,12.505z M16.522,19.074c0,1.918-1.561,3.479-3.479,3.479c-1.917,0-3.478-1.56-3.478-3.479
		v-1.159c0-1.918,1.561-3.478,3.478-3.478c1.918,0,3.479,1.56,3.479,3.478V19.074z M16.522,11.345c0,0.641-0.519,1.159-1.159,1.159
		c-0.641,0-1.16-0.519-1.16-1.159V5.548c0-0.64,0.519-1.159,1.16-1.159c0.64,0,1.159,0.519,1.159,1.159V11.345z M18.841,5.548
		c0-0.64,0.52-1.159,1.16-1.159s1.159,0.519,1.159,1.159v5.797c0,0.641-0.519,1.16-1.159,1.16c-0.641,0-1.16-0.52-1.16-1.16V5.548z
		 M25.797,19.074c0,1.918-1.56,3.479-3.478,3.479s-3.479-1.56-3.479-3.479v-1.159c0-1.918,1.561-3.478,3.479-3.478
		s3.478,1.56,3.478,3.478V19.074z M25.797,11.345c0,0.641-0.519,1.159-1.16,1.159c-0.64,0-1.159-0.519-1.159-1.159V5.548
		c0-0.64,0.519-1.159,1.159-1.159c0.641,0,1.16,0.519,1.16,1.159V11.345z M30.435,21.393c0,0.641-0.519,1.16-1.16,1.16
		c-0.64,0-1.159-0.519-1.159-1.16v-5.797c0-0.64,0.519-1.159,1.159-1.159c0.641,0,1.16,0.519,1.16,1.159V21.393z M35.073,21.429
		c0,0.64-0.519,1.159-1.159,1.159c-0.641,0-1.16-0.519-1.16-1.159v-0.036c0-0.64,0.519-1.159,1.16-1.159
		c0.64,0,1.159,0.52,1.159,1.159V21.429z M35.073,17.38c0,0.641-0.519,1.16-1.159,1.16c-0.641,0-1.16-0.519-1.16-1.16v-1.784
		c0-0.64,0.519-1.159,1.16-1.159c0.64,0,1.159,0.519,1.159,1.159V17.38z M35.073,9.026c0,1.917-1.561,3.479-3.478,3.479
		c-1.918,0-3.479-1.561-3.479-3.479v-1.16c0-1.918,1.561-3.478,3.479-3.478c1.917,0,3.478,1.56,3.478,3.478V9.026z"/>
</g>
</svg>
