<?xml version="1.0" encoding="utf-8"?>
<!-- Generator: Adobe Illustrator 16.0.0, SVG Export Plug-In . SVG Version: 6.00 Build 0)  -->
<!DOCTYPE svg PUBLIC "-//W3C//DTD SVG 1.1//EN" "http://www.w3.org/Graphics/SVG/1.1/DTD/svg11.dtd">
<svg version="1.1" id="Шар_1" xmlns="http://www.w3.org/2000/svg" xmlns:xlink="http://www.w3.org/1999/xlink" x="0px" y="0px"
	 width="72px" height="72px" viewBox="0 0 72 72" enable-background="new 0 0 72 72" xml:space="preserve">
<g>
	<g>
		<circle fill="#3B4248" cx="36" cy="36" r="35.198"/>
		<path fill="#E0E1E7" d="M36,72C16.15,72,0,55.85,0,36C0,16.149,16.15,0,36,0s36,16.149,36,36C72,55.85,55.85,72,36,72z M36,1.604
			C17.034,1.604,1.604,17.034,1.604,36S17.034,70.396,36,70.396c18.966,0,34.396-15.43,34.396-34.396S54.966,1.604,36,1.604z"/>
	</g>
	<g>
		<g>
			<g>
				<path fill="#E0E1E7" d="M52.67,46.309h-1.312V26.646c0-0.382-0.31-0.692-0.691-0.692h-4.306c-0.381,0-0.691,0.31-0.691,0.692
					v19.663h-1.797V28.586c0-0.382-0.31-0.691-0.692-0.691h-4.305c-0.382,0-0.691,0.31-0.691,0.691v17.723h-1.797V25.19
					c0-0.382-0.31-0.692-0.692-0.692h-4.305c-0.382,0-0.691,0.31-0.691,0.692v21.119h-1.797V30.943c0-0.382-0.31-0.692-0.692-0.692
					h-4.305c-0.382,0-0.691,0.31-0.691,0.692v15.366h-1.805V25c0-0.382-0.31-0.692-0.692-0.692c-0.382,0-0.691,0.31-0.691,0.692
					v0.885h-0.694c-0.382,0-0.692,0.31-0.692,0.692s0.31,0.691,0.692,0.691h0.694v1.667h-0.694c-0.382,0-0.692,0.31-0.692,0.692
					s0.31,0.692,0.692,0.692h0.694v1.666h-0.694c-0.382,0-0.692,0.31-0.692,0.692c0,0.382,0.31,0.691,0.692,0.691h0.694v1.667
					h-0.694c-0.382,0-0.692,0.31-0.692,0.692c0,0.382,0.31,0.691,0.692,0.691h0.694v1.666h-0.694c-0.382,0-0.692,0.311-0.692,0.692
					s0.31,0.691,0.692,0.691h0.694v1.667h-0.694c-0.382,0-0.692,0.31-0.692,0.691s0.31,0.691,0.692,0.691h0.694v1.666h-0.694
					c-0.382,0-0.692,0.311-0.692,0.692s0.31,0.691,0.692,0.691h0.694V47c0,0.382,0.31,0.691,0.691,0.691h31.953
					c0.382,0,0.691-0.31,0.691-0.691S53.051,46.309,52.67,46.309z M27.518,46.309h-2.921V34.754h2.921V46.309L27.518,46.309z
					 M27.518,33.371h-2.921v-1.736h2.921V33.371L27.518,33.371z M35.004,46.309h-2.921V31.856h2.921V46.309z M35.004,30.473h-2.921
					v-4.59h2.921V30.473z M42.49,46.309h-2.922v-8.99h2.922V46.309z M42.49,35.936h-2.922v-6.657h2.922V35.936z M49.976,46.309
					h-2.922V33.922h2.922V46.309z M49.976,32.539h-2.922v-5.202h2.922V32.539z"/>
			</g>
		</g>
	</g>
</g>
</svg>
