<?xml version="1.0" encoding="utf-8"?>
<!-- Generator: Adobe Illustrator 16.0.0, SVG Export Plug-In . SVG Version: 6.00 Build 0)  -->
<!DOCTYPE svg PUBLIC "-//W3C//DTD SVG 1.1//EN" "http://www.w3.org/Graphics/SVG/1.1/DTD/svg11.dtd">
<svg version="1.1" id="Шар_1" xmlns="http://www.w3.org/2000/svg" xmlns:xlink="http://www.w3.org/1999/xlink" x="0px" y="0px"
	 width="42px" height="42px" viewBox="0 0 42 42" enable-background="new 0 0 42 42" xml:space="preserve">
<g>
	<path fill="#E0E1E7" d="M41.329,8.489c0.37,0,0.671-0.3,0.671-0.67V3.352c0-0.371-0.301-0.671-0.671-0.671h-1.117V0.67
		c0-0.37-0.299-0.67-0.67-0.67c-0.37,0-0.67,0.3-0.67,0.67v2.011H3.127V0.67c0-0.37-0.3-0.67-0.67-0.67S1.786,0.3,1.786,0.67v2.011
		H0.669C0.3,2.681,0,2.98,0,3.352v4.468c0,0.37,0.3,0.67,0.669,0.67h1.117v23.815H0.669C0.3,32.305,0,32.604,0,32.975
		s0.3,0.67,0.669,0.67h19.66v3.534c-1.03,0.293-1.786,1.241-1.786,2.363c0,1.355,1.102,2.458,2.456,2.458
		c1.355,0,2.458-1.103,2.458-2.458c0-1.122-0.758-2.07-1.787-2.363v-3.534h19.659c0.37,0,0.671-0.3,0.671-0.67
		s-0.301-0.67-0.671-0.67h-1.117V8.489H41.329z M22.116,39.542c0,0.616-0.5,1.117-1.117,1.117c-0.615,0-1.117-0.501-1.117-1.117
		c0-0.615,0.502-1.116,1.117-1.116C21.616,38.426,22.116,38.927,22.116,39.542z M1.34,7.148V4.021h39.319v3.127H1.34z"/>
	<rect x="3.127" y="8.489" fill="#E0E1E7" width="35.745" height="23.815"/>
	<polygon fill="#3B4248" points="18.691,19.609 23.086,24.003 31.381,15.708 31.381,18.874 32.364,18.874 32.364,14.029 
		27.517,14.029 27.517,15.013 30.686,15.013 23.086,22.612 18.691,18.218 9.745,27.165 10.44,27.86 	"/>
</g>
</svg>
