<?xml version="1.0" encoding="utf-8"?>
<!-- Generator: Adobe Illustrator 16.0.0, SVG Export Plug-In . SVG Version: 6.00 Build 0)  -->
<!DOCTYPE svg PUBLIC "-//W3C//DTD SVG 1.1//EN" "http://www.w3.org/Graphics/SVG/1.1/DTD/svg11.dtd">
<svg version="1.1" id="Шар_1" xmlns="http://www.w3.org/2000/svg" xmlns:xlink="http://www.w3.org/1999/xlink" x="0px" y="0px"
	 width="43px" height="42.969px" viewBox="0 0 43 42.969" enable-background="new 0 0 43 42.969" xml:space="preserve">
<g>
	<path fill="#E0E1E7" d="M35.724,31.233c1.369-1.985,2.292-4.2,2.746-6.583l0.082-0.432L43,23.544v-4.119l-4.431-0.674l-0.084-0.428
		c-0.471-2.401-1.401-4.629-2.762-6.62l-0.249-0.363l2.651-3.595l-2.9-2.9l-3.596,2.651l-0.363-0.249
		c-2.021-1.382-4.252-2.312-6.631-2.762l-0.432-0.082L23.543,0h-4.117l-0.659,4.406l-0.436,0.08
		c-2.364,0.433-4.654,1.386-6.623,2.758l-0.364,0.254L7.745,4.844l-2.901,2.9l2.652,3.597l-0.251,0.364
		c-1.374,1.994-2.292,4.223-2.729,6.625l-0.079,0.436L0,19.44v4.119l4.449,0.674l0.082,0.432c0.451,2.371,1.4,4.647,2.744,6.583
		l0.254,0.365l-2.684,3.613l2.9,2.9l3.641-2.682l0.363,0.248c2.006,1.367,4.221,2.281,6.583,2.716l0.435,0.08l0.674,4.481h4.117
		l0.674-4.481l0.435-0.08c2.362-0.435,4.577-1.349,6.583-2.716l0.363-0.248l3.641,2.682l2.9-2.901l-2.683-3.627L35.724,31.233z
		 M21.492,36.226c-8.132,0-14.749-6.617-14.749-14.75c0-8.132,6.617-14.749,14.749-14.749c8.133,0,14.75,6.617,14.75,14.749
		C36.226,29.61,29.609,36.226,21.492,36.226z"/>
	<g>
		<path fill="#E0E1E7" d="M22.463,32.141v-1.168l-0.971-2.728l-1.356,3.865C20.896,32.201,21.666,32.217,22.463,32.141z"/>
		<path fill="#E0E1E7" d="M21.528,25.781h-0.071c-0.259,0-0.58,0.081-0.646,0.211c-0.071,0.14-0.015,0.622,0.649,1.544l0.032,0.045
			l0.031-0.043c0.661-0.924,0.716-1.408,0.644-1.548C22.1,25.862,21.783,25.781,21.528,25.781z"/>
		<path fill="#E0E1E7" d="M13.861,26.283c-0.256,0.065-1.006,0.254-1.27,1.537c1.808,2.378,4.53,3.919,7.501,4.285l-2.357-7.457
			C16.927,25.124,15.502,25.867,13.861,26.283z"/>
		<path fill="#E0E1E7" d="M30.39,27.765c-0.283-1.239-1.013-1.419-1.263-1.481c-1.644-0.416-3.069-1.159-3.877-1.636l-2.375,7.447
			c0.367-0.048,0.738-0.113,1.112-0.197C26.539,31.315,28.803,29.851,30.39,27.765z"/>
	</g>
	<path fill="#E0E1E7" d="M17.166,18.864c0.208,0.658,0.364,0.917,0.432,1.008l0.376,0.025l0.078,0.488
		c0.191,1.198,1.127,2.677,2.548,3.185c0.559,0.193,1.19,0.195,1.76-0.002c1.429-0.52,2.371-1.987,2.558-3.167l0.078-0.487
		l0.373-0.025c0.067-0.094,0.217-0.359,0.407-1.028c0.157-0.544,0.163-0.824,0.151-0.949l-0.861,0.065l0.294-0.897
		c0.073-0.205,0.116-0.37,0.139-0.523c0.324-1.929-0.027-2.764-0.265-3.091c-0.232-0.32-0.493-0.362-0.504-0.363l-0.315-0.047
		l-0.169-0.286c-0.007-0.013-0.263-0.473-0.938-0.839c-0.642-0.372-1.295-0.514-2.098-0.447c-0.307,0.015-0.584,0.066-0.827,0.151
		c-0.336,0.116-0.635,0.27-0.916,0.47c-0.354,0.22-0.674,0.488-1.013,0.842c-0.551,0.567-0.889,1.156-1.036,1.804
		c-0.137,0.522-0.13,1.078,0.017,1.767c0.043,0.198,0.083,0.386,0.146,0.563l0.32,0.898l-0.879-0.067
		C17.008,18.037,17.014,18.318,17.166,18.864z"/>
</g>
</svg>
