<?xml version="1.0" encoding="utf-8"?>
<!-- Generator: Adobe Illustrator 16.0.0, SVG Export Plug-In . SVG Version: 6.00 Build 0)  -->
<!DOCTYPE svg PUBLIC "-//W3C//DTD SVG 1.1//EN" "http://www.w3.org/Graphics/SVG/1.1/DTD/svg11.dtd">
<svg version="1.1" id="Шар_1" xmlns="http://www.w3.org/2000/svg" xmlns:xlink="http://www.w3.org/1999/xlink" x="0px" y="0px"
	 width="36px" height="36.018px" viewBox="0 0 36 36.018" enable-background="new 0 0 36 36.018" xml:space="preserve">
<path d="M30.729,5.279C27.327,1.877,22.811,0,17.999,0S8.67,1.877,5.269,5.279c-6.561,6.561-7.036,17.043-1.191,24.148
	c-0.807,1.651-1.757,2.752-2.835,3.28c-0.656,0.324-1.026,1.033-0.921,1.757c0.113,0.731,0.672,1.298,1.403,1.41
	c0.399,0.061,0.829,0.099,1.274,0.099c2.21,0,4.532-0.762,6.471-2.097c2.609,1.402,5.543,2.142,8.529,2.142
	c4.812,0,9.328-1.87,12.729-5.271S36,22.82,36,18.017S34.13,8.68,30.729,5.279z M25.54,23.952H10.458
	c-0.566,0-1.019-0.453-1.019-1.019c0-0.565,0.452-1.018,1.019-1.018H25.54c0.559,0,1.019,0.452,1.019,1.018
	C26.559,23.499,26.105,23.952,25.54,23.952z M25.54,19.027H10.458c-0.566,0-1.019-0.453-1.019-1.019s0.452-1.019,1.019-1.019H25.54
	c0.559,0,1.019,0.453,1.019,1.019S26.105,19.027,25.54,19.027z M25.54,14.103H10.458c-0.566,0-1.019-0.453-1.019-1.018
	c0-0.566,0.452-1.019,1.019-1.019H25.54c0.559,0,1.019,0.453,1.019,1.019C26.559,13.65,26.105,14.103,25.54,14.103z"/>
</svg>
