<?xml version="1.0" encoding="utf-8"?>
<!-- Generator: Adobe Illustrator 16.0.0, SVG Export Plug-In . SVG Version: 6.00 Build 0)  -->
<!DOCTYPE svg PUBLIC "-//W3C//DTD SVG 1.1//EN" "http://www.w3.org/Graphics/SVG/1.1/DTD/svg11.dtd">
<svg version="1.1" id="Capa_1" xmlns="http://www.w3.org/2000/svg" xmlns:xlink="http://www.w3.org/1999/xlink" x="0px" y="0px"
	 width="58px" height="58px" viewBox="20.52 13.52 58 58" enable-background="new 20.52 13.52 58 58" xml:space="preserve">
<g>
	<circle fill="#393939" cx="49.52" cy="42.52" r="29"/>
	<g>
		<g>
			<g>
				<path fill="#FFFFFF" d="M55.573,43.944l-2.99-1.329c-0.211-0.094-0.347-0.304-0.347-0.535v-0.821
					c1.004-0.8,1.649-2.033,1.649-3.414v-1.155c0.331-0.183,0.55-0.537,0.55-0.932v-0.112c0-2.406-1.958-4.365-4.364-4.365H48.97
					c-2.406,0-4.364,1.958-4.364,4.365v1.018c0,0.348,0.15,0.663,0.411,0.864c0.044,0.034,0.091,0.064,0.139,0.09v0.227
					c0,1.381,0.646,2.614,1.65,3.414v0.821c0,0.231-0.137,0.441-0.348,0.535l-2.99,1.329c-0.979,0.435-1.612,1.408-1.612,2.48v6.82
					c0,0.284,0.23,0.515,0.515,0.515s0.515-0.23,0.515-0.515v-6.82c0-0.06,0.004-0.118,0.01-0.178l1.377,1.379
					c0.215,0.214,0.333,0.499,0.333,0.803v4.816c0,0.284,0.23,0.515,0.515,0.515s0.515-0.23,0.515-0.515v-4.816
					c0-0.579-0.225-1.122-0.634-1.531l-1.643-1.643c0.147-0.152,0.325-0.28,0.527-0.371l2.939-1.306l2.18,2.18v7.487
					c0,0.284,0.23,0.515,0.516,0.515c0.283,0,0.514-0.23,0.514-0.515v-7.487l2.181-2.18l2.939,1.306
					c0.202,0.091,0.379,0.219,0.528,0.371l-1.643,1.643c-0.409,0.409-0.635,0.952-0.635,1.531v4.816c0,0.284,0.23,0.515,0.515,0.515
					s0.515-0.23,0.515-0.515v-4.816c0-0.304,0.118-0.589,0.333-0.803l1.378-1.379c0.006,0.06,0.01,0.117,0.01,0.178v6.82
					c0,0.284,0.23,0.515,0.515,0.515s0.515-0.23,0.515-0.515v-6.82C57.185,45.352,56.551,44.378,55.573,43.944z M49.521,44.817
					l-1.913-1.913c0.145-0.245,0.228-0.528,0.228-0.824V41.87c0.519,0.218,1.088,0.339,1.686,0.339c0.597,0,1.166-0.121,1.685-0.339
					v0.209c0,0.296,0.082,0.58,0.228,0.824L49.521,44.817z M49.521,41.18c-1.84,0-3.336-1.497-3.336-3.336v-0.231
					c0.321-0.127,1.72-1.878,2.02-2.155c0.21-0.193,0.223-0.519,0.029-0.727c-0.192-0.209-0.518-0.222-0.727-0.029
					c-0.257,0.238-1.601,1.939-1.85,2.005c-0.007,0.001-0.011,0.002-0.014,0.002c-0.004-0.007-0.009-0.022-0.009-0.046v-1.018
					c0-1.839,1.496-3.335,3.335-3.335h1.101c1.839,0,3.335,1.496,3.335,3.335v0.112c0,0.017-0.01,0.031-0.023,0.034
					c-3.081,0.609-4.627-0.538-5.148-1.06c-0.2-0.201-0.526-0.201-0.728,0c-0.2,0.201-0.2,0.526,0,0.728
					c1.598,1.598,3.931,1.626,5.35,1.456v0.93C52.856,39.684,51.36,41.18,49.521,41.18z"/>
			</g>
		</g>
		<g>
			<g>
				<path fill="#FFFFFF" d="M41.235,41.145v-1.101c0-1.342-0.697-2.524-1.749-3.204c0.065-0.208,0.099-0.426,0.099-0.646
					c0-1.194-0.971-2.165-2.165-2.165c-1.193,0-2.164,0.971-2.164,2.165c0,0.222,0.033,0.438,0.098,0.646
					c-1.051,0.68-1.749,1.862-1.749,3.204v1.1c0,1.3,0.654,2.45,1.65,3.139v1.131c0,0.224-0.124,0.424-0.324,0.523l-1.78,0.891
					c-0.738,0.369-1.196,1.11-1.196,1.936v4.48c0,0.284,0.23,0.515,0.515,0.515c0.284,0,0.514-0.23,0.514-0.515v-4.258l0.839,0.839
					c0.214,0.214,0.333,0.499,0.333,0.802v2.617c0,0.284,0.23,0.515,0.514,0.515c0.285,0,0.515-0.23,0.515-0.515v-2.617
					c0-0.578-0.225-1.121-0.634-1.53l-1.167-1.166c-0.005-0.006-0.012-0.011-0.017-0.017c0.073-0.064,0.155-0.121,0.246-0.166
					l1.78-0.89c0.091-0.046,0.176-0.1,0.255-0.159l1.258,1.258v5.287c0,0.284,0.23,0.515,0.514,0.515s0.515-0.23,0.515-0.515v-5.287
					l1.258-1.258c0.079,0.06,1.516,0.819,1.607,0.865L41.664,48c0.074,0.037,0.153,0.055,0.23,0.055c0.188,0,0.371-0.104,0.46-0.285
					c0.127-0.254,0.024-0.563-0.23-0.69l-0.863-0.435c-0.914-0.476-1.676-1.006-1.676-1.229v-1.131
					C40.581,43.594,41.235,42.444,41.235,41.145z M37.42,35.059c0.626,0,1.136,0.509,1.136,1.136c0,0.069-0.007,0.136-0.019,0.203
					c-0.353-0.109-0.728-0.167-1.117-0.167c-0.388,0-0.762,0.059-1.116,0.167c-0.012-0.066-0.02-0.134-0.02-0.202
					C36.285,35.568,36.794,35.059,37.42,35.059z M37.42,37.259c1.536,0,2.786,1.25,2.786,2.786v0.186
					c-2.143,0.656-3.419-0.974-3.474-1.045c-0.09-0.12-0.227-0.194-0.375-0.205c-0.149-0.011-0.295,0.044-0.4,0.149
					c-0.492,0.491-0.973,0.728-1.32,0.842C34.675,38.47,35.909,37.259,37.42,37.259z M37.42,47.017l-1.189-1.189
					c0.035-0.132,0.054-0.271,0.054-0.413v-0.628c0.359,0.112,0.74,0.173,1.135,0.173c0.396,0,0.776-0.061,1.136-0.173v0.628
					c0,0.142,0.019,0.281,0.053,0.413L37.42,47.017z M37.42,43.93c-1.536,0-2.785-1.25-2.785-2.786v-0.107
					c0.41-0.094,1.019-0.313,1.653-0.823c0.225,0.211,0.546,0.472,0.955,0.694c0.483,0.264,1.151,0.507,1.966,0.507
					c0.31,0,0.642-0.036,0.992-0.118C40.122,42.763,38.905,43.93,37.42,43.93z"/>
			</g>
		</g>
		<g>
			<g>
				<path fill="#FFFFFF" d="M65.887,45.728l-2.879-1.44c-0.2-0.1-0.323-0.3-0.323-0.523v-0.729c0.674-0.599,1.1-1.471,1.1-2.441
					v-0.586c0.012,0,0.023,0,0.036,0c0.283,0,0.514-0.23,0.514-0.515v-1.1c0-1.8-1.464-3.265-3.265-3.265h-1.1
					c-1.801,0-3.265,1.465-3.265,3.265v1.1c0,0.284,0.23,0.515,0.515,0.515c0.004,0,0.017,0,0.036-0.001v0.586
					c0,0.97,0.425,1.842,1.1,2.441v0.952c0,0.224-1.432,1.099-1.631,1.197c-0.255,0.128-0.358,0.437-0.23,0.69
					c0.09,0.181,0.272,0.285,0.461,0.285c0.077,0,0.155-0.018,0.229-0.055c0.091-0.045,1.483-0.996,1.563-1.056l1.258,1.257v6.938
					c0,0.284,0.231,0.515,0.515,0.515c0.284,0,0.516-0.23,0.516-0.515v-6.938l1.258-1.257c0.079,0.06,0.164,0.113,0.255,0.158
					l2.786,1.394l-0.845,0.846c-0.409,0.408-0.634,0.952-0.634,1.53v4.267c0,0.284,0.23,0.515,0.514,0.515
					c0.285,0,0.516-0.23,0.516-0.515v-4.267c0-0.304,0.117-0.589,0.332-0.803l0.801-0.801c0.024,0.094,0.038,0.19,0.038,0.289v5.581
					c0,0.284,0.229,0.515,0.514,0.515s0.515-0.23,0.515-0.515v-5.581C67.084,46.839,66.625,46.097,65.887,45.728z M57.735,38.875
					v-0.48l0,0c0-1.232,1.003-2.235,2.235-2.235h1.1c1.232,0,2.235,1.003,2.235,2.235v0.572c-2.236-0.121-3.587-0.991-3.6-1
					c-0.087-0.058-0.187-0.086-0.285-0.086c-0.133,0-0.265,0.051-0.364,0.151C58.564,38.523,58.081,38.76,57.735,38.875z
					 M60.52,45.367l-1.189-1.189c0.035-0.132,0.055-0.271,0.055-0.413v-0.109c0.354,0.133,0.735,0.204,1.135,0.204
					s0.782-0.071,1.135-0.204v0.109c0,0.143,0.021,0.281,0.055,0.413L60.52,45.367z M60.52,42.83c-1.232,0-2.235-1.002-2.235-2.235
					v-0.83l0,0c0.36-0.144,0.78-0.373,1.208-0.737c0.54,0.281,1.671,0.768,3.263,0.928v0.639
					C62.755,41.827,61.753,42.83,60.52,42.83z"/>
			</g>
		</g>
	</g>
</g>
</svg>
