<?xml version="1.0" encoding="utf-8"?>
<!-- Generator: Adobe Illustrator 16.0.0, SVG Export Plug-In . SVG Version: 6.00 Build 0)  -->
<!DOCTYPE svg PUBLIC "-//W3C//DTD SVG 1.1//EN" "http://www.w3.org/Graphics/SVG/1.1/DTD/svg11.dtd">
<svg version="1.1" id="Capa_1" xmlns="http://www.w3.org/2000/svg" xmlns:xlink="http://www.w3.org/1999/xlink" x="0px" y="0px"
	 width="58px" height="58px" viewBox="10.541 18 58 58" enable-background="new 10.541 18 58 58" xml:space="preserve">
<g>
	<circle fill="#393939" cx="39.541" cy="47" r="29"/>
	<g>
		<path fill="none" d="M33.841,44.96c0.129-0.224,0.051-0.506-0.169-0.633c0-0.001-3.477-2.008-3.478-2.008
			c-0.241-0.14-0.324-0.448-0.185-0.689c0.14-0.242,0.448-0.324,0.689-0.185l3.476,2.007c0,0,0,0,0,0l0,0
			c1.667,0.963,1.593,0.944,1.758,0.944c0.473,0,0.644-0.63,0.233-0.867l0,0l-5.003-2.889c-0.241-0.139-0.324-0.448-0.185-0.689
			s0.448-0.324,0.689-0.185c0.841,0.486,5.215,3.011,5.638,3.255c0.358,0.207,0.788-0.124,0.681-0.522
			c-0.067-0.25,0.331,0.033-5.854-3.538c-0.241-0.14-0.324-0.448-0.185-0.689s0.448-0.324,0.689-0.185l4.986,2.879
			c0.399,0.229,0.799-0.131,0.697-0.509c-0.069-0.254,0.307,0.022-5.969-3.602c-0.417-0.241-0.29-0.876,0.188-0.938l3.009-0.386
			c0.314-0.04,0.552-0.168,0.551-0.488c0-0.161-0.09-0.442-0.42-0.473c-5.525-0.542-4.516-0.786-6.611-0.213
			c-1.408,0.384-2.954-1.583-3.37-0.979c-1.347,2.385-0.873,1.557-2.213,3.877c-0.157,0.272-0.2,0.548,0.074,0.704
			c0.538,0.311-0.515-0.295,1.384,0.798c0.667,0.385,0.904,1.015,0.929,1.085c0.262,0.752,0.221,1.18,0.991,1.624
			c7.626,4.396-0.482-0.278,6.342,3.662C33.434,45.261,33.716,45.176,33.841,44.96z"/>
		<path fill="none" d="M50.296,34.496c-0.087,0.029-0.169,0.034-0.245,0.015c-0.091-0.012-0.203-0.041-0.351-0.102
			c-0.217-0.09-0.34-0.145-0.447-0.188c-0.014-0.002-0.026,0.002-0.04-0.001l-0.09-0.02c-0.184-0.026-0.547-0.024-1.012,0.245
			c-2.584,1.494-3.415,1.975-3.544,2.05c-0.003,0.002-0.006,0.003-0.009,0.005c-0.013,0.008-0.012,0.007,0,0
			c0.003-0.001,0.006-0.003,0.009-0.005c0.247-0.143,2.716-1.571-2.798,1.612c-0.222,0.128-0.297,0.412-0.17,0.634
			c0.127,0.221,0.411,0.297,0.632,0.17l3.478-2.008c0.241-0.139,0.55-0.057,0.689,0.185c0.14,0.242,0.057,0.55-0.186,0.689
			c-3.452,1.993-2.376,1.373-5.003,2.889c-0.223,0.128-0.298,0.413-0.17,0.635c0.128,0.222,0.413,0.298,0.635,0.17l5.003-2.889
			c0.241-0.14,0.55-0.057,0.689,0.185c0.14,0.241,0.057,0.55-0.185,0.689c-0.566,0.327-4.705,2.716-5.638,3.255
			c-0.223,0.128-0.298,0.412-0.17,0.635c0.128,0.222,0.413,0.298,0.635,0.17c2.755-1.592-1.078,0.623,5.638-3.255
			c0.241-0.139,0.55-0.057,0.689,0.185c0.14,0.241,0.057,0.55-0.185,0.689l-5.006,2.89c-0.357,0.207-0.282,0.742,0.111,0.847
			c0.261,0.069-0.135,0.233,6.104-3.369c0.417-0.241,0.903,0.188,0.718,0.632l-1.171,2.798c-0.123,0.296-0.128,0.563,0.147,0.722
			c0.14,0.08,0.428,0.144,0.619-0.127c2.343-3.279,2.963-3.767,3.271-4.785c0.342-1.28,0.232-1.482,1.994-2.474
			c0.783-0.441,0.917-0.512,0.646-0.979c-1.286-2.178-0.894-1.517-2.28-3.917c-0.263-0.455-1.986,0.551-2.867,1.061
			c-0.007,0.004-0.014,0.005-0.02,0.009c-0.007,0.003-0.015,0.01-0.021,0.013C50.369,34.468,50.335,34.483,50.296,34.496z"/>
		<path fill="none" d="M43.68,49.913v-1.047c0-0.255-0.208-0.464-0.464-0.464c-0.256,0-0.464,0.209-0.464,0.464v4.015
			c0,0.279-0.226,0.505-0.504,0.505s-0.504-0.226-0.504-0.505v-4.015v-0.141v-1.622c0-0.257-0.208-0.465-0.465-0.465
			c-0.256,0-0.464,0.208-0.464,0.465v5.777c0,0.278-0.226,0.505-0.505,0.505c-0.278,0-0.504-0.227-0.504-0.505
			c0-0.624,0-5.903,0-6.511c0-0.256-0.208-0.464-0.465-0.464c-0.256,0-0.464,0.208-0.464,0.464c0,0.142,0,3.591,0,6.511
			c0,0.278-0.226,0.505-0.504,0.505c-0.279,0-0.505-0.227-0.505-0.505v-5.779c0-0.256-0.208-0.463-0.463-0.463
			c-0.254,0-0.46,0.208-0.46,0.464v6.642c0,0.217-0.138,0.409-0.344,0.479c-0.205,0.068-0.431,0-0.563-0.173l-1.838-2.413
			c-0.191-0.253-0.423-0.393-0.699-0.232c-0.204,0.117-0.313,0.34-0.195,0.608c2.296,5.254,1.848,4.567,3.116,5.823
			c0.483,0.479,0.53,1.209,0.536,1.857c-0.003,0.769-0.089,1.05,0.394,1.05h4.662c0.356-0.049,0.283-0.301,0.283-1.536
			c0-0.624,0.301-1.157,0.487-1.359l0.605-0.658c0.114-0.146,0.294-0.462,0.294-0.999l-0.002-6.27
			C43.678,49.917,43.68,49.916,43.68,49.913z"/>
		<path fill="#FFFFFF" d="M33.438,46.202c0.697,0,1.303-0.491,1.444-1.175l0.315,0.182c0.93,0.537,2.093-0.072,2.203-1.121
			c1.246,0.117,2.072-1.291,1.34-2.322c0.865-0.629,0.786-1.934-0.133-2.462l-4.457-2.573l1.519-0.195
			c0.991-0.1,1.441-0.843,1.439-1.493c-0.002-0.782-0.561-1.401-1.331-1.475c-4.899-0.549-5.203-0.661-6.137-0.412
			c-0.006,0.001-0.838,0.229-0.838,0.229c-0.485,0.132-1.625-0.711-1.953-0.858c-0.08-0.036-0.442-0.281-0.914-0.281
			c-0.729,0-1.072,0.56-1.11,0.627c-1.351,2.392-0.877,1.563-2.214,3.88c-0.522,0.904-0.179,1.727,0.446,2.083
			c0,0,0.129,0.074,0.129,0.074c0.824,0.532,1.503,0.706,1.732,1.265l0.269,0.859c0.12,0.38,0.511,0.928,1.172,1.308
			C33.335,46.363,32.894,46.202,33.438,46.202z M26.865,41.468c-0.771-0.444-0.729-0.871-0.991-1.624
			c-0.025-0.07-0.262-0.701-0.929-1.085c-1.899-1.094-0.846-0.488-1.384-0.798c-0.274-0.156-0.231-0.432-0.074-0.704
			c1.34-2.321,0.867-1.492,2.213-3.877c0.416-0.603,1.962,1.364,3.37,0.979c2.095-0.573,1.085-0.329,6.611,0.213
			c0.33,0.031,0.419,0.312,0.42,0.473c0,0.32-0.237,0.448-0.551,0.488l-3.009,0.386c-0.478,0.061-0.605,0.697-0.188,0.938
			c6.276,3.624,5.9,3.348,5.969,3.602c0.102,0.378-0.298,0.738-0.697,0.509l-4.986-2.879c-0.242-0.14-0.55-0.057-0.689,0.185
			s-0.057,0.55,0.185,0.689c6.186,3.571,5.788,3.288,5.854,3.538c0.107,0.398-0.323,0.729-0.681,0.522
			c-0.423-0.244-4.797-2.769-5.638-3.255c-0.241-0.14-0.55-0.057-0.689,0.185s-0.057,0.55,0.185,0.689l5.003,2.889l0,0
			c0.41,0.237,0.24,0.867-0.233,0.867c-0.165,0-0.091,0.019-1.758-0.944l0,0c0,0,0,0,0,0l-3.476-2.007
			c-0.241-0.139-0.55-0.057-0.689,0.185c-0.139,0.241-0.057,0.55,0.185,0.689c0.001,0,3.478,2.007,3.478,2.008
			c0.22,0.127,0.298,0.409,0.169,0.633c-0.125,0.216-0.407,0.301-0.634,0.17C26.382,41.19,34.491,45.864,26.865,41.468z"/>
		<path fill="#FFFFFF" d="M56.571,36.974c-0.006-0.012-0.013-0.024-0.02-0.036c-0.172-0.29-0.696-1.163-2.292-3.927
			c-0.424-0.732-1.206-0.939-1.996-0.526c-0.007,0.003-0.013,0.007-0.019,0.01l-0.079,0.046c-0.01,0.005-0.019,0.009-0.025,0.014
			l-1.852,0.945c0.242,0.124,0.448,0.252,0.448,0.252s0.139,0.234,0.076,0.322c-0.061,0.084-0.271,0.305-0.393,0.369
			c0.006-0.004,0.013-0.005,0.02-0.009c0.881-0.51,2.604-1.516,2.867-1.061c1.387,2.4,0.994,1.738,2.28,3.917
			c0.271,0.467,0.138,0.539-0.646,0.979c-1.762,0.992-1.652,1.193-1.994,2.474c-0.309,1.019-0.929,1.506-3.271,4.785
			c-0.191,0.271-0.479,0.207-0.619,0.127c-0.275-0.158-0.271-0.426-0.147-0.722l1.171-2.798c0.186-0.444-0.301-0.873-0.718-0.632
			c-6.238,3.602-5.843,3.438-6.104,3.369c-0.394-0.104-0.469-0.64-0.111-0.847l5.006-2.89c0.241-0.139,0.324-0.448,0.185-0.689
			c-0.14-0.242-0.448-0.324-0.689-0.185c-6.716,3.878-2.883,1.664-5.638,3.255c-0.222,0.128-0.507,0.052-0.635-0.17
			c-0.128-0.224-0.053-0.507,0.17-0.635c0.934-0.539,5.072-2.928,5.638-3.255c0.241-0.139,0.324-0.448,0.185-0.689
			c-0.14-0.242-0.448-0.324-0.689-0.185l-5.003,2.889c-0.223,0.128-0.507,0.051-0.635-0.17c-0.128-0.222-0.053-0.506,0.17-0.635
			c2.627-1.516,1.552-0.896,5.003-2.889c0.242-0.139,0.325-0.448,0.186-0.689c-0.14-0.241-0.448-0.324-0.689-0.185l-3.478,2.008
			c-0.221,0.127-0.505,0.051-0.632-0.17c-0.127-0.222-0.052-0.506,0.17-0.634c5.514-3.183,3.045-1.755,2.798-1.612
			c0.129-0.075,0.96-0.556,3.544-2.05c0.465-0.269,0.828-0.271,1.012-0.245l0.09,0.02c0.014,0.003,0.026-0.001,0.04,0.001
			c-0.108-0.043-0.202-0.074-0.36-0.115c-0.314-0.082,0.178-0.914,0.182-0.92c-0.344-0.016-0.867,0.039-1.468,0.387
			c-2.72,1.573-3.621,2.09-6.342,3.661c-0.703,0.406-0.945,1.309-0.54,2.012c0.082,0.14,0.182,0.262,0.297,0.364l-0.315,0.182
			c-0.917,0.529-0.999,1.838-0.132,2.468c-0.73,1.029,0.091,2.437,1.341,2.321c0.111,1.063,1.282,1.648,2.2,1.117l4.457-2.573
			l-0.591,1.413c-0.807,1.79,1.508,2.992,2.516,1.577c2.888-3.917,3.181-4.178,3.426-5.111c0.006-0.024,0.038-0.146,0.22-0.838
			c0.072-0.275,0.483-0.548,0.873-0.778l0.891-0.514C56.82,38.346,56.848,37.546,56.571,36.974z"/>
		<path fill="#FFFFFF" d="M44.559,36.5C44.547,36.507,44.546,36.508,44.559,36.5L44.559,36.5z"/>
		<path fill="#FFFFFF" d="M44.568,36.495c-0.003,0.002-0.006,0.003-0.009,0.005C44.562,36.499,44.565,36.497,44.568,36.495z"/>
		<path fill="#FFFFFF" d="M50.296,34.496c-0.061,0.019-0.138,0.029-0.245,0.015C50.127,34.53,50.209,34.525,50.296,34.496z"/>
		<path fill="#FFFFFF" d="M49.158,33.189c0.003,0,0.007,0.001,0.01,0.001C49.164,33.19,49.162,33.189,49.158,33.189z"/>
		<path fill="#FFFFFF" d="M42.752,47.467v-0.364c0-1.063-1.1-1.78-2.072-1.347c-0.526-1.144-2.153-1.145-2.68,0
			c-0.97-0.433-2.068,0.283-2.067,1.346v5.146l-0.928-1.218c-1.139-1.583-3.352-0.203-2.624,1.39
			c2.341,5.357,1.887,4.703,3.33,6.132c0.202,0.2,0.232,0.693,0.236,1.146c0,0.019-0.003,0.702-0.002,0.721
			c0.024,0.615,0.408,1.334,1.406,1.334c4.976,0,4.706,0.002,4.75-0.003c0.582-0.065,1.204-0.479,1.204-1.446
			c0-1.718-0.103-1.422,0.838-2.445c0.262-0.285,0.549-0.895,0.548-1.669l-0.001-4.577c0-0.002,0.001-0.004,0.001-0.006v-2.74
			C44.689,47.868,43.708,47.151,42.752,47.467z M43.386,57.189l-0.605,0.658c-0.186,0.202-0.487,0.735-0.487,1.359
			c0,1.235,0.073,1.487-0.283,1.536H37.35c-0.483,0-0.397-0.281-0.394-1.05c-0.006-0.648-0.052-1.379-0.536-1.857
			c-1.269-1.256-0.82-0.569-3.116-5.823c-0.117-0.269-0.008-0.491,0.195-0.608c0.276-0.16,0.508-0.021,0.699,0.232l1.838,2.413
			c0.131,0.173,0.357,0.241,0.563,0.173c0.206-0.069,0.344-0.262,0.344-0.479v-6.642c0-0.256,0.206-0.464,0.46-0.464
			c0.255,0,0.463,0.207,0.463,0.463v5.779c0,0.278,0.226,0.505,0.505,0.505c0.278,0,0.504-0.227,0.504-0.505c0-2.92,0-6.369,0-6.511
			c0-0.256,0.208-0.464,0.464-0.464c0.257,0,0.465,0.208,0.465,0.464c0,0.607,0,5.887,0,6.511c0,0.278,0.226,0.505,0.504,0.505
			c0.279,0,0.505-0.227,0.505-0.505v-5.777c0-0.257,0.208-0.465,0.464-0.465c0.257,0,0.465,0.208,0.465,0.465v1.622v0.141v4.015
			c0,0.279,0.226,0.505,0.504,0.505s0.504-0.226,0.504-0.505v-4.015c0-0.255,0.208-0.464,0.464-0.464
			c0.256,0,0.464,0.209,0.464,0.464v1.047c0,0.003-0.002,0.005-0.002,0.008l0.002,6.27C43.68,56.727,43.5,57.042,43.386,57.189z"/>
		<path fill="#FFFFFF" d="M48.893,34.105c0.158,0.041,0.252,0.072,0.36,0.115c0.107,0.043,0.23,0.098,0.447,0.188
			c0.147,0.061,0.26,0.089,0.351,0.102c0.107,0.015,0.185,0.004,0.245-0.015c0.039-0.013,0.072-0.028,0.104-0.041
			c0.006-0.002,0.014-0.01,0.021-0.013c0.122-0.064,0.332-0.285,0.393-0.369c0.063-0.088-0.076-0.322-0.076-0.322
			s-0.206-0.129-0.448-0.252c-0.133-0.068-0.276-0.134-0.404-0.177c-0.261-0.087-0.567-0.12-0.717-0.132
			c-0.003,0-0.007,0-0.01-0.001c-0.051-0.004-0.082-0.005-0.082-0.005l-0.001,0.001C49.071,33.192,48.579,34.023,48.893,34.105z"/>
	</g>
</g>
</svg>
