<svg xmlns="http://www.w3.org/2000/svg" width="170" height="60.178" viewBox="0 0 170 60.178"><g fill="#FFF"><path d="M0 34.062c.012-.067.033-.136.034-.204.069-3.761.93-7.332 2.564-10.718a25.713 25.713 0 0 1 2.693-4.378c.064-.084.131-.168.204-.261.93.46 1.764 1.085 2.737 1.476l-.956 1.674c-.281.494-.198.8.296 1.081.534.306 1.068.61 1.604.912.375.211.713.121.93-.252.329-.569.656-1.141.979-1.714.2-.355.098-.71-.258-.916-.533-.307-1.068-.609-1.603-.914-.066-.038-.13-.08-.163-.099.25-.423.497-.83.734-1.242.422-.731.841-1.463 1.257-2.197.371-.655.199-1.263-.455-1.64-.706-.407-1.41-.816-2.114-1.228-.521-.303-.661-.833-.36-1.36.471-.826.943-1.652 1.418-2.477.307-.53.84-.673 1.375-.368l2.475 1.419c.516.297.665.819.376 1.339-.426.768-.854 1.534-1.285 2.3-.381.676-.215 1.281.449 1.675a87.307 87.307 0 0 0 6.348 3.404c.076.037.15.077.242.125-.179.312-.35.606-.519.902-1.205 2.104-2.38 4.223-3.257 6.49-.598 1.544-1.081 3.119-1.302 4.768-.689 5.121.661 9.626 4.14 13.45 2.292 2.521 5.138 4.126 8.486 4.783 3.344.656 6.583.245 9.681-1.158 3.521-1.594 6.209-4.1 7.986-7.544 1.035-2.006 1.593-4.146 1.627-6.407.064-4.249-1.162-8.064-3.905-11.346a14.077 14.077 0 0 0-5.189-3.896c-.065-.029-.129-.061-.194-.091-.004-.002-.004-.013-.02-.057.385.065.754.122 1.119.192 2.354.454 4.572 1.262 6.577 2.595 3.315 2.204 5.397 5.274 6.36 9.122a17.01 17.01 0 0 1 .481 3.284c.001.055.022.107.035.162v1.761c-.013.068-.03.136-.036.205-.037.42-.057.842-.106 1.261-.321 2.716-1.123 5.29-2.33 7.739-1.666 3.38-3.974 6.255-6.891 8.634-4.251 3.468-9.127 5.371-14.6 5.749-.345.024-.69.053-1.036.079h-1.589c-.054-.012-.108-.033-.163-.034a23.795 23.795 0 0 1-4.002-.45c-5.127-1.019-9.552-3.372-13.267-7.047a25.302 25.302 0 0 1-5-7.002A25.427 25.427 0 0 1 .032 34.91c.001-.069-.02-.138-.032-.204v-.644zM26.072 0c.532.303 1.064.604 1.595.909.42.239.5.525.261.94-.266.465-.531.93-.799 1.395-.201.346-.504.43-.852.232-.485-.272-.97-.55-1.452-.83-.352-.204-.427-.496-.226-.852.246-.436.501-.865.74-1.304.115-.212.25-.392.474-.492l.259.002z"/><path d="M28.223 21.135c-.042.123-.084.361-.196.56a336.2 336.2 0 0 1-2.053 3.595c-.404.699-1.158.896-1.864.494l-3.536-2.023c-.721-.414-.926-1.173-.514-1.893l2.015-3.517c.415-.723 1.169-.929 1.89-.517 1.186.677 2.37 1.356 3.557 2.034.45.255.67.644.701 1.267m-4.598-9.973c-.062.179-.099.373-.19.535-.545.974-1.101 1.94-1.658 2.907-.308.534-.923.704-1.463.399a324.153 324.153 0 0 1-2.925-1.668c-.535-.31-.708-.931-.404-1.465.553-.979 1.111-1.951 1.675-2.921.317-.547.933-.709 1.483-.397.97.551 1.937 1.107 2.903 1.664.358.206.54.517.579.946m1.297-2.476c.044-.125.071-.261.135-.375.363-.647.733-1.293 1.105-1.936.221-.381.627-.498 1.015-.281.661.37 1.318.747 1.972 1.129.36.211.474.617.271.984a94.847 94.847 0 0 1-1.149 2.011.68.68 0 0 1-.932.268 72.713 72.713 0 0 1-2.086-1.188c-.216-.129-.318-.344-.331-.612m56.067 20.843h3.047l-8.179 20.2-4.063-10.1-4.089 10.1-8.18-20.2h3.047l5.133 12.625 2.552-6.285-2.552-6.34h3.019l1.07 2.58 1.51 3.76 2.553 6.285zm8.852 5.681c1.005 0 1.949.191 2.835.576a7.539 7.539 0 0 1 2.328 1.563 7.297 7.297 0 0 1 2.15 5.187v7.108h-2.826v-1.33a7.73 7.73 0 0 1-2.059 1.114 7.044 7.044 0 0 1-2.416.408 7.089 7.089 0 0 1-2.842-.576 7.408 7.408 0 0 1-2.319-1.564 7.415 7.415 0 0 1-1.564-2.318c-.384-.887-.576-1.834-.576-2.841s.192-1.958.575-2.854a7.358 7.358 0 0 1 1.562-2.333 7.36 7.36 0 0 1 2.314-1.563 7.06 7.06 0 0 1 2.838-.577m.013 11.803c.623 0 1.203-.12 1.744-.359a4.627 4.627 0 0 0 1.414-.967c.401-.403.723-.879.959-1.421a4.256 4.256 0 0 0 .357-1.727c0-.625-.12-1.21-.357-1.753a4.632 4.632 0 0 0-.959-1.424 4.618 4.618 0 0 0-1.414-.966 4.279 4.279 0 0 0-1.744-.358 4.27 4.27 0 0 0-1.742.358 4.611 4.611 0 0 0-1.414.966 4.637 4.637 0 0 0-.961 1.424 4.333 4.333 0 0 0-.356 1.753c0 .607.119 1.183.356 1.727a4.63 4.63 0 0 0 .961 1.421c.402.406.873.729 1.414.967.538.239 1.12.359 1.742.359m20.723-11.775l-4.776 10.951-1.537 3.514-1.535-3.514-4.778-10.951h3.047l3.266 7.465 3.265-7.465zm9.552 8.152h-5.518c.109.494.298.957.563 1.386a4.377 4.377 0 0 0 2.266 1.839 4.34 4.34 0 0 0 1.51.262 4.25 4.25 0 0 0 1.798-.384 4.574 4.574 0 0 0 1.469-1.07h3.321a4.786 4.786 0 0 1-.397.782 8.992 8.992 0 0 1-.508.727 7.28 7.28 0 0 1-2.47 2.017 6.958 6.958 0 0 1-3.212.756 7.127 7.127 0 0 1-2.827-.563 7.271 7.271 0 0 1-2.306-1.551 7.266 7.266 0 0 1-1.551-2.306c-.375-.88-.563-1.82-.563-2.827s.188-1.949.563-2.827.893-1.647 1.551-2.307a7.266 7.266 0 0 1 2.306-1.551 7.127 7.127 0 0 1 2.827-.563c1.152 0 2.224.251 3.212.754a7.183 7.183 0 0 1 2.47 2.045c.604.732 1.043 1.592 1.316 2.58.166.586.248 1.208.248 1.867 0 .329-.027.641-.082.933h-5.984v.001zm-1.182-5.353c-.895 0-1.696.23-2.4.692a4.455 4.455 0 0 0-1.605 1.833h8.015a11.086 11.086 0 0 1-.261-.434 4.603 4.603 0 0 0-.26-.408 4.527 4.527 0 0 0-1.537-1.235 4.357 4.357 0 0 0-1.952-.448m20.75-8.563c1.392 0 2.699.265 3.926.796s2.292 1.253 3.197 2.168c.906.916 1.619 1.99 2.142 3.226.521 1.234.782 2.558.782 3.966 0 1.391-.262 2.699-.782 3.925s-1.235 2.296-2.142 3.211a10.086 10.086 0 0 1-3.197 2.168 9.772 9.772 0 0 1-3.926.796 9.665 9.665 0 0 1-3.91-.796 10.119 10.119 0 0 1-3.184-2.168 10.168 10.168 0 0 1-2.142-3.211 9.912 9.912 0 0 1-.782-3.925c0-1.409.26-2.731.782-3.966a10.085 10.085 0 0 1 2.142-3.226c.904-.915 1.967-1.637 3.184-2.168s2.522-.796 3.91-.796m0 17.429c.951 0 1.854-.19 2.703-.573a7.074 7.074 0 0 0 2.225-1.56 7.346 7.346 0 0 0 1.496-2.311 7.345 7.345 0 0 0 .549-2.83 7.445 7.445 0 0 0-.549-2.844 7.465 7.465 0 0 0-1.496-2.339 6.978 6.978 0 0 0-2.225-1.571c-.851-.382-1.752-.574-2.703-.574s-1.848.192-2.689.574a7.033 7.033 0 0 0-2.209 1.571 7.488 7.488 0 0 0-1.496 2.339 7.445 7.445 0 0 0-.549 2.844c0 1.002.184 1.946.549 2.83.366.884.865 1.654 1.496 2.311s1.368 1.176 2.209 1.56a6.447 6.447 0 0 0 2.689.573m22.287 0a6.4 6.4 0 0 0 3.227-.837 7.032 7.032 0 0 0 2.4-2.235L170 45.613a10.083 10.083 0 0 1-3.443 2.965c-1.383.731-2.906 1.098-4.57 1.098a9.506 9.506 0 0 1-3.87-.796c-1.208-.53-2.261-1.249-3.156-2.155s-1.604-1.966-2.127-3.184a9.837 9.837 0 0 1-.782-3.911c0-1.391.262-2.694.782-3.911s1.229-2.278 2.127-3.184a10.126 10.126 0 0 1 3.156-2.155 9.522 9.522 0 0 1 3.87-.795c1.664 0 3.188.366 4.57 1.098A10.07 10.07 0 0 1 170 33.647l-2.389 1.784a7.018 7.018 0 0 0-2.4-2.237 6.404 6.404 0 0 0-3.227-.837c-.951 0-1.844.192-2.676.576s-1.561.906-2.183 1.564a7.509 7.509 0 0 0-1.481 2.306c-.365.878-.549 1.821-.549 2.827s.184 1.949.549 2.827a7.544 7.544 0 0 0 1.481 2.306 7 7 0 0 0 2.183 1.564 6.321 6.321 0 0 0 2.676.576"/></g></svg>