<svg xmlns="http://www.w3.org/2000/svg" width="576.25" height="671.611" viewBox="0 0 576.25 671.611"><g fill="none" stroke="#FFF" stroke-width=".25" stroke-miterlimit="10"><path d="M.125 380.13c.13-.755.364-1.517.384-2.271.762-41.96 10.377-81.799 28.607-119.576 8.353-17.296 18.425-33.545 30.049-48.841.717-.944 1.458-1.874 2.271-2.914 10.378 5.134 19.681 12.111 30.533 16.466-3.483 6.095-7.08 12.389-10.663 18.679-3.137 5.508-2.21 8.913 3.305 12.06 5.954 3.397 11.912 6.802 17.89 10.165 4.187 2.358 7.958 1.345 10.368-2.807a1749.835 1749.835 0 0 0 10.923-19.125c2.227-3.964 1.095-7.92-2.876-10.213-5.94-3.425-11.918-6.798-17.879-10.199-.734-.419-1.452-.889-1.815-1.108 2.793-4.715 5.542-9.259 8.195-13.854 4.705-8.15 9.382-16.322 14.026-24.506 4.146-7.303 2.22-14.087-5.079-18.295a5008.69 5008.69 0 0 1-23.58-13.682c-5.813-3.384-7.375-9.287-4.022-15.179a6377.929 6377.929 0 0 1 15.82-27.625c3.418-5.927 9.365-7.516 15.34-4.104 9.211 5.261 18.415 10.542 27.612 15.831 5.752 3.308 7.413 9.139 4.197 14.928a4457.374 4457.374 0 0 1-14.338 25.656c-4.245 7.536-2.396 14.293 5.01 18.693 23.062 13.682 46.727 26.232 70.821 37.976.848.409 1.671.862 2.701 1.397-2 3.48-3.909 6.771-5.793 10.072-13.442 23.466-26.548 47.104-36.332 72.403-6.667 17.224-12.063 34.788-14.53 53.175-7.684 57.139 7.378 107.394 46.191 150.064 25.57 28.112 57.317 46.033 94.675 53.363 37.3 7.316 73.443 2.725 107.994-12.917 39.287-17.783 69.28-45.745 89.103-84.174 11.544-22.368 17.776-46.261 18.16-71.49.714-47.403-12.958-89.964-43.569-126.567-15.868-18.967-35.21-33.473-57.887-43.456-.728-.319-1.448-.673-2.169-1.013-.041-.024-.041-.137-.213-.628 4.297.734 8.408 1.355 12.484 2.142 26.26 5.059 51.003 14.077 73.371 28.947 36.987 24.585 60.221 58.848 70.955 101.762 3.007 12.031 4.75 24.256 5.367 36.638.027.604.254 1.2.392 1.798v19.65c-.145.762-.336 1.517-.405 2.292-.404 4.688-.631 9.396-1.181 14.063-3.582 30.303-12.532 59.013-25.999 86.336-18.586 37.716-44.338 69.788-76.871 96.33-47.434 38.689-101.827 59.918-162.882 64.14-3.85.268-7.704.583-11.562.878h-17.731c-.601-.13-1.198-.363-1.809-.384-15.028-.398-29.921-2.094-44.654-5.018-57.204-11.366-106.563-37.619-148.012-78.621-23.058-22.808-41.637-48.903-55.79-78.114C10.906 471.535 1.287 431.63.508 389.605c-.021-.769-.254-1.517-.384-2.278v-7.197zM290.997.125c5.931 3.38 11.867 6.753 17.797 10.141 4.685 2.68 5.57 5.872 2.914 10.501-2.965 5.186-5.923 10.378-8.909 15.549-2.24 3.864-5.624 4.798-9.513 2.602a1527.048 1527.048 0 0 1-16.191-9.252c-3.919-2.272-4.77-5.529-2.519-9.502 2.746-4.853 5.594-9.654 8.257-14.551 1.284-2.354 2.79-4.362 5.289-5.487h2.875z"/><path d="M314.992 235.907c-.463 1.373-.943 4.025-2.189 6.249-7.536 13.422-15.203 26.771-22.907 40.093-4.509 7.804-12.92 9.997-20.793 5.512a14845.618 14845.618 0 0 1-39.448-22.578c-8.044-4.619-10.323-13.089-5.724-21.119a52308.946 52308.946 0 0 1 22.471-39.229c4.63-8.061 13.041-10.367 21.092-5.769 13.229 7.557 26.442 15.144 39.678 22.687 5.013 2.864 7.477 7.212 7.82 14.154m-51.294-111.258c-.69 2.001-1.102 4.163-2.125 5.979-6.084 10.854-12.282 21.647-18.497 32.426-3.435 5.961-10.299 7.859-16.325 4.458a3667.706 3667.706 0 0 1-32.633-18.607c-5.971-3.445-7.896-10.374-4.513-16.349a3267.65 3267.65 0 0 1 18.689-32.595c3.531-6.088 10.409-7.91 16.541-4.427 10.824 6.143 21.606 12.354 32.393 18.559 3.999 2.3 6.037 5.776 6.47 10.556m14.468-27.625c.494-1.4.796-2.91 1.51-4.193 4.053-7.231 8.185-14.424 12.334-21.596 2.464-4.252 7.001-5.553 11.321-3.14a1389.741 1389.741 0 0 1 22.001 12.598c4.019 2.351 5.288 6.88 3.017 10.978a1106.865 1106.865 0 0 1-12.814 22.437c-2.186 3.737-6.578 5.075-10.395 2.989-7.838-4.276-15.58-8.73-23.278-13.264-2.42-1.421-3.552-3.82-3.696-6.809"/></g></svg>