<svg xmlns="http://www.w3.org/2000/svg" width="64" height="84" viewBox="0 0 64 85.334" fill="#4595d4"><path d="M32 0C14.354 0 0 14.356 0 32c0 23.607 29.524 51.667 30.781 52.851a1.783 1.783 0 0 0 2.438 0C34.476 83.667 64 55.607 64 32 64 14.356 49.646 0 32 0zm2.943 14.017a78.208 78.208 0 0 1-.938 1.643.555.555 0 0 1-.761.219 59.753 59.753 0 0 1-1.704-.971c-.177-.104-.26-.279-.27-.498.036-.103.058-.213.11-.307.296-.529.599-1.056.902-1.581.181-.311.512-.407.828-.23.54.302 1.076.61 1.611.922a.572.572 0 0 1 .222.803zm-3.935-5.233c.201-.355.41-.706.604-1.065.094-.172.204-.319.387-.402h.211l1.303.743c.343.196.408.43.213.769-.217.38-.433.759-.652 1.138-.163.282-.411.351-.696.19-.396-.223-.791-.449-1.185-.677-.288-.167-.35-.405-.185-.696zm2.386 14.755c.367.209.548.527.572 1.036-.033.101-.068.294-.16.457-.552.983-1.112 1.959-1.677 2.935-.329.57-.945.731-1.521.403-.963-.549-1.926-1.1-2.887-1.652-.589-.338-.756-.958-.419-1.546l1.645-2.871c.339-.59.954-.759 1.543-.422.968.552 1.935 1.107 2.904 1.66zm-8.605-6.529c.451-.798.907-1.593 1.368-2.386.258-.445.762-.579 1.211-.323.791.449 1.581.904 2.37 1.358.293.168.441.423.474.773-.051.146-.081.304-.155.437a233.38 233.38 0 0 1-1.354 2.374.851.851 0 0 1-1.194.326c-.799-.449-1.595-.903-2.389-1.361a.86.86 0 0 1-.331-1.198zm28.29 20.119c-.011.056-.025.111-.03.167-.029.344-.046.688-.087 1.03-.262 2.218-.917 4.319-1.902 6.319a20.978 20.978 0 0 1-5.627 7.051c-3.471 2.831-7.452 4.385-11.921 4.693l-.846.064h-1.298c-.044-.009-.088-.026-.132-.028a19.395 19.395 0 0 1-3.269-.366c-4.188-.832-7.8-2.754-10.834-5.755a20.631 20.631 0 0 1-4.082-5.717 20.743 20.743 0 0 1-2.103-8.765c-.002-.056-.019-.11-.028-.167v-.526c.01-.055.026-.11.028-.166.056-3.071.76-5.987 2.094-8.752a20.98 20.98 0 0 1 2.365-3.788c.76.376 1.44.887 2.235 1.205-.255.446-.519.907-.78 1.367-.23.403-.162.652.241.882.436.249.872.499 1.31.745.307.172.582.098.759-.206.27-.465.536-.931.8-1.399.163-.291.08-.58-.211-.748-.435-.25-.872-.498-1.309-.747-.054-.031-.106-.065-.133-.082.204-.344.405-.677.6-1.014.345-.597.687-1.194 1.026-1.793.304-.535.163-1.032-.372-1.339-.575-.333-1.15-.666-1.726-1.002-.425-.247-.539-.679-.294-1.11.385-.675.771-1.349 1.158-2.022.25-.434.685-.55 1.122-.3.675.385 1.349.771 2.021 1.158.421.242.542.669.308 1.093-.349.627-.698 1.252-1.05 1.877-.311.552-.175 1.046.366 1.368a71.633 71.633 0 0 0 5.184 2.779c.062.03.122.063.197.103l-.424.737c-.983 1.717-1.943 3.448-2.659 5.299-.487 1.261-.882 2.546-1.063 3.892-.563 4.181.54 7.859 3.381 10.983 1.872 2.058 4.195 3.369 6.93 3.905 2.73.536 5.375.2 7.904-.945 2.875-1.301 5.07-3.347 6.521-6.161a11.675 11.675 0 0 0 1.328-5.232c.053-3.469-.948-6.584-3.188-9.263a11.501 11.501 0 0 0-4.236-3.181c-.054-.023-.105-.049-.158-.074l-.016-.046c.314.053.614.099.913.157 1.922.37 3.733 1.03 5.37 2.118 2.707 1.8 4.407 4.307 5.193 7.448.22.88.347 1.775.393 2.682.002.044.019.087.029.131v1.441z"/></svg>