<svg xmlns="http://www.w3.org/2000/svg" width="269.851" height="95.523" viewBox="0 0 269.851 95.523"><path fill="#47C7FB" d="M0 54.068c.019-.107.052-.216.055-.323.108-5.97 1.477-11.639 4.07-17.014A40.785 40.785 0 0 1 8.4 29.782c.102-.134.208-.267.323-.415 1.477.73 2.8 1.723 4.344 2.343-.496.867-1.007 1.763-1.517 2.658-.446.784-.314 1.268.47 1.716.847.483 1.695.968 2.545 1.446.596.335 1.132.191 1.475-.399a261.26 261.26 0 0 0 1.554-2.721c.317-.564.156-1.127-.409-1.453-.845-.487-1.696-.967-2.544-1.451-.104-.06-.207-.126-.258-.158.397-.671.789-1.317 1.166-1.971a570.82 570.82 0 0 0 1.996-3.487c.59-1.039.316-2.004-.723-2.603a663.43 663.43 0 0 1-3.355-1.947c-.827-.481-1.049-1.321-.572-2.16a950.722 950.722 0 0 1 2.251-3.931c.486-.843 1.333-1.069 2.183-.584 1.311.749 2.62 1.5 3.929 2.252.818.471 1.055 1.3.597 2.124a618.513 618.513 0 0 1-2.04 3.65c-.604 1.072-.341 2.034.713 2.66 3.281 1.947 6.648 3.732 10.077 5.403.121.058.238.123.384.199-.285.495-.556.963-.824 1.433-1.913 3.339-3.777 6.702-5.169 10.302-.949 2.451-1.716 4.95-2.067 7.566-1.093 8.13 1.05 15.28 6.572 21.352 3.638 4 8.155 6.55 13.471 7.593 5.308 1.041 10.45.388 15.366-1.838 5.589-2.53 9.856-6.509 12.678-11.977 1.642-3.183 2.529-6.582 2.583-10.172.102-6.745-1.843-12.8-6.199-18.008a22.325 22.325 0 0 0-8.236-6.183c-.104-.045-.206-.096-.308-.144-.007-.003-.007-.02-.031-.089.611.104 1.196.193 1.776.305 3.737.72 7.257 2.003 10.439 4.119 5.263 3.498 8.569 8.373 10.096 14.479.428 1.712.675 3.451.764 5.213.003.086.036.171.055.256v2.796c-.02.108-.048.216-.058.326-.058.667-.089 1.337-.168 2.001-.51 4.312-1.783 8.396-3.698 12.284-2.645 5.366-6.309 9.93-10.938 13.706-6.749 5.505-14.488 8.525-23.175 9.126-.548.038-1.096.083-1.645.125H39.75c-.085-.019-.17-.052-.257-.055a37.783 37.783 0 0 1-6.354-.714C25 93.138 17.977 89.402 12.079 83.568a40.137 40.137 0 0 1-7.938-11.114C1.534 67.073.165 61.395.055 55.416.052 55.307.019 55.2 0 55.092v-1.024zM41.386 0l2.532 1.443c.667.381.792.835.415 1.494-.422.738-.843 1.477-1.268 2.212-.319.55-.8.683-1.354.37-.77-.434-1.539-.873-2.304-1.316-.558-.323-.679-.787-.358-1.352.391-.69.796-1.374 1.175-2.07.183-.335.398-.621.753-.781h.409z"/><path fill="#47C7FB" d="M44.8 33.548c-.066.195-.134.573-.312.889a517.911 517.911 0 0 1-3.259 5.705c-.642 1.11-1.838 1.422-2.958.784a2391.357 2391.357 0 0 1-5.613-3.212c-1.145-.657-1.469-1.862-.814-3.005l3.197-5.582c.659-1.147 1.855-1.475 3.001-.821 1.882 1.075 3.762 2.155 5.646 3.228.713.407 1.063 1.026 1.112 2.014m-7.298-15.83c-.098.285-.157.592-.302.851a456.803 456.803 0 0 1-2.632 4.614c-.489.848-1.465 1.118-2.323.634-1.552-.875-3.1-1.757-4.643-2.647-.85-.49-1.124-1.476-.642-2.326a462.723 462.723 0 0 1 2.659-4.638c.502-.866 1.481-1.125 2.354-.63 1.54.874 3.074 1.758 4.609 2.641.568.326.858.821.92 1.501m2.059-3.931c.07-.199.113-.414.215-.597a273.627 273.627 0 0 1 1.755-3.073c.351-.605.996-.79 1.611-.447 1.049.587 2.092 1.186 3.13 1.792.572.334.752.979.429 1.562a162.117 162.117 0 0 1-1.823 3.192c-.311.532-.936.722-1.479.425a115.192 115.192 0 0 1-3.312-1.887c-.345-.2-.506-.542-.526-.967"/><path fill="#FFF" d="M128.56 46.873h4.835l-12.983 32.065-6.448-16.032-6.492 16.032-12.983-32.065h4.836l8.147 20.041 4.052-9.977-4.052-10.064h4.793l1.699 4.095 2.396 5.969 4.052 9.977zm14.051 9.019c1.594 0 3.094.305 4.5.915s2.639 1.438 3.695 2.483a11.499 11.499 0 0 1 2.502 3.703 11.43 11.43 0 0 1 .912 4.531v11.283h-4.486v-2.111c-.988.748-2.076 1.338-3.268 1.77s-2.469.647-3.834.647c-1.598 0-3.102-.306-4.51-.915a11.757 11.757 0 0 1-3.682-2.483 11.757 11.757 0 0 1-2.483-3.682c-.61-1.408-.915-2.911-.915-4.509s.305-3.108.913-4.531 1.435-2.658 2.479-3.703c1.044-1.046 2.269-1.873 3.675-2.483s2.906-.915 4.502-.915m.021 18.734c.986 0 1.908-.19 2.766-.57s1.605-.891 2.244-1.534a7.391 7.391 0 0 0 1.525-2.257 6.766 6.766 0 0 0 .566-2.74 6.87 6.87 0 0 0-.566-2.783c-.379-.861-.887-1.615-1.525-2.258s-1.387-1.155-2.244-1.535-1.779-.569-2.766-.569c-.988 0-1.91.189-2.768.569s-1.605.893-2.244 1.535-1.146 1.396-1.523 2.258a6.837 6.837 0 0 0-.567 2.783c0 .964.188 1.878.567 2.74a7.368 7.368 0 0 0 1.523 2.257c.639.644 1.387 1.154 2.244 1.534s1.78.57 2.768.57m32.893-18.691l-7.58 17.383-2.44 5.578-2.439-5.578-7.582-17.383h4.836l5.185 11.85 5.184-11.85zm15.162 12.94h-8.756c.174.784.471 1.519.893 2.2.42.683.936 1.271 1.547 1.764.609.495 1.291.88 2.047 1.155a6.932 6.932 0 0 0 2.396.413 6.759 6.759 0 0 0 2.854-.609A7.254 7.254 0 0 0 194 72.099h5.271c-.174.436-.385.85-.633 1.242-.246.392-.516.777-.805 1.154-1.047 1.336-2.354 2.403-3.922 3.202s-3.268 1.198-5.098 1.198c-1.598 0-3.094-.298-4.488-.894a11.504 11.504 0 0 1-3.658-2.461c-1.047-1.046-1.867-2.266-2.463-3.66s-.893-2.89-.893-4.487.297-3.094.893-4.487a11.507 11.507 0 0 1 2.463-3.66 11.534 11.534 0 0 1 3.658-2.462c1.395-.595 2.891-.893 4.488-.893 1.83 0 3.529.399 5.098 1.197 1.568.8 2.875 1.882 3.922 3.246.957 1.162 1.654 2.527 2.09 4.096.262.93.393 1.917.393 2.963 0 .522-.043 1.017-.131 1.481h-9.498zm-1.873-8.496c-1.424 0-2.693.367-3.812 1.1s-1.967 1.702-2.549 2.909h12.722c-.145-.23-.283-.459-.414-.689s-.27-.446-.414-.647a7.148 7.148 0 0 0-2.439-1.96 6.865 6.865 0 0 0-3.094-.713m32.937-13.593c2.207 0 4.285.421 6.23 1.263 1.945.843 3.639 1.99 5.076 3.442s2.57 3.158 3.398 5.119c.826 1.96 1.242 4.06 1.242 6.296 0 2.207-.416 4.284-1.242 6.229a16.171 16.171 0 0 1-3.398 5.098c-1.438 1.453-3.131 2.6-5.076 3.442s-4.023 1.263-6.23 1.263-4.277-.42-6.209-1.263-3.615-1.989-5.053-3.442a16.11 16.11 0 0 1-3.398-5.098c-.828-1.945-1.242-4.022-1.242-6.229 0-2.236.414-4.336 1.242-6.296.826-1.961 1.961-3.667 3.398-5.119s3.121-2.599 5.053-3.442c1.932-.842 4.002-1.263 6.209-1.263m0 27.665c1.51 0 2.941-.304 4.291-.911a11.22 11.22 0 0 0 3.529-2.475 11.684 11.684 0 0 0 2.375-3.667c.58-1.403.871-2.901.871-4.492a11.81 11.81 0 0 0-.871-4.515 11.89 11.89 0 0 0-2.375-3.711 11.069 11.069 0 0 0-3.529-2.496c-1.35-.607-2.781-.911-4.291-.911s-2.934.304-4.27.911a11.149 11.149 0 0 0-3.508 2.496 11.89 11.89 0 0 0-2.375 3.711 11.81 11.81 0 0 0-.871 4.515c0 1.591.291 3.089.871 4.492a11.684 11.684 0 0 0 2.375 3.667c1.002 1.042 2.172 1.867 3.508 2.475s2.761.911 4.27.911m35.377 0c1.859 0 3.566-.442 5.121-1.328a11.168 11.168 0 0 0 3.811-3.551l3.791 2.832a15.977 15.977 0 0 1-5.467 4.705c-2.195 1.161-4.611 1.742-7.256 1.742-2.178 0-4.225-.421-6.143-1.263-1.916-.843-3.588-1.982-5.01-3.421-1.424-1.438-2.549-3.122-3.377-5.054s-1.242-4.001-1.242-6.208.414-4.277 1.242-6.209 1.953-3.616 3.377-5.054c1.422-1.438 3.094-2.578 5.01-3.42 1.918-.842 3.965-1.263 6.143-1.263 2.645 0 5.061.582 7.256 1.743a15.979 15.979 0 0 1 5.467 4.706l-3.791 2.832a11.16 11.16 0 0 0-3.811-3.551c-1.555-.886-3.262-1.329-5.121-1.329a10 10 0 0 0-4.246.915c-1.322.609-2.477 1.438-3.465 2.483s-1.771 2.266-2.352 3.659c-.582 1.395-.873 2.891-.873 4.488 0 1.597.291 3.093.873 4.487a11.924 11.924 0 0 0 2.352 3.659 11.12 11.12 0 0 0 3.465 2.483 9.979 9.979 0 0 0 4.246.917"/></svg>