<svg xmlns="http://www.w3.org/2000/svg" width="679" height="438.364" viewBox="0 0 679 438.364"><path fill="#D7D8DD" d="M350.877 323.099l.467 1.407.537 1.131.432.613.721.989 1.246-.154.625-.27 1.045.27.283-.473.471-1.104 1.172-.074.102-.33.963-.007-.162.68 2.291-.013.033 1.191.383.734-.275 1.146.141 1.172.633.706-.102 2.271.467-.175.82.046 1.172-.283.863.114.201.594-.217.93.33.902-.281.721.16.666-3.932-.026-.088 6.168 1.273 1.603 1.232 1.226-3.469.801-4.572-.274-1.307-.943-7.656.087-.283.143-1.125-.89-1.227-.061-1.131.337-.908.377-.176-1.232.262-1.718.654-1.784.102-.836.613-1.743.451-.788 1.084-1.259.605-.855.195-1.422-.102-1.083-.566-.681-.504-1.158-.465-1.138.102-.397.578-.755-.572-1.831-.385-1.267-.941-1.191.182-.363.781-.257.545.034.66-.229 5.569.005zm-7.346-.364l-.479.202-.504-1.414.76-.815.572-.317.707.647-.686.397-.311.485-.059.815zM196.373 436.996l-1.791.168-.963-1.165-1.139-.087h-2.021v-7.118l.728 1.448.943 2.377 2.459 1.933 2.646.814-.862 1.63zm1.01-82.455l1.111 1.469.734-1.637 2.155.08.302.432 3.469 3.326 1.542.311 2.31 1.521 1.947.808.27.917-1.859 3.185 1.906.573 2.121.322 1.494-.337 1.712-1.615.31-1.845.936-.397.95 1.205-.041 1.677-1.589 1.165-1.267.861-2.128 2.074-2.52 2.942-.471 1.746-.506 2.269.021 2.223-.41.497-.149 1.462-.128 1.187 2.398 1.958-.257 1.597 1.179 1.017-.094 1.145-1.812 3.045-2.801 1.286-3.785.505-2.074-.243.398 1.448-.385 1.832.35 1.246-1.131.876-1.932.343-1.82-.91-.725.654.262 2.499 1.272.767 1.036-.801.566 1.32-1.737.794-1.513 1.6-.275 2.633-.445 1.421-1.785.008-1.482 1.373-.537 2.027 1.857 2.007 1.805.559-.645 2.513-2.23 1.602-1.226 3.389-1.724 1.157-.773 1.388.611 3.125 1.26 1.771-.795-.155-1.75-.478-4.566-.41-.781-1.771.033-2.243-1.26.188-.666-1.077-.168-3.098 1.447-1.266.6-1.806-.223-1.42 1.004-2.37.687-3.604-.201-1.568.821-.506-.201-.996-.877-.525.619-1.098-.854-.984-.439-2.962.762-.52-.316-3.057.445-2.525.504-2.169 1.131-.875-.571-2.33-.007-2.168 1.428-1.523-.041-1.932 1.078-2.229.007-2.081-.493-.41-.867-3.832 1.164-2.25-.182-2.094.674-1.953 1.238-1.993 1.334-1.313-.564-.828.396-.673-.061-3.462 2.053-1.017.647-2.128-.229-.512 1.575-1.833 2.437.484zm397.211 41.543l1.824.863 1.031-.345 1.473-.478 1.133.168.135 2.983-.646.876-.195 2.06-.66-.706-1.312 1.798-.391-.142-1.158-.081-1.166-2.209-.256-1.684-1.094-2.187.049-1.144 1.233.228zm-3.469-57.956l.68 1.516 1.213-.728.625.822.91.762-.195.861.404 1.67.289.977.479.235.512 1.684-.182 1.024.613 1.341 2.047 1.036 1.332.949 1.266.868-.248.485 1.078 1.259.732 2.188.756-.443.768.882.465-.31.322 2.161 1.34 1.26.877.788 1.475 1.677.531 1.676.047 1.193-.127 1.306.902 1.805-.109 1.893-.33.997-.512 1.933.041 1.252-.371 1.576-.834 2.02-1.4 1.099-.688 1.744-.633 1.125-.559 1.973-.729 1.152-.477 1.737-.244 1.616.096.747-1.084.822-2.115.087-1.744.978-.869.929-1.139 1.037-1.562-1.063-1.156-.425.295-1.246-1.029.451-1.656 1.737-1.631-.653-1.07-.376-1.078-.169-1.824-.694-1.219-1.468-.352-1.791-.438-1.179-.928-.943-1.82-.276.621-1.118-.459-1.696-.922 1.582-1.684.425.99-1.267.283-1.312.727-1.111-.148-1.662-1.535 1.919-1.178.774-.721 1.812-1.477-.943.062-1.205-1.178-1.638-.998-.842.357-.518-2.426-1.348-1.326-.06-1.818-1.078-3.379.21-2.445.794-2.148.74-1.805-.148-2 1.146-1.637.519-.365 1.179-.699.915-1.604.054-1.186.203-1.668-.41-1.361.248-1.293.102-1.125 1.211-.553-.1-.949.646-.908.728-1.381-.088h-1.266l-2-1.462-1.018-.43.041-1.3.936-.311.324-.511-.068-.808.229-1.55-.207-1.312-.998-2.217-.311-1.245.082-1.232-.754-1.401-.047-.626-.836-.848-.234-1.664-1.078-1.671-.262-.896.826.91-.639-1.939.936.605.561.808-.035-1.07-.936-1.636-.182-.654-.439-.619.203-1.191.385-.506.254-1.023-.201-1.191.781-1.463.141 1.543.795-1.394 1.537-.674.922-.861 1.441-.74.855-.155.518.248 1.488-.747 1.145-.222.283-.438.498-.182 1.045.048 1.986-.587 1.023-.881.484-1.064 1.105-1.004.086-.787.049-1.071 1.32-1.664.793 1.69.803-.391-.674-.929.592-.949.836.424.229-1.488 1.031-.956.457-.769.949-.33.027-.539.828.23.033-.485.83-.276.914-.263 1.395.889 1.051 1.152 1.178.014 1.199.181-.396-1.063.902-1.548.848-.506-.295-.479.82-1.097 1.145-.682.963.229 1.59-.362-.033-.977-1.381-.634 1.002-.276 1.254.473 1.004.788 1.588.491.539-.195 1.172.593 1.105-.553.707.169.443-.371.869.949-.504 1.031-.715.78-.646.068.223.773-.553.964-.674.95.135.544 1.502 1.077 1.455.628.971.673 1.365 1.158h.533l.988.505.291.606 1.805.667 1.246-.674.369-1.058.385-.868.234-1.07.574-1.55-.264-.937.135-.565-.217-1.104.25-1.453.363-.391-.295-.641.457-1.018.357-1.051.047-.544.701-.715.531.937.129 1.198.471.229.08.808.688.977.141 1.091-.05.677zm-276.41-44.243l-1.293-.492-.889.075-.66.477-.849-.403-.33-.626-.849-.418-.127-1.104.518-.815-.047-.646 1.502-1.59.275-1.319.52-.473.916.257.788-.391.255-.499 1.468-.861.358-.606 1.764-.808 1.044-.276.472.37 1.205-.007-.148.943.257.883 1.062 1.258.054.931 2.182.437-.047 1.313-.41.579-.922.175-.385.835-.646.216-1.656-.041-.875-.146-.607.309-.834-.142-3.279.087-.048 1.084.261 1.434zm60.736 26.62l-.121-2.27-.477-.848 1.15.146.578-1.07 1.004.122.107.741.404.423.021.613-.467.391-.74.983-.68.681-.779.088z"/><path fill="#D7D8DD" d="M325.133 300.295l-1.562.223-.465-1.307.088-4.351-.384-.391-.067-.936-.66-.667-.572-.559.242-1.01.646-.216.385-.835.922-.175.41-.579.635-.559.679-.007 1.442 1.104-.075.641.425 1.131-.371.768.196.512-.917 1.179-.578.585-.357 1.192.048 1.206-.11 3.051zm-123.749 54.164l-2.155-.087-.734 1.637-1.111-1.469-2.471-.491-1.57 1.832-1.367.276-.739-2.795-1.011-2.25.592-1.933-.988-.842-.25-1.428-.929-1.347 1.191-2.115-.815-1.643.438-.653-.343-.721.741-.97.039-1.643.09-1.36.41-.647-1.637-3.084 1.407.162.97-.048.425-.572 1.649-.774.99-.713 2.472-.323-.196 1.427.229.734-.153 1.279 2.054 1.718 2.114.315.741.721 1.279.385.781.559 1.186-.02 1.096.572.082 1.118.369.565.027.842-.551.026.727 2.27 3.617.081-.276 1.131.201.774 1.031.553.451 1.226-.337 1.562-.52.868.184 1.138-.594.412-.026-.613-1.765-1.017-1.751-.034-3.294.579-.902 1.765-.047 1.077-.748 2.418-.303-.43z"/><path fill="#D7D8DD" d="M211.242 371.592l2.519-2.943 2.135-2.074 1.267-.861 1.589-1.166.041-1.677-.95-1.205-.936.397.371-1.198.254-1.226v-1.131l-.68-.371-.706.33-.701-.088-.222-.795-.176-1.865-.355-.606-1.273-.552-.769.396-1.993-.391.121-2.732-.559-1.118.594-.412-.184-1.138.52-.868.337-1.562-.451-1.226-1.031-.553-.201-.774.276-1.131-3.617-.081-.727-2.27.551-.026-.027-.842-.369-.565-.082-1.118-1.096-.572-1.186.02-.781-.559-1.279-.385-.741-.721-2.114-.315-2.054-1.718.153-1.279-.229-.734.196-1.427-2.472.323-.99.713-1.649.774-.425.572-.97.048-1.407-.162-1.064.33-.862-.222.129-2.896-1.55 1.117-1.664-.047-.713-1.018-1.253-.106.397-.815-1.05-1.159-.788-1.703.498-.343v-.802l1.145-.546-.188-1.017.477-.66.143-.876 2.154-1.285 1.55-.357.249-.283 1.703.088.85-5.151.046-.815-.296-1.071-.836-.687.008-1.359 1.063-.311.378.196.061-.722-1.105-.195-.02-1.171 3.678.039.626-.646.524.592.365 1.111.355-.235 1.045.997 1.468-.121.362-.58 1.401-.438.781-.303.215-.795 1.354-.539-.107-.391-1.596-.161-.264-1.186.074-1.259-.842-.485.352-.175 1.4.242 1.5.472.547-.444 1.354-.296 2.114-.701.693-.721-.255-.531.982-.081.444.431-.249.829.646.282.438.875-.525.66-.303 1.604.484.949.135.868 1.164.876.932.094.207-.363.594-.08.855-.33.611-.498 1.045.155.458-.069 1.03.155.168-.384-.316-.369.189-.546.76.168.896-.196 1.079.399.826.389.588-.512.416.082.264.531.901-.135.722-.714.578-1.388 1.118-1.716.647-.089.465 1.038 1.057 3.285 1.01.311.055 1.293-1.422 1.542.586.565 3.34.297.067 1.879 1.435-1.232 2.377.68 3.132 1.146.923 1.097-.311 1.038 2.195-.58 3.678.997 2.822-.073 2.787 1.556 2.412 2.107 1.454.539 1.615.08.688.593.639 2.404.316 1.139-.754 3.138-.963 1.239-2.66 2.652-1.206 2.163-1.394 1.669-.473.041-.531 1.414.135 3.637-.524 3.017-.202 1.3-.594.774-.336 2.653-1.912 2.613-.322 2.081-1.53.883-.444 1.218-2.047-.007-2.971.788-1.333.909-2.114.6-2.223 1.643-1.596 2.061-.275 1.563.315 1.165-.356 2.142-.425 1.043-1.319 1.178-2.096 3.826-1.662 1.744-1.286 1.037-.854 2.128-1.254 1.286-.525-1.279.836-1.058-1.092-1.516-1.482-1.225-1.945-1.4-.699.061-1.894-1.684-1.225.229zM173.65 266.14l-.464.101-.478-1.186-.707-.598.41-1.314.565.081.66 1.717.014 1.199zm-.537-5.852l-2.062.337-.134-.773.889-.169 1.246.061.061.544zm1.548-.02l-.322 1.488-.351-.27.033-1.098-.848-.829-.007-.242 1.495.951zm193.821 87.189l.377.35.598 1.151 2.135 2.188.809.216.008.708.551 1.279 1.463.31 1.205.915-2.674 1.496-1.697 1.521-.627 1.368-.564.772-1.031.169-.33.99-.193.647-1.207.483-1.535-.101-.902-.579-.795-.255-.922.483-.465.997-.895.626-.943.937-1.355.216-.416-.733.176-1.28-1.127-1.973-.504-.311v-5.966l1.859-.075.055-7.117 1.406-.062 2.908-.693.729.815 1.199-.774.578-.007 1.064-.444.336.147.726 1.586zm-216.751-69.356l-.013-.29.229-.095.344.235.673-1.191.356-.027.007.29.358.007-.028.538-.31.856.169.303-.196.707.115.182-.217.989-.369.526-.344.061-.377.673h-.56l.149-2.209.014-1.555zm226.542 27.374l-.115 2.195.756.249-.607.666-.727.499-.721.982-.398.869-.107 1.509-.436.713-.016 1.415-.545.525-.068 1.118-.262.141-.174 1.031.477.848.121 2.27.338 1.73-.189.984.379 1.09 1.096 1.058 1.018 2.392-.74-.196-2.539.323-.506.223-.539 1.211.426.842-.338 2.258-.234 1.919.512.343 1.318.74.518-.343.162 2.074-1.445-.02-.775-1.058-.695-.822-1.445-.27-.426-1.002-1.158.604-1.508-.269-.635-.869-1.197-.175-.883.048-.107-.594-.652-.047-.863-.115-1.166.283-.82-.046-.473.175.102-2.271-.625-.706-.141-1.165.273-1.146-.375-.734-.035-1.185-2.297.013.17-.68-.963.006-.102.33-1.172.075-.479 1.097-.283.479-1.043-.27-.619.27-1.254.147-.719-.989-.432-.613-.545-1.131-.467-1.407-5.568-.021-.666.223-.545-.033-.781.255-.264-.585.479-.202.061-.822.311-.484.686-.391.498.188.648-.721 1.023.021.121.531.707.337 1.109-1.185 1.1-.916.479-.6-.062-1.548.822-1.826.861-.963 1.246-.902.217-.6.045-.687.311-.653-.1-1.064.234-1.662.371-1.172.566-1.004.105-1.131.17-1.314.74-.956 1.01-.606 1.557.641 1.197.693 1.383.189 1.406.363.566-1.132.262-.148.855.189 2.107-.937.742.397.613-.054.281-.458.701-.162 1.42.195 1.213.04.625-.194 1.139 1.555.85.223.506-.316.873.128 1.051-.397.451.802 1.662 1.255z"/><path fill="#D7D8DD" d="M348.898 298.1l1.562-.147.35-.485.311.041.471.424 2.377-.721.803-.741.988-.666-.188-.667.531-.175 1.826.121 1.777-.882 1.361-2.081.961-.768 1.193-.33.215.822 1.092 1.191v.774l-.305.795.121.585.654.546 1.441.835 1.029.761.021.62 1.266.982.787.816.48 1.131 1.414.747.301.6-.625.194-1.213-.04-1.42-.195-.701.162-.281.458-.613.054-.742-.397-2.107.937-.855-.189-.262.148-.566 1.132-1.406-.363-1.383-.189-1.197-.693-1.557-.641-1.01.606-.74.956-.17 1.314-1.211-.108-1.279-.316-1.125.997-.99 1.75-.201-.546-.08-.854-.863-.606-.699-.97-.162-.673-.889-.982.146-.56-.188-.796.148-1.461.451-.343.951-1.914z"/><path fill="#D7D8DD" d="M344.588 321.038l-.707-.647-.572.317-.76.808-1.551-1.986 1.436-1.036-.707-1.247.646-.471 1.271-.229.148-.836 1.012.902 1.668.08.58-.888.236-1.246-.209-1.469-.889-1.104.814-2.175-.471-.371-1.4.148-.533-.963.143-.822 2.375.074 1.531.492 1.5.444.135-1.011.99-1.75 1.125-.997 1.279.316 1.211.108-.105 1.131-.566 1.004-.371 1.172-.234 1.662.1 1.064-.311.653-.045.687-.217.6-1.246.902-.861.963-.822 1.826.062 1.548-.479.6-1.1.916-1.109 1.185-.707-.337-.121-.531-1.023-.021-.648.721-.498-.186zm-29.934-18.358l-.854.02-1.321-.369-1.204.02-2.243.33-1.307.545-1.872.688-.362-.047.141-1.55.182-.235-.055-.747-.801-.788-.6-.129-.551-.519.409-.835-.188-.915.087-.553h.303l.107-.828-.146-.363.181-.264.7-.229-.465-1.521-.438-.781.154-.654.377-.141.243-.175.526.283 1.453.02.352-.56.322.041.545-.216.297.815.438-.243.781-.282.849.418.33.626.849.403.66-.477.889-.075 1.293.492.498 2.7-.794 1.589-.491 2.136.813 1.622-.087.748zm-124.2 126.113v7.118h2.021l1.137.087-.626 1.334-1.616 1.031-.928-.108-1.119-.27-1.374-.997-1.979-.478-2.377-1.825-1.927-1.731-2.599-3.535 1.556.653 2.653 2.107 2.506 1.146.975-1.461.613-2.156 1.738-1.286 1.346.371zm.781-75.43l.739 2.795 1.361-.276.229.512-.646 2.128-2.055 1.017.061 3.462-.397.674.566.827-1.334 1.313-1.239 1.993-.673 1.953.182 2.094-1.165 2.251.868 3.831.492.41-.008 2.081-1.076 2.229.041 1.933-1.429 1.521.007 2.169.572 2.33-1.131.875-.506 2.169-.444 2.525.316 3.057-.761.52.438 2.962.855.984-.619 1.097.875.526.203.997-.822.505.203 1.569-.688 3.603-1.003 2.37.222 1.42-.599 1.805-1.447 1.267.168 3.098.666 1.077 1.26-.188-.033 2.242.781 1.771 4.564.411 1.752.477-1.678-.02-.908.762-1.703 1.125-.305 2.948-.801.075-2.129-1.038-2.16-2.188-2.351-1.771-.593-1.933.532-1.764-.95-1.98-.242-4.943.802-2.713 1.993-2.148-2.869-.802 1.798-2.404.64-4.417 2.102.922.982-5.366-1.266-.674-.593 3.199-1.192-.364.594-3.65.646-4.605.869-1.671-.546-2.356-.155-2.681.795-.074 1.158-3.771 1.307-3.657.801-3.347-.438-3.307.566-1.798-.229-2.667 1.104-2.606.344-4.067.605-4.29.593-4.546-.142-3.279-.391-2.795.971-.505.505-1.01.922 1.34.25 1.428.989.842-.592 1.933 1.019 2.247z"/><path fill="#D7D8DD" d="M344.744 307.804l-.236-.101-1.117.243-1.152-.257-.896.128-3.07-.048.277-1.48-.742-1.239-.861-.323-.385-.842-.484-.27.027-.519.484-1.334.896-1.817.545-.02 1.124-1.105.721-.026 1.058.773 1.299-.639.176-.781.424-.769.291-.956 1.01-.781.383-1.326.398-.425.268-.989.5-1.219 1.59-1.481.1-.64.209-.343-.748-.769.061-.606.533-.114.748 1.232.127 1.273-.068 1.272 1.023 1.73-1.049-.021-.533.135-.861-.189-.41.896 1.109 1.111.822.323.27.788.592 1.3-.295.518-.949 1.913-.451.343-.148 1.461.188.796-.146.56.889.982.162.673.699.97.863.606.08.854.201.546-.135 1.011-1.5-.444-1.531-.492-2.38-.072zm-167.012 4.539l-.808-.444-.931-.619-.537.296-1.604-.262-.457-.809-.351.033-1.893-1.07-.257-.587.707-.141-.08-.937.438-.68.936-.128.802-1.178.721-.984-.7-.451.356-1.09-.425-1.725.406-.492-.298-1.596-.767-1.01.241-.917.614.136.355-.565-.438-1.111.23-.283.969.061 1.42-1.327.775-.201.02-.626.352-1.61 1.084-.888 1.184-.034.15-.397 1.48.155 1.488-.963.734-.432.909-.922.673.114.492.505-.364.646-1.212.323-.479.956-.733.545-.546.715-.236 1.354-.518 1.118.969.12.242.875.419.418.147.761-.223.701.068.396.464.155.451.661 2.425-.184 1.098.244 1.334 1.623.76-.203 1.361.102 1.078-.216.666.33-.344 1.01-.418.633-.148 1.354.378 1.246.54.559.061.425-.957.937.687.41.505.66.572 1.865-.355.235-.365-1.111-.524-.592-.626.646-3.678-.039.02 1.171 1.105.195-.061.722-.378-.196-1.063.311-.008 1.359.836.687.296 1.071-.046.815-.85 5.151-.941-1.003-.566-.041 1.219-1.912-1.447-.883-1.133.162-.68-.324-1.043.499-1.408-.235-1.111-1.967-.875-.485-.6-.888-1.253-.889-.502.181zm-14.336-15.764l-1.024-.425-.383-.397.215-.329-.067-.418-.524-.458-.741-.37-.653-.242-.121-.56-.5-.343.123.559-.378.451-.431-.524-.606-.189-.256-.384.015-.579.248-.606-.531-.27.43-.362.283-.249 1.247.505.431-.249.6.161.316.391.551.127.451-.403.486 1.036.727.769.889.815-.733.168.013.761.391.282-.282.229.073.343-.154.384-.105.376zm1.313-29.266l1.636.146 1.481.021 1.771.693.754.747 1.765-.229.666.473 1.604 1.259 1.17.909.619-.026 1.133.41-.142.565 1.394.081 1.428.821-.223.464-1.26.257-1.271.102-1.3-.162-2.701.194 1.267-1.117-.768-.519-1.219-.134-.652-.579-.453-1.146-1.062.073-1.766-.538-.566-.425-2.457-.315-.66-.397.707-.505-1.852-.102-1.354 1.05-.787.028-.27.498-.93.223-.809-.196.997-.626.403-.734.855-.451.963-.396 1.436-.196.453-.221zm219.355-26.028l1.273-.984-1.717.687-1.359-.033-.271.56-.135.013-.896.081.439.923.922.296 1.939-.929-.061-.183-.134-.431zm17.336 46.756l.443.592-.061.802-1.078.458.816.519-.701 1.022-.418-.336-.451.135-1.057-.034-.035-.578-.141-.533.633-.896.666-.848.809.168.575-.471zm-216.758-13.719l.235-.344 1.477.015 1.117.512.498-.054.344.706 1.029-.039-.061.592.842.073.931.728-.701.81-.903-.432-.86.081-.62-.095-.344.363-.728.122-.282-.485-.627.29-.754 1.347-.484-.31-.102-.566.041-.538-.486-.594.459-.336.148-.761-.169-1.085zm158.067-7.589l-6.472 3.872-5.468 3.939-2.66.889-2.095.196-.02-1.267-.876-.324-1.179-.571-.444-.936-6.37-4.411-6.371-4.479-7.104-5.07.041-.411v-.141l-.021-2.525 3.053-1.589 1.885-.33 1.543-.58.727-1.091 2.209-.869.08-1.622 1.092-.196.854-.813 2.472-.378.344-.862-.499-.478-.652-2.377-.108-1.381-.714-1.468 1.812-1.261 2.047-.403 1.192-.963 1.817-.708 3.199-.417 3.125-.194.949.35 1.779-.923 2.02-.02.768.546 1.285-.143-.383 1.206.303 2.209-.444 1.898-1.165 1.266.168 1.705 1.543 1.333.02.545 1.159.896.808 3.947.613 1.912.102.996-.331 1.744.134.971-.241 1.157.168 1.327-.753.868 1.116 1.523.075.888.666 1.152.881-.378 1.496.956.825 1.288z"/><path fill="#D7D8DD" d="M168.426 318.445l1.003-1.4-.41-.822-.721.876-1.132-.828.385-.525-.316-1.704.66-.283.35-1.165.714-1.212-.136-.761 1.038-.404 1.293-.747 1.893 1.07.351-.033.457.809 1.604.262.537-.296.931.619.808.444.264 1.421-.588 1.22-2.059 1.966-2.271.74-1.156 1.637-.358 1.267-1.07.774-.788-.949-.768-.203-.78.149-.048-.688.538-.444-.225-.79zm217.564-64.372l-.531.868-.404 1.616-.512 1.105-.445.376-.625-.687-.855-.956-1.348-3.078-.188.196.779 2.269 1.16 2.142 1.428 3.286.693 1.132.605 1.172 1.697 2.29-.377.356.061 1.327 2.203 1.824.328.418h-22.404v-15.091l-.566-1.737.486-1.347-.289-.937.68-1.058 2.512-.033 1.818.579 1.871.653.875.337 1.455-.694.775-.626 1.67-.182 1.34.276.518 1.09.439-.721 1.508.52 1.475.128.93-.553 1.238 3.74zm-90.643 3.891l2.438.007 5.893.02-5.893-.02-2.438-.007-.073.061-.033.028-1.199 2.154-1.254.768-.686 1.287-.041 1.109-.506 1.206-.632.33-1.052 1.307-.645 1.448.121.687-.621 1.058-.726.551-.088.936-.08.856.41-.674 7.395.014-.356-2.93.464-1.044 1.764-.182-.061-5.294 6.203.115v-3.186l.041-.411v-.141l-8.345-.053zm104.671 30.379l-.646-.627-.773-1.124-.834-.62-.492-.673-1.643-.774-1.293-.021-.459-.41-1.105.458-1.145-.883-.592 1.448-2.195-.403-.203-.775.816-2.862.182-1.299.592-.606 1.395-.323.955-1.125 1.1 2.276.518 1.799 1.037.949 2.572 1.831 1.051 1.104 1.023 1.118.592.66.932.579-.574.471-.811-.168z"/><path fill="#D7D8DD" d="M391.627 283.669l1.145.883 1.105-.458.459.41 1.293.021 1.643.774.492.673.834.62.773 1.124.646.627-.666.848-.633.896.141.533.035.578 1.057.034.451-.135.418.336-.41.68.699 1.051.693.917.721.681 6.176 2.249 1.59-.015-5.342 5.672-2.457.08-1.684 1.327-1.205.032-.52.594h-1.293l-.76-.634-1.725.789-.559.779-1.26-.146-.418-.216-.445.047-.592-.013-2.391-1.604h-1.312l-.646-.613v-1.058l-.982-.315-1.113-2.055-.861-.438-.338-.754-.955-.923-1.158-.135.646-1.084.996-.047.283-.58-.018-1.701.559-1.993.889-.539.195-.78.809-1.462 1.139-.956.766-1.893.305-1.662 2.195.403.59-1.449zm268.693 58.845l-.236.941-.154.108-1.199.485-1.205.41-.242-.734.941-.403.602-.108 1.104-.612.389-.087zm-3.933 2.902l-.855-.242-.727.674.182.868 1.043.243 1.174-.27.309-1.03-.646-.566-.48.323zm-315.389-25.887l-1.938-1.899-1.254-1.548-1.145-1.939.061-.62.41-.606.459-1.359.383-1.395.641-.107 2.74.021-.014-2.257.896-.128 1.152.257 1.117-.243.236.101-.143.822.533.963 1.4-.148.471.371-.814 2.175.889 1.104.209 1.469-.236 1.246-.58.888-1.668-.08-1.012-.902-.148.836-1.271.229-.646.471.707 1.247-1.435 1.031zM220.812 307.36l-.722.714-.901.135-.257-.525-.423-.081-.588.513-.82-.384.478-.803.162-.854.323-.808-.734-1.111-.148-1.286.984-1.623.639.209 1.389.444 1.998 1.589.311.769-1.118 1.716-.573 1.386zm101.244-6.444l-2.964 1.104-1.051.647-1.703.544-1.684-.531.087-.748-.813-1.622.491-2.136.794-1.589-.498-2.7-.263-1.436.048-1.084 3.279-.087.834.142.607-.309.875.146-.142.6.788.982v1.381l.183 1.496.471.693-.417 1.703.147.942.505 1.2.426.662zM231.749 16.102l6.344-9.165 6.626.721 2.404-6.028L253.797 0l15.084 2.122 11.812 12.519-3.488 5.59-7.227.626-10.161 1.367.95 2.452 6.687-1.509 5.683 4.654 3.672-4.121 1.568 4.814-2.074 7.388 4.809-4.667 9.164-5.085 5.664 2.566 1.057 5.468-7.696 8.526-1.064 2.626-6.033 1.927 4.37.532-2.209 7.751-1.521 6.458.061 10.276 2.27 5.616-2.949.343-3.105 2.614 3.482 4.242.444 6.479-2.021.687 2.444 6.163-4.188.505 2.189 2.789-.619 2.363-2.662 1.017-2.633.02 2.363 4.364.027 2.782-3.737-2.58-.97 1.676 2.545 1.543 2.48 3.691.713 4.68-3.367 1.092-1.455-2.197-2.336-3.353.646 3.952-2.188 2.97 4.971.235 2.605.304-5.064 4.734-5.131 4.129-5.523 1.757-2.08.026-1.953 1.934-2.627 5.138-4.061 3.293-1.306.195-2.519 1.125-2.707 1.071-1.623 2.774-.027 3.071-.95 2.802-3.084 3.333.761 3.173-.848 3.266-.963 3.745-2.66.229-2.787-3.119-3.779-.02-1.831-2.142-1.261-3.906-3.271-5.172-.957-2.795-.256-3.967-2.619-4.222.68-3.481-1.26-1.704 1.867-5.825 2.84-1.919.748-2.195.398-4.217-2.162 1.927-1.023.801-1.697.768-2.317-1.759-.128-3.737.74-3.017 1.752-.08 3.852 1.515-3.246-3.658-1.689-2.027-1.879.835-1.576-1.475 2.107-5.724-1.145-2.376-1.502-4.539-2.27-7.347-2.403-2.809.019-3.118-5.069-4.505-4.007-.572-5.045.315-4.605.58-2.195-2.525-3.279-5.158 4.955-2.674 3.806-.458-8.081-2.262-4.257-3.665.264-3.596 7.144-4.626 6.917-4.822.728-3.798-5.092-3.879 1.645-4.471 6.538-8.304 2.747-1.333-.787-5.771 4.472-3.529 5.804-2.161 5.807-.123 2.06 4.243 5.011-7.623 4.506 5.24 2.646 1.071 3.926 4.317-4.492-7.254.248-6.123zm56.499 271.069l.244-.855 2.053-.061.432-.451.6-.034.74.479.586.007.626-.323.378.552-.814.438-.822-.034-.808-.41-.701.444-.337.02-.457.27-1.72-.042zm15.867 10.424l-.531-.047-.385.761-.539-.006-.363-.404.121-.762-.787-1.158-.492.209-.404.047-.518.108.02-.694-.303-.497.061-.553-.412-.803-.524-.68h-1.509l-.438.357-.525.04-.323.411-.216.531-1.01.836-.828-1.125-.734-.747-.484-.243-.473-.383-.207-.842-.276-.418-.552-.316.842-.929.571.034.492-.323h.417l.297-.257-.162-.633.209-.202.033-.652.909.02 1.361.471.417-.046.141-.209 1.025.148.275-.107.107.706.303-.007.492-.255.309.066.527.484.807.155.519-.417.612-.257.451-.27.378.055.417.418.229.531.775.803-.391.49-.074.619.404-.188.235.229-.101.566.578.552-.377.141-.154.654.438.781.465 1.521-.7.229-.181.264.146.363-.107.828h-.303z"/><path fill="#D7D8DD" d="M337.975 310.162l-.356-.283.653-2.108 3.07.048.014 2.257-2.74-.021-.641.107zM149.934 286.04l-.969-.337-1.18-.032-.862-.385-1.017-.794.047-.565.217-.459-.264-.363.908-1.589 2.418-.008.055-.659-.31-.121-.21-.425-.699-.451-.701-.66h.855v-1.111h1.765l1.744.021-.013 1.555-.149 2.209h.56l.619.356.162-.296.553.249-.856.748-.896.545-.135.371.148.377-.391.499-.444.114.102.229-.351.216-.646.484-.06.282zm141.548 5.178l-1.011-.801-.794-.121-.432-.546.006-.29-.572-.403-.121-.41 1.004-.317.627.061.504-.216 3.488.082-.033.652-.209.202.162.633-.296.256h-.417l-.492.323-.571-.034-.843.929zm-84.266 5.091l1.239.694 1.17 1.232.048.976.714.048 1.011.915.747.66-.303 1.697-1.145.492.1.438-.35.976.842 1.36.6.007.249 1.058 1.152 1.629-.458.069-1.045-.155-.611.498-.855.33-.594.08-.207.363-.932-.094-1.164-.876-.135-.868-.484-.949.303-1.604.525-.66-.438-.875-.646-.282.249-.829-.444-.431-.982.081-1.274-1.429.513-.518-.041-.875 1.166-.304.463-.35-.645-.701.168-.693 1.494-1.11z"/><path fill="#D7D8DD" d="M155.18 287.488l-.322-.6-.58-.168.135-.773-.256-.21-.391-.135-.829.229-.067-.263-.572-.311-.403-.384-.56-.16.391-.499-.148-.377.135-.371.896-.545.856-.748.194.081.419-.343.537-.028.176.155.297-.095.875.176.875-.055.607-.214.222-.216.599.102.451.134.492-.048.377-.168.861.27.305.041.571.363.544.438.688.296.499.539-.647-.04-.263.263-.652.255h-.479l-.418.25-.377-.088-.324-.296-.196.055-.243.465-.182-.021-.033.404-.66.531-.344.23-.195.242-.559-.391-.404.511-.396-.013-.445.048.041.949-.276.013-.235.445-.587.075zm26.674-13.571l1.151.089 1.636.315.169 1.085-.148.761-.459.336.486.594-.041.538-1.252-.337-.89.136-1.151-.143-.883.371-1.016-.619.168-.64 1.738.275 1.426.161.681-.444-.862-.854.014-.761-1.191-.311.424-.552zM387.5 247.028l-.33.708-.688-.311-.391 1.482.471.242-.477.309-.088.58.889-.304.047.856-.943 3.481-1.238-3.738.545-.728-.129-.127.5-1.031.383-1.684.27-.565.055-.02h.633l.174-.392.506-.033.027.923-.256.337.04.015zm-94.848-103.971l-.43 3.017 2.127 3.098-2.451 3.374-5.447 2.95-1.631.774-2.484-.626-5.266-1.355 1.858-1.912-4.108-2.155 3.342-.861-.082-1.327-3.959-1.058 1.271-3.011 2.862-.693 2.944 3.151 2.867-2.525 2.378 1.321 3.077-2.5 3.132.338zM173.584 276.753l1.273.175 1.004.478.309.54-1.326.034-.573.328-1.056-.315-1.079-.721.222-.451.797-.134.429.066zm223.869 36.917l1.117 1.542-1.318.755-.467.78-.713.135-.262 1.326-.607.755-.369 1.252-.762.62-2.707-1.879-.135-1.091-6.844-3.818-.322-.208-.014-1.987.539-.761.93-1.239.686-1.367-.826-2.154-.223-.943-.896-1.307 1.158-1.124 1.281-1.239.982.315v1.058l.646.613h1.312l2.391 1.604.592.013.445-.047.418.216 1.26.146.559-.779 1.725-.789.76.634h1.293l-1.648 2.135.019 6.833zm-91.963-9.804l-.499.013-1.946-.896-1.711-1.434-1.609-1.031-1.273-1.218.451-.606.102-.546.848-1.03.883-.883.404-.047.492-.209.787 1.158-.121.762.363.404.539.006.385-.761.531.047-.087.553.188.915-.409.835.551.519.6.129.801.788.055.747-.182.235-.143 1.55zm69.276 65.005l.66.647-.58 1.05-.322.708-1.051.336-.35.701-.674.215-1.414-1.676 1.002-1.368 1.025-.842.881-.432.823.661zM348.09 267.978l-1.332.755-1.064-1.118-2.984-.882-.828-1.287-1.496-.956-.881.378-.666-1.152-.075-.888-1.116-1.523.753-.868-.168-1.327.241-1.157-.134-.971.331-1.744-.102-.996-.613-1.912.924-.505.16-.93-.201-.909 1.299-.849.58-.707.922-.64.107-1.718 2.217.774.793-.195 1.576.377 2.506.99.883 1.967 1.697.43 2.658.917 2.014 1.084.924-.565.902-1.004-.438-1.69.592-1.077 1.361-1.044 1.299-.303 2.553.458.646.997.699.007.6.377 1.881.262.457.728-.68 1.058.289.937-.486 1.347.566 1.737v19.104l-2.168.007-.027.835-7.529-3.838-7.535-3.887-1.907 1.116zm-44.399-9.959l-.021-2.525 3.053-1.589 1.885-.33 1.543-.58.727-1.091 2.209-.869.08-1.622 1.092-.196.854-.813 2.472-.378.344-.862-.499-.478-.652-2.377-.108-1.381-.714-1.468-.822-.028-1.952-.505-1.797.162-1.14-.982-1.386-.015-.602 1.422-1.259 2.363-1.401.937-1.891 1.03-1.213 1.509-.256 1.172-.721 1.899.471 2.713-1.575 1.805-.942.572-1.488 1.461-1.758.237-.876.753 2.438.007 5.893.02-5.893-.02-2.438-.007 8.343.054zm109.911 77.618l.498.815.465 1.272.311 2.33.484.909-.189.93-.33.579-.645-1.146-.352.58.357 1.44-.168.835-.52.451-.121 1.67-.74 2.304-.93 2.754-1.172 3.818-.721 2.836-.854 2.39-1.537.492-1.65.883-1.082-.533-1.502-.74-.52-1.091-.129-1.825-.66-1.63-.174-1.461.336-1.455.869-.35.006-.667.902-1.521.17-1.267-.439-.942-.355-1.247-.148-1.817.66-1.099.248-1.245.943-.067 1.057-.403.693-.35.836-.028 1.07-1.111 1.557-1.198.564-.97-.254-.828.801.235 1.045-1.34.031-1.158.627-.862.662.828zm-116.53-51.301l.631-.35.316-1.146.6-.048 1.321.539 1.063-.384.729.128.289-.431 7.576-.027.416-1.366-.33-.242-.908-8.54-.909-8.795 2.889-.034 6.371 4.479 6.37 4.411.444.936 1.179.571.876.324.02 1.267 2.095-.196.008 4.546-1.039 1.308-.161 1.204-1.676.303-2.573.169-.7.694-1.212.073-1.205.007-.472-.37-1.044.276-1.764.808-.358.606-1.468.861-.255.499-.788.391-.916-.257-.52.473-.275 1.319-1.502 1.59.047.646-.518.815.127 1.104-.781.282-.438.243-.297-.815-.545.216-.322-.041-.352.56-1.453-.02-.526-.283-.243.175-.578-.552.101-.566-.235-.229-.404.188.074-.619.391-.49-.775-.803-.229-.531-.417-.418-.378-.055-.451.27-.612.257-.519.417-.807-.155-.527-.484-.309-.066-.492.255-.303.007-.107-.706.087-.601-.161-.74-.707-.546-.371-1.104-.088-1.207z"/><path fill="#D7D8DD" d="M297.072 284.336l-1.248-1.334-1.144-1.434-1.253-.52-.902-.572-1.057.021-.917.425-.942-.169-.646.626-.162-1.051.526-.97.235-1.852-.209-1.96-.229-.989.188-.99-.484-.956-.996-.861.41-.674 7.395.014-.356-2.93.464-1.044 1.764-.182-.061-5.294 6.203.115v-3.186l7.104 5.07-2.889.034.909 8.795.908 8.54.33.242-.416 1.366-7.576.027-.289.431-.729-.128-1.063.384-1.321-.539-.6.048-.316 1.146-.631.351zm88.233 49.477l-.527 1.454.527 2.505.66-.026.68.62.787 1.4.162 2.505-.814.411-.58 1.354-1.232-1.206-.135-1.373.396-.909-.113-.774-.74-.492-.525.175-1.084-.929-.99-.498.572-1.791.594-.667-.365-1.589.377-1.55.324-.519-.479-1.616-.889-.849 1.846.351.383.524.639.889.526 2.6z"/><path fill="#D7D8DD" d="M385.305 333.813l1.42-.155 2.27.538.498-.242 1.312-.047.674-.572 1.133.026 2.061-.74 1.5-1.104.311.854-.08 1.906.236 1.684.072 3.017.332.942-.561 1.394-.732 1.354-1.207 1.213-1.723.747-2.129.95-2.135 2.121-.727.363-1.32 1.408-.775.465-.16 1.427.895 1.516.371 1.185.027.606.33-.102-.055 1.994-.303.95.443.35-.281.854-.789.734-1.557.701-2.27 1.118-.826.774.16.875.479.142-.16 1.104-1.43-.013-.16-.929-.283-.937-.162-.747.336-2.312-.49-1.461-.902-2.869 1.986-2.296.498-1.447.289-.183.209-1.172-.303-.592.082-1.482.369-1.373-.006-2.484-.977-.635-.902-.141-.404-.485-.875-.41-1.576.041-.121-.728-.184-1.381 5.732-1.603 1.084.929.525-.175.74.492.113.774-.396.909.135 1.373 1.232 1.206.58-1.354.814-.411-.162-2.505-.787-1.4-.68-.62-.66.026-.527-2.505.529-1.45zm-34.393 34.244l-1.4-1.61-.74-1.549-.42-2.04-.463-1.516-.633-3.179-.041-2.444-.242-1.104-.734-.835-.977-1.663-.99-2.404-.41-1.245-1.543-1.934-.113-1.516.908-.369 1.131-.337 1.227.061 1.125.889.283-.142 7.656-.08 1.307.941 4.572.276 3.469-.801 1.549-.451 1.227.114.74.444.02.162-1.064.444-.578.007-1.199.774-.729-.815-2.908.693-1.406.062-.055 7.117-1.859.075v5.966l-.008 7.758-1.684 1.099-1.01.154-1.191-.404-.848-.154-.318-.917-.749-.584-.902 1.057zm282.168-15.53l1.549 1.253.977.93-.715.492-1.043-.553-1.348-.909-1.219-1.07-1.246-1.415-.262-.681.807.034 1.064.681.828.68.608.558zm-308.965-63.032l.047-1.313-2.182-.437-.054-.931-1.062-1.258-.257-.883.148-.943 1.212-.073.7-.694 2.573-.169 1.676-.303.161-1.204 1.039-1.308-.008-4.546 2.66-.889 5.468-3.939 6.472-3.872 2.984.882 1.064 1.118 1.332-.755.465 3.145.707.526.033.64.781.687-.41.862-.727 4.027-.096 2.552-2.41 1.846-.814 2.56.787.713-.006 1.245 1.211.048-.188.902-.533.114-.061.606-.357.047-1.271-2.108-.445-.08-1.475 1.077-1.461-.559-1.018-.114-.545.27-1.111-.054-1.109.821-.965.048-2.281-.997-.896.471-.963-.032-.707-.728-1.899-.721-2.026.229-.492.417-.262 1.111-.547.774-.127 1.71-1.442-1.104-.679.007-.634.559z"/><path fill="#D7D8DD" d="M336.104 303.097l-1.961.674-.721-.094-.727.417-1.509-.041-1.011-1.179-.619-1.359-1.339-1.239-1.422.02h-1.663l.108-3.05-.048-1.206.357-1.192.578-.585.917-1.179-.196-.512.371-.768-.425-1.131.075-.641.127-1.71.547-.774.262-1.111.492-.417 2.026-.229 1.899.721.707.728.963.032.896-.471 2.281.997.965-.048 1.109-.821 1.111.054.545-.27 1.018.114 1.461.559 1.475-1.077.445.08 1.271 2.108.357-.047.748.769-.209.343-.1.64-1.59 1.481-.5 1.219-.268.989-.398.425-.383 1.326-1.01.781-.291.956-.424.769-.176.781-1.299.639-1.058-.773-.721.026-1.124 1.105-.545.02-.896 1.817-.478 1.334zm-177.895-11.966l-.652-.606-.883-.774-.418-.646-.794-.6-.95-.868.209-.297.317.291.142-.143.586-.073.235-.445.276-.013-.041-.949.445-.048.396.013.404-.511.559.391.195-.242.344-.23.66-.531.033-.404.182.021.243-.465.194-.054.324.296.377.088.418-.25h.479l.652-.255.263-.263.647.04-.162.188-.096.432.189.706-.431.66-.202.774-.067.855.108.492.047.868-.291.189-.175.82.129.505-.391.492.094.512.282.316-.451.403-.551-.127-.316-.391-.6-.161-.431.249-1.247-.505-.28.25zM646.75 396.402l.432 1.029 1.34-1.01.545 1.058v1.058l-.701 1.172-1.232 1.885-.963 1.037.695 1.253-1.455.034-1.617.982-.504 1.73-1.07 2.714-1.482 1.213-.941.781-1.738-.061-1.227-.902-2.053-.189-.316-.996 1.016-1.994 2.377-2.605 1.221-.491 1.352-.991 1.617-1.354 1.131-1.333.842-1.892.715-.641.283-1.395 1.326-1.144.407 1.052zm3.004-11.462l1.367 2.472.039-1.604.855.64.283 1.784 1.523.775 1.271.188 1.078-.908.955.275-.457 2.122-.572 1.407-1.441-.047-.506.74.176 1.051-.275.458-.715 1.327-.936 1.703-1.461 1.003-.324-.66-.787-.362 1.09-2.048-.619-1.354-2.033-.977.055-.882 1.365-.842.318-1.846-.088-1.535-.77-1.575.055-.411-.902-.964-1.488-2.047-.787-1.623.699-.182 1.031 1.272 1.469.6.532 2.05zm-476.762-86.469l-.627-.546-.404-1.023.465-.505-.479-.128-.35-.627-.943-.524-.828.12-.377.661-.768.471-.41.068-.184.397.896 1.022-.512.242-.276.283-.874.095-.33-1.131-.244.321-.626-.106-.376-.768-.775-.121-.492-.223h-.807l-.061.41-.216-.282.101-.378.154-.384-.073-.343.282-.229-.391-.282-.013-.761.733-.168.674.68-.041.404.756.08.182-.154.518.471.93-.141.801-.479 1.145-.384.647-.566 1.043.108-.073.188 1.057.068.842.328.613.567.715.524-.23.283.438 1.111-.355.565-.614-.136-.243.922zm15.657 47.093l-.505 1.017-.971.499-1.892-1.132-.169-.809-3.738-1.966-3.387-2.135-1.461-1.198-.781-1.598.309-.558-1.595-2.525-1.865-3.528-1.778-3.785-.774-.868-.593-1.388-1.469-1.239-1.347-.762.612-.842-.916-1.798.586-1.312 1.51-1.192.222.788-.538.444.048.688.78-.149.768.203.788.949 1.07-.774.358-1.267 1.156-1.637 2.271-.74 2.059-1.966.588-1.22-.264-1.421.505-.181 1.253.889.6.888.875.485 1.111 1.967 1.408.235 1.043-.499.68.324 1.133-.162 1.447.883-1.219 1.912.566.041.941 1.003-1.703-.088-.249.283-1.55.357-2.154 1.285-.143.876-.477.66.188 1.017-1.145.546v.802l-.498.343.788 1.703 1.05 1.159-.397.815 1.253.106.713 1.018 1.664.047 1.55-1.117-.129 2.896.862.222 1.064-.33 1.637 3.084-.41.647-.09 1.36-.039 1.643-.741.97.343.721-.438.653.815 1.643-1.189 2.115zm425.736-20.689l-.531.189-.816-.728-.828-1.199-.404-1.434.264-.182.201.558.572.425.918 1.192.889.64-.265.539zm-7.36-2.525l-.99.155-.297.533-1.031.457-.969.445h-1.004l-1.549-.546-1.078-.525.156-.586 1.689.276 1.031-.149.283-.902.27-.047.182 1.003 1.076-.141.531-.646 1.059-.674-.209-1.11 1.133-.034.383.31-.041 1.044-.625 1.137zm-9.045 3.603l1.684 1.24 1.225 2.013 1.086-.061-.076.842 1.463.324-.566.356 2.008.802-.209.553-1.252.134-.465-.492-1.625-.215-1.904-.29-1.469-1.211-1.07-1.045-.982-1.655-2.465-.829-1.604.538-1.152.627.242 1.4-1.48.653-1.057-.317-1.955-.08-.031-6.169-.035-6.128 3.281 1.293 3.488 1.077 1.299.963 1.051.95.289 1.111 3.145 1.165.459 1.004-1.738.201.415 1.246zm11.227-5.448l-.594.498-.355-1.111-.439-.726-.854-.613-1.078-.803-1.361-.552.525-.451 1.018.525.639.411.795.451.756.787.719.601.229.983zm-414.309-43.798l.963.175.344.391-.484.498-1.422-.013-1.104.067-.108-.842.263-.29 1.548.014zm192.272-28.971v1.354l-.283.646-.889.304.088-.58.477-.309-.471-.242.391-1.482.687.309zM201.686 354.891l.748-2.418.047-1.077.902-1.765 3.294-.579 1.751.034 1.765 1.017.026.613.559 1.118-.121 2.732 1.993.391.769-.396 1.273.552.355.606.176 1.865.222.795.701.088.706-.33.68.371v1.131l-.254 1.226-.371 1.198-.31 1.853-1.712 1.616-1.494.337-2.121-.324-1.898-.572 1.857-3.186-.275-.922-1.939-.809-2.311-1.521-1.541-.31-3.477-3.334zm175.798-40.702l.756 1.058-.115 1.104-.539.236-1.004-.122-.578 1.07-1.15-.146.174-1.031.262-.141.068-1.118.545-.525.457.195 1.124-.58zm248.68 17.644l.525.653-1.32-.013-.721-1.172 1.125.464.391.068zm-2.391-1.166l-.734.04-1.158-.194-.398-.297.121-.754 1.248.296.611.397.31.512zm1.563-.518l-.283.35-1.4-1.649-.391-1.131h.639l.682 1.515.753.915zm-3.408-2.397l.082.383-1.482-.801-1.037-.681-.707-.633.281-.195.871.451 1.547.869.445.607zm-4.41-1.873l-.379.107-.828-.431-.773-.773.094-.317 1.125.795.761.619zM384.18 294.221l-.264-.034.035-.948-.229-.653-.971-.755-.229-1.379.229-1.414-.875-.129-.129.425-1.139.101.459.56.162 1.15-1.037 1.051-.943 1.373-.969.196-1.59-1.111-.713.391-.197.559-.969.356-.066.391h-1.881l-.264-.391-1.359-.067-.68.33-.52-.168-.969-1.111-.324-.519-1.367.264-.518.881-.484 1.698-.646.356-.578.209-.155-.096-.654-.546-.121-.585.305-.795v-.774l-1.092-1.191-.215-.822.02-.464-.694-.56-.02-1.118-.391-.741-.668.115.189-.708.49-.808-.215-.794.619-.594-.391-.451.498-1.198.863-1.435 1.631.134-.096-7.818.027-.835 2.168-.007v-4.013h22.404l.607 1.979-.41.363.275 2.061.693 2.37.715.492 1.035.728-.955 1.125-1.395.323-.592.606-.182 1.299-.816 2.862.203.775-.305 1.662-.766 1.893-1.139.956-.809 1.462-.195.78-.889.539-.552 1.996v.221zM366.738 70.367l-4.217 3.609-3.334-2.034 1.309-2.303-1.141-2.923 3.914-1.872.746 3.488 2.723 2.035zM354.514 52.4l6.217 7.603-4.754 3.812-1.051 6.795-1.656 1.677-.896 7.078-2.277.324-4.059-5.146 1.709-3.11-2.828-2.599-3.676-7.96-1.469-7.94 5.145-3.831 1.037 3.745 2.688-.149.713-3.656 2.775-.378 2.382 3.735zm13.584-7.717l3.703 3.905L369 54.326l-5.475 1.219-5.57-1.725-.336-2.908-2.707-.189-2.068-5.038 5.832-3.178 2.742 2.748 1.912-3.428 4.768 2.856zM298.451 299.3l-.512-.143-1.354-.762-.983-1.01-.329-.693-.236-1.4 1.01-.836.216-.531.323-.411.525-.04.438-.357h1.509l.524.68.412.803-.061.553.303.497-.02.694.518-.108-.883.883-.848 1.03-.102.546-.45.605zm-9.959-12.984l-.781-1.509-.943-.687.834-.371.917-1.366.444-1.004.646-.626.942.169.917-.425 1.057-.021.902.572 1.253.52 1.144 1.434 1.248 1.334.086 1.205.371 1.104.707.546.161.74-.087.601-.275.107-1.025-.148-.141.209-.417.046-1.361-.471-.909-.02-3.488-.082-.504.216-.627-.061-1.004.317-.311-1.476 1.719.04.457-.27.337-.02.701-.444.808.41.822.034.814-.438-.378-.552-.626.323-.586-.007-.74-.479-.6.034-.432.451-2.052.065zm128.113 3.549l-.047-.531-.715.006-.894.66-1.004.188-.869.283-.6.041-1.076.066-.674.35-.938.129-1.662.592-2.055.222-1.785.492-.936-.006-.848-.802-.371-.788-.611-.356-.701 1.022-.41.68.699 1.051.693.917.721.681 6.176 2.249 1.59-.015-5.342 5.672-2.457.08-1.684 1.327-1.205.032-.52.594-1.648 2.135.02 6.835 1.117 1.542.426-.444.438-.982 2.066-2.277 1.758-1.427 2.828-1.858 1.887-1.523 2.221-2.564 1.609-2.108 1.623-2.761 1.166-2.418.908-2.121.533-2.055.404-.687-.008-1.01.177-1.113zm-204.46 10.969l2.264.378.201-.345 1.529-.134 2.027.512-.984 1.616.148 1.286.748 1.118-.33.808-.169.854-.483.79-1.079-.399-.896.196-.76-.168-.189.546.316.369-.168.384-1.03-.155-1.152-1.629-.249-1.058-.6-.007-.842-1.36.35-.976-.1-.438 1.145-.492.303-1.696z"/><path fill="#D7D8DD" d="M384.18 294.221l.02 1.481-.283.58-.996.047-.646 1.084 1.158.135.955.923.338.754.861.438 1.113 2.055-1.281 1.239-1.158 1.124-1.166.862h-1.324l-1.523.438-1.199-.425-.773.52-1.664-1.253-.451-.802-1.051.397-.873-.128-.506.316-.85-.223-1.139-1.555-.301-.6-1.414-.747-.48-1.131-.787-.816-1.266-.982-.021-.62-1.029-.761-1.285-.74.578-.209.646-.356.484-1.698.518-.881 1.367-.264.324.519.969 1.111.52.168.68-.33 1.359.067.264.391h1.881l.066-.391.969-.356.197-.559.713-.391 1.59 1.111.969-.196.943-1.373 1.037-1.051-.162-1.15-.459-.56 1.139-.101.129-.425.875.129-.229 1.414.229 1.379.971.755.229.653-.035.948.26.036zm-229.903-7.501l-.21.451-1.091-.026-.68-.182-.781-.385-1.051-.12-.531-.419.061-.282.646-.484.351-.216-.102-.229.444-.114.56.16.403.384.572.311.067.263.829-.229.391.135.256.21-.134.772zm226.332 77.431l-.383.937-1.104.222-1.133-1.139-.014-.727.512-.789.184-.604.545-.149.949.385.283.937.161.927zm-33.185-76.421l.188-.902-1.211-.048.006-1.245-.787-.713.814-2.56 2.41-1.846.096-2.552.727-4.027.41-.862-.781-.687-.033-.64-.707-.526-.465-3.145 1.906-1.118 7.535 3.887 7.529 3.838.096 7.818-1.631-.134-.863 1.435-.498 1.198.391.451-.619.594.215.794-.49.808-.189.708.668-.115.391.741.02 1.118.693.559-.02.464-1.193.33-.961.768-1.361 2.081-1.777.882-1.826-.121-.531.175.188.667-.988.666-.803.741-2.377.721-.471-.424-.311-.041-.35.485-1.562.147.295-.518-.592-1.3-.27-.788-.822-.323-1.109-1.111.41-.896.861.189.533-.135 1.049.021-1.023-1.73.068-1.272-.127-1.273-.751-1.234zm-23.854 12.788l-1.515.397-.425-.659-.505-1.2-.147-.942.417-1.703-.471-.693-.183-1.496v-1.381l-.788-.982.142-.6 1.656.041-.242 1.01.572.559.66.667.067.936.384.391-.088 4.351.466 1.304zm14.385-48.189l-.808-3.947-1.159-.896-.02-.545-1.543-1.333-.168-1.705 1.165-1.266.444-1.898-.303-2.209.383-1.206 2.062-.949 1.321.282-.055 1.193 1.602-.869.137.451-.951 1.151-.006 1.078.652.571-.248 1.994-1.246 1.151.355 1.232.977.041.479 1.07.721.35-.107 1.718-.922.64-.58.707-1.299.849.201.909-.16.93-.924.506zm-134.369 39.427l1.084-.248.396.066-.073 1.421-1.575.209-.344-.168.553-.525-.041-.755zm180.478 22.083l.322.208 6.844 3.818.135 1.091 2.707 1.879-.869 2.324.107 1.07 1.213.687.055.492-.52 1.145.107.571-.121.91.66 1.186.781 1.878.686.419-1.5 1.104-2.061.74-1.133-.026-.674.572-1.312.047-.498.242-2.27-.538-1.42.155-.527-2.601-.639-.889-.383-.524-1.846-.351-1.078-.572-1.197-.316-.756-.323-.787-.478-1.018-2.392-1.096-1.058-.379-1.09.189-.984-.338-1.73.781-.087.68-.681.74-.983.467-.391-.021-.613-.404-.423-.107-.741.539-.236.115-1.104-.756-1.058.668-.229 2.066.026 3.848-.146z"/><path fill="#D7D8DD" d="M380.219 313.987l-2.066-.026-.668.229-1.125.579-.457-.195.016-1.415.436-.713.107-1.509.398-.869.721-.982.727-.499.607-.666-.756-.249.115-2.195.773-.52 1.199.425 1.523-.438h1.324l1.166-.862.896 1.307.223.943.826 2.154-.686 1.367-.93 1.239-.539.761.014 1.987-3.844.147zm-168.977 57.605l1.226-.229 1.894 1.684.699-.061 1.945 1.4 1.482 1.225 1.092 1.516-.836 1.058.525 1.279-.814 1.427-2.135 1.267-1.395-.457-1.023.248-1.744-.982-1.279.074-1.152-1.259.148-1.455.411-.498-.021-2.224.506-2.269.471-1.744zm-25.88-81.781l-.054.451-1.111.222.619.869-.026 1.004-.829 1.104.715 1.508.814-.121.424-1.373-.584-.673-.096-1.441 2.352-.781-.264-.902.66-.606.68 1.348 1.328.034 1.225 1.063.074.632 1.689.014 2.021-.195 1.084.855 1.441.235 1.057-.592.02-.485 2.344-.114 2.264-.026-1.603.565.638.902 1.516.141 1.428.937.305 1.521.982-.047.741.451-1.495 1.111-.168.693.645.701-.463.35-1.166.304.041.875-.513.518 1.274 1.429.255.531-.693.721-2.114.701-1.354.296-.547.444-1.5-.472-1.4-.242-.352.175.842.485-.074 1.259.264 1.186 1.596.161.107.391-1.354.539-.215.795-.781.303-1.403.435-.362.58-1.468.121-1.045-.997-.572-1.865-.505-.66-.687-.41.957-.937-.061-.425-.54-.559-.378-1.246.148-1.354.418-.633.344-1.01-.666-.33-1.078.216-1.361-.102-.76.203-1.334-1.623-1.098-.244-2.425.184-.451-.661-.464-.155-.068-.396.223-.701-.147-.761-.419-.418-.242-.875-.969-.12.518-1.118.236-1.354.546-.715.733-.545.479-.956 1.212-.323zm451.617 53.571l-.619.256-.633-.855.066-.525 1.186 1.124zm-1.393-2.99l.309 1.569-.506-.243-.391.107-.27-.538-.039-1.488.897.593z"/><g fill="#4FA9DB"><path d="M337.478 226.562l.626-1.945-.317-2.196-1.22.977-.382.949.436 1.703zM587.4 197.49l1.106 2.97-.082 3.939-.438 2.183.215 3.058-.207 2.7.35 2.29 1.238-2.109 1.434 1.643.054-1.913-1.838-2.847 1.159-4.115 2.795.949-1.899-5.172-.783-3.037.049-3.03-.653-3.031-.492-2.121-.842.451.746 1.489-1.744 1.462z"/><path d="M675.264 140.896l-5.125-.721.438 3.468-1.271-1.172.16-2.99-4.949-4.944-4.627-3.946-2.639-2.316-5.428-2.586-3.928.33-6.025-1.543-.842 2.439 1.527 3.413-2.338 1.67-3.285-4.708-3.576.6-3.561-1.057-3.348.142-2.525 1.104-2.324-1.542.23-4.054-1.57-2.357-3.758-.95-7.623 1.091-4.943-4.479-1.609-3.603-17.051-4.081-2.492 2.741 1.359 5.657-3.09-.835-1.395 1.664L576 115.5l-3.219 1.603-3.031-2.693-1.824 6.182-2.971-2.351-2.369-4.701 1.117-2.586-.869-4.067-3.051-3.462-3.018.034-4.006-1.172-.107 5.03-7.893-.963-.459-3.084-6.061-1.11-3.018 1.056-.826 1.725-.965-4.304-1.697 1.286-2.795-1.716-2.342-.963 1.42-2.074 4.963-3.987 2.088-2.182.471-3.941-1.514-2.929-4.258-3.933-5.521-.108-1.723 1.981-.512-4.062-4.277-1.293 2.572-2.107-3.238-2.835-4.459 3.576-1.805 3.589-.518 3.529-3.469-.135-4.236 4.202-1.543-1.757-4.955.727-.633 2.122-4.984 1.017-3.67 3.71-2.168.201-2.189 4.729 1.535 3.623-4.094.889-4.539-.296-3.285 1.36.188 6.922 1.678 5.132-3.488-3.488-3.92.33-3.158 2.411.861 4.289-2.02-1.07.746-5.839-.988-3.495-.943.147.438 4.458-3.381 4.067 2.451 4.734-1.508 5.577.451 2.977 2.066.432-.881 3.421 1.098 2.869-1.637 2.351-.498 2.39-2.074 1.226-.754 1.69-2.162-.687 3.697-6.87.807-3.374-2.08-3.185.432-7.455-.607-4.001-1.172-1.872 1.791-4.902-.391-3.488-4.996-1.691-1.4 1.267-1.24 5.67-3.48 5.381.053 1.845 1.012 4.371-.619 2.58 2.275.525.055 1.131 1.918 2.768-1.266 2.674-6.842-5.925-2.613-1.677-5.576-1.644-.982 1.792 1.979 3.084-2.146 3.428-2.156-3.111-2.801 2.148-3.535.142-1.355 1.737-2.342-.526 1.857-3.124-1.42-.256-6.594 4.405-3.945 2.37-.465 3.104-2.916 1.038-1.488-1.644-.014-2.72 2.391-.613-1.078-2.815-5.279-1.644 1.389 3.159-.924 2.97 1.576 2.882-1.098 3.239-1.766-1.636-1.744-.27-4.396 4.539 1.273 3.286-1.59 1.071-4.566-2.761-1.199 1.69 1.139 1.886-.242 2.094-1.475-1.118-2.432-1.326-.121-4.545-.121-2.122-3.078-3.434 1.387-.606 8.434 3.575 3.084-1.246 2.094-2.484-.127-3.233-1.449-2.364-7.131-5.825-5.172-1.266-3.105-3.272-1.945 1.892-.002.002-2.066-3.436 2.432-1.502-5.906-4.202-3.387 1.172-3.441-.255-2.877 4.708-3.104-.297-4.141 2.418-5.193 6.661-3.164 3.818-4.539 9.267-3.456 6.263-3.731 4.438-4.982 3.488-1.737 2.613.6 8.93.673 3.946 2.613 1.826 2.518-.835 3.732-4.222 1.258 2.242-.006.014 1.436 5.051 1.582 3.912.598 3.172 2.189-.155 1.072-2.66 2.287.33 1.072-3.206.721-5.954 1.965-.848 1.732-4.195-1.805-2.115-1.348-2.741 1.381-5.664 3.645-3.596 3.002-3.454-.295-2.708 1.83-3.158 3.246-1.306 2.627 2.167.203 1.913-1.268.936-4.316 4.728-1.711 2.654-.902 2.411.916 3.644-.418 3.851 1.826 1.26 1.098 2.066 3.07-.795 3.32-1.394 3.428-.302.004-.004 1.977 1.802-2.148 2.067.283.646-.002.003-.281-.643-1.953.114-2.049-.619-2.377.545-2.391 1.03.168 2.094 1.201 1.28.691-.451-.221 2.102-.363 2.687-1.516.067-1.496-2.613-1.777 1.2-.93 2.181-.068 2.566.406 2.802 1.973.579-1.98-.579-2.605 1.064-.432 1.435-1.818-.041-.141-.794-1.879-.552-2.385 1.105-2.943 1.494-1.293.937-.889-1.017-2.135-1.273-1.057.882-1.92.606.021-1.146-1.914-.753-.033-1.267-.512-1.61 1.36-2.417.56.371.465-1.28-1.024-.512-.229-.963.559-1.131.068-1.805-1.521.989-.66.962-1.663.216-.539 1.038-.317.929.055 3.449.768 1.831.087 1.852.431 1.206-1.285 1.569-.351-.701-1.575.175-.371.673-1.569-.087-2.579 1.313-1.656 4.539-.969.835-1.512.592-.004-.013-1.65.606-.566 2.432-4.396 2.269-1.785-1.246.6 3.259-3.172-.734-2.452.619.189 2.068 2.889 1.077 1.394 1.407 1.947 2.869-.357 5.308-.977 1.561.754 1.004 3.475 1.165.688-.552 2.121 1.158 2.188-.33.216-1.541 2.748-.836 3.725.7 1.71-1.461.214-1.123.015.005-.216 1.131.788-.188 1.092-1.212.868-.356 1.536.869.942.303.586 2.56 1.287 1.475 1.725 1.649 1.473 1.131 1.395.162.814 1.003 1.213.451.559 1.064.781.311.58 1.232.732 1.407-.41.518-.385 1.287-.006.728.789-.182 1.01-2.062.787-.142.223-1.266-1.367-.902.795-1.59 1.643.404 1.051 1.145.35-.883-.195-.457-1.615-1.293-1.389-.754-1.689-.91.531-.497-.457-.559-1.48.013-2.102-2.055-.951-2.135-1.77-1.312-.619-1.34.229-.755-.109-1.326 1.537-.957 1.502.391-.418.242-.068.041-.047.928.559.896.58-1.151 1.211.417.041.902.861 1.104-.383.203 1.59 1.919 1.725.767 1.096.93 1.771.943.822.505.525.829.396.194.316.397-.256.781-.162 1.703.162 1.179 1.051.828.033.539.324.169.871-1.18-.004.027-.875 1.185.129.695.955.774-.113.43.121.169.734 1.104.82-.034.842-.188.379.128.633.054-.264.419-.369-.115-.459-.31-.396.107-.168.276-.377-.067-.244.322-.389.352.328.633.283.061.275.256.244.497-.352.385.256.68.418.364.168-.182-.08-.565h.432l.375.7-.066.498.305.202.174-.889.385.013.303.842h.391l-.809-2.659.674.464.619-.127-.559-1.213.834-.142.916.774-.027-1.347-.936-.693-1.051-1.111.715-.531-.943-1.146-.424-1.469.357-.539.996 1.267h1.051l.955-.396-1.307-1.388 2.291-.646.982.235 1.152.067.451-.276.584-1.567.008.005-.586 1.569-.451.276-.027.512.594 1.152 1.576-1.334.807-.775 2.242-.134.344-.612-1.648-.808-.223-.971-.008-.002-.605-1.453.688-1.838.982-1.07.525-3.172.574.242.914-.565-.041-.693 1.463-1.986.701-1.502 1.75-.337.127 1.017 2.936.687.297.148.303-.276.27.546-2.127 1.097-.338.518 2.062.781-.412 1.246 1.045.533 2.564-1.528 2.068-.458.369-.956-1.926.161-.922-.646-1.002-.99.887-.693 1.629-1.023 1.766-.142 1.26-.889 1.508-.223v-.008l1.689-.443.049.606-2.781 1.125 1.057 1.077-1.57 2.257-1.373.43 1.631 1.562 2.154.997 2.404 2.202.229-.303.006.001-.229.308.695.788 1.043.296 1.092.949.471 1.731-.283 1.077-2.229 1.308-1.623-.223-2.203.384-2.707-.964-3.307-1.776-3.125.054-2.201.713-2.27 1.63-3.596-.329-.795 1.892-2.908.101-2.096 2.345 1.199 1.158-.916 1.872 1.381 1.319 1.117 2.344 2.062-.041 1.824 1.247 1.305-.276.439-.971 2.033.081 1.529 1.253 2.869-.262 1.299-1.348 1.582.538 1.152-.201-.715.875.693 1.058.506-.512.504-.512.102-1.308.621.459 2.08-.653 1.004.444-1.004-.438-2.08.653-.613-.458-.109 1.307-.504.512-.506.505-.457.949.174 1.758-.039.081-.938 1.603-.672 1.839h.633l.174-.392.506-.033.027.923-.256.337.041.013-.33.708v1.354l-.283.646.047.856-.943 3.481.061.31-.229.861-.088.748-.289 1.172.936-.007.963 1.454 1.152 1.698.734 1.562.553.464.525 1.077-.102.465.619 1.185 1.023.425.883.801 1.084 2.264-.08 1.205.215 1.4 1.252 1.919.842.324 1.307 1.373.533 1.623 1.01 1.657.969.7.148.787.572.594.242.835.08.849-.227.377.193.89-.375.093.543.803.371 1.427.303.572-.053 1.058.49 1.125 1.307.095.607-.257.936.041.289-.492.498-.141.412-.505.479-.108 1.582-.101 1.205-.371 1.104-.808.566.114.828-.102 1.691-1.366 3.016-.909 1.879-.822.047-.666.365-.862 1.367-.532-.002-.001.869-.107 1.268-.658 1.043.182.916-.546-.006-.795.74-.498 1.17.013.432-.417.184-.963 1.178-.741.867.008.176-.244-.229-1.333.303-1.011.391-.478.855.108.707-1.375.789-.666.303-.566.686-1.204.008-.451-.674-.257-.512-.674-.855-1.172-1.117-.369-1.389-.27-1.057-.747-.84-1.395h.006l-.256-1.643-.357-.708-1.193 1.28-1.414 1.334-1.293 1.393-1.139-.061-1.561-.054-1.475.323-.076-.565-.336.102-.355-.788.41-1.22-.033-1.219-.572-.652-.514.229-.512 1.091.129 1.508-.281-.505-.258-.68-.539-.585-.242-.701.188-.693-.113-.869-1.285-.882-.324-.748-.93-.478-.74-1.839-.605-1.623.168-.492-.391-.949 1.117.102.709-.849 1.197.721 1.018-.35 1.393 2.875 1.262 2.026 1.816.606 1.906 1.623 2.311.693 1.898-1.017 1.455-.378.9.378.809 2.566 2.129.276 2.061.478 3.549.626 2.66-.296 3.07-.034 3.475-.392 1.463 1.577.564 1.481 1.381.519 2.215 1.737.561.794-.91.734 2.465 2.445 1.334.241 2.748-1.204.363 1.885-.008 2.411.566 2.539.781 3.798 1.717 2.674.332 1.211.463 2.411 1.004 1.846.66.902.729 1.926.873 2.666 1.785 1.772.76-.546.635-1.293 1.723-.539-.572-.627.857-1.447.975-.094.014-3.252.795-1.826-.1-1.595-.391-2.525.564-1.482.881-.106 1.705-.695.943-.483v-.903l1.879-1.285 1.42-1.247 2.115-2.329 2.713-1.348 1.01-1.185-.107-1.516 2.33-.418 1.281.027.275-.74.729.182.531.222.275-.37.809.41.592-1.125-.176-.842 1.738.082.787 1.185.365.977.107 1.024.539 1.05 1.34 1.629 1.104.257-.229.721 1.482 2.282.391 1.846-.654 2.432 1.172.451 1.059.175 2.146-1.388 1.246-.982.816 1.615.342 2.465.613 2.317.77.996-.156 2.095.633 1.132-.578 1.467.182 1.414-.553 1.825-.209 1.186.357 1.051.309-1.111.916.896 1.004 1.07.322.936.748.721.33-.337 1.535.829-1.535-.822-.33.337.418.802-.209 1.374.68 1.022.264 1.557 1.09 1.26.223.956 2.236 1.488 1.785 1.387 1.34-.127.033-.634-.742-1.656-.666-.519-.141-1.111-.182-.646.201-.855-.107-1.267-.795-1.259-1.117-1.138-.432-.175-.506.634.506-.642-.977-.977-1.145-.222-1.051-1.084-.344-1.636-.768-1.731-1.225-.061-.129-1.381.613-1.684 1.018-2.794.148-2.114 1.662-.015-.275 1.516 1.615-.04 1.697.882.951 1.98.766.995 1.582.276 1.402 1.085-.531 1.286.686 1.219 2.357-1.765 1.535-1.589 2.168-1.232 1.57-1.259.256-3.381-.863-3.583-1.15-1.568-1.711-1.205-1.764-2.572-1.449-2.081.418-1.381 1.576-1.894 2.52-1.723-1.9-.526-.004-.004 1.889.523.896-.33 2.531.646-.443.781.498 1.454 1.045-.114.645-2.121 2.002-.31 2.639-1.01 1.07-1.011.654.659 1.15-.902 2.129-.235 2.627-1.717 2.598-1.899 1.754-2.478 1.527-2.756 1.379-2.295 1.059-.189.479-1.696.289-1.758-1.111-.673-.451-1.166 1.186-.6.033-1.636-1.279-1.704-1.152-2.054-.74-2.229-2.033-1.252.969-1.61 1.84-1.164.881-1.26 2.674-.652-.309-1.24-1.219-.061-1.678-.923-2.113 1.69-1.496-.687-.061-1.063-1.543-.391-.996-1.624.963-1.131 1.852-.114 1.166-1.576 2.135-1.711 1.643-.875.998 1.3-1.496 1.649.396.95-1.002 1.124 2.033-.66 1.387-1.138 2.641-.714 1.535-1.583 2.082-1.333 1.01-1.383-1.018 1.396-2.08 1.333-1.537 1.583.891.653 1.098.27.127.396-.479 1.307.168.438-.443.283-.52 1.058.506.384.492.216.066.444.553-.196.229-.444.916.451 1.293 2.021-1.4.397.834 2.425-.35 1.73.209 1.246 1.703-.195 1.51-.95 1.711-.444.705-1.266-.014-2.681-.463-1.528-1.629-2.814-1.072-1.064-.754-.391.223-.27.061-1.058.814-.66 1.26-.403.713-.728.338-.438.975-.544-.074-1.798.566-.863.822-.854.713.155-.262-.451-.014-1.3.006-.001.016 1.286.262.444.297-.849 2.531-1.878 1.186 1.252 1.191-.034 2.52-1.515 1.219-1.535 2.545-3.05 2.566-3.138.633-1.899 2.848-4.047.85-4.613.16-3.55 1.477-3.037-.061-2.64-2.729-3.495-2.074-.209-1.205 1.603-1.832-.708-.93-2.02-2.975-.411 7.238-7.934 6.115-6.955 6.207-1.092 5.771.633 2.338-1.818 2.936.566-.133 2.659 2.916-.376 4.215-.956-1.562-2.277 4.727-6.438 4.877-1.347 1.549 4.809 4.787-4.283 1.131-3.313 2.297-.344-1.516 5.636-3.393 3.078-3.252 3.859-3.375 4.565-2.938.794-.1 1.643-1.596 2.068-.91 4.681 1.051 7.171.809 4.506.699 2.074 2.721-2.814.566-3.138 2.814-.768.654-3.637 3.301-1.663-.789-1.416.809-2.793 1.75-.129.256-5.023-2.148-.788-.066-1.441 2.264-3.516.604-2.444 2.525.512 1.82-1.61.861 1.401 4.922-2.977 2.701 2.626.693-1.718 2.74-2.357 2.891-2.761 1.676-.464 5.281-3.037 3.52.889.486-1.079-.223-1.703-.867-1.125-1.125-3.501-1.705-2.317 2.445.324 2.424-1.947.014-.026 1.07-1.906-.848-2.148 2.262-1.105-.41 1.718 1.023 1.596 2.148-.585 1.918.74.424 1.946 2.514 1.292 1.439 1.523 1.771.127.754-.909.049-4.351 3.098-.471 1.871-2.001-3.751-4.397zM512.299 301.137l-.006.007-1.246.223 1.252-.23zm27.361-91.713h.004l-1.066.356-.002-.002 1.064-.354zm2.977-4.738l-.006.004-2.266-1.097.01-.001 2.262 1.094zm-33.791-6.3l1.711.358 2.221.773.357 2.236 2.68 1.239 1.785-.545 2.391-.384 1.893.391 1.852 1.407 1.145 1.481 1.752-.026 2.377.471 1.736-.714 2.486-.478 2.768-2.061 1.131.317.99.983 2.242-.241-.002.006-2.246.243-.99-.984-1.133-.317-2.766 2.061-2.486.479-1.74.712-2.377-.464-1.75.028-1.146-1.482-1.852-1.407-1.891-.391-2.385.384-1.785.546-2.686-1.239-.357-2.236-2.223-.774-1.711-.358-2.115-1.259-.088.141.096-.154 2.116 1.258zm-.867 69.414l-1.188-.395-.002-.011 1.193.395-.003.011zm-3.631-1.951l1.984-.343.004.016-1.99.336.002-.009zm-2.809-11.668l-.59.394.596-.402.883 1.341-.889-1.333zm-11.516 2.478l1.346.49-1.35-.489.004-.001zm11.967-33.503l2.066-.061h.002l-2.068.061zm-14.39 33.947l.16 1.661-.008.008-.16-1.666.008-.003zm12.593-2.021l-.002.001-1.582-.525 1.584.524zm1.598 1.328l2.031.316 1.104-.162.633 1.252.822.505.002.061-.002-.054-.822-.505-.633-1.252-1.104.161-2.035-.316.004-.006zm5.647 13.077v-.003l1.395.758.814.369 1.387-.585v.01l-1.373.582-.822-.369-1.401-.762zm.533-45.82l-.008-.002 2.506-.356.004.002-2.502.356zm-13.746-22.775l1.643.909 1.967.041 1.26 1.373 1.885.108 2.729.734 1.518-1.684-1.523 1.698-2.734-.734-1.887-.101-1.26-1.381-1.973-.041-1.637-.909-2.867 1.391.014-.01 2.865-1.394zm-19.428-.035l2.713-.767 1.043.538.91 1.718 1.32.572.801 1.239 2.432-.391 1.004 1.772.74-.235 1.992-.498-.02.013-1.984.496-.002-.004-.74.235-.002.002-1.002-1.768-2.432.391-.807-1.246-1.32-.565-.91-1.718-1.035-.538-2.715.767-2.6-1.723-.047.073.061-.094 2.6 1.731zm-2.047 21.12l-.008.004-1.697-4.543.01-.003 1.695 4.542zm-1.145 2.135l-.264.572-.004.002.26-.574-.148-1.455.008-.004.148 1.459zm-11.96 9.502l.619-.242 1.145.544v.008l-1.145-.545-.621.241-.477-2.242.479 2.236zm5.621-6.265l-.713 1.576h-.002l.711-1.575.004-.001zm-3.301 9.533l1.391 1.096v.002l-1.389-1.094-.002-.004zm1.955 2.888l3.098.935.006.007-3.104-.936v-.006zm5.689 6.625l-.486-.753.488.747-.002.006zm-1.918-19.348h-.002l.67-.99.002-.001-.67.991zm16.11-19.902l-.23.306.23-.306zm-1.801.582l-.086 2.809-1.049 1.252-.002-.001 1.045-1.245.088-2.815H482zm-4.883 3.159l-1.357 4.882-.006.003 1.359-4.886.004.001zm-10.146-17.989l4.221 7.793-.018.026-4.217-7.798-2.41-2.465.014-.021 2.41 2.465zm-30.905-1.912l7.064-1.118.924-.801 4.727-1.205 1.697-1.368 3.395.714.592 3.374 1.973-.788 2.426 1.098-.154 1.738 1.811-.183 4.734-3.023-.635.923.615-.902-4.729 3.023-1.811.182.154-1.737-2.424-1.098-1.975.781-.592-3.374-3.395-.713-1.695 1.373-4.729 1.205-.922.802-7.064 1.118-.854 1.077-.004-.007.871-1.091zm.481 3.258l.006.009-1.801.809-.006-.015 1.801-.803zm-1.459 1.658l.004.006-1.787 1.482-.012-.007 1.795-1.481zm-23.311 7.725l.236-2.149 3.898-3.266 2.949-.08 4.162 2.087 2.236 1.205 2.006-1.259 2.996-.061 2.418 1.542.547-.881 2.646.126-.008.021-2.646-.127-.553.882-2.416-1.542-2.992.054-2.006 1.26-2.229-1.207-4.168-2.087-2.951.08-3.891 3.267-.236 2.148-1.947-1.703.008-.015 1.941 1.705zm.221 7.967l-.057.404.055-.406.002.002zm-2.268-9.443l-1.398 2.989-.004-.004 1.402-2.985zm-.853 3.579l.004.004-1.084 2.155-.006-.007 1.086-2.152zm2.471 25.993l-.527-.688.531.68-.004.008zm-5.463 1.009l-.957-1.118-.297-.922-1.293.693.484 2.285-.49-2.285 1.293-.693-.742-.714.748.714.002-.001.295.916.957 1.118 1.293.323-1.293-.316zm.531-1.455l-.008.371.008-.371zm-.242-1.043l.795.66.848.397v.003l-.842-.394-.801-.666zm.525-.787l-1.004-.843.002-.004 1.002.847zm-.629-1.467l-.711-.427-.004-.004.717.429-.002.002zm1.78-.63l-1.016-.146-.777-.397.785.397 1.008.146zm-4.827 9.241l.658.6.902-.397-1.029-1.899.369-.738.002.005-.365.733 1.029 1.906-.902.396-.664-.6-2.197-.309 2.197.303zm7.071-5.401l-2.229 1.792v-.012l2.221-1.786.707-.184.006.008-.705.182zm-2.426-5.838l-.002.002-1.184-.582-.287-.527.287.521 1.186.586zm-1.762-1.625l-1.209-.37 1.207.365.002.005zm-1.765-.538l.004.002-1.143.402-.002-.002 1.141-.402zm-22.911-30.957l.545.842-.002.001-.537-.83-1.271-.559.002-.009 1.263.555zm-1.16-1.131l-.76-.579-1.186-2.122v-.001l1.18 2.11.768.585-.002.007zm-17.252-1.953l.154.821h-.008l-.146-.821zm8.766-9.763l.898.793v.008l-.902-.795.004-.006zm-8.523 26.707l-.008-.003-.482-1.29.49 1.293zm-.418-.162l-.518.74.518-.747.297.121-.297-.114zm4.361 3.816l-.004.003-.875-.68.879.677zm5.639-27.878l-.029-.324.029.311.369 1.226-.369-1.213zm-13.145 8.155l.053-.001-.053.001zm15.051 23.321l.398-.222.18.384-.18-.378-.398.216zm.963-27.785l-.002-.008.986-.397 1.846.795v.004l-1.84-.792-.99.398zm-.598-44.834l2.195 5.356-.002.004-2.193-5.357v-.003zm.922 9.238l1.697 3.265-1.697-3.261v-.004zm3.717 8.927l-2.412-2.477 2.412 2.477zm-17.282-27.679h-.006l-2.098-2.79.004-.005 2.1 2.795zm-10.515 4.251h-.029.029zm-7.936 18.371l1.859.074v.001l-1.859-.075zm10.217-21.191l3.549.818v.002l-3.549-.82zm18.613-8.349l2.195 1.982-.801 3.757v.001l-.277 3.637 2.891 3.36-.002.004-2.895-3.358.275-3.637.801-3.764-2.187-1.982zm2.586 60.424l.004.011-1.984-.846-.002-.012 1.982.847zm-41.093 25.362l.242-2.007-.234 2.007-.519.478-.005-.001.516-.477zm-2.7 2.478l1.381-1.549-.061-.707.008.002.059.698-1.381 1.556-.025 1.235-.008.003.027-1.238zm9.703-.573l-.221.525-1.145-.391-.149 1.125-.835.458-1.395-.343-.41 1.098-.902.087-.33-.43-1.058.916-.909.128-.814-.579-.08.76.559 1.01-.654.815.484 2.037-.012-.003-.485-2.047.653-.815-.559-1.01.08-.76-.646-1.193-.471.222.479-.228.645 1.191.816.58.908-.129 1.057-.916.332.432.895-.088.411-1.097 1.4.343.829-.464.146-1.125 1.146.389.223-.518 1.865-.484.012.027-1.865.477zm17.938 16.969l.004-.032.607-.36-.002.038-.609.354zm8.537-1.985l-1.334-.876-1.516.687-1.395-.073-.355.08-.311.438-1.023-.047-.721.546-1.229.222.002-.04 1.232-.216.721-.545 1.023.048.311-.438.363-.081 1.395.074 1.514-.694 1.328.876 1.711-.234-.002.038-1.714.235zm4.955-2.051l-1.279-.266-1.926.794.877.635-.885-.597.002-.045 1.924-.794 1.287.273zm11.207-28.658l-1.961.297-.572-.155-.479.7-.699-.127-.002-.006.701.121.479-.7.572.154 1.961-.296 1.205 1.737-.004.003-1.201-1.728zm.889 3.286l-.156-.937.002-.002.154.926 1.508.147.672 1.299v.007l-.672-1.3-1.508-.14zm5.986 2.6l-1.449.466-2.396-1.038.002-.006 2.395 1.037 1.449-.464 1.164 1.375 1.105-.034 2.781.95.02.848-.02-.842-2.781-.943-1.105.027-1.165-1.376zm4.719 6.209l-.197-.752.199.747-.002.005zm2.494 28.668l-1.018-.04 1.018.04zm27.549 28.075l.322.27v.001l-.322-.271zm-14.715-32.169l.002-.004 1.096 1.17-1.098-1.166zm10.979 4.356l-2.951.62-2.68-.404-1.312-1.185-1.793-.492-.598-1.757-.465.114-.008-.007.473-.121-.055-1.191.693-.565.324-.85.33-1.898 1.555-.196-.578-.666-.883-.115-.963-1.764-.99-1.327-2.061-3.003.188-1.745-1.715-2.491 1.877-2.754 1.832-.445.854-1.593.008.004 1.758-.58 2.189-1.205 1.604.673 1.893-.134.336 1.69-.344 2.633-1.65-.397-1.602.43-.074 1.94-1.838-.25.066.863 1.037.659.855 2.337 2.189.876.355.89-.463 1.056.107.62.592 1.623.188-1.838 1.523-.646.537 1.441 1.381 1.5-1.662.803-1.779-.613-.416 2.081 1.252.148-.484 1.669 1.475.822-.277 2.513.352 1.677-.182.55zm48.896 13.786l-1.852-1.388-.533-2.444.002.001.531 2.437 1.852 1.394 2.627 1.521.781-.519 1.516.667 1.906 1.407 1.062.31.633 1.031 1.469.424 1.535.937 2.135.491 2.203.209.648-.25-.656.257-2.201-.209-2.135-.492-1.537-.937-1.467-.423-.633-1.03-1.057-.311-1.906-1.407-1.516-.674-.781.525-2.626-1.527zm49.262 16.674l-.908-.767-1.611 1.09-1.836.235-1.502-.013-1.018.498-.977.296.281 2.311-1.002-.055-.002-.006.998.054-.283-2.31.979-.296 1.01-.499 1.508.014 1.838-.235 1.609-1.092.91.768 1.725.371-.002.003-1.717-.367zm11.072-48.077l.303.863-1.32.875-1.354 1.381-2.209.902-2.828.095-3.051.883-2.195 1.353-.006-.004 2.188-1.349 3.051-.883 2.836-.102 2.201-.896 1.354-1.381 1.328-.875-.311-.861-.6-1.01.99-1.711.006.001-.988 1.708.605 1.011zm9.527-6.188l-1.379 1.792-2.883 1.044-1.879 1.414-.004-.001 1.875-1.413 2.885-1.044 1.379-1.792 1.334-.781-1.328.781zm4.055-3.758l-1.516-.895h.002l1.516.896 1.709 1.947-1.711-1.948zm16.008 16.533l-.895-.788.006-.007.895.788 1.623.093.002.009-1.631-.095zm1.342-1.236l-.002-.003 1.6-.599-1.598.602zm5.838-2.4h-.008l.27-3.051-.498-2.264.01-.005.494 2.255-.268 3.065zm3.681-5.799l1.268-2.607.646-3.003.004-.007-.645 2.997-1.273 2.62zm2.655-6.641l-.004.007.986-2.524-3.117.833-1.637 1.112h-2.869l-.76-2.66-2.236-2.042-3.287-.928-.705-2.903-.66-1.838-.709-1.306-1.164-3.104-1.65-1.148.006.002 1.658 1.152 1.166 3.104.705 1.306.66 1.839.701 2.883 3.287.928 2.234 2.042.762 2.66h2.867l1.639-1.111 3.117-.835-.99 2.531zm85.91-89.868l2.465-.351 1.945-1.387.162-.801-2.734-1.69-1.602-.015-.244.25-2.404 2.451.337 1.838zM518.455 66.225l.559-3.851-4.787-5.618-1.422-.659-1.549 1.145-3.447 12.525z"/><path d="M585.932 102.065l-1.791 2.64.33.35 3.873.728 2.861-.048-.228-1.731-2.68-2.565zm-.377-7.556l6.957.202L594 89.229l-6.822-4.087-4.983-.344-2.492 1.468-1.015 5.219 3.736 4.721zm-89.309-39.24l3.129 3.858 5.262 2.829 4.121-1.212.465-9.173-4.352-10.801-3.67-6.074-4.088 2.767-4.902 7.967 2.58 2.202zm106.233 40.378l2.183-2.862-4.742-1.939-3.524-1.131-.451 2.417 3.51 2.876zM407.857 46.488l2.047 2.612 2.209-1.811.262-1.832 1.697-.855 2.533-1.502.729-1.765-2.803-2.592-1.777 1.953-1.084 2.774-.385-3.131-2.869.142-3.684 2.113 4.202.352zm11.28 65.49l-1.932 1.32.275 3.253 3.422 1.582.498 2.573 6.168.74 1.118-.498-3.61-4.788-.383-5.064 2.955-6.155 2.815-6.613 5.867-6.849 5.766-3.596 6.685-3.866 1.266-2.498-1.313-3.252-3.675 1.077-3.233 3.024-6.283 1.494-6.238 4.99-4.221 3.94.512 3.28-4.52 6.08 1.738.822-3.746 5.569zM0 158.405l1.375-.848.154-.46L0 156.646zm5.725 10.35l-1.866.654 1.145 1.023 1.238.701 1.158-.587-.179-1.448zm24.998 8.89l-1.01.538-1.719 1.254.291 1.629.963.888 1.885-1.313 1.637-1.663-.801-1.098zm103.869-53.444l-1.319 2.384-1.664 1.677 2.579 2.384 1.537-.573 2.545 1.589 1.171-1.839-1.152-2.039-.565-1.031-1.131-.983zm-5.211.66l-3.408-2.647-3.172-2.835-.586-4.162-1.186-6.007-2.114-2.585-1.878-1.045-1.665.958 1.341 6.458-.949 2.51-1.543-6.046-1.723-2.095-2.135 3.239-2.627-3.205-4.203 1.932.944-3.003-1.934-1.26-5.057 3.933-1.312 2.499-1.582 4.559 3.299 1.563 2.916-.081-4.378 2.33.997 2.108 2.68.114 4.035-.451 3.649 1.319-2.465.971-2.659-.25-2.916.95-1.26.585 2.324 4.278 1.676-.594 2.578 1.449 1.026 2.458 3.359-.492 4.782-.781 3.542-1.785 2.196-.324 3.246 1.428 3.414.823.633-1.927-1.206-2.053 3.098-.432zm12.673-11.623l2.028-4.667 2.249-1.246 2.821-5.886-3.609-1.664-3.934-.241-1.872 1.864-.99 2.85-.026 3.246 1.177 5.515z"/><path d="M87.628 119.905l4.97-2.815v-2.607l2.343-4.316 4.633-4.505 2.371-1.664-2.027-2.828-1.832-1.988-4.822-.382-2.694-1.455-6.384 1.097 1.845 4.196-1.636 4.33-1.306 4.627-.809 2.599 4.358 3.158zm49.038-15.866l-.49-1.941-3.367.85-2.25-1.422-2.236 3.233 2.081 4.229-3.852-.788-.041 2.027 4.694 4.748 1.307 2.275 1.818.493 3.098-2.297.336-5.528-2.855-2.741zm-13.933.33l-1.433-1.462-2.533.27-.64.928 2.942 4.546zm46.912 59.525l.74-2.102-.477-.829-.775-.087-.729 1.211-.087.277.499 1.193zm24.425-20.52l2.969 4.444 2.324 1.919 3.314-5.299.585-3.32-2.969-.317-2.715-4.511-2.996-1.105-4.445-3.348 3.467-2.443-1.784-5.079-1.642-2.256-4.559-2.255-1.967-3.739-3.509 1.341-.242-2.599-2.6-2.91-4.188-3.171-1.785 2.498-3.738 1.791.283-4.081-3.238-6.767-4.789 2.733-1.744 5.186-1.489-3.986 1.389-4.291-4.876 1.785-1.94 2.687-1.448 5.67.599 6.095 2.681.027-1.973 2.639 1.569 1.995 3.064.841 3.993 1.63 6.87 1.226 3.42-.701 1.011-1.63 1.487 1.878 1.664.311 2 3.341-1.212 1.332 3.825 1.772 2.889 2.478.727 1.717.519 2.182-2.445 4.667-.66 2.316.634 1.63-3.886.579-3.549.081-1.246 3.279 1.595 1.502 5.463-.693-.028-1.273 2.747 2.121 2.816 2.209-.66 1.192 2.289 2.035 4.055 2.376 5.117 1.61-.309-1.409-1.966-2.471-2.667-3.616 4.733 3.367 2.385 1.118.652-2.989-1.225-4.243-.781-1.166-2.565-2.04-1.987-2.633.236-2.653z"/><path d="M178.028 138.295l.216-.68-.019-2.135-1.475-1.4-1.73.708-.802 2.808.471 2.397 2.115-.243zM161.455 160.6l.41 1.097 1.334.095 2.21-2.25.04-.8-2.593-.041zM131.59 94.146l3.109-.749.863-5.555-.06-4.007-1.441-3.744-.149 1.077-2.652-.471-2.844 2.755-2.033-.249.121 6.007 3.1-.587-.042 4.358zm37.207 61.147l-1.348-1.42-1.387.336-.168-2.061-2.162-1.373-2.068-1.528-1.098-1.179-.962.693-.35-1.994-1.367-.37-.648 4.128-.241 3.442-1.644 2.114 2.558-.404.649 2.458 2.685-2.176 1.873-2.275 1.058 1.926 2.936 1.016zM86.84 207.572l-.781-1.576-1.887-1.191-.936-1.382-.638-1.01-1.78-.309-1.158-.451-1.979-.647-.162.686.727 1.604 1.947.525.336.828 1.691 1.011.565 1.016 3.098 1.293zm53.881-151.751l3.455-.082-1.494 2.694-.029 3.57 2.027 3.879 3.914 1.191 3.34-.666 3.488-7.225 2.593-2.998-2.277-3.346-1.488-7.172-3.098-2.148-3.178-2.478-2.412-6.438-4.39.632.828 2.795-1.934.842-1.304 3.583-1.308 5.023 1.2 4.889zm26.62 49.12l2.074 3.434.546.384 2.068-.855 2.033.134 2.008.19-.169-1.779-3.26-3.623-4.324-.728-.909.451zm-13.737-7.192l3.878-.122 5.414-1.085 2.418.863 2.815-1.521 1.18-1.913-.426-3.045-2.02-2.847-3.07-.539-3.846.653-3.003 1.643-2.755-.633-2.545-.336-1.199-1.82-2.169-1.757.431-2.983-1.629-2.681-3.717.02-2.095-2.687-3.893-.538-.713 3.434 2.188 2.519 3.907.976 1.892 3.428.23 3.772.652 4.034 5.018 2.303zm-10.741-24.425l.222-1.004-1.327-1.651-3.805-.127.504 2.478 3.536.559zm-8.088-5.032l1.535 2.101 2.795-1.865.51-3.346-2.254-3.313-1.099-.647-2.444-.391.148 3.974zm-21.793-4.848l-2.457-1.953-1.01-.444-1.941 2.882-.033 1.346 3.138.007zM97.79 91.768l2.64 1.314 8.533-.876-3.92 3.212.242 2.311 2.868-.162 4.761-3.084 6.398-1.125 1.153-3.516-.33-3.751-1.981-.337-1.683 1.3-.742-2.781-.639-3.839-1.953-.956-1.731 2.97 2.7 7.442-3.298-.572-3.355-4.574-5.313-2.693-1.779 2.236zm14.209-20.007l.626-2.687-2.659-1.427-2.755.935-1.529 2.869 2.801 2.836zm11.28-9.044l-1.826 2.822 4.203.349 3.106 2.99 3.082 1.01-.734-3.825-1.44-4.531-5.105-3.604-3.704-1.373.135 3.831zM93.654 85.445l3.508-3.401 1.766-.397 1.455-2.849.255-6.579-2.593 1.286-2.895-.121-3.88 5.515-3.206 6.048 2.559 1.69zm48.609 10.89l1.03-2.789-.688-2.329-1.648-2.641-2.715 2.034-1.002 3.314 2.288 1.878z"/><path d="M149.738 34.574l1.575 4.91 3.341 3.959 6.607-.734 4.249 1.327-2.949 4.075-1.49-1.2-5.158-.477.802 5.595 2.666 4.068-.537 3.502-3.348 2.33-1.528 3.683 3.063 1.785 2.573 5.758-5.051-3.839-1.151.634.928 6.316-3.488 1.906.236 3.939 3.569.425 2.808.969 5.55-1.239 4.936 2.202 5.044-4.842-.04-2.033-3.226.324-.262-1.914 2.639-2.578.896-3.468 2.916-2.58 1.791-3.205-1.562-4.782 1.305-1.784-2.598-1.273 5.718-1.099 1.204-2.12 3.892-1.751 3.233-9.071 3.078-3.327 4.458-7.489-4.109.067 1.712-2.895 4.566-2.687 4.605-5.994.08-3.859-3.453-4.066-4.054-1.974-5.044-1.225-4.087-1.004-4.088-1.01-5.455 2.68-1.004-1.704-5.772.66-3.386 1.731-2.493 2.458-1.433 7.907-2.061-4.048-2.345-.768-2.774 5.368-3.703 2.256-2.201.444-2.809 2.586.41 4.479zm56.042 177.2l-1.892 3.071-3.117.391-2.453-1.354-.619-2.066-.6-3.004 1.785-1.906-1.67-1.407-2.822.29-3.959 2.378-3.031 3.669-1.602.451 2.176-2.56 2.719-3.75 2.404-1.28 1.583-2.095 1.952-.202 2.836.02 4.04.62 3.192-.478 2.378-2.438 3.11-1.071 1.354-1.064 1.375-1.151-.136-3.496-.761-1.192-1.467-.423-.749-2.728-1.212-1.044-3.01-.848-1.697-1.899-2.512-1.906.762-2.154-2.09-4.216-2.456-4.64-1.468-3.353-1.254 1.757-1.805 4.074-2.734 2-1.367-2.128-1.724-.572-.626-4.708.054-3.233-3.367-.296-.571-1.529-2.324-2.316-1.758-1.375-1.562 1.064-1.939-.391-3.24-1.111-1.312.943.633 6.182.821 3.449-2.229 3.872 2.297 2.707 1.279 2.99.154 2.303-1.043 2.357-2.143 2.331-3.023 1.535 1.332 1.705.984 4.982-1.023 3.153-1.455.982-2.808-2.882-1.368-3.481-.585-3.206.31-2.822-2.054-.316-3.118-.189-2-1.401-2.363-.922-1.354-1.603-1.885-1.306-3.509-1.502-2.641.687-.881-2.659-.85-3.361-2.775-.606.103-4.317.733-3.016 2.047-4.446 2.311-3.299 2.195-.52.128-2.727 1.487-1.805 2.702-.283 2.188-2.957.551-1.953 1.819-3.859.565-2.357 1.953 1.422 2.625-.728 3.698-3.341.243-2.383-1.334-2.681 1.406-2.734-.113-2.605-2.531-2.661-2.789-.801-2.681-.417-.1 5.865-1.374 4.418-1.974 3.569-1.825-3.334.565-3.778-2.256-3.38-2.525 4.101.007-5.381-3.508-1.099 1.677-2.7-2.566-6.458-1.913-2.633-2.49-.969-2.236 4.33-.148 6.29 2.201 2.216 2.021 3.307-.855 5.191-1.522-.134-1.198 3.959.014-4.714-2.922-1.737-1.676.896.216 3.145-2.755-.121-2.93.788-3.333-2.256-2.108.404-1.898-2.768-1.521-1.239-1.509.518-2.296.235-1.221 1.757 1.927 2.149-2.054 2.504-2.014-2.976-1.609.876-5.098.585-3.415-1.07 2.654-2.519-2.546-2.625-1.853.337-2.599-.889-4.418-1.947-2.889-2.269-2.29-.317-.714 1.589-2.316.883-.256-4.142-2.512 3.704-3.192-4.93-1.307-.599-.425 2.633-1.407 1.278-1.3-2.282-3.092 1.379-2.828 2.392-2.808-.661-2.29 1.684-1.656 2.21-1.966-.485-2.97-2.56-3.523-1.306-.012 18.621-.008 23.859 1.859.115 1.838 1.051 1.32 1.643 1.676 2.424 1.84-2.053 1.892-1.206 1.003 1.919 1.273 1.502 1.73 1.63 1.179 2.553 1.933 3.959 3.211 2.156.055 2.101-.02.032-.055-2.085-3.211-2.156-1.934-3.959-1.178-2.553-1.73-1.63-1.273-1.502-1.004-1.919-1.893 1.206-1.838 2.053-1.677-2.424-1.32-1.643-1.839-1.051-1.857-.115.006-23.859.014-18.621-2.055-.762-2.861-1.656-2.512.902-1.455-.721-3.629-.525-3.98-1.778-1.926.565-2.889-.963.113-1.312-3.191-.345-.842 1.112-1.367-2.606-2.855-1.232-2.902 3.104-1.738-.384-3.576 2.532-1.838.641-1.926 2.633-.451 2.64-2.384 2.411-3.347.168-1.057 2.713 2.592 1.603 1.812 2.135 1.34 2.451 2.323 1.832 1.537 2.923-3.988.181.256-2.342H9.51l-4.209 2.296-2.654 1.932 2.392 2.633.794 1.785 2.768 1.05 2.674-.491 1.488.963.572-.963 2.007-.964 1.159-.046-1.401 1.697 1.058.781.35 1.966-1.44 1.319-1.374-.363-1.522 2.027-1.292-.667-1.529.304-.674 2.121-1.542 2.27-.728 2.296 1.455 1.669.006 2.188 1.293.917 1.598 1.77 2.457-.721 1.219 1.334-.344 1.36.162 2.175h1.158l1.886-1.461.708 1.819.511-1.308 1.232 1.839 1.024-1.312.605.626 2.176-1.105-.963 2.135-.323 2.694-1.396 1.232-.424.694-2.619 2.053-.93 1.388-2.344.377-2.013 1.824-1.846 1.017-2.067 1.528.297.546 3.239-.929 1.569-1.098 1.918-1.125 1.765-.93 1.293.256 2.21-1.435.599-1.589 2.95-1.77.464-1.543 1.893-1.071 2.026-1.489 1.785-2.592-1.381-1.785 2.721-2.659 1.287-2.539 2.404-2.169.518.984-2.006 1.191-.85 3.724.27 2.182 2.095-.781 1.663-1.252 2.182-.781 1.044-.242-.391-2.646 2.095-.815 2.242 1.636 3.711 1.744 2.613-.324 3.3 1.34 1.804.708 3.907 3.799 2.215 1.036 3.005.088 1.811.229 1.017 3.327 2.431 2.782.532 2.936 1.663 1.057 1.037 1.232.775-1.124-.729 1.097.041 1.67 2.283 2.323.33 2.533 2.417 1.319-.269 1.879 1.051 2.666 3.42 1.226 1.348 1.273 3.656 2.849.256.007h52.205v.06H88.094l.64 2.336.304 2.297-.465.734-1.004-2.633-2.727-.956-.229.552.552 1.306.599 2.378.344 3.65-.229 2.417-.229 2.383-.741 2.432.607 1.954.066 2.154-.41 2.055 1.004 1.339.262 1.987 1.461 2.014.835.788-.067.552 1.576 3.267 1.832 2.322.229 1.26.479.37 1.752.222.673.613 1.056.114.209.647.883.269 1.227 1.294.315 1.145.011-.001.751 1.947.874 1.758.701 1.427.7 1.354 1.104.6 1.455 1.528-.074.964-.701.795-.773-.121-.135.16 1.111 1.232 1.166.505.47.553.249-.27 1.301.937.902.647.283 1.131-.061 1.515.969.525 1.36.997 1.232 1.165.498 1.246.337.006.795-.747.047-.364-.687-.915-.761-.937-.91-.067-.101-1.09-.524-.971-.56-.909-.626-1.946-1.193-1.077-.396-.748-.572-.539-.385-1.373-.336.033-.242-.74-.289-.147-.311-.505-1.4-1.489-.652-.896-.182-1.637-.312-1.051.304-.896 1.078.606.626-.095 1.366.869-.025.842.666 1.671 1.018 1.629.08.674.889 1.043 1.09 1.118 1.018.175.472 1.476 1.118 1.023.962.492-.288 1.293.343.512 1.623.848.915 1.286 1.898 1.609 1.665 2.034.633 1.023.175.808.633.902-.006.701-.438.519.196.571-.627.196.451.977.943 1.26 2.027 1.124.787.902 1.933.626 1.057.115.479.524 1.576.943 2.141.908 1.414.276 1.764.896 1.416.378 1.332.512.949-.194 1.521-.735 1.051-.141 1.543.512.977.632 2.135 2.096.047-.565.217-.459-.264-.363.908-1.589 2.418-.008.055-.659-.31-.121-.21-.425-.699-.451-.701-.66h.855v-1.111h1.765l1.744.021-.013-.29.229-.095.344.235.673-1.191.356-.027.397-.033.479.505.472-1.543.282-.861-.343-.343.443-1.22 1.018-1.191.061-.97-.451-.425-1.145.169-1.671-.067-2 .464-1.272.533-.33.585-.154 1.678-.452 1.165-1.198.808-1.192.343-1.414.358-1.434.194-1.657.553-.781-.822-2.008-.531-.74-.978-.438-1.138-1.252-1.487-.378-1.557-.586-.99-.329-1.104.182-.99.142-2.748.33-1.488.711-1.768.042-.003-.022-.046.003-.008h-.006l-.33-.66-.095-1.011.021-1.454.438-.957 1.031-1.017 1.877-.922 1.719-1.597 1.588-.505 1.173-.155 1.373.498 1.65-.268 1.407 1.138 1.367.066.707-.41.7.315.358-.282-.406-.424.035-.876-.338-.579.781-.336 1.442-.149 1.677.242 2.135-.274 1.186.538.915 1.01.337.107 1.904-.982.735.329 1.475 1.806.532 1.179-.391 1.414.283.828.876 1.615 1.002 1.807.721.478.298.908.928.25.566-.263.472-1.273.079-.814.062-1.414-.896-2.458-.014-.923-.842-1.516-.633-1.852-.336-1.516.289-1.555.889-1.308 1.064-1.058 2.074-1.453.269-.755.956-.828.943-.147 1.238-1.334 1.954-.68 1.198-1.705-.262-2.329-.196-.815-.538-.161-.082-2.257-1.299-.767 1.246.376-.404-1.521.364-1.043.222 1.999.963.917-.586 1.615.175.095 1.063-1.893.607-.929-.027-.909-.472-.432-.391-1.306.62.604.418.129.141.62 1.375-1.873.41-1.764-.56-.114.572-.688-.054.303 1.206-.006 2.646-.748-.559-.472-2.773.472 1.576-.721 1.096-.121.822-.129 1.395-.437.909.046 1.272-.41.148-.721-.566-.565.196.923-.781-.06-.626-1.341.02-1.354.324-.58.995-1.535 1.993-.775 1.939-.902 2.014-1.28-.322-.868-1.232-1.516-.021-3.745-.84-.799.059-.022.842.802v3.717l1.232 1.515 2.103-.323 3.023-.087-3.28 2.195.074 2.215 1.435.189 2.108-1.879 1.871-1.064 4.182-1.583 2.338-1.764-1.22-.984-.2-1.957zm-102.368 35.284l.027-.002-.157.392-.024-.009.154-.381zm28.736 11.257l.006.006.407 1.44-.01-.019-.403-1.427zm37.281-33.987l-1.421.733-.969.344-1.118.693-1.368.336-.941-.127-1.166-.519.646-.978.418-.889.89-1.407-.095-1.058-.337-1.507-.701-.263-1.171 1.145-.377-.02-.095-.654 1.038-1.049.174-1.206-.155-1.205-1.401-1.044-1.602-.539-.262 1.024-.419.269-.337 1.314-.174-.896-.754.64-.473.889-.49 1.293-.096 1.104.627 1.602-.055 1.691-.768 1.239-.383.35-.512.276-.641.014-.176-.169-.511-1.334-.013-.658.054-.635-.237-1.259.358-1.467.423-1.826.984-2.04-.283.006-1.387 1.71-.256-.309.74-.956 1.125-1.731 1.286-.242 1.475-.539 1.487.283.062.013 1.662-.242-.943-1.083-.505-.088-.579-.108-.397-.767-1.852.242-1.677.606-1.327-1.044-1.07-.35.606-1.461-1.67.922-1.516.896-1.455.701-1.157-.943-1.894.572.008-.404 1.279-1.166 1.34-1.111 1.926-.922-2.322-.734-1.529.37-1.832-.875-1.926-.451-1.32-.175-.585-.485-.337-1.582-.58.012v-.059l.641-.013.337 1.582.585.485 1.32.175 1.926.451 1.832.875 1.529-.37 2.322.734.768-1.118 1.071-.444.419-.693.423-.371 1.757.579 1.301.068.451.383.633 1.604 2.122.425-.331.794.748.814-.324 1.051.797.343-.399.922.505.088.357-.404.37.606 1.415.337 1.434.026 1.529.276 1.691.525.611.85 1.226 2.046-.606.876-1.535-.364-.955-1.643.241 1.677-.902 1.461.102 1.239-.155.721-1.219.855-.889 1.407-.418.889 1.037.162 1.401-.809.829-.713.559-.114 1.035.255.506-.397.922-.323 1.582-.304.002.008.033.248-1.627 1.53zm5.354-2.54l-1.55-.215-1.48-.095-.843.279-.08.023-.579.136-.755-.243.565-.888.573-.31 1.332-.378 1.598-.356.835.492.524-.572.6-.364.404.196.008.015-.049.045.196.363.114 1.017-1.413.855zm6.761-4.585l-2.843.02.035-.02 2.868-.021h3.427l-.006.021h-3.481zm3.729-.674l.002-.006.566-.127-.021.011-.547.122zm4.069-5.944l.035-.05.624.726-.059.021-.6-.697z"/><path d="M219.809 207.06l-1.321.485.586-2.095-1.886-.889-.868.708-1.676-.795.66-1.016-1.267-.626-1.232.989 1.252-2.573 1.009-1.885.366-.822-.877-.134-1.636 1.043-1.172 1.705-1.952 4.659-1.583 1.724.821.768-1.178.99.29.828 3.663.087 2.028-.168 1.81.68-1.334 1.3 1.126.095 2.189-2.411.524.356-.41 2.27 1.239.519.855-.102.796-2.431-.58-1.75zm-19.967 5.973l-.661-1.332-.713.848.471.915 2.397 1.153.701-.177.93-1.118-1.751.075zm3.455-7.691l-1.934-1.211-2.486-.734-.652.249 1.758 1.374 2.445.902.916-.053zm-132.014-14.7l-1.811.256-.89-.419-.113 1.025.349 1.393.956.984.701 1.433 1.138 1.416.754.006-1.642-2.492zm457.549 84.597l.828-.876-.424-.761-1.084-.047-2.06.559-.93.902.055 1.703 1.549.614 1.629-.95zm-185.953-86.806l1.131-2.674-.6-1.683-2.767 1.117.261 1.382zm-19.375 35.698l-2.129-1.159-.687.553-3.475-1.164-.754-1.003-3.05-.082-1.569.136-2.008-.445-2.537.02-2.311-.471-2.668 1.864.77 1.119-.096 1.804.08.849.378.902.048 1.058-.398 1.488-.133.989-.749.883-.155 1.589.453.909.847.222.176 1.47-.29 1.843.976-.255.998.331.753-.614 1.764.364.539 1.346.694.788.929.197.721-.883 1.178-.822 1.805.041 2.39-.034 1.341-1.812 1.427-.471.404-1.55 1.092-1.077-.735-1.381.728-1.992 1.164-1.367.169-.835 2.417-.526 1.792-1.677-.101-1.475zm-13.988-37.395l1.016-1.577.62.924-.687 1.48.451.89 2.291.572.027.047 1.266 1.988-.277 1.845-2.808-.284-.356 2.061 1.037 1.671-1.974.949.532 1.211 2.95.506h.013l-1.69.653-2.768 3.125 1.003.586 1.326-1.125 1.746.337 1.245-1.387.882.586 3.213-.816 2.526.028 1.697-1.569-.754-1.569.963-.896.228-1.973-2.29-.593-.54-1.239-1.163-3.644-1.293-.518-1.683-3.899-.15-.351-1.953-.215 1.697-3.05.493-2.843-2.069-.02-1.926.486 2.022-3.859-2.263.276-1.509-.283-1.467 2.903-.689 3.609.957 1.744zm59.187 54.299l-1.406-.162-1.469.128-1.031-.781-.35.989 2.303.452-.02.377 2.721-.195.237-.679-1.032.274zm179.699 73.673l-1.689-1.671.269-1.42 1.649-.27 3.144-.094 1.821.364 1.42-.364 1.515-1.86-.33-.41-1.865 1.36-2.17.081-2.383-.262-1.476-.553-1.602 1.394-.396.775-.952 2.828-.267 1.489-.781 1.233.586 1.286.794.012.288 1.812-.538 1.73.809.553 1.197-.276-.072-2.694-.164-2.188 1.26-.572-.141 1.831 1.361 1.104-.242.728.471.518 1.852-.727-.916 1.543.74.66 1.011-.553.012-1.239-1.695-2.169.342-.646-1.784-2.404 1.663-.727.822-1.098.822.27.154-.863-3.521.64zm9.907 4.122l1.306.342.707-.627-.47-.611-1.914.086zm15.312 4.092l-.336.682.184 1.421.969-1.287.013-.903-.431-.551z"/><path d="M586.283 316.937l-2.027-.358-1.401-.673-1.617-.653h-1.676l-2.167 1.131-1.577 1.992-1.953-1.124-.525-3.037-.303-.686-3.031-.769-.969.614-2.547.451.803.929 1.684.344.746 1.118 2.761.006.162.499-1.347-.034-2.033.673 1.441.924.006.814.432.688.726-.168.559-.917 2.836 1.737 1.556.155 3.662 1.596.911 1.583.492 2.054-1.194.525-.8 1.542 2.39-.06.465-.54 1.918.384 1.684 1.556-.034-6.168zm-37.107 11.179l-1.184-.567-1.502.398.006.693 2.512.236 2.836-.539.275-1.05-1.683.686zm6.836.692l-1.866.756-.814 1.157-.168.647.229.229 1.617-.417 1.224-1.415-.033-.579zm8.324-11.494l-2.33.08-.451 1.03 1.306.069 1.065-.122 1.576.155 1.594.774-.686-1.434zm-1.879-3.799l-.781-.99.289-1.138.976.182.102-1.636-.182-.775-1.117-.161-.137-1.024-.625.68-.378 1.502.56 2.398.762 1.185zm-16.014 16.176l-1.757.378 2.503 1.333.795-.034.11-.518-.66-.58zm-26.48-9.549l.473-2.337-.918-1.185-1.385-.168-.66-1.052-.325-1.306-.679-.047-1.084-.652.754-1.53-1.434-.855-1.092-1.569-1.59-1.286-1.918-.027-1.793-2.02-1.042-.781-1.461-1.274-1.672-1.839-2.922-.363-1.219-.073.17.956 1.965 2.074 1.42 1.05.99 1.61 1.703 1.178.695 1.462.553 1.609 1.656 1.563 1.434 2.626.936 1.408 1.427 1.528.809 1.138 2.424 1.535 1.59 1.576 2.087-.04zm24.553 7.502l-1.164.154-.68-.505-.506.682-1.037.013-.647 1.091 1.018.012 1.307-.255 2.181-.384zm-2.645-15.779l.633-1.279 2.234-.222-2.113-1.738.33-.862-1.389-1.777 1.071-1.698 1.388-.639-.33-.909 1.266-.095.135-.74-1.576-.566-1.247-.525-.087-.822-.969-.956-.76.006-.949 1.475-1.455 1.314-.088.928-.11 1.2-.902-.06-.396.639-.006-.007.396-.641.903.061.107-1.199.088-.927-1.609 1.029-.747.706.004.005-.927 1.188-1.354 1.488-2.262.404-.81.357-.375 1.589-1.461.35-1.383-.646.318 1.252 1.291 1.058-1.292-1.058-.317-1.252-1.125 1.246-.221 1.738.264 1.642.908 1.604.944.518.289 2.519 1.554.216 1.239-.102.689.909 2.242-.673.944.599 1.345.109.746 1.15 2.149-.849.277.667.727-2.875.041-1.865 1.818-1.286zm-8.494 14.478l-.686-1.224-3.502-.911-.418.782-3.617-.188-.267-.686-.782-.143-1.521-.733-2.291-.115L519 324.93l1.73.142.331.814 3.441.781.787-.235 1.389.188 2.187.72 1.766.344 1.959.142 1.711-.054 2.074.761 2.154-.72-2.316-1.125zm-229.49-128.051l3.347-1.805 1.426-2.775-.308-2.262 1.009-2.216-2.019-2.014-1.584.136.39 1.75-.388 1.725h-.008l.391-1.731-.391-1.751-1.428 1.528-2.566 2.526.984 3.212-1.529 3.218zm44.035 36.176l-1.926.263-2.209-.215-.264 1.226 2.633 1.205.963.256 1.443.882.397-1.206-.283-.734.679-1.871zm-11.415-6.7l-1.036-.128.429 1.414.076 2.949.712.641.769-.809.855.156.262-3.241-1.131-1.763zm256.604-7.805l-1.326-.559-1.461-.876-2.215-2.774-.56 2.081-.553 3.623-2.019.141-.936 1.98.262 2.519 2.101-.041 1.032-2.774 2.968 1.738 1.657-2.532 2.802-.708-.42-2.929zm-21.402 25.772l.971-.525.773.721 1.065-1.368-.243-.774-1.394-.485-.774.956-1.072-.262-1.043 1.346-.012 1.065 1.231.638z"/><path d="M584.971 227.035l-.795 1.568.322 2.762-1.186 2.949-1.07.929-2.767 2.364-1.26-1.125-1.973 4.155-2.021-.47-3.758.686-1.387 1.569-1.898 1.178-.99 1.421-1.786.694.768 1.535 1.193.648-.465 1.992.916.856 1.219-.923 1.258-3.778-1.912-1.657 2.211-.041 2.234-1.07 3.287-.505.073 1.696 1.267.87 2.694-2.586 3.32-.142 2.41-1.077.984-1.63-.33-1.165.713-1.872-.033-2.445 1.744-2.424.055-1.98-1.031-3.44zm-112.282 67.564l-1.3-1.057-.856 3.083.33 2.714.903 1.502 1.644-.431.787-.538.282-1.966-.909-1.973zm-45.976-33.746l-.236-.182-.551.715.357.714.248-.378zm121.502 27.181l.806.956.499-1.664-.653-.693-1.615-.067zm8.808 1.036l-.511-.721-1.813-.039 1.153 1.468.025.727-1.111-.155.296 1.158.565.1.082 1.341.895-.424-.463-1.179-.041-.639 1.455.503zm-3.793 6.619l-1.029.715-1.193.531-.74 1.597.308.552 1.403-1.057.888.073.592-.788 1.199.896-.58.896.533 1.366 2.223 1.099.539-.883-.607-1.386.882-.958.688 1.927.646-1.73-.115-1.065-.195-1.259-.121-.701-.162-.956-1.528-.902.114 1.468-1.332.053-.311.849-1.434.518zm-6.748-12.874l.284.848.929 1.112.243-.701.564.451-.592.491-.094.802.942.425 1.719-.284 1.205 1.158.484-.706.701 1.009 1.469.944.193-.889-.619-.465.182-1.051-2.358-1.07-.834.229-1.002-.216-.425-1.543.297-1.567 1.111-.648.498-1.63-.647-1.407.311-.822-.17-.505-.578.512-1.166-.566-1.145.015-.611 1.79-.197 3.064-.76-.645zm3.711 6.773l.289.911-.132.975.066.889 1.197-.572.877-.808.033-.802h-1.199zm-5.386 3.604l1.246-1.051-.338-1.556-.988 1.899-1.133 1.32-1.367 1.171-.93 1.327 2.512-1.798zm7.386-1.664l-.209 1.184-.47.534-.391.511 1.164 1.313.594-.566.592-1.205.681-.627.182-1.817-1.402 1.845.302-1.286zm6.991 36.339l-1.319.067-1.623.423-.222.445.187.377.035.579 1.582-.552 1.967-.828.691-.511-.712-.237zm-10.33-59.746l1.136-3.282.33-1.252-.861-.612-1.514 1.563-1.111 2.019.215 1.516.996 1.718z"/></g><path fill="#D7D8DD" d="M379.566 369.518l-.371.31-.801 1.098-.525 1.118-1.07 1.569-2.135 2.275-1.334 1.334-1.428 1.017-1.973.876-.963.114-.242.626-1.145-.337-.938.432-2.047-.438-1.145.275-.781-.12-1.945.896-1.611.362-1.164.862-.861.054-.801-.814-.641-.041-.814-1.017-.088.317-.25-.613.014-1.32-.613-1.502.607-.404-.049-1.703-1.238-2.055-.949-1.845v-.007l-1.354-2.795.902-1.057.746.586.318.915.848.155 1.186.404 1.016-.154 1.684-1.099v-7.757l.512.309 1.119 1.973-.176 1.273.424.74 1.355-.215.943-.936.895-.626.465-.997.922-.485.795.257.902.585 1.535.102 1.207-.485.188-.646.33-.99 1.029-.168.566-.775.627-1.366 1.697-1.521 2.672-1.496.77.021.914.343.635-.241 1.002.201.904 2.868.49 1.462-.336 2.31.16.748-.955-.384-.547.148-.174.604-.52.788.021.728 1.123 1.146 1.105-.229.385-.937 1.434.02-.471 1.536-.223 1.764-.492.963-1.277 1.091zm-4.8-.647l-.822-.66-.881.438-1.025.842-1.01 1.368 1.414 1.669.674-.215.35-.694 1.051-.337.322-.706.58-1.051-.653-.654zm7.144-39.422l.889.849.479 1.616-.324.519-.377 1.55.365 1.589-.594.667-.572 1.791.99.498-5.732 1.603.184 1.381-1.436.269-1.07.774-.229.68-.682.149L372.16 345l-1.045 1.273-.639.046-.613-.229-2.109-.216-.336-.147-.02-.162-.74-.444-1.227-.114-1.549.451-1.232-1.227-1.273-1.602.088-6.169 3.932.026-.16-.667.281-.721-.33-.896.217-.929-.201-.593.652.047.107.594.883-.048 1.197.175.635.869 1.508.269 1.158-.604.426 1.002 1.445.27.695.822.775 1.058 1.445.02-.162-2.074-.518.343-1.318-.74-.512-.343.234-1.919.338-2.258-.426-.842.539-1.211.506-.223 2.539-.323.74.196.787.478.756.323 1.197.316 1.08.572z"/><path fill="#D7D8DD" d="M378.947 354.897l-1.004-.201-.641.242-.908-.343-.768-.021-1.205-.915-1.463-.31-.551-1.279-.008-.708-.809-.216-2.135-2.188-.598-1.151-.377-.35-.729-1.583 2.109.216.613.229.639-.046 1.045-1.273 1.641-1.616.682-.149.229-.68 1.07-.774 1.436-.269.121.728 1.576-.041.875.41.404.485.902.141.977.635.006 2.484-.369 1.373-.082 1.482.303.592-.209 1.172-.289.183-.498 1.447-1.985 2.294z"/><path opacity=".2" fill="#FFF" d="M141.297 224.951c0 10.627-8.617 19.239-19.244 19.239-10.626 0-19.242-8.612-19.242-19.239 0-10.631 8.616-19.247 19.242-19.247 10.627 0 19.244 8.616 19.244 19.247zm244.697-34.589c0 6.636-5.381 12.015-12.018 12.015s-12.018-5.379-12.018-12.015c0-6.64 5.381-12.021 12.018-12.021s12.018 5.381 12.018 12.021z"/><circle fill="#FFF" cx="122.054" cy="224.948" r="5.53"/><circle fill="#FFF" cx="373.978" cy="190.36" r="3.685"/><path opacity=".2" fill="#FFF" d="M526.881 232.303c0 8.4-6.811 15.208-15.211 15.208s-15.211-6.808-15.211-15.208c0-8.403 6.811-15.214 15.211-15.214s15.211 6.811 15.211 15.214z"/><circle fill="#FFF" cx="511.67" cy="232.3" r="3.686"/></svg>