<svg xmlns="http://www.w3.org/2000/svg" width="556" height="396.961" viewBox="0 0 556 396.961"><path fill="#CECEEA" d="M241.481 128.567v-3.335l-3.085-.519a11.828 11.828 0 0 0-.489-1.833l2.411-1.99-1.668-2.888-2.933 1.094a11.94 11.94 0 0 0-1.34-1.34l1.095-2.933-2.889-1.668-1.99 2.411a12.057 12.057 0 0 0-1.833-.489l-.518-3.085h-3.336l-.519 3.085c-.629.116-1.242.279-1.833.489l-1.99-2.411-2.889 1.668 1.095 2.933a12.11 12.11 0 0 0-1.34 1.34l-2.933-1.094-1.668 2.888 2.411 1.99c-.21.591-.373 1.204-.489 1.833l-3.085.519v3.335l3.085.518c.116.629.279 1.242.489 1.833l-2.411 1.99 1.668 2.889 2.933-1.094c.411.48.859.929 1.34 1.34l-1.095 2.933 2.889 1.668 1.99-2.411c.591.21 1.204.373 1.833.489l.519 3.085h3.336l.518-3.085a11.942 11.942 0 0 0 1.833-.489l1.99 2.411 2.889-1.668-1.095-2.933c.481-.411.93-.858 1.34-1.34l2.933 1.094 1.668-2.889-2.411-1.99c.21-.591.374-1.204.489-1.833l3.085-.518zm-7.545-1.668a7.362 7.362 0 1 1-14.725 0 7.362 7.362 0 0 1 14.725 0z"/><g fill="#CECEEA"><circle opacity=".93" cx="513.582" cy="211.111" r="3.677"/><path opacity=".93" d="M506.953 150.262c0 .312.032.623.089.923h-15.05v-1.112h14.972c-.011.067-.011.122-.011.189zm49.047.923v-1.112h-38.926c.011.067.011.122.011.189 0 .312-.033.623-.09.923H556z"/><circle opacity=".93" cx="512.018" cy="150.258" r="5.069"/><circle opacity=".93" cx="534.82" cy="195.586" r="3.18"/><path opacity=".93" d="M534.82 202.017a6.45 6.45 0 0 1-6.442-6.443 6.45 6.45 0 0 1 6.442-6.442 6.45 6.45 0 0 1 6.442 6.442 6.45 6.45 0 0 1-6.442 6.443zm0-11.774c-2.938 0-5.33 2.391-5.33 5.33s2.392 5.331 5.33 5.331 5.33-2.392 5.33-5.331-2.392-5.33-5.33-5.33zm-24.92 20.874c0 .233.022.467.067.689H496.14v-1.112h13.793a2.767 2.767 0 0 0-.033.423zM556 222.93h-9.783a7.68 7.68 0 0 1-5.739-2.581l-6.051-6.829a8.425 8.425 0 0 0-6.296-2.825h-10.912c.022.134.033.278.033.423 0 .233-.022.467-.066.689h10.945c2.091 0 4.082.89 5.462 2.458l6.05 6.818a8.79 8.79 0 0 0 6.574 2.959H556v-1.112zm0-55.894h-15.562a7.504 7.504 0 0 0-4.304 1.349l-9.889 6.873a13.041 13.041 0 0 1-7.482 2.345h-21.3v1.112h21.3c2.917 0 5.724-.88 8.117-2.544l9.888-6.873a6.406 6.406 0 0 1 3.67-1.15H556v-1.112z"/><path opacity=".93" d="M528.41 194.933a5.914 5.914 0 0 0-.034.646c0 .155.011.312.021.467h-30.744v-1.112h30.757zm3.224.656c0 .155.012.312.034.456h-2.159l.023-1.112h2.169a3.302 3.302 0 0 0-.067.656zm8.477-.656c.022.211.033.423.033.646 0 .155-.011.312-.022.467h-2.157a3.22 3.22 0 0 0-.034-1.112h2.18zM556 196.045v-1.112h-14.777c.022.211.033.423.033.646 0 .155-.011.312-.022.467H556z"/></g><path fill="#CECEEA" d="M325.983 21.489h-14.271l-7.136 12.359 7.136 12.359h14.271l7.136-12.359-7.136-12.359zm-1.504 22.115h-11.265l-5.631-9.755 5.631-9.755h11.265l5.633 9.755-5.633 9.755z"/><g fill="#CECEEA"><path opacity=".48" d="M506.382 88.804v-7.927l-7.334-1.235a27.867 27.867 0 0 0-1.159-4.357l5.727-4.729-3.958-6.869-6.972 2.605a29.099 29.099 0 0 0-3.189-3.189l2.605-6.97-6.869-3.968-4.729 5.735a28.698 28.698 0 0 0-4.356-1.167l-1.235-7.326h-7.927l-1.235 7.326a28.698 28.698 0 0 0-4.356 1.167l-4.729-5.735-6.869 3.968 2.605 6.97a28.328 28.328 0 0 0-3.189 3.189l-6.972-2.605-3.967 6.869 5.735 4.729a28.68 28.68 0 0 0-1.167 4.357l-7.335 1.235v7.927l7.335 1.235a28.68 28.68 0 0 0 1.167 4.357l-5.735 4.729 3.967 6.869 6.972-2.605a29.01 29.01 0 0 0 3.189 3.189l-2.605 6.971 6.869 3.959 4.729-5.728c1.404.5 2.859.889 4.356 1.159l1.235 7.334h7.927l1.235-7.334a27.774 27.774 0 0 0 4.356-1.159l4.729 5.728 6.869-3.959-2.605-6.971a29.727 29.727 0 0 0 3.189-3.189l6.972 2.605 3.958-6.869-5.727-4.729a27.757 27.757 0 0 0 1.159-4.357l7.334-1.235zm-22.811 6.661l-7.372-7.372a5.85 5.85 0 0 0 .762-1.845h10.423c.551 0 .962.491.887 1.036a17.265 17.265 0 0 1-3.341 8.077.903.903 0 0 1-1.359.104zm-11.213-8.294c-.229.144-.49.253-.762.313a2.375 2.375 0 0 1-.65.084c-.221 0-.44-.025-.644-.084a2.439 2.439 0 0 1-.762-.304 2.703 2.703 0 0 1-.922-.931 2.394 2.394 0 0 1-.313-.761 2.31 2.31 0 0 1-.085-.652c0-.22.024-.44.085-.643.059-.271.16-.533.304-.761a2.72 2.72 0 0 1 .931-.931c.229-.144.491-.246.762-.304.203-.059.423-.084.644-.084.228 0 .439.025.65.084.271.059.533.169.762.313.381.228.702.542.931.922.144.228.245.49.304.761.061.203.085.423.085.643 0 .229-.024.44-.085.652a2.394 2.394 0 0 1-.313.761c-.229.38-.541.694-.922.922zm-15.389 8.19a17.28 17.28 0 0 1-3.341-8.077.903.903 0 0 1 .887-1.036h10.423c.152.668.406 1.286.762 1.845l-7.372 7.372a.902.902 0 0 1-1.359-.104zm1.359-21.145l7.372 7.372a5.753 5.753 0 0 0-.762 1.845h-10.423a.903.903 0 0 1-.887-1.036 17.284 17.284 0 0 1 3.341-8.077.902.902 0 0 1 1.359-.104zm18.632 9.216a5.73 5.73 0 0 0-.762-1.845l7.373-7.373a.902.902 0 0 1 1.357.103 17.194 17.194 0 0 1 3.341 8.08.902.902 0 0 1-.887 1.035H476.96zm4.615-11.213l-7.373 7.372a5.82 5.82 0 0 0-1.844-.761V68.405c0-.55.49-.96 1.036-.886a17.28 17.28 0 0 1 8.076 3.341.903.903 0 0 1 .105 1.359zm-12.034-3.814V78.83a5.714 5.714 0 0 0-1.844.761l-7.373-7.372a.902.902 0 0 1 .104-1.358 17.264 17.264 0 0 1 8.076-3.341.902.902 0 0 1 1.037.885zm-9.218 29.057l7.374-7.373a5.714 5.714 0 0 0 1.844.761v10.424c0 .55-.49.96-1.035.886a17.19 17.19 0 0 1-8.079-3.341.9.9 0 0 1-.104-1.357zm12.035 3.813V90.851a5.843 5.843 0 0 0 1.844-.761l7.373 7.372a.902.902 0 0 1-.104 1.358 17.264 17.264 0 0 1-8.076 3.341.903.903 0 0 1-1.037-.886z"/><g opacity=".29"><path d="M307.458 283.856v-14.98l-9.91-1.665a38.51 38.51 0 0 0-.59-2.213l7.747-6.395-7.489-12.975-9.425 3.518a38.92 38.92 0 0 0-1.612-1.613l3.517-9.424-12.974-7.49-6.395 7.747a41.135 41.135 0 0 0-2.213-.59l-1.665-9.909h-14.98l-1.666 9.909c-.745.177-1.483.373-2.212.59l-6.395-7.747-12.973 7.49 3.516 9.424a40.22 40.22 0 0 0-1.613 1.613l-9.424-3.518-7.49 12.975 7.748 6.395a38.286 38.286 0 0 0-.589 2.213l-9.911 1.665v14.98l9.911 1.666c.175.744.372 1.482.589 2.212l-7.748 6.396 7.49 12.973 9.424-3.516c.522.552 1.061 1.09 1.613 1.612l-3.516 9.424 12.973 7.49 6.395-7.748c.729.219 1.468.415 2.212.59l1.666 9.911h14.98l1.665-9.911a37.709 37.709 0 0 0 2.213-.59l6.395 7.748 12.974-7.49-3.517-9.424a40.17 40.17 0 0 0 1.612-1.612l9.425 3.516 7.489-12.973-7.747-6.396c.218-.729.415-1.468.59-2.212l9.91-1.666zm-6.376 10.927l-5.112 8.854-8.987-3.354a37.29 37.29 0 0 1-4.107 4.106l3.354 8.988-8.854 5.111-6.099-7.39a36.194 36.194 0 0 1-5.618 1.498l-1.589 9.456h-10.223l-1.589-9.456a36.336 36.336 0 0 1-5.618-1.498l-6.099 7.39-8.854-5.111 3.354-8.988a37.195 37.195 0 0 1-4.106-4.106l-8.988 3.354-5.112-8.854 7.39-6.098a36.639 36.639 0 0 1-1.499-5.619l-9.456-1.589v-10.223l9.456-1.589c.354-1.93.855-3.807 1.499-5.618l-7.39-6.1 5.112-8.853 8.988 3.354a37.031 37.031 0 0 1 4.106-4.107l-3.354-8.987 8.854-5.112 6.099 7.389a36.708 36.708 0 0 1 5.618-1.498l1.589-9.456h10.223l1.589 9.456c1.929.355 3.807.856 5.618 1.498l6.099-7.389 8.854 5.112-3.354 8.987a37.213 37.213 0 0 1 4.107 4.107l8.987-3.354 5.112 8.853-7.389 6.1a36.563 36.563 0 0 1 1.498 5.618l9.455 1.589v10.223l-9.455 1.589a36.606 36.606 0 0 1-1.498 5.619l7.389 6.098z"/><path d="M258.958 253.805c-12.459 0-22.562 10.102-22.562 22.562 0 12.459 10.103 22.563 22.562 22.563 12.459 0 22.562-10.104 22.562-22.563 0-12.461-10.103-22.562-22.562-22.562zm0 42.311c-10.89 0-19.75-8.859-19.75-19.75 0-10.89 8.861-19.751 19.75-19.751 10.89 0 19.75 8.861 19.75 19.751 0 10.891-8.86 19.75-19.75 19.75z"/></g><g opacity=".5"><path d="M476.119 371.68v-6.318l-4.181-.702a15.644 15.644 0 0 0-.248-.934l3.267-2.697-3.158-5.47-3.974 1.482a15.62 15.62 0 0 0-.682-.68l1.484-3.975-5.472-3.159-2.697 3.268a15.62 15.62 0 0 0-.933-.249l-.703-4.18h-6.317l-.702 4.18c-.313.074-.625.156-.934.249l-2.696-3.268-5.472 3.159 1.482 3.975c-.232.219-.46.446-.68.68l-3.975-1.482-3.159 5.47 3.268 2.697c-.092.308-.175.619-.248.934l-4.181.702v6.318l4.181.702c.073.314.156.625.248.934l-3.268 2.696 3.159 5.471 3.975-1.482c.22.233.447.461.68.68l-1.482 3.975 5.472 3.159 2.696-3.268c.309.093.62.175.934.249l.702 4.18h6.317l.703-4.18c.313-.074.625-.156.933-.249l2.697 3.268 5.472-3.159-1.484-3.975c.234-.219.461-.446.682-.68l3.974 1.482 3.158-5.471-3.267-2.696c.092-.309.175-.619.248-.934l4.181-.702zm-2.691 4.607l-2.154 3.734-3.792-1.414c-.53.621-1.109 1.2-1.731 1.731l1.415 3.791-3.733 2.155-2.572-3.116c-.765.271-1.556.482-2.369.632l-.671 3.988h-4.311l-.671-3.988a15.266 15.266 0 0 1-2.369-.632l-2.572 3.116-3.734-2.155 1.415-3.791a15.64 15.64 0 0 1-1.732-1.731l-3.79 1.414-2.156-3.734 3.117-2.571a15.655 15.655 0 0 1-.633-2.37l-3.987-.669v-4.313l3.987-.669c.15-.813.361-1.605.633-2.37l-3.117-2.572 2.156-3.733 3.79 1.414a15.64 15.64 0 0 1 1.732-1.731l-1.415-3.791 3.734-2.155 2.572 3.116a15.378 15.378 0 0 1 2.369-.632l.671-3.987h4.311l.671 3.987c.813.148 1.604.36 2.369.632l2.572-3.116 3.733 2.155-1.415 3.791c.622.531 1.201 1.11 1.731 1.731l3.792-1.414 2.154 3.733-3.115 2.572c.271.765.482 1.557.632 2.37l3.988.669v4.313l-3.988.669a15.421 15.421 0 0 1-.632 2.37l3.115 2.571z"/><path d="M455.664 359.005c-5.254 0-9.514 4.262-9.514 9.516s4.26 9.516 9.514 9.516c5.256 0 9.516-4.262 9.516-9.516s-4.261-9.516-9.516-9.516zm0 17.845c-4.592 0-8.329-3.736-8.329-8.329s3.737-8.329 8.329-8.329c4.593 0 8.33 3.736 8.33 8.329s-3.738 8.329-8.33 8.329z"/></g><g opacity=".27"><path d="M455.902 34.68v-9.279l-6.14-1.031a23.05 23.05 0 0 0-.365-1.371l4.8-3.96-4.64-8.036-5.838 2.178a24.79 24.79 0 0 0-.999-1l2.179-5.837-8.036-4.639-3.96 4.799c-.452-.135-.91-.257-1.371-.365L430.5 0h-9.278l-1.031 6.139c-.462.108-.919.23-1.371.365l-3.961-4.799-8.035 4.639L409 12.181c-.342.323-.676.657-.999 1l-5.838-2.178-4.64 8.036 4.8 3.96c-.135.453-.257.91-.365 1.371l-6.139 1.031v9.279l6.139 1.032c.108.461.23.918.365 1.37l-4.8 3.961 4.64 8.036 5.838-2.178c.323.342.657.676.999.999l-2.178 5.837 8.035 4.64 3.961-4.799c.452.135.909.257 1.371.366l1.031 6.138h9.278l1.032-6.138c.461-.108.919-.231 1.371-.366l3.96 4.799 8.036-4.64-2.177-5.837c.342-.323.677-.657.999-.999l5.838 2.178 4.64-8.036-4.8-3.961c.135-.452.258-.909.365-1.37l6.14-1.032zm-3.951 6.768l-3.165 5.484-5.568-2.078a22.87 22.87 0 0 1-2.543 2.543l2.077 5.567-5.483 3.167-3.777-4.577a22.715 22.715 0 0 1-3.479.928l-.984 5.857h-6.332l-.984-5.857a22.715 22.715 0 0 1-3.479-.928l-3.778 4.577-5.483-3.167 2.077-5.567a22.87 22.87 0 0 1-2.543-2.543l-5.567 2.078-3.166-5.484 4.576-3.777a22.812 22.812 0 0 1-.928-3.48l-5.857-.983v-6.333l5.857-.984c.22-1.195.53-2.357.928-3.479l-4.576-3.777 3.166-5.484 5.567 2.078a22.786 22.786 0 0 1 2.543-2.543l-2.077-5.567 5.483-3.167 3.778 4.577a22.715 22.715 0 0 1 3.479-.928l.984-5.857h6.332l.984 5.857c1.194.22 2.357.53 3.479.928l3.777-4.577 5.483 3.167-2.077 5.567a22.87 22.87 0 0 1 2.543 2.543l5.568-2.078 3.165 5.484-4.576 3.777c.398 1.122.709 2.285.928 3.479l5.857.984v6.333l-5.857.983a22.47 22.47 0 0 1-.928 3.48l4.576 3.777z"/><path d="M425.861 16.066c-7.717 0-13.975 6.257-13.975 13.975s6.258 13.975 13.975 13.975c7.718 0 13.975-6.258 13.975-13.975s-6.257-13.975-13.975-13.975zm0 26.208c-6.745 0-12.233-5.488-12.233-12.233s5.488-12.233 12.233-12.233 12.233 5.488 12.233 12.233-5.488 12.233-12.233 12.233z"/></g><path opacity=".27" d="M518.538 303.641v-10.43l-9.648-1.622a37.154 37.154 0 0 0-1.528-5.732l7.539-6.223-5.216-9.033-9.171 3.423a37.848 37.848 0 0 0-4.189-4.191l3.423-9.17-9.034-5.216-6.223 7.539a37.23 37.23 0 0 0-5.733-1.529l-1.62-9.648h-10.432l-1.621 9.648a37.144 37.144 0 0 0-5.731 1.529l-6.224-7.539-9.033 5.216 3.422 9.17a37.762 37.762 0 0 0-4.189 4.191l-9.172-3.423-5.215 9.033 7.539 6.223a37.329 37.329 0 0 0-1.528 5.732l-9.648 1.622v10.43l9.648 1.621a37.31 37.31 0 0 0 1.528 5.733l-7.539 6.223 5.215 9.033 9.172-3.423a37.574 37.574 0 0 0 4.189 4.189l-3.422 9.172 9.033 5.216 6.224-7.539a37.549 37.549 0 0 0 5.731 1.529l1.621 9.647h10.432l1.62-9.647a37.512 37.512 0 0 0 5.733-1.529l6.223 7.539 9.034-5.216-3.423-9.172a37.659 37.659 0 0 0 4.189-4.189l9.171 3.423 5.216-9.033-7.539-6.223a37.257 37.257 0 0 0 1.528-5.733l9.648-1.621zm-33.529-5.215c0 7.228-5.86 13.089-13.089 13.089s-13.089-5.861-13.089-13.089c0-7.229 5.86-13.09 13.089-13.09s13.089 5.861 13.089 13.09zM385.538 23.969v-3.947l-3.651-.613c-.137-.745-.33-1.47-.577-2.168l2.853-2.354-1.974-3.418-3.471 1.295a14.205 14.205 0 0 0-1.585-1.585l1.295-3.47-3.418-1.973-2.354 2.853c-.7-.248-1.424-.441-2.17-.579l-.612-3.65h-3.946l-.613 3.65a14.17 14.17 0 0 0-2.17.579l-2.354-2.853-3.419 1.973 1.295 3.47a14.377 14.377 0 0 0-1.585 1.585l-3.469-1.295-1.974 3.418 2.852 2.354a14.257 14.257 0 0 0-.578 2.168l-3.65.613v3.947l3.65.613c.137.745.331 1.47.578 2.169l-2.852 2.354 1.974 3.418 3.469-1.294a14.368 14.368 0 0 0 1.585 1.584l-1.295 3.47 3.419 1.973 2.354-2.853c.7.248 1.425.441 2.17.579l.613 3.65h3.946l.612-3.65c.746-.137 1.47-.331 2.17-.579l2.354 2.853 3.418-1.973-1.295-3.47a14.464 14.464 0 0 0 1.586-1.584l3.47 1.294 1.974-3.418-2.853-2.354c.247-.7.44-1.425.577-2.169l3.651-.613zm-12.687-1.973a4.952 4.952 0 1 1-9.904 0 4.952 4.952 0 0 1 9.904 0z"/><g opacity=".55"><path d="M520.359 225.189l-16.133 3.31v-7.305l16.133-3.311zm0 11.555l-16.133 3.31v-7.306l16.133-3.31z"/><path opacity=".65" d="M520.359 248.226l-16.133 3.309v-7.305l16.133-3.311z"/></g><g opacity=".27"><path d="M521.177 108.197l-.009.005-.008-.005v.011l-9.292 6.267v6.577l9.3-6.272 9.302 6.272v-6.577l-9.293-6.267z"/><path d="M521.177 118.534l-.009.006-.008-.006v.012l-9.292 6.266v6.578l9.3-6.272 9.302 6.272v-6.578l-9.293-6.266zm0-20.729v-.012l-.009.006-.008-.006v.012l-9.292 6.266v6.577l9.3-6.272 9.302 6.272v-6.577z"/></g><path d="M314.489 329.551l-18.475 3.791v-8.366l18.475-3.791zm0 15.93l-18.475 3.79v-8.365l18.475-3.791z"/><path opacity=".78" d="M302.976 36.489h-12.76l-6.381 11.051 6.381 11.049h12.76l6.379-11.049z"/><path opacity=".71" d="M399.747 323.408h-14.844l-7.422 12.857 7.422 12.854h14.844l7.421-12.854z"/><path opacity=".93" d="M424.94 337.437h-14.843l-7.422 12.854 7.422 12.854h14.843l7.423-12.854-7.423-12.854zm-1.371 23.334h-12.101l-6.049-10.479 6.049-10.479h12.101l6.05 10.479-6.05 10.479z"/><path opacity=".48" d="M399.383 351.912h-10.056l-5.029 8.709 5.029 8.709h10.056l5.027-8.709z"/><path opacity=".65" d="M250.265 75.066h-9.753l-4.877 8.446 4.877 8.447h9.753l4.877-8.447z"/><path d="M268.06 64.993h-9.753l-4.876 8.447 4.876 8.446h9.753l4.877-8.446z"/><path opacity=".63" d="M300.613 15.381h-9.518l-4.76 8.244 4.76 8.243h9.518l4.759-8.243z"/><path opacity=".48" d="M373.347 373.303v-5.962l-5.508-.924a21.366 21.366 0 0 0-.877-3.28l4.306-3.554-2.98-5.162-5.235 1.954a21.701 21.701 0 0 0-2.397-2.397l1.954-5.235-5.163-2.98-3.553 4.306a21.415 21.415 0 0 0-3.279-.877l-.926-5.508h-5.96l-.926 5.508a21.28 21.28 0 0 0-3.278.877l-3.555-4.306-5.161 2.98 1.953 5.235a21.606 21.606 0 0 0-2.396 2.397l-5.237-1.954-2.98 5.162 4.306 3.554a21.28 21.28 0 0 0-.876 3.28l-5.508.924v5.962l5.508.925c.206 1.126.501 2.222.876 3.278l-4.306 3.555 2.98 5.162 5.237-1.955c.734.86 1.536 1.662 2.396 2.397l-1.953 5.237 5.161 2.979 3.555-4.306c1.057.376 2.151.67 3.278.877l.926 5.508h5.96l.926-5.508a21.27 21.27 0 0 0 3.279-.877l3.553 4.306 5.163-2.979-1.954-5.237a21.701 21.701 0 0 0 2.397-2.397l5.235 1.955 2.98-5.162-4.306-3.555c.375-1.057.67-2.152.877-3.278l5.508-.925zm-26.639 7.105c-5.571 0-10.087-4.516-10.087-10.087 0-5.57 4.516-10.087 10.087-10.087 5.57 0 10.087 4.517 10.087 10.087 0 5.572-4.516 10.087-10.087 10.087z"/></g><g opacity=".93" fill="#CECEEA"><path d="M372.859 304.251c-62.798 0-113.887-51.089-113.887-113.886 0-62.798 51.089-113.887 113.887-113.887 62.797 0 113.887 51.089 113.887 113.887 0 62.797-51.09 113.886-113.887 113.886zm0-226.66c-62.184 0-112.774 50.59-112.774 112.774s50.591 112.773 112.774 112.773c62.185 0 112.774-50.59 112.774-112.773 0-62.184-50.59-112.774-112.774-112.774z"/><path d="M372.859 315.935c-69.24 0-125.571-56.329-125.571-125.569S303.619 64.794 372.859 64.794s125.57 56.331 125.57 125.571-56.33 125.57-125.57 125.57zm0-250.028c-68.626 0-124.458 55.832-124.458 124.458s55.833 124.457 124.458 124.457 124.457-55.831 124.457-124.457c0-68.626-55.831-124.458-124.457-124.458z"/><path d="M257.774 112.768l-.922-.623c23.851-35.305 61.782-57.604 104.065-61.178l.094 1.108c-41.948 3.547-79.576 25.668-103.237 60.693zm115.085 180.234c-43.684 0-82.657-27.709-96.981-68.951l1.05-.365c14.168 40.795 52.72 68.204 95.931 68.204v1.112zm39.24-7.769l-.426-1.028c38.095-15.773 62.71-52.608 62.71-93.84 0-18.502-5.023-36.611-14.529-52.368l.951-.574c9.611 15.93 14.69 34.237 14.69 52.942.001 41.684-24.884 78.922-63.396 94.868zm-140.765-94.868h-1.112c0-56.595 46.043-102.637 102.637-102.637 8.687 0 17.317 1.087 25.65 3.231l-.277 1.078a101.881 101.881 0 0 0-25.373-3.196c-55.982-.001-101.525 45.543-101.525 101.524z"/><circle cx="255.255" cy="115.59" r="4.554"/><circle cx="360.926" cy="51.632" r="4.554"/><circle cx="474.279" cy="185.667" r="4.554"/><circle cx="350.533" cy="313.862" r="4.554"/><circle cx="249.219" cy="171.207" r="3.688"/><circle cx="271.172" cy="190.395" r="3.688"/><circle cx="375.572" cy="76.949" r="3.449"/></g><path fill="#CECEEA" d="M449.725 196.607v-17.199l-15.892-2.67a61.688 61.688 0 0 0-2.531-9.46l12.425-10.256-8.6-14.896-15.11 5.639a62.306 62.306 0 0 0-6.916-6.917l5.639-15.109-14.896-8.6-10.255 12.424a61.417 61.417 0 0 0-9.461-2.53l-2.67-15.893h-17.199l-2.67 15.893a61.645 61.645 0 0 0-9.461 2.53l-10.255-12.424-14.896 8.6 5.639 15.109a62.4 62.4 0 0 0-6.917 6.917l-15.109-5.639-8.6 14.896 12.424 10.256a61.717 61.717 0 0 0-2.53 9.46l-15.893 2.67v17.199l15.893 2.67a61.875 61.875 0 0 0 2.53 9.461l-12.424 10.255 8.6 14.896 15.109-5.639a62.496 62.496 0 0 0 6.917 6.918l-5.639 15.108 14.896 8.6 10.255-12.425a61.648 61.648 0 0 0 9.461 2.531l2.67 15.893h17.199l2.67-15.893a61.762 61.762 0 0 0 9.461-2.531l10.255 12.425 14.896-8.6-5.639-15.108a62.4 62.4 0 0 0 6.916-6.918l15.11 5.639 8.6-14.896-12.425-10.255a61.648 61.648 0 0 0 2.531-9.461l15.892-2.67zm-31.632-8.599c0 24.979-20.255 45.235-45.234 45.235s-45.234-20.256-45.234-45.235 20.255-45.234 45.234-45.234 45.234 20.254 45.234 45.234z"/><path opacity=".2" fill="#CECEEA" d="M372.606 55.525c-73.411 0-132.923 59.512-132.923 132.923s59.512 132.923 132.923 132.923 132.923-59.512 132.923-132.923S446.017 55.525 372.606 55.525zm0 248.575c-63.873 0-115.652-51.779-115.652-115.651 0-63.873 51.779-115.652 115.652-115.652s115.651 51.779 115.651 115.652c0 63.871-51.778 115.651-115.651 115.651z"/><path opacity=".17" fill="#CECEEA" d="M372.606 82.357c-58.592 0-106.09 47.499-106.09 106.091 0 58.591 47.499 106.09 106.09 106.09s106.09-47.499 106.09-106.09c0-58.592-47.499-106.091-106.09-106.091zm0 198.396c-50.979 0-92.306-41.326-92.306-92.305 0-50.979 41.326-92.306 92.306-92.306 50.979 0 92.306 41.327 92.306 92.306s-41.328 92.305-92.306 92.305z"/><path fill="#CECEEA" d="M372.862 172.319c-8.665 0-15.695 7.029-15.695 15.684 0 8.665 7.03 15.694 15.695 15.694 8.664 0 15.684-7.029 15.684-15.694-.001-8.654-7.02-15.684-15.684-15.684zm0 28.287c-6.957 0-12.603-5.646-12.603-12.603 0-6.949 5.646-12.593 12.603-12.593 6.958 0 12.593 5.644 12.593 12.593 0 6.958-5.635 12.603-12.593 12.603z"/><path fill="#CECEEA" d="M372.862 172.319c-8.665 0-15.695 7.029-15.695 15.684 0 8.665 7.03 15.694 15.695 15.694 8.664 0 15.684-7.029 15.684-15.694-.001-8.654-7.02-15.684-15.684-15.684zm0 28.287c-6.957 0-12.603-5.646-12.603-12.603 0-6.949 5.646-12.593 12.603-12.593 6.958 0 12.593 5.644 12.593 12.593 0 6.958-5.635 12.603-12.593 12.603z"/><path fill="#CECEEA" d="M372.862 172.319c-8.665 0-15.695 7.029-15.695 15.684 0 8.665 7.03 15.694 15.695 15.694 8.664 0 15.684-7.029 15.684-15.694-.001-8.654-7.02-15.684-15.684-15.684zm0 28.287c-6.957 0-12.603-5.646-12.603-12.603 0-6.949 5.646-12.593 12.603-12.593 6.958 0 12.593 5.644 12.593 12.593 0 6.958-5.635 12.603-12.593 12.603z"/><path fill="#CECEEA" d="M372.862 166.39c-11.946 0-21.624 9.678-21.624 21.613 0 11.946 9.678 21.624 21.624 21.624 11.935 0 21.623-9.678 21.623-21.624 0-11.935-9.689-21.613-21.623-21.613zm0 37.307c-8.665 0-15.695-7.029-15.695-15.694 0-8.654 7.03-15.684 15.695-15.684 8.664 0 15.684 7.029 15.684 15.684-.001 8.665-7.02 15.694-15.684 15.694z"/><path fill="#CECEEA" d="M372.862 170.65c-9.593 0-17.362 7.77-17.362 17.354 0 9.593 7.77 17.362 17.362 17.362 9.583 0 17.362-7.77 17.362-17.362 0-9.584-7.779-17.354-17.362-17.354zm0 29.956c-6.957 0-12.603-5.646-12.603-12.603 0-6.949 5.646-12.593 12.603-12.593 6.958 0 12.593 5.644 12.593 12.593 0 6.958-5.635 12.603-12.593 12.603z"/><path fill="#CECEEA" d="M372.861 176.488c-6.362 0-11.525 5.162-11.525 11.517 0 6.362 5.163 11.523 11.525 11.523 6.363 0 11.517-5.161 11.517-11.523-.001-6.355-5.154-11.517-11.517-11.517z"/><path fill="#CECEEA" d="M372.861 177.788c-5.646 0-10.224 4.58-10.224 10.217 0 5.646 4.578 10.224 10.224 10.224 5.645 0 10.217-4.578 10.217-10.224 0-5.637-4.573-10.217-10.217-10.217z"/><path opacity=".51" fill="#CECEEA" d="M372.859 147.308c-22.476 0-40.701 18.225-40.701 40.7s18.226 40.701 40.701 40.701 40.701-18.226 40.701-40.701-18.226-40.7-40.701-40.7zm0 79.797c-21.591 0-39.098-17.507-39.098-39.098s17.507-39.098 39.098-39.098c21.59 0 39.098 17.507 39.098 39.098s-17.508 39.098-39.098 39.098z"/><path fill="#CECEEA" d="M372.859 149.944c-21.021 0-38.064 17.044-38.064 38.064 0 21.021 17.044 38.064 38.064 38.064s38.064-17.044 38.064-38.064-17.045-38.064-38.064-38.064zm0 75.535c-20.692 0-37.471-16.778-37.471-37.471 0-20.692 16.778-37.47 37.471-37.47s37.471 16.778 37.471 37.47-16.779 37.471-37.471 37.471z"/><path fill="#CECEEA" d="M372.859 158.273c-16.42 0-29.734 13.314-29.734 29.734s13.314 29.734 29.734 29.734 29.734-13.314 29.734-29.734-13.314-29.734-29.734-29.734zm0 58.836c-16.071 0-29.102-13.03-29.102-29.102 0-16.07 13.03-29.102 29.102-29.102s29.102 13.031 29.102 29.102c-.001 16.072-13.031 29.102-29.102 29.102z"/><path opacity=".43" fill="#CECEEA" d="M372.859 160.171c-15.372 0-27.837 12.464-27.837 27.836s12.465 27.836 27.837 27.836c15.371 0 27.836-12.464 27.836-27.836s-12.465-27.836-27.836-27.836zm0 55.081c-15.045 0-27.244-12.199-27.244-27.244 0-15.044 12.199-27.244 27.244-27.244s27.244 12.2 27.244 27.244c0 15.045-12.199 27.244-27.244 27.244z"/><path fill="#CECEEA" d="M372.859 162.939c-13.844 0-25.068 11.225-25.068 25.068 0 13.844 11.225 25.068 25.068 25.068 13.843 0 25.068-11.225 25.068-25.068 0-13.842-11.225-25.068-25.068-25.068zm0 49.604c-13.549 0-24.535-10.986-24.535-24.535s10.986-24.535 24.535-24.535 24.535 10.986 24.535 24.535-10.986 24.535-24.535 24.535z"/><path d="M371.438 151.368v4.631h2.842v-4.631h-2.842zm2.337 4.126h-1.832v-3.621h1.832v3.621zm.505 69.154v-4.632h-2.842v4.632h2.842zm-2.337-4.127h1.832v3.622h-1.832v-3.622zm-5.276-68.654l.604 4.591 2.818-.371-.605-4.592-2.817.372zm2.856 3.786l-1.816.239-.473-3.589 1.816-.24.473 3.59zm9.527 68.495l-.604-4.592-2.818.372.605 4.592 2.817-.372zm-2.855-3.785l1.816-.239.473 3.59-1.816.239-.473-3.59zm-14.193-67.379l1.199 4.474 2.745-.736-1.198-4.474-2.746.736zm3.326 3.381l-1.769.474-.938-3.497 1.77-.474.937 3.497zm18.386 66.667l-1.199-4.475-2.744.736 1.199 4.474 2.744-.735zm-3.324-3.382l1.768-.474.938 3.498-1.77.474-.936-3.498zm-22.866-64.949l1.773 4.279 2.625-1.088-1.772-4.279-2.626 1.088zm3.739 2.918l-1.692.701-1.386-3.345 1.691-.701 1.387 3.345zm26.931 63.695l-1.773-4.278-2.625 1.088 1.772 4.279 2.626-1.089zm-3.738-2.918l1.691-.7 1.386 3.346-1.692.7-1.385-3.346zm-31.148-61.409l2.316 4.011 2.46-1.421-2.314-4.011-2.462 1.421zm4.087 2.405l-1.586.917-1.811-3.136 1.586-.916 1.811 3.135zm35.015 59.637l-2.316-4.012-2.46 1.421 2.314 4.012 2.462-1.421zm-4.087-2.405l1.586-.917 1.811 3.137-1.586.915-1.811-3.135zm-38.897-56.82l2.819 3.675 2.256-1.73-2.82-3.674-2.255 1.729zm4.366 1.851l-1.453 1.115-2.205-2.873 1.453-1.115 2.205 2.873zm42.5 54.556l-2.82-3.675-2.255 1.73 2.82 3.675 2.255-1.73zm-4.366-1.851l1.452-1.115 2.205 2.873-1.454 1.115-2.203-2.873zm-45.98-51.256l3.275 3.275 2.009-2.009-3.274-3.275-2.01 2.009zm4.569 1.266l-1.294 1.294-2.561-2.56 1.295-1.295 2.56 2.561zm49.257 48.541l-3.275-3.274-2.01 2.009 3.275 3.275 2.01-2.01zm-4.57-1.265l1.295-1.295 2.562 2.561-1.296 1.296-2.561-2.562zm-52.277-44.816l3.675 2.819 1.729-2.254-3.674-2.819-1.73 2.254zm4.697.658l-1.115 1.454-2.873-2.205 1.115-1.453 2.873 2.204zm55.17 41.698l-3.675-2.819-1.73 2.255 3.675 2.819 1.73-2.255zm-4.696-.659l1.115-1.452 2.873 2.204-1.115 1.453-2.873-2.205zm-57.679-37.609l4.012 2.316 1.421-2.461-4.011-2.315-1.422 2.46zm4.743.04l-.916 1.586-3.136-1.81.915-1.586 3.137 1.81zm60.141 34.139l-4.012-2.314-1.421 2.46 4.011 2.316 1.422-2.462zm-4.743-.039l.916-1.586 3.136 1.811-.916 1.586-3.136-1.811zm-62.095-29.759l4.28 1.772 1.087-2.625-4.278-1.772-1.089 2.625zm4.707-.58l-.7 1.692-3.346-1.386.7-1.692 3.346 1.386zm64.084 25.998l-4.279-1.772-1.088 2.625 4.278 1.773 1.089-2.626zm-4.707.58l.7-1.692 3.346 1.385-.7 1.692-3.346-1.385zm-65.448-21.4l4.475 1.199.735-2.745-4.475-1.199-.735 2.745zm4.591-1.189l-.474 1.77-3.498-.937.474-1.77 3.498.937zm66.929 17.411l-4.475-1.199-.735 2.745 4.475 1.199.735-2.745zm-4.591 1.189l.474-1.769 3.498.937-.474 1.77-3.498-.938zm-67.682-12.673l4.592.604.372-2.818-4.592-.604-.372 2.818zm4.397-1.779l-.239 1.816-3.59-.472.239-1.816 3.59.472zm68.628 8.526l-4.591-.605-.372 2.818 4.592.604.371-2.817zm-4.396 1.778l.239-1.816 3.59.473-.239 1.816-3.59-.473zm-68.757-3.731h4.632v-2.842h-4.632v2.842zm4.127-2.337v1.832h-3.621v-1.832h3.621zm69.155-.505h-4.632v2.842h4.632v-2.842zm-4.127 2.337v-1.832h3.62v1.832h-3.62zm-68.655 5.275l4.592-.604-.372-2.818-4.592.605.372 2.817zm3.785-2.855l.239 1.816-3.59.473-.239-1.816 3.59-.473zM409 181.817l-4.592.604.372 2.818 4.591-.604-.371-2.818zm-3.786 2.855l-.239-1.816 3.59-.473.239 1.816-3.59.473zm-67.38 14.192l4.475-1.199-.735-2.745-4.475 1.199.735 2.745zm3.382-3.325l.474 1.769-3.498.938-.474-1.77 3.498-.937zm66.667-18.387l-4.475 1.199.735 2.745 4.475-1.199-.735-2.745zm-3.382 3.326l-.474-1.77 3.498-.937.474 1.77-3.498.937zm-64.949 22.865l4.278-1.773-1.087-2.625-4.28 1.772 1.089 2.626zm2.918-3.739l.7 1.692-3.346 1.385-.7-1.692 3.346-1.385zm63.696-26.93l-4.278 1.772 1.088 2.625 4.279-1.772-1.089-2.625zm-2.918 3.738l-.7-1.692 3.346-1.386.7 1.692-3.346 1.386zm-61.41 31.147l4.011-2.316-1.421-2.46-4.012 2.314 1.422 2.462zm2.406-4.087l.916 1.586-3.137 1.811-.915-1.586 3.136-1.811zm59.635-35.014l-4.011 2.315 1.421 2.461 4.012-2.316-1.422-2.46zm-2.405 4.086l-.916-1.586 3.136-1.811.916 1.586-3.136 1.811zm-56.818 38.896l3.674-2.819-1.729-2.255-3.675 2.819 1.73 2.255zm1.85-4.365l1.115 1.452-2.873 2.205-1.115-1.453 2.873-2.204zm54.556-42.499l-3.675 2.819 1.73 2.254 3.675-2.819-1.73-2.254zm-1.851 4.365l-1.115-1.454 2.873-2.204 1.115 1.453-2.873 2.205zm-51.255 45.98l3.274-3.275-2.009-2.009-3.275 3.274 2.01 2.01zm1.265-4.57l1.294 1.295-2.56 2.562-1.295-1.296 2.561-2.561zm48.541-49.256l-3.275 3.275 2.01 2.009 3.275-3.275-2.01-2.009zm-1.265 4.57l-1.295-1.294 2.561-2.561 1.296 1.295-2.562 2.56zm-44.816 52.276l2.82-3.675-2.256-1.73-2.819 3.675 2.255 1.73zm.658-4.696l1.453 1.115-2.205 2.873-1.453-1.115 2.205-2.873zm41.698-55.17l-2.82 3.674 2.255 1.73 2.82-3.675-2.255-1.729zm-.659 4.696l-1.452-1.115 2.203-2.873 1.454 1.115-2.205 2.873zM355.77 220.45l2.314-4.012-2.46-1.421-2.316 4.012 2.462 1.421zm.039-4.743l1.586.917-1.811 3.135-1.586-.915 1.811-3.137zm34.139-60.141l-2.314 4.011 2.46 1.421 2.316-4.011-2.462-1.421zm-.039 4.743l-1.586-.917 1.811-3.136 1.586.916-1.811 3.137zm-29.759 62.094l1.772-4.279-2.625-1.088-1.773 4.278 2.626 1.089zm-.579-4.707l1.692.7-1.387 3.346-1.691-.7 1.386-3.346zm25.997-64.083l-1.772 4.279 2.625 1.088 1.773-4.279-2.626-1.088zm.579 4.706l-1.691-.701 1.385-3.346 1.692.701-1.386 3.346zm-21.398 65.449l1.198-4.474-2.745-.736-1.199 4.475 2.746.735zm-1.19-4.591l1.769.474-.937 3.498-1.77-.474.938-3.498zm17.411-66.928l-1.199 4.474 2.744.736 1.199-4.474-2.744-.736zm1.188 4.59l-1.768-.474.936-3.498 1.77.474-.938 3.498zm-12.673 67.682l.605-4.592-2.818-.372-.604 4.592 2.817.372zm-1.778-4.397l1.816.239-.473 3.59-1.816-.239.473-3.59zm8.526-68.628l-.605 4.592 2.818.371.604-4.591-2.817-.372zm1.778 4.396l-1.816-.239.473-3.59 1.816.24-.473 3.589z" opacity=".91" fill="#CECEEA"/><path opacity=".38" fill="#CECEEA" d="M374.241 152.738c18.715.556 33.789 15.626 34.345 34.342.016.356.02.717.02 1.079 0 .36-.004.721-.02 1.078-.556 18.715-15.63 33.785-34.345 34.341-.357.017-.714.02-1.075.02s-.722-.003-1.079-.02c-18.72-.556-33.789-15.626-34.345-34.341h-5.888c.561 21.967 18.262 39.674 40.232 40.234.357.011.718.015 1.079.015s.718-.004 1.075-.015c21.966-.561 39.673-18.268 40.233-40.234a35.086 35.086 0 0 0 0-2.157c-.561-21.967-18.268-39.674-40.233-40.233v5.891z"/><path fill="#CECEEA" d="M423.417 173.528a50.924 50.924 0 0 0-5.133-12.364 51.436 51.436 0 0 0-8.146-10.625 51.434 51.434 0 0 0-10.624-8.145 50.963 50.963 0 0 0-12.364-5.133 51.336 51.336 0 0 0-26.549 0 50.98 50.98 0 0 0-12.364 5.133 51.44 51.44 0 0 0-10.625 8.145 51.536 51.536 0 0 0-8.145 10.625 50.924 50.924 0 0 0-5.133 12.364l3.345.896a47.539 47.539 0 0 1 4.786-11.53 48 48 0 0 1 7.595-9.907 47.999 47.999 0 0 1 9.908-7.595 47.492 47.492 0 0 1 11.529-4.786 47.896 47.896 0 0 1 24.757 0 47.492 47.492 0 0 1 11.529 4.786 47.999 47.999 0 0 1 9.908 7.595 48.009 48.009 0 0 1 7.595 9.907 47.539 47.539 0 0 1 4.786 11.53 47.853 47.853 0 0 1 1.627 12.379c0 4.282-.571 8.428-1.627 12.377a47.522 47.522 0 0 1-4.786 11.53 48.009 48.009 0 0 1-7.595 9.907 48.073 48.073 0 0 1-9.908 7.596 47.529 47.529 0 0 1-11.529 4.785 47.81 47.81 0 0 1-12.379 1.628v3.462c4.593 0 9.04-.613 13.275-1.745a50.96 50.96 0 0 0 12.364-5.132 51.438 51.438 0 0 0 10.624-8.146 51.465 51.465 0 0 0 8.146-10.624 50.947 50.947 0 0 0 5.133-12.365 51.334 51.334 0 0 0 1.744-13.274 51.29 51.29 0 0 0-1.744-13.274zM289.772 214.51l-1.587-5.923 5.922-1.586 1.586 5.922zm4.128 10.958l-2.343-5.663 5.663-2.345 2.344 5.663zm5.542 10.27l-3.064-5.31 5.31-3.064 3.063 5.31zm6.776 9.487l-3.732-4.864 4.864-3.731 3.732 4.864zm8.044 8.515l-4.334-4.337 4.335-4.333 4.334 4.337zm9.009 7.405l-4.863-3.732 3.732-4.863 4.863 3.732zm9.945 6.127l-5.308-3.065 3.065-5.309 5.309 3.066zm10.637 4.83l-5.664-2.346 2.346-5.665 5.664 2.346zm11.177 3.349l-5.922-1.586 1.586-5.923 5.923 1.586zm17.086-176.24h6.13v6.13h-6.13zm-11.635 1.147l6.078-.801.8 6.077-6.077.8zm75.642 32.086l-4.924-4.924 4.924-4.925 4.925 4.925-4.925 4.924zm-3.745-4.924l3.744 3.745 3.745-3.745-3.745-3.745-3.744 3.745zm-4.088-2.551l-5.525-4.24 4.24-5.526 5.524 4.24-4.239 5.526zm-4.357-4.394l4.202 3.224 3.225-4.202-4.201-3.224-3.226 4.202zm-4.385-1.995l-6.032-3.482 3.481-6.032 6.033 3.482-3.482 6.032zm-4.891-3.788l4.585 2.648 2.648-4.587-4.586-2.647-2.647 4.586zm-4.611-1.405l-6.435-2.665 2.666-6.435 6.435 2.665-2.666 6.435zm-5.343-3.117l4.893 2.027 2.026-4.893-4.893-2.027-2.026 4.893zm-4.753-.792l-6.727-1.802 1.801-6.728 6.729 1.803-1.803 6.727zm-5.706-2.392l5.115 1.37 1.372-5.115-5.116-1.37-1.371 5.115zm-4.816-.165l-6.905-.909.908-6.905 6.906.91-.909 6.904zm-5.969-1.627l5.25.691.692-5.25-5.252-.691-.69 5.25z"/><g opacity=".66"><path opacity=".93" d="M372.085 243.354v-15.851a38.917 38.917 0 0 1-19.101-5.202l-7.927 13.729c7.965 4.597 17.189 7.251 27.028 7.324zm19.931-21.053a38.914 38.914 0 0 1-19.101 5.202v15.851c9.839-.072 19.063-2.727 27.027-7.323l-7.926-13.73zm-38.411-68.191a38.923 38.923 0 0 1 18.48-4.854v-15.851c-9.585.071-18.586 2.594-26.408 6.975l7.928 13.73zm-36.07 33.143h15.854a38.903 38.903 0 0 1 5.323-18.613l-13.729-7.927a54.68 54.68 0 0 0-7.448 26.54zm55.381-53.848v15.851a38.926 38.926 0 0 1 18.48 4.854l7.927-13.73c-7.822-4.381-16.822-6.904-26.407-6.975zm47.102 27.308l-13.729 7.927a38.917 38.917 0 0 1 5.322 18.613h15.854a54.68 54.68 0 0 0-7.447-26.54zm-13.526 47.06a39.323 39.323 0 0 1-13.761 14.104l7.927 13.729a55.242 55.242 0 0 0 19.563-19.907l-13.729-7.926zm5.134-19.689c0 .099.003.196.003.295a38.96 38.96 0 0 1-4.731 18.669l13.729 7.928c4.366-7.882 6.854-16.948 6.854-26.597 0-.099-.003-.196-.003-.295h-15.852zm-59.356 33.794a39.307 39.307 0 0 1-13.761-14.104l-13.73 7.927a55.26 55.26 0 0 0 19.564 19.907l7.927-13.73zm39.85-67.36a39.337 39.337 0 0 1 13.744 13.409l13.732-7.929a55.24 55.24 0 0 0-19.551-19.208l-7.925 13.728zm-52.983 13.409a39.346 39.346 0 0 1 13.744-13.409l-7.927-13.729a55.246 55.246 0 0 0-19.55 19.208l13.733 7.93zm-1.033 39.121a38.95 38.95 0 0 1-4.732-18.669c0-.099.003-.196.004-.295h-15.852c0 .099-.003.196-.003.295 0 9.648 2.487 18.715 6.853 26.597l13.73-7.928z" fill="#CECEEA"/></g><g opacity=".66"><path opacity=".93" d="M371.635 302.881v-33.015c-14.478-.15-28.051-4.07-39.782-10.835l-16.509 28.596c16.587 9.573 35.799 15.102 56.291 15.254zm41.513-43.85c-11.73 6.765-25.306 10.685-39.783 10.835v33.015c20.492-.152 39.705-5.681 56.292-15.254l-16.509-28.596zm-80.004-142.029c11.432-6.316 24.541-9.964 38.491-10.11V73.878c-19.964.147-38.71 5.404-55.001 14.527l16.51 28.597zm-75.126 69.032h33.021a81.051 81.051 0 0 1 11.086-38.769l-28.596-16.509c-9.508 16.295-15.106 35.148-15.511 55.278zM373.365 73.878v33.014c13.951.146 27.06 3.793 38.491 10.11l16.511-28.597c-16.291-9.123-35.037-14.379-55.002-14.527zm98.107 56.878l-28.596 16.509c6.697 11.438 10.687 24.653 11.087 38.768h33.02c-.405-20.129-6.003-38.982-15.511-55.277zm-28.174 98.015a81.902 81.902 0 0 1-28.661 29.38l16.509 28.595a115.08 115.08 0 0 0 40.749-41.463l-28.597-16.512zm10.692-41.007c.003.205.009.409.009.615 0 14.08-3.571 27.327-9.856 38.883l28.597 16.512c9.091-16.417 14.273-35.3 14.273-55.395 0-.206-.007-.41-.008-.615H453.99zm-123.625 70.387a81.87 81.87 0 0 1-28.661-29.38l-28.597 16.512a115.08 115.08 0 0 0 40.749 41.463l16.509-28.595zm82.997-140.297a81.883 81.883 0 0 1 28.626 27.928l28.604-16.514a115.084 115.084 0 0 0-40.72-40.008l-16.51 28.594zm-110.35 27.927a81.917 81.917 0 0 1 28.626-27.928l-16.509-28.595a115.067 115.067 0 0 0-40.72 40.008l28.603 16.515zm-2.153 81.481c-6.285-11.556-9.855-24.803-9.855-38.883 0-.206.005-.41.007-.615h-33.014c-.001.205-.008.409-.008.615 0 20.095 5.183 38.978 14.274 55.395l28.596-16.512z" fill="#CECEEA"/></g><g opacity=".66"><path opacity=".93" d="M372.25 221.402v-9.521a23.394 23.394 0 0 1-11.473-3.124l-4.762 8.246a32.855 32.855 0 0 0 16.235 4.399zm11.973-12.645a23.4 23.4 0 0 1-11.473 3.124v9.521a32.853 32.853 0 0 0 16.234-4.399l-4.761-8.246zm-23.073-40.963a23.378 23.378 0 0 1 11.101-2.916v-9.522a32.87 32.87 0 0 0-15.862 4.19l4.761 8.248zm-21.667 19.909h9.522a23.381 23.381 0 0 1 3.197-11.181l-8.247-4.762a32.87 32.87 0 0 0-4.472 15.943zm33.267-32.347v9.522a23.39 23.39 0 0 1 11.101 2.916l4.762-8.248a32.874 32.874 0 0 0-15.863-4.19zm28.294 16.404l-8.246 4.762a23.38 23.38 0 0 1 3.196 11.181h9.523a32.828 32.828 0 0 0-4.473-15.943zm-8.126 28.269a23.614 23.614 0 0 1-8.265 8.473l4.761 8.247a33.192 33.192 0 0 0 11.752-11.958l-8.248-4.762zm3.084-11.828l.002.178c0 4.061-1.029 7.881-2.842 11.215l8.247 4.761a32.87 32.87 0 0 0 4.117-15.976l-.002-.178h-9.522zm-35.654 20.301a23.612 23.612 0 0 1-8.267-8.473l-8.247 4.762a33.184 33.184 0 0 0 11.752 11.958l4.762-8.247zm23.937-40.463a23.614 23.614 0 0 1 8.257 8.055l8.249-4.763a33.196 33.196 0 0 0-11.743-11.539l-4.763 8.247zm-31.825 8.055a23.608 23.608 0 0 1 8.255-8.055l-4.761-8.247a33.185 33.185 0 0 0-11.745 11.539l8.251 4.763zm-.622 23.5a23.403 23.403 0 0 1-2.84-11.393h-9.522l-.002.178a32.872 32.872 0 0 0 4.116 15.976l8.248-4.761z" fill="#CECEEA"/></g><g fill="#CECEEA"><path opacity=".93" d="M249.505 212.363v1.112h-29.266c.045-.3.067-.612.067-.924 0-.066 0-.123-.011-.188h29.21zm-43.47.189c0-.066 0-.123.011-.188H91.466a15.702 15.702 0 0 1-9.934-3.561l-16.795-22.246c-3.227-4.271-8.354-6.818-13.715-6.818H0v1.112h51.021c5.017 0 9.811 2.38 12.825 6.385l16.84 22.291.089.089a16.749 16.749 0 0 0 10.689 3.86H206.1a6.558 6.558 0 0 1-.065-.924z"/><path opacity=".93" d="M213.172 219.686c-3.936 0-7.137-3.201-7.137-7.137s3.202-7.138 7.137-7.138c3.936 0 7.138 3.202 7.138 7.138s-3.202 7.137-7.138 7.137zm0-13.163a6.031 6.031 0 0 0-6.025 6.025c0 3.321 2.703 6.024 6.025 6.024s6.025-2.703 6.025-6.024a6.03 6.03 0 0 0-6.025-6.025z"/><circle opacity=".93" cx="213.173" cy="212.549" r="3.476"/><circle opacity=".93" cx="41.875" cy="231.318" r="4.301"/><circle opacity=".93" cx="172.573" cy="202.397" r="4.301"/><circle opacity=".93" cx="177.77" cy="165.744" r="4.301"/><path opacity=".93" d="M63.333 126.853c-3.936 0-7.138-3.202-7.138-7.137a7.145 7.145 0 0 1 7.138-7.138c3.936 0 7.137 3.202 7.137 7.138 0 3.935-3.201 7.137-7.137 7.137zm0-13.163a6.032 6.032 0 0 0-6.025 6.026 6.032 6.032 0 0 0 6.025 6.025 6.031 6.031 0 0 0 6.025-6.025 6.032 6.032 0 0 0-6.025-6.026z"/><path d="M70.431 118.928c.034.267.045.523.045.79 0 .111 0 .211-.011.323m-14.26-.001c-.011-.111-.011-.211-.011-.323 0-.267.011-.522.044-.79"/><circle opacity=".93" cx="63.333" cy="119.716" r="3.476"/><circle opacity=".93" cx="128.185" cy="257.308" r="4.067"/><circle opacity=".93" cx="144.719" cy="257.308" r="4.067"/><circle opacity=".93" cx="160.466" cy="257.308" r="4.066"/><circle opacity=".93" cx="83.345" cy="327.013" r="4.493"/><circle opacity=".93" cx="269.844" cy="305.693" r="4.067"/><g opacity=".93"><path d="M171.311 274.991a7.482 7.482 0 1 0 0 14.964 7.482 7.482 0 0 0 0-14.964zm0 13.831a6.349 6.349 0 1 1 .001-12.697 6.349 6.349 0 0 1-.001 12.697z"/><circle cx="171.311" cy="282.473" r="3.51"/></g><g opacity=".93"><path d="M224.975 165.299l-.007.006-.008-.006v.011l-7.971 5.374v5.642l7.979-5.379 7.978 5.379v-5.642l-7.971-5.374z"/><path d="M224.975 174.167l-.007.005-.008-.005v.01l-7.971 5.374v5.642l7.979-5.38 7.978 5.38v-5.642l-7.971-5.374zm0-17.781v-.011l-.007.006-.008-.006v.011l-7.971 5.375v5.642l7.979-5.381 7.978 5.381v-5.642z"/></g><g opacity=".93"><path d="M60.416 215.756l-.005-.006.005-.007h-.009l-4.633-6.869h-4.862l4.636 6.876-4.636 6.876h4.862l4.633-6.87z"/><path d="M68.098 215.756h.009l-.004-.006.004-.007h-.009l-4.632-6.869h-4.863l4.637 6.876-4.637 6.876h4.863z"/></g><path opacity=".93" d="M247.847 192.341v1.112H136.926c-7.13 0-12.925-5.795-12.925-12.925v-19.565a6.08 6.08 0 0 0-6.073-6.073h-41.29c-7.62 0-13.815-6.196-13.815-13.815v-14.249c.167.011.345.022.512.022.2 0 .4-.011.601-.022v14.249c0 7.007 5.695 12.703 12.703 12.703h41.29c3.96 0 7.186 3.226 7.186 7.186v19.565c0 6.519 5.294 11.813 11.813 11.813h110.919zM63.936 126.825v14.249M51.3 79.996H0v1.112h51.3c6.351 0 11.523 5.172 11.523 11.523v19.967c.167-.012.345-.022.512-.022.2 0 .4.011.601.022V92.632c0-6.974-5.662-12.636-12.636-12.636zM24.86 263.529H0v1.112h24.86c9.076 0 16.462 7.386 16.462 16.463v20.989h1.112v-20.989c0-9.688-7.886-17.575-17.574-17.575zm90.243 98.575v12.646c0 9.21-7.486 16.696-16.696 16.696h-40.4c-9.199 0-16.685-7.486-16.685-16.696v-71.545h1.112v71.545c0 8.598 6.986 15.584 15.573 15.584h40.4c8.598 0 15.583-6.986 15.583-15.584v-13.492l1.113.846zm189.439-67.429v1.112H124.257c-5.05 0-9.154 4.105-9.154 9.155v55.761l-1.112-.847v-54.914c0-5.663 4.605-10.268 10.267-10.268h180.284z"/><path opacity=".93" d="M91.977 270.27l-18.464 25.606a15.033 15.033 0 0 1-12.158 6.218H0v1.112h61.355a16.144 16.144 0 0 0 13.059-6.685l18.42-25.528-.857-.723zm32.202-12.302h-12.881a17.758 17.758 0 0 0-14.382 7.364l-3.437 4.761-.846-.734 3.381-4.683a18.886 18.886 0 0 1 15.284-7.82h12.858c-.022.145-.033.3-.033.457.001.222.023.443.056.655zm16.474-.655c0 .223.022.443.055.655h-8.509c.033-.212.055-.433.055-.655 0-.157-.011-.313-.033-.457h8.465a3.052 3.052 0 0 0-.033.457zm15.75 0c0 .223.022.443.056.655h-7.731c.033-.212.056-.433.056-.655 0-.157-.011-.313-.033-.457h7.686a3.05 3.05 0 0 0-.034.457zm110.899-.458v1.112H164.479c.033-.212.056-.433.056-.655 0-.157-.011-.313-.033-.457h102.8zM0 230.905v1.112h37.64a3.694 3.694 0 0 1-.067-.701c0-.144.011-.277.022-.411H0zm258.036 10.011v1.112H157.471c-2.97 0-5.817-.935-8.22-2.681l-6.641-4.85a12.848 12.848 0 0 0-7.62-2.48H46.105c.044-.223.066-.467.066-.701 0-.144-.011-.277-.022-.411h88.841c2.992 0 5.862.935 8.275 2.691l6.641 4.851a12.76 12.76 0 0 0 7.563 2.469h100.567zM70.465 120.04h56.962c4.85 0 9.644 1.602 13.515 4.504l28.687 21.513a20.182 20.182 0 0 0 12.057 4.016h73.569v-1.112h-73.569a19.149 19.149 0 0 1-11.401-3.793l-28.675-21.512a23.772 23.772 0 0 0-14.182-4.727H70.431l.034 1.111zM0 118.928v1.112h56.205l.033-1.112zm265.833 186.125h-32.202a11.16 11.16 0 0 0-8.487 3.904l-47.608 55.649a20.495 20.495 0 0 1-15.605 7.186h-27.975c-2.714 0-5.395-.901-7.564-2.536l-21.757-16.483c-4.004-3.037-8.988-4.661-14.004-4.661-7.085.033-45.33.089-90.631.141v1.112c45.301-.052 83.546-.107 90.631-.141 4.783-.023 9.521 1.546 13.326 4.438l21.768 16.483a13.723 13.723 0 0 0 8.231 2.759h27.975c6.34 0 12.335-2.759 16.451-7.575l47.607-55.648a10.039 10.039 0 0 1 7.642-3.516h32.18a3.335 3.335 0 0 1-.034-.467c.001-.222.023-.434.056-.645z"/><path opacity=".93" d="M41.322 348.211c-12.096.016-26.843.031-41.322.047v1.112c14.479-.016 29.226-.031 41.322-.047h1.112v-1.112h-1.112zm283.176-43.158v1.112h-50.622c.022-.155.033-.312.033-.467a4.02 4.02 0 0 0-.056-.646h50.645zM0 203.187h75.893l-.834-1.113H0zm168.35 0H77.294l-.845-1.112h91.833c-.011.1-.011.211-.011.322 0 .267.022.533.079.79zm-57.091 78.743c-2.529 0-4.981-.904-6.905-2.548L71.961 251.7a19.302 19.302 0 0 0-12.528-4.624H0v1.112h59.434c4.325 0 8.517 1.548 11.805 4.357l32.393 27.681a11.747 11.747 0 0 0 7.627 2.815h52.971v-1.112h-52.971zm-32.363 44.446H0v1.112h78.874a6.64 6.64 0 0 1-.022-.478c0-.211.011-.434.044-.634zm141.321-11.68l-.927 1.112h-45.624a13.553 13.553 0 0 0-8.999 3.416l-4.149 3.681a18.117 18.117 0 0 1-12.058 4.583H87.817a6.64 6.64 0 0 0 .022-.478c0-.212-.012-.435-.045-.635h60.667c4.171 0 8.197-1.523 11.323-4.305l4.149-3.671a14.601 14.601 0 0 1 9.733-3.704h46.551zm-46.695-149.607H0v1.112h173.489a4.157 4.157 0 0 1 .033-1.112zM0 143.766h63.09a12.323 12.323 0 0 1-.178-1.112H0v1.112z"/><ellipse cx="117.698" cy="326.846" rx="28.443" ry="2.322"/><ellipse cx="205.781" cy="241.475" rx="46.913" ry="2.322"/><ellipse cx="66.184" cy="165.465" rx="46.913" ry="2.322"/><ellipse cx="217.09" cy="149.708" rx="46.914" ry="2.323"/><ellipse cx="73.863" cy="391.196" rx="36.053" ry="2.022"/><ellipse cx="211.854" cy="295.254" rx="29.627" ry="1.842"/><path d="M66.753 247.424c0 1.017-13.265 1.843-29.627 1.843-16.363 0-30.717-.826-30.717-1.843 0-1.018 14.354-1.842 30.717-1.842 16.362 0 29.627.824 29.627 1.842z"/></g><g fill="#CECEEA"><circle cx="172.902" cy="202.021" r="13.204"/><circle cx="176.981" cy="166.427" r="13.204"/><circle cx="102.953" cy="155.078" r="11.222"/><circle cx="466.69" cy="273.641" r="14.345"/><circle cx="271.021" cy="188.991" r="12.012"/><circle cx="170.306" cy="370.869" r="13.204"/><circle cx="41.091" cy="231.643" r="13.204"/></g></svg>